<?xml version="1.0"?>
<svg xmlns="http://www.w3.org/2000/svg" width="125" height="55" viewBox="0 0 125 55" fill="none">
<path d="M51.0472 6.24532C51.0472 6.10338 51.1185 6.03241 51.2612 6.03241H52.4742C52.6169 6.03241 52.6882 6.10338 52.7596 6.24532L56.6126 15.0453H56.6839L60.3943 6.24532C60.4656 6.10338 60.537 6.03241 60.6796 6.03241H61.8926C62.0354 6.03241 62.1067 6.10338 62.1067 6.24532V18.9485C62.1067 19.0905 62.0354 19.1614 61.8926 19.1614H60.6796C60.537 19.1614 60.4656 19.0905 60.4656 18.9485V9.79371H60.3943L57.3262 17.0324C57.2548 17.1744 57.1834 17.2453 56.9694 17.2453H56.1845C55.9704 17.2453 55.8991 17.1744 55.8277 17.0324L52.6169 9.79371H52.5456V18.9485C52.5456 19.0905 52.4742 19.1614 52.3315 19.1614H51.1185C50.9758 19.1614 50.9044 19.0905 50.9044 18.9485V6.24532H51.0472Z" fill="#FFFFFF" fill-opacity="0.9"/>
<path d="M70.1695 19.161C70.0267 19.161 69.9555 19.09 69.9555 18.9481V18.0965C69.456 18.8771 68.6711 19.3739 67.4581 19.3739C65.4602 19.3739 64.3186 17.9546 64.3186 15.8967V10.1484C64.3186 10.0065 64.39 9.93553 64.5327 9.93553H65.7457C65.8884 9.93553 65.9598 10.0065 65.9598 10.1484V15.5418C65.9598 17.0321 66.6019 17.8836 67.9576 17.8836C69.1705 17.8836 70.0267 17.0321 70.0267 15.6128V10.1484C70.0267 10.0065 70.0981 9.93553 70.2408 9.93553H71.4538C71.5965 9.93553 71.6679 10.0065 71.6679 10.1484V19.0191C71.6679 19.161 71.5965 19.232 71.4538 19.232H70.1695V19.161Z" fill="#FFFFFF" fill-opacity="0.9"/>
<path d="M73.5943 19.1618C73.4517 19.1618 73.3804 19.0909 73.3804 18.9489V17.9554C73.3804 17.8844 73.3804 17.8135 73.4517 17.7425L78.375 11.4264V11.3555H73.8084C73.6657 11.3555 73.5943 11.2845 73.5943 11.1426V10.0781C73.5943 9.93607 73.6657 9.86516 73.8084 9.86516H80.0874C80.2301 9.86516 80.3015 9.93607 80.3015 10.0781V11.1426C80.3015 11.2135 80.3015 11.2845 80.2301 11.3555L75.3069 17.6006V17.6715H80.0874C80.2301 17.6715 80.3015 17.7425 80.3015 17.8844V18.9489C80.3015 19.0909 80.2301 19.1618 80.0874 19.1618H73.5943Z" fill="#FFFFFF" fill-opacity="0.9"/>
<path d="M87.5079 13.6964C87.5793 13.6964 87.6506 13.6254 87.6506 13.5544C87.6506 13.1286 87.5793 12.7737 87.5079 12.4899C87.2226 11.5674 86.4377 11.0706 85.4388 11.0706C84.4398 11.0706 83.6549 11.5674 83.3696 12.4899C83.2982 12.7737 83.2268 13.1286 83.2268 13.5544C83.2268 13.6254 83.2982 13.6964 83.3696 13.6964H87.5079ZM81.8711 16.8187C81.6571 16.251 81.5857 15.5414 81.5857 14.477C81.5857 13.4124 81.6571 12.7028 81.8711 12.1351C82.3706 10.5029 83.7263 9.65135 85.4388 9.65135C87.1512 9.65135 88.5068 10.5739 89.0063 12.1351C89.2204 12.7028 89.2918 13.3415 89.2918 14.7608C89.2918 14.9027 89.2204 14.9737 89.0777 14.9737H83.3696C83.2982 14.9737 83.2268 15.0447 83.2268 15.1156C83.2268 15.6124 83.2982 15.8962 83.3696 16.251C83.7263 17.3155 84.5111 17.8833 85.6528 17.8833C86.723 17.8833 87.5079 17.4574 87.9361 16.8897C88.0074 16.8187 88.1501 16.7478 88.2215 16.8187L89.0063 17.5284C89.0777 17.5993 89.0777 17.6703 89.0063 17.8123C88.2928 18.7348 87.0798 19.3735 85.51 19.3735C83.6549 19.3735 82.3706 18.451 81.8711 16.8187Z" fill="#FFFFFF" fill-opacity="0.9"/>
<path d="M96.7125 19.161C96.5697 19.161 96.4984 19.09 96.4984 18.9481V18.0965C95.999 18.8771 95.2141 19.3739 94.0011 19.3739C92.0033 19.3739 90.8616 17.9546 90.8616 15.8967V10.1484C90.8616 10.0065 90.933 9.93553 91.0757 9.93553H92.2886C92.4313 9.93553 92.5027 10.0065 92.5027 10.1484V15.5418C92.5027 17.0321 93.1449 17.8836 94.5005 17.8836C95.7135 17.8836 96.5697 17.0321 96.5697 15.6128V10.1484C96.5697 10.0065 96.6411 9.93553 96.7838 9.93553H97.9968C98.1395 9.93553 98.2109 10.0065 98.2109 10.1484V19.0191C98.2109 19.161 98.1395 19.232 97.9968 19.232H96.7125V19.161Z" fill="#FFFFFF" fill-opacity="0.9"/>
<path d="M111.982 19.161C111.839 19.161 111.768 19.09 111.768 18.9481V13.5545C111.768 12.0642 111.125 11.2126 109.77 11.2126C108.557 11.2126 107.701 12.0642 107.701 13.4836V18.9481C107.701 19.09 107.63 19.161 107.486 19.161H106.274C106.131 19.161 106.06 19.09 106.06 18.9481V13.5545C106.06 12.0642 105.418 11.2126 104.062 11.2126C102.849 11.2126 101.993 12.0642 101.993 13.4836V18.9481C101.993 19.09 101.921 19.161 101.779 19.161H100.566C100.423 19.161 100.351 19.09 100.351 18.9481V10.0772C100.351 9.93517 100.423 9.86426 100.566 9.86426H101.779C101.921 9.86426 101.993 9.93517 101.993 10.0772V10.9288C102.421 10.2191 103.277 9.65135 104.49 9.65135C105.703 9.65135 106.63 10.1481 107.13 11.0707C107.772 10.2191 108.7 9.65135 110.055 9.65135C112.125 9.65135 113.266 10.9997 113.266 13.1287V18.9481C113.266 19.09 113.195 19.161 113.052 19.161H111.982Z" fill="#FFFFFF" fill-opacity="0.9"/>
<path d="M54.258 21.5744C54.1153 21.5744 54.1153 21.5035 54.1867 21.3615L55.8277 19.3035C55.8991 19.1616 55.9705 19.0906 56.1845 19.0906H57.4688C57.6115 19.0906 57.6115 19.1616 57.5402 19.3035L55.5423 21.3615C55.3996 21.5035 55.3283 21.5035 55.1856 21.5035H54.258V21.5744ZM50.4763 34.8454C50.4049 34.7744 50.4049 34.6325 50.4763 34.5615L51.3325 33.568C51.4039 33.4971 51.4752 33.4971 51.618 33.568C52.4742 34.2777 53.7585 34.9164 55.1856 34.9164C56.9694 34.9164 58.0397 33.9938 58.0397 32.6454C58.0397 31.5099 57.3974 30.8002 55.3996 30.5164L54.7575 30.4454C52.2602 30.0906 50.9758 28.8842 50.9758 26.826C50.9758 24.4842 52.6169 22.9939 55.1856 22.9939C56.6839 22.9939 58.111 23.4906 59.11 24.2003C59.1813 24.2713 59.2527 24.3422 59.1813 24.4842L58.5391 25.5486C58.2537 25.5486 58.1824 25.5486 58.0397 25.5486C56.9694 24.91 56.0418 24.5551 54.9715 24.5551C53.4017 24.5551 52.5455 25.4067 52.5455 26.6841C52.5455 27.7486 53.2591 28.5293 55.257 28.8132L55.8991 28.8842C58.3964 29.239 59.6807 30.3744 59.6807 32.5744C59.6807 34.8454 58.111 36.5486 55.0429 36.5486C53.1164 36.4776 51.4039 35.697 50.4763 34.8454Z" fill="#FFFFFF" fill-opacity="0.9"/>
<path d="M63.7478 36.3355C62.1781 36.3355 61.5359 35.5549 61.5359 33.9226V23.3483C61.5359 23.2064 61.6073 23.1354 61.7499 23.1354H62.9629C63.1056 23.1354 63.177 23.2064 63.177 23.3483V33.8517C63.177 34.6323 63.4624 34.8452 64.1046 34.8452H64.4614C64.6041 34.8452 64.6754 34.9162 64.6754 35.0581V36.1936C64.6754 36.3355 64.6041 36.4065 64.4614 36.4065H63.7478V36.3355Z" fill="#FFFFFF" fill-opacity="0.9"/>
<path d="M71.4538 33.2838V32.2902C71.4538 32.2193 71.3825 32.1483 71.3111 32.1483H69.5273C67.9576 32.1483 67.3154 32.6451 67.3154 33.6386C67.3154 34.5612 68.029 35.058 69.1706 35.058C70.5976 35.058 71.4538 34.4193 71.4538 33.2838ZM67.1014 28.8837C67.0301 28.9546 66.8874 28.9546 66.816 28.8837L66.3165 28.0321C66.2451 27.8901 66.2451 27.8191 66.3878 27.7482C67.1014 27.1804 68.1003 26.8256 69.456 26.8256C72.0247 26.8256 73.0236 27.6772 73.0236 29.9482V36.0515C73.0236 36.1935 73.0236 36.1935 72.9523 36.2644C71.6679 37.1161 71.3825 37.542 71.3825 37.9678C71.3825 38.3226 71.5966 38.4646 71.882 38.4646C72.0247 38.4646 72.1673 38.3936 72.3814 38.3226C72.4528 38.2516 72.5955 38.2516 72.5955 38.3936L72.8809 39.1033C72.9523 39.1742 72.8809 39.3162 72.8096 39.3871C72.5241 39.6 72.0247 39.8129 71.5252 39.8129C70.5976 39.8129 69.9555 39.2452 69.9555 38.3226C69.9555 37.542 70.3836 36.9032 71.4538 36.1935V35.3419C71.0258 36.0515 70.1695 36.5483 68.8139 36.5483C67.1014 36.5483 65.7457 35.6257 65.7457 33.7806C65.7457 31.8644 67.0301 30.9418 69.2419 30.9418H71.3111C71.3825 30.9418 71.4538 30.8708 71.4538 30.7998V30.0901C71.4538 28.8127 70.9544 28.245 69.3133 28.245C68.243 28.245 67.6008 28.5288 67.1014 28.8837Z" fill="#FFFFFF" fill-opacity="0.9"/>
<path d="M74.8074 35.0585C74.736 34.9875 74.736 34.8456 74.8074 34.7746L75.5923 33.9229C75.6636 33.8519 75.8063 33.8519 75.8777 33.9229C76.5912 34.4907 77.5901 34.9875 78.6604 34.9875C79.9448 34.9875 80.6583 34.4198 80.6583 33.5681C80.6583 32.8584 80.3015 32.4326 78.8745 32.2907L77.9469 32.2197C76.1631 32.0068 75.2356 31.1552 75.2356 29.5939C75.2356 27.8197 76.4485 26.7552 78.589 26.7552C79.8734 26.7552 81.015 27.181 81.7999 27.7487C81.8713 27.8197 81.8713 27.8906 81.8713 28.0326L81.2291 28.8842C81.1578 28.9552 81.0864 28.9552 80.9437 28.9552C80.3728 28.6003 79.4453 28.1745 78.5177 28.1745C77.376 28.1745 76.8053 28.6713 76.8053 29.452C76.8053 30.1617 77.2334 30.5875 78.589 30.7294L79.5166 30.8004C81.3717 30.9423 82.228 31.9358 82.228 33.4261C82.228 35.2714 80.9437 36.4778 78.589 36.4778C76.7339 36.4778 75.5209 35.7681 74.8074 35.0585Z" fill="#FFFFFF" fill-opacity="0.9"/>
<path d="M90.0768 36.2649C89.9341 36.2649 89.8627 36.1939 89.7914 36.052L87.2226 31.7227L85.6529 33.568V35.981C85.6529 36.1229 85.5816 36.1939 85.4389 36.1939H84.2258C84.0832 36.1939 84.0119 36.1229 84.0119 35.981V23.3483C84.0119 23.2064 84.0832 23.1354 84.2258 23.1354H85.4389C85.5816 23.1354 85.6529 23.2064 85.6529 23.3483V31.5098L89.2205 27.1807C89.3632 27.0388 89.4346 27.0388 89.5773 27.0388H91.0043C91.147 27.0388 91.147 27.1098 91.0757 27.2517L88.2216 30.5163L91.5751 36.052C91.6465 36.1229 91.5751 36.2649 91.4324 36.2649H90.0768Z" fill="#FFFFFF" fill-opacity="0.9"/>
<path d="M93.2875 36.2652C93.1448 36.2652 93.0734 36.1942 93.0734 36.0523V27.2521C93.0734 27.1102 93.1448 27.0392 93.2875 27.0392H94.5005C94.6432 27.0392 94.7146 27.1102 94.7146 27.2521V36.1233C94.7146 36.2652 94.6432 36.3362 94.5005 36.3362H93.2875V36.2652ZM93.2161 24.9102C93.0734 24.9102 93.0021 24.8392 93.0021 24.6973V23.2779C93.0021 23.1359 93.0734 23.065 93.2161 23.065H94.5005C94.6432 23.065 94.7146 23.1359 94.7146 23.2779V24.6973C94.7146 24.8392 94.6432 24.9102 94.5005 24.9102H93.2161Z" fill="#FFFFFF" fill-opacity="0.9"/>
<path d="M102.563 30.8708C102.634 30.8708 102.707 30.7998 102.707 30.7288C102.707 30.303 102.634 29.9481 102.563 29.6643C102.278 28.7417 101.493 28.2449 100.494 28.2449C99.4952 28.2449 98.7103 28.7417 98.4249 29.6643C98.3535 29.9481 98.2822 30.303 98.2822 30.7288C98.2822 30.7998 98.3535 30.8708 98.4249 30.8708H102.563ZM96.9266 33.9933C96.7125 33.4256 96.6411 32.7159 96.6411 31.6514C96.6411 30.5868 96.7125 29.8772 96.9266 29.3094C97.426 27.6772 98.7817 26.8256 100.494 26.8256C102.206 26.8256 103.562 27.7482 104.062 29.3094C104.276 29.8772 104.347 30.5159 104.347 31.9353C104.347 32.0772 104.276 32.1482 104.133 32.1482H98.4249C98.3535 32.1482 98.2822 32.2192 98.2822 32.2901C98.2822 32.7869 98.3535 33.0707 98.4249 33.4256C98.7817 34.4901 99.5666 35.0578 100.708 35.0578C101.778 35.0578 102.563 34.632 102.991 34.0643C103.062 33.9933 103.206 33.9223 103.277 33.9933L104.062 34.703C104.133 34.7739 104.133 34.8449 104.062 34.9868C103.348 35.9095 102.135 36.5482 100.565 36.5482C98.7103 36.4772 97.426 35.5546 96.9266 33.9933Z" fill="#FFFFFF" fill-opacity="0.9"/>
<path d="M41.9855 0H11.875V30.587H17.9399V6.03225H23.9335V15.0451H29.9984V6.03225H35.992V24.2709H41.9855V0Z" fill="#FFFFFF" fill-opacity="0.9"/>
<path d="M29.9985 36.4064V30.5869H35.6353V24.5546H23.9336V42.4387H42.057V48.9677H23.9336V55H48.0505V36.4064H29.9985Z" fill="#FFFFFF" fill-opacity="0.9"/>
<path d="M36.7055 30.1616L41.5574 25.336H36.7055V30.1616Z" fill="#FFFFFF" fill-opacity="0.9"/>
</svg>
