<?xml version="1.0"?>
<svg xmlns="http://www.w3.org/2000/svg" width="125" height="55" viewBox="0 0 125 55" fill="none">
<path d="M95.8022 32.6259H93.46L91.7306 36.3072L90.0455 32.6259H87.7033L90.6147 38.1039L87.6814 43.2752H90.1329L95.8022 32.6259ZM83.1292 34.357C83.8732 34.357 84.3113 34.7514 84.6396 35.2773V37.1617C84.3113 37.6876 83.8732 38.082 83.1292 38.082C82.1663 38.082 81.4873 37.3809 81.4873 36.2195C81.5091 35.0582 82.1663 34.357 83.1292 34.357ZM82.6038 32.4945C80.6559 32.4945 79.3204 34.0721 79.3204 36.2195C79.3204 38.3669 80.6559 39.9446 82.6038 39.9446C83.6541 39.9446 84.2888 39.5502 84.6171 39.1558V39.7254C84.5953 40.8211 83.9387 41.588 82.8228 41.588C81.8155 41.588 81.1808 41.1059 80.6341 40.4704L79.2549 41.8947C80.0868 42.815 81.1808 43.4505 82.8447 43.4505C85.2081 43.4505 86.7621 42.0262 86.7621 39.6816V32.6259H84.8362L84.7269 33.4586C84.3768 32.9327 83.6541 32.4945 82.6038 32.4945ZM74.4836 34.357C75.4903 34.357 76.2124 35.1677 76.2124 36.3291C76.2124 37.4466 75.5121 38.2573 74.4836 38.2573C73.4763 38.2573 72.7979 37.4685 72.7979 36.3291C72.7979 35.1677 73.4763 34.357 74.4836 34.357ZM74.4836 32.4945C72.2512 32.4945 70.6311 34.1379 70.6311 36.3291C70.6311 38.5203 72.2731 40.1198 74.4836 40.1198C76.716 40.1198 78.3574 38.5203 78.3574 36.3291C78.3574 34.116 76.716 32.4945 74.4836 32.4945ZM69.2961 28.9666H67.1511V39.9665H69.2961V28.9666ZM61.9418 34.357C62.9484 34.357 63.6711 35.1677 63.6711 36.3291C63.6711 37.4466 62.9709 38.2573 61.9418 38.2573C60.9351 38.2573 60.2566 37.4685 60.2566 36.3291C60.2566 35.1677 60.9351 34.357 61.9418 34.357ZM61.9418 32.4945C59.7094 32.4945 58.0897 34.1379 58.0897 36.3291C58.0897 38.5203 59.7313 40.1198 61.9418 40.1198C64.1742 40.1198 65.8161 38.5203 65.8161 36.3291C65.8161 34.116 64.1742 32.4945 61.9418 32.4945ZM54.1061 32.4945C53.0993 32.4945 52.3989 32.9108 52.0268 33.4586L51.9174 32.6479H50.0132V39.9884H52.1581V35.3649C52.4427 34.9267 52.8586 34.5104 53.537 34.5104C54.2812 34.5104 54.719 35.0582 54.719 35.8689V39.9665H56.864V35.7374C56.8421 33.7653 55.9009 32.4945 54.1061 32.4945ZM41.477 28.9666V39.9665H43.622V35.343C43.9065 34.9048 44.3224 34.4885 45.0009 34.4885C45.7451 34.4885 46.1828 35.0363 46.1828 35.847V39.9446H48.3278V35.7155C48.3278 33.7434 47.3647 32.4726 45.5919 32.4726C44.6726 32.4726 44.0597 32.8012 43.6439 33.2614V28.9666H41.477ZM37.3183 32.4945C35.1077 32.4945 33.5318 34.116 33.5318 36.3072C33.5318 38.4984 35.1077 40.1198 37.3183 40.1198C38.6973 40.1198 39.726 39.4625 40.3607 38.3888L38.9161 37.337C38.5878 37.8848 38.0844 38.2792 37.3621 38.2792C36.2896 38.2792 35.6768 37.4028 35.6768 36.3291C35.6768 35.2335 36.2677 34.357 37.3402 34.357C38.0625 34.357 38.5441 34.7514 38.8505 35.2992L40.3388 34.2036C39.6822 33.1299 38.6973 32.4945 37.3183 32.4945ZM29.0448 34.094C29.8984 34.094 30.38 34.7076 30.4019 35.5402H27.5783C27.6002 34.7076 28.1694 34.094 29.0448 34.094ZM29.0886 32.4945C26.8999 32.4945 25.3896 34.1379 25.3896 36.3291C25.3896 38.5203 26.9217 40.1198 29.22 40.1198C30.5988 40.1198 31.6276 39.6378 32.3499 38.6956L30.9272 37.6C30.5988 38.0163 30.0298 38.345 29.2856 38.345C28.235 38.345 27.6002 37.8191 27.5346 36.8769H32.4812V36.1976C32.4812 34.2036 31.3868 32.4945 29.0886 32.4945ZM20.9902 39.9665H23.2009V33.108H20.9902V39.9665ZM17.5538 31.2893H26.6372V29.3391H17.5538V31.2893ZM12.848 28.9666C11.0532 28.9666 9.93695 30.2156 9.93695 31.9905V32.6259H8.66748V34.4228H9.93695V39.9446H12.082V34.4447H13.7235V32.6479H12.082V31.9028C12.082 31.2454 12.4103 30.851 12.9794 30.851C13.3296 30.851 13.636 30.9825 13.811 31.1578L14.5771 29.4487C14.1394 29.1419 13.5703 28.9666 12.848 28.9666ZM4.11487 34.357C5.12171 34.357 5.84399 35.1677 5.84399 36.3291C5.84399 37.4466 5.14359 38.2573 4.11487 38.2573C3.10805 38.2573 2.42953 37.4685 2.42953 36.3291C2.42953 35.1677 3.12993 34.357 4.11487 34.357ZM4.11487 32.4945C1.88234 32.4945 0.262658 34.1379 0.262658 36.3291C0.262658 38.5203 1.90423 40.1198 4.11487 40.1198C6.34739 40.1198 7.98896 38.5203 7.98896 36.3291C7.98896 34.116 6.34739 32.4945 4.11487 32.4945Z" fill="#FFFFFF" fill-opacity="0.9"/>
<path d="M125 15.4467H122.658L120.929 19.1279L119.243 15.4467H116.902L119.812 20.9247L116.88 26.0959H119.331L125 15.4467ZM114.319 13.0144H112.174V15.4467H110.86V17.2435H112.174V20.0263C112.174 21.8669 113.29 22.8968 115.107 22.8968C115.851 22.8968 116.398 22.6996 116.792 22.4586L116.267 20.7713C116.048 20.8809 115.763 21.0123 115.304 21.0123C114.713 21.0123 114.319 20.6398 114.319 20.0044V17.2654H116.42V15.4686H114.319V13.0144ZM109.854 15.4467H107.709V22.7872H109.854V15.4467ZM108.782 11.875C108.037 11.875 107.534 12.4009 107.534 13.124C107.534 13.8471 108.059 14.373 108.782 14.373C109.504 14.373 110.029 13.8471 110.029 13.124C110.029 12.4009 109.504 11.875 108.782 11.875ZM103.747 15.2933C101.799 15.2933 100.661 16.2355 100.661 17.7036C100.661 18.843 101.405 19.4346 103.047 19.851C104.01 20.092 104.251 20.2674 104.251 20.6618C104.251 21.1 103.857 21.2753 103.2 21.2753C102.368 21.2753 101.69 20.9466 101.186 20.5303L100.354 22.0641C101.011 22.59 102.062 22.8968 103.178 22.8968C105.17 22.8968 106.374 21.9107 106.374 20.4426C106.374 19.347 105.629 18.6458 104.075 18.2733C103.025 18.0323 102.784 17.8789 102.784 17.5064C102.784 17.112 103.112 16.9367 103.703 16.9367C104.47 16.9367 105.083 17.2435 105.542 17.5502L106.33 16.0383C105.717 15.6001 104.754 15.2933 103.747 15.2933ZM99.8076 15.2933C98.8004 15.2933 98.0564 15.7973 97.7063 16.4108L97.5965 15.4467H95.6924V22.7872H97.8374V18.4048C98.2536 17.857 98.8004 17.4407 99.6541 17.4407H99.8295V15.2933H99.8076ZM90.8556 16.9148C91.7087 16.9148 92.1905 17.5283 92.2124 18.361H89.389C89.4326 17.5064 90.0018 16.9148 90.8556 16.9148ZM90.9211 15.2933C88.7324 15.2933 87.2221 16.9367 87.2221 19.1279C87.2221 21.3191 88.7542 22.9187 91.0522 22.9187C92.4314 22.9187 93.46 22.4367 94.182 21.4944L92.7597 20.4207C92.4314 20.837 91.8623 21.1657 91.1177 21.1657C90.0674 21.1657 89.4326 20.6398 89.3671 19.6976H94.3137V19.0183C94.3137 17.0024 93.2191 15.2933 90.9211 15.2933ZM87.0467 15.4467H84.7051L82.9976 19.0841L81.2907 15.4467H78.9266L82.9539 22.9187H83.0194L87.0467 15.4467ZM78.0291 15.4467H75.8841V22.7872H78.0291V15.4467ZM76.9569 11.875C76.2124 11.875 75.7093 12.4009 75.7093 13.124C75.7093 13.8471 76.2342 14.373 76.9569 14.373C77.679 14.373 78.2045 13.8471 78.2045 13.124C78.2045 12.4009 77.679 11.875 76.9569 11.875ZM71.4411 15.2933C70.4345 15.2933 69.7336 15.7096 69.3616 16.2574L69.2524 15.4467H67.3483V22.7872H69.4933V18.1638C69.7779 17.7255 70.1936 17.3092 70.872 17.3092C71.6159 17.3092 72.054 17.857 72.054 18.6677V22.7653H74.199V18.5582C74.199 16.5642 73.236 15.2933 71.4411 15.2933ZM63.321 22.6119C64.7652 22.0203 65.5316 20.7056 65.5316 18.9526V12.1599H63.321V22.6119ZM61.3944 22.9625H61.5261V20.9466H61.3944C60.1471 20.9466 59.4686 20.092 59.4686 18.8211V12.1599H57.2579V18.9745C57.2579 21.3848 58.7025 22.9625 61.3944 22.9625ZM53.0117 15.4467H50.6698L49.2689 18.9964L47.5399 15.4467H47.4741L45.7451 18.9964L44.3661 15.4467H42.0242L45.5262 22.9187H45.5919L47.518 19.3251L49.4441 22.9187H49.5097L53.0117 15.4467ZM37.4934 17.1777C38.2157 17.1777 38.6316 17.5721 38.9599 18.0981V20.1578C38.6316 20.6837 38.2157 21.0781 37.4934 21.0781C36.5522 21.0781 35.9175 20.3331 35.9175 19.1498C35.9175 17.9227 36.5522 17.1777 37.4934 17.1777ZM36.99 15.2933C35.0639 15.2933 33.7726 16.9148 33.7726 19.106C33.7726 21.2972 35.0639 22.9187 36.99 22.9187C38.0187 22.9187 38.7191 22.4805 39.0912 21.9545L39.2007 22.7653H41.1268V15.4467H39.1788L39.0694 16.2793C38.6973 15.7315 37.9968 15.2933 36.99 15.2933ZM30.1392 15.2933C28.1912 15.2933 27.053 16.2355 27.053 17.7036C27.053 18.843 27.7972 19.4346 29.4388 19.851C30.4019 20.092 30.6426 20.2674 30.6426 20.6618C30.6426 21.1 30.2487 21.2753 29.592 21.2753C28.7603 21.2753 28.0818 20.9466 27.5783 20.5303L26.7466 22.0641C27.4033 22.59 28.4539 22.8968 29.5701 22.8968C31.5619 22.8968 32.7657 21.9107 32.7657 20.4426C32.7657 19.347 32.0215 18.6458 30.4675 18.2733C29.4169 18.0323 29.1762 17.8789 29.1762 17.5064C29.1762 17.112 29.5045 16.9367 30.0954 16.9367C30.8615 16.9367 31.4743 17.2435 31.934 17.5502L32.722 16.0383C32.1091 15.6001 31.1461 15.2933 30.1392 15.2933ZM26.1995 15.2933C25.1926 15.2933 24.4484 15.7973 24.0982 16.4108L23.9888 15.4467H22.0846V22.7872H24.2296V18.4048C24.6455 17.857 25.1926 17.4407 26.0462 17.4407H26.2214V15.2933H26.1995ZM16.7002 17.1777C17.4225 17.1777 17.8384 17.5721 18.1667 18.0981V20.1578C17.8384 20.6837 17.4225 21.0781 16.7002 21.0781C15.759 21.0781 15.1243 20.3331 15.1243 19.1498C15.1243 17.9227 15.759 17.1777 16.7002 17.1777ZM16.1749 15.2933C14.2488 15.2933 12.9575 16.9148 12.9575 19.106C12.9575 21.2972 14.2488 22.9187 16.1749 22.9187C17.2036 22.9187 17.9041 22.4805 18.2762 21.9545L18.3856 22.7653H20.3117V15.4467H18.3856L18.2762 16.2793C17.9041 15.7315 17.2036 15.2933 16.1749 15.2933ZM9.21468 22.9406H9.28034L13.7016 12.1599H11.2721L9.21468 17.8351L7.13538 12.1599H4.70583L9.21468 22.9406ZM4.2243 22.7872H6.50061L2.34197 12.1599H0L4.2243 22.7872Z" fill="#FFFFFF" fill-opacity="0.9"/>
</svg>
