<svg id="Layer_1" data-name="Layer 1" xmlns="http://www.w3.org/2000/svg" xmlns:xlink="http://www.w3.org/1999/xlink" viewBox="0 0 13.38 21.73"><defs><style>.cls-1{fill:url(#linear-gradient);}.cls-2{fill:url(#linear-gradient-2);}.cls-3{fill:url(#linear-gradient-3);}.cls-4{fill:url(#linear-gradient-4);}.cls-5{fill:url(#linear-gradient-5);}.cls-6{fill:url(#linear-gradient-6);}</style><linearGradient id="linear-gradient" x1="1.58" y1="10.06" x2="28.71" y2="10.52" gradientUnits="userSpaceOnUse"><stop offset="0" stop-color="aqua"/><stop offset="1" stop-color="aqua" stop-opacity="0"/></linearGradient><linearGradient id="linear-gradient-2" x1="9.22" y1="10.09" x2="17.74" y2="10.45" xlink:href="#linear-gradient"/><linearGradient id="linear-gradient-3" x1="13.1" y1="10.18" x2="23.6" y2="9.92" xlink:href="#linear-gradient"/><linearGradient id="linear-gradient-4" x1="3.02" y1="22.02" x2="32.34" y2="22.51" xlink:href="#linear-gradient"/><linearGradient id="linear-gradient-5" x1="8.39" y1="22.05" x2="23.14" y2="22.14" xlink:href="#linear-gradient"/><linearGradient id="linear-gradient-6" x1="12.43" y1="22.01" x2="29.26" y2="22.21" xlink:href="#linear-gradient"/></defs><path class="cls-1" d="M7.74,13.12a1.81,1.81,0,0,1-1.8,1.8H4.14V5.32h1.8a1.81,1.81,0,0,1,1.8,1.8Zm-1.2,0v-6a.57.57,0,0,0-.17-.43.61.61,0,0,0-.43-.17h-.6v7.2h.6a.61.61,0,0,0,.43-.17A.57.57,0,0,0,6.54,13.12Z" transform="translate(-4.14 -5.22)"/><path class="cls-2" d="M13,14.92H11.77l-.19-1.2H10.09l-.19,1.2H8.67l1.7-9.6h.94Zm-2.71-2.4H11.4L10.84,9Z" transform="translate(-4.14 -5.22)"/><path class="cls-3" d="M17.52,13.21A1.77,1.77,0,0,1,17,14.49a1.81,1.81,0,0,1-2.54,0,1.77,1.77,0,0,1-.53-1.28V7a1.8,1.8,0,0,1,3.6,0Zm-1.19,0V7a.54.54,0,0,0-.18-.42.58.58,0,0,0-.43-.18.62.62,0,0,0-.6.6v6.19a.57.57,0,0,0,.18.43.54.54,0,0,0,.42.18.58.58,0,0,0,.43-.18A.57.57,0,0,0,16.33,13.21Z" transform="translate(-4.14 -5.22)"/><path class="cls-4" d="M7.74,25.06a1.75,1.75,0,0,1-.53,1.27,1.72,1.72,0,0,1-1.27.52H4.14V17.26h1.8a1.72,1.72,0,0,1,1.27.52,1.77,1.77,0,0,1,.53,1.28Zm-1.2,0v-6a.57.57,0,0,0-.17-.43.58.58,0,0,0-.43-.18h-.6v7.2h.6a.57.57,0,0,0,.43-.17A.55.55,0,0,0,6.54,25.06Z" transform="translate(-4.14 -5.22)"/><path class="cls-5" d="M13,26.85H11.77l-.19-1.2H10.09l-.19,1.2H8.67l1.7-9.59h.94Zm-2.71-2.4H11.4l-.56-3.52Z" transform="translate(-4.14 -5.22)"/><path class="cls-6" d="M17.52,25.15a1.8,1.8,0,0,1-3.6,0V19a1.77,1.77,0,0,1,.53-1.28,1.81,1.81,0,0,1,2.54,0A1.77,1.77,0,0,1,17.52,19Zm-1.19,0V19a.58.58,0,0,0-.18-.43.61.61,0,0,0-.43-.17.57.57,0,0,0-.42.17.58.58,0,0,0-.18.43v6.19a.58.58,0,0,0,.18.43.57.57,0,0,0,.42.17.61.61,0,0,0,.43-.17A.58.58,0,0,0,16.33,25.15Z" transform="translate(-4.14 -5.22)"/></svg>