<?xml version="1.0"?>
<svg xmlns="http://www.w3.org/2000/svg" width="125" height="55" viewBox="0 0 125 55" fill="none">
<path d="M54.4161 18.6045L45.5754 12.1216C45.3673 11.9696 45.2256 11.755 45.1548 11.518C45.0132 11.992 45.1814 12.5016 45.5754 12.7967L54.239 19.1544L54.4161 18.6045Z" fill="#FFFFFF" fill-opacity="0.9"/>
<path d="M78.1621 11.5129C78.0914 11.7499 77.9454 11.9645 77.7418 12.1209L68.9012 18.6083L69.0738 19.1492L77.7372 12.7916C78.136 12.4965 78.3042 11.9868 78.1621 11.5129Z" fill="#FFFFFF" fill-opacity="0.9"/>
<path d="M71.854 30.4026C71.4378 30.7066 70.8933 30.6932 70.4949 30.4071L61.6586 23.9197L52.8179 30.4071C52.4239 30.6932 51.875 30.7066 51.4589 30.4026C51.2508 30.2461 51.1047 30.0315 51.0294 29.7901C50.8878 30.264 51.0604 30.7826 51.4589 31.0732C51.875 31.3772 52.4195 31.3638 52.8179 31.0777L61.6586 24.5904L70.4993 31.0777C70.8933 31.3638 71.4423 31.3772 71.8584 31.0732C72.2568 30.7781 72.425 30.264 72.2878 29.7901C72.2126 30.0315 72.0665 30.2461 71.854 30.4026Z" fill="#FFFFFF" fill-opacity="0.9"/>
<path d="M52.4726 29.3739C52.3929 29.432 52.2911 29.432 52.2114 29.3739C52.1317 29.3157 52.0963 29.2219 52.1273 29.1324L55.6379 18.21L46.4475 11.4679C46.3722 11.4097 46.3368 11.3114 46.3678 11.222C46.3943 11.1281 46.4785 11.0655 46.5758 11.0655H57.9355L61.4461 0.156482C61.4771 0.0625928 61.5612 0 61.6586 0C61.756 0 61.8401 0.0670634 61.8711 0.156482L65.3817 11.0655H76.7458C76.8388 11.0655 76.9272 11.1236 76.958 11.222C76.9894 11.3114 76.9541 11.4142 76.8788 11.4679L67.6838 18.21L71.1943 29.128C71.2209 29.2174 71.1899 29.3157 71.1102 29.3739C71.0305 29.432 70.9287 29.432 70.849 29.3739L61.6586 22.6273L52.4726 29.3739Z" fill="#FFFFFF" fill-opacity="0.9"/>
<path d="M35.5084 28.2116V26.0611H35.0922V25.3681H36.7081V26.0611H36.2698V28.2116H35.5084ZM38.3859 26.6825C38.5851 26.6825 38.6958 26.5037 38.6958 26.3204C38.6958 26.07 38.5453 25.9627 38.3372 25.9761V26.678L38.3859 26.6825ZM38.7578 28.2116L38.3328 27.0268L38.3239 27.0358C38.3284 27.1743 38.3372 27.3174 38.3372 27.456V28.2161H37.5758V25.3681H38.3106C38.9702 25.3681 39.4484 25.5648 39.4484 26.3159C39.4484 26.6289 39.3156 26.906 39.0101 27.0312L39.5768 28.2161H38.7578V28.2116ZM41.3564 27.2414L41.2767 26.5797C41.2546 26.4009 41.2413 26.222 41.2236 26.0432H41.2147C41.1926 26.222 41.1749 26.4009 41.1439 26.5797L41.0376 27.2414H41.3564ZM41.5025 28.2116L41.445 27.845H40.9314L40.8694 28.2116H40.0858L40.7632 25.3636H41.6929L42.2905 28.2116H41.5025ZM43.7514 27.5276C44.1011 27.523 44.1587 27.0849 44.1587 26.8167C44.1587 26.5081 44.1011 26.0789 43.7514 26.0789V27.5276ZM42.99 25.3681H43.6053C44.473 25.3681 44.9379 25.918 44.9379 26.7809C44.9379 28.0953 44.1189 28.2161 43.654 28.2161H42.99V25.3681ZM45.7923 25.3681H47.2089V26.0387H46.5537V26.4366H47.138V27.1073H46.5537V27.5409H47.2089V28.2116H45.7923V25.3681ZM77.8792 28.2116L77.8085 26.4232H77.7994C77.764 26.6289 77.7417 26.839 77.7018 27.0447L77.4851 28.2116H76.865L76.5998 26.4232H76.5906C76.5867 26.6333 76.5906 26.8434 76.5775 27.0536L76.5153 28.2116H75.6969L76.0243 25.3636H76.9763L77.193 26.8747H77.2016C77.2238 26.6959 77.2415 26.5216 77.2768 26.3472L77.4628 25.3636H78.4018L78.6761 28.2116H77.8792ZM80.4381 27.2414L80.3582 26.5797C80.336 26.4009 80.3229 26.222 80.3006 26.0432H80.2921C80.2698 26.222 80.2522 26.4009 80.2207 26.5797L80.1146 27.2414H80.4381ZM80.5841 28.2116L80.5265 27.845H80.0171L79.9555 28.2116H79.1718L79.8488 25.3636H80.7786L81.3764 28.2116H80.5841ZM82.8464 26.6825C83.05 26.6825 83.1561 26.5037 83.1561 26.3204C83.1561 26.07 83.0055 25.9627 82.7973 25.9761V26.678L82.8464 26.6825ZM83.2183 28.2116L82.7973 27.0268L82.7887 27.0358C82.7933 27.1743 82.8018 27.3174 82.8018 27.456V28.2161H82.0403V25.3681H82.7757C83.4396 25.3681 83.9176 25.5648 83.9176 26.3159C83.9176 26.6289 83.7847 26.906 83.4795 27.0312L84.0459 28.2161H83.2183V28.2116ZM86.8038 25.3681L86.1929 26.7406L86.8745 28.2116H86.0561L85.582 26.906H85.5774V28.2116H84.8159V25.3636H85.5774V26.5752H85.582L85.9985 25.3636H86.8038V25.3681ZM28.1064 47.2174C27.8009 46.3635 28.0445 43.748 29.4699 43.2562C30.9707 42.7376 31.8915 43.5155 32.3386 45.0446C32.5068 45.6124 32.467 46.207 32.2855 46.4305C32.0199 46.7569 31.5462 46.9492 31.1168 47.0967L29.9923 47.4723C28.89 47.8523 28.3632 47.9283 28.1064 47.2174ZM35.1852 50.3873C34.4547 51.125 33.5118 51.8582 32.5777 52.1533C31.7011 52.4395 29.1954 52.6585 28.4606 50.5706C28.3012 50.119 28.4296 49.9805 28.8369 49.8553C29.4389 49.6719 30.9972 49.2114 32.6397 48.59C34.1316 48.0267 35.4597 47.3381 35.8758 47.0565C36.6195 46.5647 36.7302 45.8672 36.4026 45.1206C35.3578 42.7465 32.9894 40.2607 29.0538 41.0163C25.9284 41.6198 23.6927 44.4633 23.6927 47.7137C23.6927 51.742 26.0966 54.0937 29.1512 54.8269C31.9801 55.5065 35.3003 54.1205 36.7213 51.7956C37.288 50.8969 35.6987 49.8374 35.1852 50.3873ZM64.7265 47.2174C64.545 46.7078 64.5583 45.5677 64.9036 44.6288C65.1382 43.9984 65.4836 43.5021 66.0945 43.2562C66.7807 42.979 67.365 43.055 67.8254 43.3188C68.3522 43.6228 68.7241 44.2264 68.9632 45.0401C69.1314 45.6079 69.0915 46.2025 68.91 46.4261C68.64 46.7524 68.2282 46.9134 67.7413 47.0922C67.3694 47.2263 66.9975 47.3515 66.6212 47.4723C65.5057 47.8299 64.9877 47.9283 64.7265 47.2174ZM71.8053 50.3873C71.0793 51.125 70.1319 51.8582 69.2022 52.1533C68.3212 52.4395 65.82 52.6585 65.0851 50.5706C64.9257 50.119 65.0541 49.9805 65.4614 49.8553C66.0635 49.6719 67.6218 49.2114 69.2642 48.59C70.7561 48.0267 72.0842 47.3381 72.5003 47.0565C73.2487 46.5647 73.3593 45.8672 73.0313 45.1206C71.9868 42.7465 69.6183 40.2607 65.6827 41.0163C62.5573 41.6198 60.3172 44.4633 60.3172 47.7137C60.3172 51.742 62.7211 54.0937 65.7757 54.8269C68.6002 55.5065 71.9248 54.1205 73.3456 51.7956C73.908 50.8969 72.3232 49.8374 71.8053 50.3873ZM92.6431 47.2174C92.4572 46.7078 92.4749 45.5677 92.8199 44.6288C93.055 43.9984 93.4 43.5021 94.011 43.2562C94.6972 42.979 95.2819 43.055 95.7422 43.3188C96.2686 43.6228 96.6405 44.2264 96.8795 45.0401C97.0439 45.6079 97.0079 46.2025 96.8265 46.4261C96.5613 46.7524 96.1449 46.9134 95.6577 47.0922C95.2858 47.2263 94.91 47.3515 94.5335 47.4723C93.4223 47.8299 92.9044 47.9283 92.6431 47.2174ZM99.7265 50.3873C99.0003 51.125 98.0529 51.8582 97.1185 52.1533C96.2424 52.4395 93.7366 52.6585 93.0019 50.5706C92.8422 50.119 92.9751 49.9805 93.3778 49.8553C93.9802 49.6719 95.5385 49.2114 97.1807 48.59C98.6684 48.0267 100.001 47.3381 100.417 47.0565C101.16 46.5647 101.271 45.8672 100.948 45.1206C99.9033 42.7465 97.535 40.2607 93.5991 41.0163C90.4693 41.6198 88.2339 44.4633 88.2339 47.7137C88.2339 51.742 90.6376 54.0937 93.6921 54.8269C96.5168 55.5065 99.8417 54.1205 101.263 51.7956C101.824 50.8969 100.24 49.8374 99.7265 50.3873ZM13.4841 46.1578C13.2627 46.1578 13.0856 46.3366 13.0856 46.5602V51.1206C13.09 51.8269 13.3025 52.3009 13.6833 52.4708C13.8914 52.5646 14.3384 52.7748 14.5952 52.8866C14.7723 52.967 14.7767 53.1458 14.7502 53.3784C14.728 53.584 14.6705 54.1742 14.6439 54.3887C14.6218 54.6257 14.4403 54.724 14.0861 54.724H7.55188C7.21986 54.724 7.01621 54.666 6.98965 54.3887C6.96752 54.1742 6.90554 53.5527 6.8834 53.3471C6.85241 53.0832 6.90554 52.9491 7.06934 52.8776C7.28626 52.7748 7.76438 52.5601 7.97245 52.4618C8.37973 52.2696 8.55238 51.7152 8.55238 51.1339V39.8583C8.55238 39.2279 8.3753 38.7182 7.92375 38.5081C7.71568 38.4097 7.28626 38.213 7.07819 38.1146C6.90554 38.0297 6.85684 37.8688 6.89226 37.6408C6.92325 37.4351 6.96752 37.0818 6.99851 36.8673C7.03392 36.5946 7.23314 36.532 7.56074 36.532H13.7939C14.126 36.532 14.3163 36.59 14.3517 36.8673C14.3828 37.0818 14.427 37.4351 14.458 37.6408C14.4934 37.8688 14.4447 38.0297 14.2765 38.1191C14.0551 38.2398 13.7408 38.4187 13.5416 38.526C13.2716 38.6735 13.0945 38.982 13.09 39.7063V42.9924C13.09 43.216 13.2671 43.3948 13.4885 43.3948H16.977C17.1983 43.3948 17.3754 43.216 17.3754 42.9924V39.7063C17.371 38.9776 17.1938 38.6735 16.9283 38.526C16.729 38.4142 16.4147 38.2398 16.1933 38.1191C16.0251 38.0252 15.9764 37.8688 16.0118 37.6408C16.0429 37.4351 16.0871 37.0818 16.1181 36.8673C16.158 36.5946 16.3483 36.532 16.6759 36.532H22.9091C23.2412 36.532 23.4359 36.59 23.4758 36.8673C23.5068 37.0818 23.5511 37.4351 23.582 37.6408C23.613 37.8688 23.5687 38.0341 23.3961 38.1146C23.1836 38.2175 22.7542 38.4142 22.5461 38.5081C22.0946 38.7227 21.9175 39.2279 21.9175 39.8583V51.1339C21.9175 51.7152 22.0901 52.274 22.493 52.4618C22.701 52.5601 23.1791 52.7748 23.3961 52.8776C23.5554 52.9536 23.6086 53.0877 23.582 53.3471C23.5599 53.5527 23.4979 54.1742 23.4758 54.3887C23.4492 54.666 23.2412 54.724 22.9091 54.724H16.3705C16.0163 54.724 15.8348 54.6257 15.8127 54.3887C15.7905 54.1742 15.733 53.584 15.7064 53.3784C15.6799 53.1458 15.6887 52.967 15.8614 52.8866C16.1137 52.7703 16.5653 52.5601 16.7733 52.4708C17.154 52.3009 17.3665 51.8269 17.371 51.1206V46.5602C17.371 46.3366 17.1938 46.1578 16.9725 46.1578H13.4841Z" fill="#FFFFFF" fill-opacity="0.9"/>
<path d="M83.5457 45.7951C83.5457 45.7951 85.914 50.1184 86.5603 51.3077C87.052 52.2108 87.6053 52.4612 88.3531 52.8904C88.5482 53.0022 88.6058 53.0737 88.5704 53.4403C88.5436 53.722 88.4997 54.1557 88.4775 54.3792C88.4461 54.6922 88.2293 54.7324 87.9196 54.7324H84.431C83.9883 54.7324 83.8155 54.6385 83.6609 54.3524C83.4927 54.0439 80.575 48.6833 80.575 48.6833L79.473 49.7429V51.2228C79.4769 51.9023 79.7873 52.3405 80.0885 52.5104C80.283 52.6222 80.5796 52.7876 80.8186 52.9172C80.9999 53.0201 81.0137 53.1497 80.9914 53.4403C80.9737 53.646 80.9161 54.1825 80.8939 54.3971C80.867 54.6385 80.7079 54.7324 80.336 54.7324H74.5281C74.1962 54.7324 73.9879 54.6743 73.9611 54.3971C73.9388 54.178 73.8858 53.6058 73.8596 53.4001C73.8328 53.1407 73.8773 53.0111 74.0456 52.9172C74.2891 52.7787 74.5321 52.64 74.7802 52.5014C75.0677 52.3405 75.2981 51.9113 75.2981 51.2004V39.7415C75.2936 38.9501 74.997 38.588 74.7671 38.4583C74.6034 38.3644 74.134 38.1006 74.0279 38.038C73.8635 37.9441 73.8328 37.7653 73.8635 37.5462C73.895 37.3405 73.9303 37.0768 73.9611 36.8622C74.001 36.576 74.187 36.5269 74.5236 36.5269H78.72C79.0788 36.5269 79.473 36.7951 79.473 37.2958V46.0499C79.473 46.0499 81.8282 43.9083 82.1733 43.5954C82.4214 43.3718 82.3501 43.1304 82.2132 43.0634C81.9742 42.9516 81.7038 42.8308 81.5532 42.7593C81.3856 42.6833 81.3011 42.5939 81.328 42.3122C81.3542 42.0485 81.4033 41.6237 81.421 41.418C81.4471 41.1543 81.5355 41.047 81.9605 41.047H87.0874C87.4102 41.047 87.5169 41.1587 87.5385 41.3733C87.5608 41.6148 87.6184 42.1199 87.6407 42.3614C87.6583 42.5537 87.5254 42.6655 87.2419 42.7727C86.4987 43.0455 86.1799 43.2422 85.1748 44.2213C84.5508 44.8293 83.5457 45.7951 83.5457 45.7951ZM42.9679 51.2407C42.9723 51.9202 43.198 52.336 43.4991 52.5059C43.7425 52.6445 43.9861 52.7787 44.2296 52.9128C44.4111 53.0156 44.4243 53.1453 44.4022 53.4358C44.3845 53.6415 44.3314 54.178 44.3093 54.3926C44.2827 54.634 44.1233 54.7279 43.7514 54.7279H37.9344C37.6023 54.7279 37.3987 54.6698 37.3721 54.3926C37.3411 54.0618 37.3057 53.7264 37.2703 53.3956C37.2438 53.1363 37.288 53.0066 37.4562 52.9128C37.6998 52.7741 37.9432 52.6356 38.1911 52.5014C38.4789 52.3405 38.7091 51.9113 38.7091 51.2004V44.7802C38.7091 43.9173 38.4567 43.5149 38.1823 43.3584C38.0185 43.2645 37.7883 43.1304 37.682 43.0678C37.5093 42.9695 37.4828 42.804 37.5138 42.585C37.5448 42.3793 37.589 42.035 37.6201 41.8204C37.6555 41.5477 37.8547 41.4851 38.1823 41.4851H42.5871C42.8041 41.4851 42.9767 41.6595 42.9767 41.8785L42.9679 51.2407ZM40.4976 36.1603C39.2093 36.1603 38.1646 37.1752 38.1646 38.4315C38.1646 39.6878 39.2093 40.7027 40.4976 40.7027C41.7858 40.7027 42.8262 39.6878 42.8262 38.4315C42.8262 37.1752 41.7858 36.1603 40.4976 36.1603ZM58.117 44.7802C58.117 42.424 57.059 41.5254 55.8327 41.1274C54.4205 40.6714 52.7117 41.4225 51.8351 41.8294C51.6049 41.9367 51.3747 42.0484 51.1489 42.1691C50.9231 41.6327 50.8036 41.4806 50.4672 41.4806H46.3235C45.9915 41.4806 45.7967 41.5388 45.7613 41.8159C45.7303 42.0306 45.6861 42.3748 45.655 42.5805C45.624 42.7995 45.6506 42.965 45.8233 43.0634C45.9295 43.1259 46.1642 43.26 46.3235 43.3539C46.6024 43.5104 46.8503 43.9128 46.8548 44.7757V51.1959C46.8548 51.9068 46.6201 52.336 46.3368 52.497C46.0933 52.6311 45.8454 52.7697 45.6019 52.9128C45.4337 53.0066 45.3894 53.1407 45.416 53.3956C45.4381 53.6012 45.4956 54.178 45.5178 54.3926C45.5444 54.6698 45.7524 54.7279 46.08 54.7279H51.8882C52.2601 54.7279 52.4239 54.634 52.446 54.3926C52.4682 54.178 52.5213 53.6415 52.5434 53.4358C52.57 53.1453 52.5567 53.0201 52.3708 52.9128C52.1273 52.7787 51.8838 52.64 51.6403 52.5059C51.264 52.2913 51.1091 51.7325 51.1091 51.2228L51.1135 46.1214C51.1135 44.7891 51.7554 44.038 52.6408 43.9307C53.2296 43.8547 53.9822 44.2213 53.9822 45.272V52.1438C53.9822 54.102 55.629 54.8531 56.9217 54.8531C58.2897 54.8531 59.4584 54.2182 59.9808 53.114C60.149 52.7652 59.9454 52.497 59.7727 52.3092C59.5779 52.0946 59.4052 51.9023 59.0865 52.0633C58.7767 52.2243 58.4491 52.5372 58.2587 52.4344C58.117 52.3584 58.1037 52.2332 58.1037 51.9247L58.117 44.7802ZM114.526 44.7802C114.526 42.424 113.468 41.5254 112.241 41.1274C110.829 40.6714 109.121 41.4225 108.244 41.8294C107.89 41.9948 107.558 42.1691 107.558 42.1691C107.332 41.6327 107.213 41.4806 106.876 41.4806H102.732C102.4 41.4806 102.205 41.5388 102.166 41.8159C102.135 42.0306 102.09 42.3748 102.064 42.5805C102.033 42.7995 102.059 42.965 102.232 43.0634C102.342 43.1259 102.573 43.26 102.737 43.3539C103.011 43.5104 103.264 43.9128 103.264 44.7757V51.1959C103.264 51.9068 103.029 52.336 102.741 52.497C102.498 52.6356 102.254 52.7697 102.01 52.9128C101.842 53.0066 101.798 53.1407 101.824 53.3956C101.847 53.6012 101.904 54.178 101.927 54.3926C101.953 54.6698 102.161 54.7279 102.489 54.7279H108.297C108.669 54.7279 108.832 54.634 108.855 54.3926C108.877 54.178 108.93 53.6415 108.952 53.4358C108.975 53.1453 108.961 53.0201 108.779 52.9128C108.536 52.7787 108.292 52.64 108.049 52.5059C107.673 52.2913 107.518 51.7325 107.518 51.2228L107.522 46.1214C107.522 44.7891 108.164 44.038 109.05 43.9307C109.639 43.8547 110.391 44.2213 110.391 45.272V52.1438C110.391 54.102 112.038 54.8531 113.33 54.8531C114.699 54.8531 115.867 54.2182 116.394 53.114C116.558 52.7652 116.354 52.497 116.186 52.3092C115.991 52.0946 115.818 51.9023 115.504 52.0633C115.19 52.2243 114.862 52.5372 114.676 52.4344C114.539 52.3584 114.521 52.2332 114.521 51.9247L114.526 44.7802ZM115.406 36.8309C115.406 36.6073 115.172 36.5269 114.978 36.5269H114.534V37.1707H115.044C115.26 37.1662 115.406 37.0231 115.406 36.8309ZM116.022 38.1275C116.066 38.4315 116.203 38.6506 116.275 38.8115C115.964 38.8115 115.85 38.8115 115.584 38.8115C115.451 38.5119 115.424 38.3152 115.358 38.1051C115.27 37.8056 115.084 37.7161 114.76 37.7161H114.521V38.807H113.888V36.0127H115.212C115.522 36.0127 116.053 36.196 116.053 36.7907C116.053 37.1662 115.85 37.421 115.641 37.5015C115.876 37.6535 115.978 37.8279 116.022 38.1275ZM117 37.5105C117 36.3659 116.089 35.4405 114.955 35.4405C113.817 35.4405 112.897 36.3659 112.897 37.5105C112.897 38.655 113.817 39.5805 114.955 39.5805C116.089 39.5805 117 38.6506 117 37.5105ZM117.527 37.5105C117.527 38.9411 116.376 40.1036 114.96 40.1036C113.538 40.1036 112.383 38.9411 112.383 37.5105C112.383 36.0708 113.538 34.9128 114.96 34.9174C116.372 34.9128 117.527 36.0708 117.527 37.5105Z" fill="#FFFFFF" fill-opacity="0.9"/>
</svg>
