<?xml version="1.0"?>
<svg xmlns="http://www.w3.org/2000/svg" width="125" height="55" viewBox="0 0 125 55" fill="none">
<path d="M68.0551 29.787C71.5232 29.787 74.7932 29.787 78.2415 29.787C76.5371 27.0083 74.9319 24.3862 73.2275 21.5879C71.444 24.4057 69.799 27.0475 68.0551 29.787Z" fill="#FFFFFF" fill-opacity="0.9"/>
<path d="M15.22 22.3907C15.22 24.6215 15.22 26.7739 15.22 28.9264C19.5998 28.9264 23.8409 28.9264 28.2404 28.9264C29.3107 26.6761 29.3503 24.5041 28.1811 22.3907C23.8012 22.3907 19.481 22.3907 15.22 22.3907Z" fill="#FFFFFF" fill-opacity="0.9"/>
<path d="M0 8.125V47.2612H124.854V8.125H0ZM31.1143 32.4677C30.4802 33.1721 29.7865 33.5048 28.7956 33.4852C24.7725 33.4265 20.7494 33.4657 16.7265 33.4657C16.2508 33.4657 15.7553 33.4657 15.1212 33.4657C15.1212 34.8746 15.1212 36.166 15.1212 37.5359C13.397 37.5359 11.8314 37.5359 10.1666 37.5359C10.1666 30.9806 10.1666 24.484 10.1666 17.8112C16.8057 17.8112 23.3456 17.8112 29.8658 17.8112C34.2852 21.2747 34.8599 28.3193 31.1143 32.4677ZM56.5409 37.5163C49.8622 37.5163 43.2231 37.5163 36.485 37.5163C36.485 31.0001 36.485 24.5034 36.485 17.8699C38.0902 17.8699 39.6757 17.8699 41.3801 17.8699C41.3801 22.9576 41.3801 28.0061 41.3801 33.1917C46.4733 33.1917 51.4476 33.1917 56.5409 33.1917C56.5409 34.7572 56.5409 36.0682 56.5409 37.5163ZM82.8196 37.5163C82.2052 36.5379 81.5512 35.5007 80.8774 34.4049C75.7643 34.4049 70.6512 34.4049 65.4194 34.4049C64.6662 35.4811 63.933 36.5183 63.2195 37.5554C61.4161 37.5554 59.6721 37.5554 57.6309 37.5554C61.9313 30.8435 66.0931 24.3469 70.2946 17.8308C72.2565 17.8308 74.1591 17.8308 76.1409 17.8308C80.2829 24.3274 84.4446 30.8239 88.7055 37.5163C86.6247 37.5163 84.8013 37.5163 82.8196 37.5163ZM99.209 37.5359C97.2867 37.5359 95.4041 37.5359 93.224 37.5359C94.3932 35.9899 95.404 34.6202 96.4742 33.2113C92.352 28.1432 88.2695 23.1141 83.9888 17.8308C86.3472 17.8308 88.3488 17.8308 90.5287 17.8308C93.5015 21.5487 96.5337 25.3449 99.6649 29.2585C102.598 25.4231 105.491 21.627 108.424 17.8112C110.466 17.8112 112.487 17.8112 114.865 17.8112C109.514 24.5426 104.362 31.0392 99.209 37.5359Z" fill="#FFFFFF" fill-opacity="0.9"/>
</svg>
