<?xml version="1.0"?>
<svg xmlns="http://www.w3.org/2000/svg" width="125" height="55" viewBox="0 0 125 55" fill="none">
<path d="M115.076 24.0203H117.018V37.3035H115.076V41.2078H124.873V37.2611H122.973V23.9778H124.873V20.5404H115.076V24.0203Z" fill="#FFFFFF" fill-opacity="0.9"/>
<path d="M116.427 17.2299C117.398 17.6119 118.581 17.8241 119.975 17.8241C121.411 17.8241 122.635 17.6119 123.607 17.2299C124.536 16.848 125 16.3387 125 15.787C125 15.2353 124.493 14.7685 123.564 14.3441C122.592 13.9622 121.368 13.75 119.975 13.75C118.539 13.75 117.398 13.9622 116.427 14.3441C115.456 14.7685 114.992 15.2353 114.992 15.787C114.992 16.3812 115.456 16.848 116.427 17.2299Z" fill="#FFFFFF" fill-opacity="0.9"/>
<path d="M0 17.6968H4.01183V37.3457H0V41.25H14.147V37.3457H10.1352V29.1551H12.0355V30.8951H14.9493V23.5957H12.0355V25.4205H10.1352V17.6543H112.964V13.75H0V17.6968Z" fill="#FFFFFF" fill-opacity="0.9"/>
<path d="M107.982 20.5828C106.883 20.5828 105.701 20.9223 104.392 21.6862C103.378 22.2379 102.618 22.832 102.027 23.4686V20.5404H94.2992V24.0203H96.2842V37.3035H94.2992V41.2078H103.927V37.3035H102.027V27.7548C102.449 27.0758 102.956 26.4392 103.548 25.8027C104.434 24.9115 105.025 24.4447 105.405 24.4447C105.532 24.4447 105.617 24.4871 105.659 24.5296C105.701 24.6144 105.743 24.8267 105.743 25.0812V31.8289H111.74V23.9778C111.74 22.9593 111.402 22.153 110.727 21.5164C110.051 20.8799 109.164 20.5828 107.982 20.5828Z" fill="#FFFFFF" fill-opacity="0.9"/>
<path d="M90.9208 24.7417C90.9208 21.9408 89.4425 20.5404 86.4442 20.5404H79.9831C76.6047 20.5404 74.9156 21.8984 74.9156 24.6144V27.2032H80.8699V24.3173C80.8699 24.1052 80.9544 23.893 81.1233 23.6808C81.2923 23.4686 81.5456 23.3837 81.8412 23.3837H84.0792C84.6708 23.3837 84.9658 23.7232 84.9658 24.4022V28.8582H79.3074C76.3936 28.8582 74.9156 30.0465 74.9156 32.4231V36.8791C74.9156 38.1098 75.2956 39.0859 76.0557 39.8923C76.8581 40.7834 77.9983 41.2078 79.4342 41.2078H92.4408V37.3035H90.9208V24.7417ZM84.9242 38.3644L82.0523 38.4069C81.2077 38.4069 80.8277 37.9825 80.8277 37.1762V32.1684C80.8277 31.4894 81.2077 31.1499 81.9679 31.1499H84.9242V38.3644Z" fill="#FFFFFF" fill-opacity="0.9"/>
<path d="M69.1724 20.5828C68.0744 20.5828 66.8919 20.9223 65.5828 21.6862C64.5693 22.2379 63.8091 22.832 63.2179 23.4686V20.5404H55.4898V24.0203H57.4747V37.3035H55.4898V41.2078H65.1183V37.3035H63.2179V27.7548C63.6402 27.0758 64.147 26.4392 64.7382 25.8027C65.625 24.9115 66.2163 24.4447 66.5963 24.4447C66.723 24.4447 66.8074 24.4871 66.8497 24.5296C66.8919 24.6144 66.9341 24.8267 66.9341 25.0812V31.8289H72.9308V23.9778C72.9308 22.9593 72.5929 22.153 71.9173 21.5164C71.2416 20.8799 70.3548 20.5828 69.1724 20.5828Z" fill="#FFFFFF" fill-opacity="0.9"/>
<path d="M49.8311 20.5828C48.7331 20.5828 47.5507 20.9223 46.2416 21.6862C45.228 22.2379 44.4679 22.832 43.8767 23.4686V20.5404H36.1487V24.0203H38.1334V37.3035H36.1487V41.2078H45.777V37.3035H43.8767V27.7548C44.299 27.0758 44.8058 26.4392 45.3969 25.8027C46.2838 24.9115 46.875 24.4447 47.2551 24.4447C47.3818 24.4447 47.4662 24.4871 47.5084 24.5296C47.5507 24.6144 47.5929 24.8267 47.5929 25.0812V31.8289H53.5895V23.9778C53.5895 22.9593 53.2517 22.153 52.576 21.5164C51.9003 20.8799 51.0135 20.5828 49.8311 20.5828Z" fill="#FFFFFF" fill-opacity="0.9"/>
<path d="M29.223 20.5827H22.0862C20.6926 20.5827 19.5102 20.9222 18.6233 21.5588C17.5676 22.3227 17.0186 23.4261 17.0186 24.8265V36.7092C17.0186 38.1097 17.4409 39.1707 18.2433 39.977C19.0878 40.8257 20.3548 41.2501 21.9595 41.2501H28.9696C30.5743 41.2501 31.8413 40.8682 32.7703 40.1042C33.6993 39.3404 34.1638 38.3219 34.1638 37.0062V34.46H28.2095V37.2609C28.2095 38.0248 27.8717 38.4067 27.1538 38.4067H24.1132C23.3531 38.4067 22.973 38.0248 22.973 37.3033V32.5078H34.1638V24.9538C34.1638 22.0256 32.5169 20.5827 29.223 20.5827ZM28.2517 30.1737H22.973V24.6567C22.973 23.8504 23.3108 23.4261 24.0288 23.4261H27.2382C27.9138 23.4261 28.2517 23.808 28.2517 24.6143V30.1737Z" fill="#FFFFFF" fill-opacity="0.9"/>
</svg>
