<?xml version="1.0"?>
<svg xmlns="http://www.w3.org/2000/svg" width="125" height="55" viewBox="0 0 125 55" fill="none">
<g clip-path="url(#clip0_2097_59604)">
<path d="M63.5847 0C63.6827 0.0168383 63.7808 0.0428611 63.8788 0.0489841C64.461 0.0780684 65.0432 0.0918455 65.624 0.131645C66.2046 0.171445 66.7854 0.228083 67.363 0.292374C67.8623 0.347481 68.3585 0.419427 68.8563 0.48831C69.8804 0.630671 70.8955 0.829671 71.9031 1.0654C73.9906 1.55371 76.0254 2.20582 77.9937 3.06763C80.1235 3.99986 82.1326 5.14487 83.9682 6.5899C85.3242 7.65683 86.5475 8.85997 87.5852 10.2515C88.6501 11.6797 89.4646 13.2365 89.9457 14.9662C90.2926 16.2122 90.4465 17.4828 90.3877 18.7763C90.2987 20.7019 89.7753 22.5067 88.8793 24.2028C88.0226 25.8285 86.8959 27.2413 85.5806 28.5057C83.9652 30.0595 82.1431 31.3162 80.1793 32.3693C77.8791 33.6031 75.4552 34.5124 72.9393 35.1737C71.6557 35.5104 70.3601 35.7814 69.0478 35.9804C68.2243 36.1059 67.3977 36.2054 66.5681 36.2896C64.6948 36.4779 62.8169 36.5024 60.9391 36.4442C60.1774 36.4197 59.4157 36.3478 58.6555 36.2865C57.2029 36.1702 55.764 35.9497 54.3371 35.6559C51.0836 34.9869 47.9584 33.9368 45.0171 32.3586C43.0714 31.3147 41.266 30.0671 39.6626 28.5317C38.3534 27.278 37.2296 25.8743 36.3699 24.264C35.6851 22.9812 35.207 21.6234 34.9732 20.183C34.8088 19.1727 34.7801 18.1563 34.8737 17.1353C35.0803 14.8912 35.8752 12.8675 37.1015 11.0061C38.1392 9.43401 39.4198 8.08854 40.8632 6.89911C42.4545 5.58878 44.1921 4.5142 46.0368 3.61564C48.3988 2.46451 50.8695 1.62872 53.4231 1.04092C54.4608 0.802119 55.5061 0.603117 56.5604 0.454634C57.3462 0.34442 58.1351 0.269413 58.9239 0.185221C59.7038 0.102561 60.4866 0.0673532 61.2694 0.0520457C61.378 0.0505149 61.4851 0.0198998 61.5922 0.00153076C62.2589 0 62.921 0 63.5847 0ZM64.4067 34.618C64.5621 34.618 64.6496 34.6242 64.737 34.6165C65.2966 34.566 65.8562 34.5154 66.4158 34.4604C67.3359 34.3685 68.2454 34.2169 69.1519 34.0363C71.3058 33.6077 73.3933 32.9617 75.4039 32.0632C77.502 31.1264 79.4538 29.9446 81.2034 28.4353C82.5429 27.2796 83.7148 25.9708 84.65 24.4538C85.7888 22.6077 86.4871 20.6147 86.6425 18.4318C86.7149 17.4184 86.6591 16.4143 86.4796 15.4178C86.0663 13.1323 85.0723 11.1194 83.6575 9.30849C83.6289 9.2718 83.5896 9.24422 83.5323 9.18756C83.5112 9.27639 83.4901 9.33147 83.4855 9.38813C83.4177 10.1872 83.1356 10.9112 82.7238 11.5878C82.4372 12.0577 82.0934 12.4833 81.7118 12.8767C81.0029 13.6084 80.1959 14.2116 79.3331 14.7396C78.1597 15.4591 76.9167 16.0255 75.6302 16.4969C73.7658 17.1782 71.8503 17.6619 69.8955 17.9879C69.7386 18.0139 69.5848 18.0491 69.4445 18.0767C69.4249 18.1165 69.4098 18.1349 69.4083 18.1532C69.4038 18.2451 69.4008 18.3353 69.4008 18.4272C69.4174 19.5799 69.3766 20.731 69.2876 21.8791C69.1956 23.0684 69.0463 24.2502 68.8306 25.4227C68.5607 26.8877 68.1941 28.3251 67.6752 29.7211C67.2831 30.7727 66.8125 31.7846 66.1865 32.7168C65.731 33.395 65.2076 34.0088 64.5425 34.4895C64.5123 34.5109 64.4867 34.5415 64.4067 34.618ZM60.7535 34.6165C60.7565 34.517 60.6871 34.5017 60.6449 34.465C60.4172 34.2659 60.1774 34.0792 59.9602 33.8664C59.5016 33.4179 59.1306 32.8975 58.7957 32.3509C58.1019 31.2182 57.6026 29.9967 57.1999 28.7322C56.6855 27.1173 56.3462 25.4641 56.126 23.7849C55.9284 22.277 55.8243 20.7632 55.8168 19.2431C55.8153 18.9278 55.8183 18.6109 55.8168 18.2956C55.8168 18.2267 55.8017 18.1593 55.7927 18.0828C55.7203 18.0675 55.6644 18.0506 55.6056 18.0415C54.6056 17.8746 53.6116 17.6756 52.6266 17.4276C51.0264 17.0251 49.4622 16.5138 47.9539 15.8326C46.8226 15.3213 45.7396 14.7228 44.7441 13.9697C44.0729 13.4614 43.456 12.8951 42.9341 12.2276C42.2705 11.3797 41.8225 10.4382 41.7139 9.34676C41.7093 9.30239 41.723 9.24271 41.6415 9.21665C41.6008 9.2626 41.5495 9.31007 41.5103 9.36515C41.2388 9.7448 40.9552 10.1168 40.7033 10.5086C39.5419 12.3134 38.7998 14.2727 38.5977 16.4296C38.4997 17.4705 38.5283 18.5068 38.6942 19.5386C38.9325 21.0218 39.4273 22.4148 40.1407 23.7298C40.9778 25.2712 42.0593 26.6168 43.3233 27.8153C44.8452 29.2604 46.5572 30.4283 48.4094 31.3896C51.4532 32.9678 54.69 33.9108 58.0672 34.3746C58.8727 34.4849 59.6856 34.5399 60.4941 34.618C60.5831 34.6257 60.6691 34.618 60.7535 34.6165ZM56.1954 13.4599C56.2135 13.3711 56.23 13.3022 56.2406 13.2334C56.4216 12.096 56.6524 10.9694 56.9646 9.86263C57.3251 8.58603 57.773 7.34456 58.3899 6.172C58.7595 5.46785 59.1834 4.80198 59.7098 4.20651C60.1215 3.74116 60.5801 3.33092 61.1321 3.04008C62.1125 2.52268 63.0945 2.52268 64.0763 3.03549C64.5183 3.26663 64.9014 3.57737 65.2514 3.93251C65.7009 4.38868 66.0795 4.90147 66.4158 5.44795C67.0568 6.49193 67.5319 7.61245 67.9181 8.77431C68.3887 10.1872 68.7235 11.6322 68.9528 13.1048C68.9709 13.2227 69.0011 13.339 69.0237 13.4522C69.0734 13.4599 69.1036 13.4691 69.1323 13.4675C69.1821 13.466 69.2334 13.4614 69.2816 13.4538C70.4702 13.2518 71.6482 13.0037 72.8051 12.6624C73.9152 12.3348 74.9997 11.9384 76.0254 11.3919C76.6136 11.0781 77.1747 10.7214 77.6724 10.2714C78.0661 9.9162 78.407 9.51824 78.6287 9.02686C78.9199 8.38697 78.9169 7.74558 78.6333 7.10576C78.5216 6.85319 78.3723 6.62358 78.2004 6.40927C77.9002 6.03423 77.5443 5.72196 77.1596 5.4403C76.6377 5.05608 76.0752 4.74381 75.4899 4.46828C74.2832 3.90036 73.0223 3.49778 71.7327 3.17938C70.9031 2.97579 70.0689 2.79822 69.2243 2.67576C68.5486 2.57779 67.8744 2.47217 67.1956 2.39869C66.5666 2.32981 65.9347 2.29307 65.3041 2.24715C64.3011 2.17673 63.2981 2.14153 62.2935 2.15684C60.9587 2.17673 59.6238 2.22266 58.2949 2.3742C57.7067 2.44156 57.117 2.49972 56.5302 2.58392C55.586 2.72015 54.6493 2.89619 53.7217 3.11815C52.5 3.41052 51.2993 3.77331 50.1424 4.2754C49.4019 4.59686 48.6899 4.96883 48.0353 5.44948C47.6522 5.73114 47.2977 6.04648 46.9991 6.42304C46.8226 6.64654 46.6703 6.88533 46.5602 7.15015C46.3067 7.75327 46.3037 8.35639 46.5556 8.96101C46.6974 9.30239 46.9041 9.6024 47.1484 9.87642C47.4184 10.181 47.7231 10.4459 48.0504 10.6831C48.8136 11.2403 49.6507 11.6552 50.521 12.0057C52.2828 12.7175 54.1184 13.143 55.9827 13.4584C56.043 13.4675 56.1034 13.4599 56.1954 13.4599ZM58.4563 18.415C58.4563 18.5619 58.4533 18.6629 58.4563 18.764C58.4805 19.5478 58.5348 20.33 58.6223 21.1107C58.7384 22.1546 58.9164 23.1863 59.1819 24.2028C59.4157 25.0998 59.7113 25.9769 60.1321 26.8035C60.3629 27.2582 60.6284 27.6883 60.9647 28.0725C61.1864 28.3251 61.4308 28.5501 61.7234 28.7154C62.3162 29.0491 62.9089 29.0476 63.5002 28.7108C63.7928 28.544 64.0357 28.3174 64.2574 28.0648C64.5937 27.6822 64.8592 27.2505 65.0885 26.7959C65.6405 25.6998 65.9859 24.5303 66.2409 23.3333C66.4143 22.5159 66.5349 21.6908 66.624 20.8596C66.7009 20.1402 66.7341 19.4176 66.7672 18.6951C66.7718 18.6064 66.7944 18.5114 66.713 18.4165C66.176 18.4533 65.627 18.4991 65.0764 18.5282C64.5243 18.5573 63.9723 18.5773 63.4218 18.588C62.8803 18.5987 62.3373 18.5987 61.7958 18.588C61.2438 18.5773 60.6917 18.5497 60.1396 18.5298C59.5891 18.5083 59.0431 18.4395 58.4563 18.415ZM66.452 13.7416C66.4505 13.7125 66.4505 13.6727 66.4444 13.6344C66.2287 12.2414 65.8969 10.8822 65.3434 9.58409C65.1715 9.18146 64.9753 8.79262 64.74 8.42374C64.544 8.11454 64.3268 7.82213 64.0658 7.56649C63.8698 7.37365 63.6571 7.20527 63.4142 7.07974C63.0537 6.89299 62.6751 6.8287 62.2754 6.9083C61.9949 6.96493 61.7445 7.09199 61.5137 7.2573C61.2166 7.47162 60.9692 7.73797 60.749 8.0303C60.3749 8.52628 60.0884 9.07583 59.847 9.64836C59.3055 10.9296 58.9888 12.2721 58.767 13.6421C58.761 13.6804 58.7655 13.7202 58.7655 13.7661C58.8123 13.7844 58.847 13.8089 58.8832 13.812C60.6645 13.9681 62.4504 13.9957 64.2378 13.939C64.9588 13.9161 65.6812 13.8886 66.3977 13.7936C66.4128 13.7905 66.4264 13.7676 66.452 13.7416Z" fill="#FFFFFF" fill-opacity="0.9"/>
<path d="M42.7846 54.9993C42.5886 54.9596 42.394 54.9091 42.1964 54.8815C40.8525 54.6963 39.676 54.1406 38.67 53.2237C37.4995 52.1567 36.777 50.8266 36.5357 49.2499C36.1012 46.4073 37.4301 43.7851 39.679 42.4074C40.5614 41.8671 41.5177 41.564 42.5478 41.469C45.8059 41.169 48.9371 43.3947 49.6279 46.8374C50.3746 50.5587 48.014 53.9661 44.6535 54.7591C44.3322 54.8356 44.0019 54.8769 43.6761 54.9366C43.5992 54.9504 43.5222 54.9779 43.4468 54.9993C43.2266 54.9993 43.0064 54.9993 42.7846 54.9993ZM39.3804 48.1723C39.3774 48.5825 39.4196 48.9866 39.5207 49.383C39.7755 50.3719 40.2779 51.1985 41.0953 51.8093C41.7213 52.2777 42.4287 52.5119 43.2085 52.4889C43.8134 52.4721 44.3744 52.2945 44.8888 51.97C45.5283 51.5674 46.017 51.0194 46.3444 50.3352C47.014 48.9376 47.023 47.5247 46.3775 46.118C46.0397 45.3801 45.5193 44.7908 44.8239 44.376C44.0833 43.9351 43.287 43.8004 42.4453 43.9688C41.6353 44.131 40.9762 44.5582 40.4438 45.1873C39.7228 46.0475 39.3909 47.0517 39.3804 48.1723Z" fill="#FFFFFF" fill-opacity="0.9"/>
<path d="M69.01 55C68.8365 54.9082 68.6404 54.9128 68.4549 54.8852C66.476 54.5883 64.9285 53.5933 63.8107 51.9187C63.1788 50.9727 62.8349 49.9194 62.7323 48.7791C62.4367 45.4727 64.5936 42.4387 67.7384 41.6458C71.5107 40.6936 75.1805 43.1719 75.8864 46.9008C76.5727 50.5272 74.3359 53.8275 71.1096 54.7107C70.7204 54.8178 70.3237 54.8715 69.9286 54.9373C69.8622 54.948 69.7973 54.9786 69.7324 54.9985C69.4926 55 69.2513 55 69.01 55ZM69.3569 43.9067C68.9919 43.9006 68.6374 43.9602 68.292 44.0812C67.3855 44.398 66.7128 45.0042 66.2422 45.8354C65.6027 46.9682 65.4639 48.1774 65.7867 49.4373C66.0295 50.3833 66.5197 51.1762 67.292 51.7717C68.5122 52.7116 70.102 52.7406 71.3584 51.8237C71.8818 51.4411 72.2845 50.9527 72.5787 50.371C73.0432 49.4526 73.191 48.4775 73.0387 47.4626C72.8909 46.4768 72.4852 45.6135 71.7702 44.9185C71.0975 44.2633 70.2981 43.9067 69.3569 43.9067Z" fill="#FFFFFF" fill-opacity="0.9"/>
<path d="M25 41.9077C25.1403 41.9093 25.2805 41.9108 25.4208 41.9108C28.715 41.9108 32.0107 41.9108 35.3049 41.9108C35.4256 41.9108 35.5447 41.9108 35.676 41.9108C35.691 41.9721 35.7136 42.018 35.7136 42.0639C35.7151 42.7359 35.7151 43.4095 35.7136 44.0815C35.7136 44.1197 35.7016 44.158 35.694 44.2009C35.5794 44.2467 35.4678 44.23 35.3607 44.23C34.2958 44.2315 33.2309 44.2299 32.1661 44.2315C32.0575 44.2315 31.9489 44.2391 31.8252 44.2437C31.8146 44.3187 31.8026 44.3754 31.7995 44.4335C31.795 44.5346 31.798 44.6371 31.798 44.7397C31.798 47.8991 31.798 51.0586 31.798 54.2197C31.798 54.3406 31.798 54.4615 31.798 54.5963C31.7347 54.6115 31.6894 54.6329 31.6442 54.6329C30.8101 54.6345 29.9775 54.6345 29.1434 54.6329C29.1147 54.6329 29.0845 54.6222 29.0408 54.613C29.0303 54.5595 29.0106 54.5028 29.0076 54.4462C29.0016 54.3544 29.0061 54.2626 29.0061 54.1707C29.0061 51.0005 29.0061 47.8303 29.0046 44.6601C29.0046 44.53 29.0212 44.3968 28.979 44.2682C28.8689 44.2101 28.7557 44.233 28.6486 44.233C27.5943 44.2315 26.54 44.2315 25.4842 44.2315C25.3243 44.2315 25.1629 44.2315 25.003 44.2315C25 43.4584 25 42.6823 25 41.9077Z" fill="#FFFFFF" fill-opacity="0.9"/>
<path d="M100.338 54.6341C99.2731 54.6387 98.2204 54.6357 97.16 54.6357C97.1177 54.5377 97.0801 54.4566 97.0484 54.3724C96.7648 53.6208 96.4843 52.8692 96.1992 52.1176C96.157 52.0058 96.1343 51.8803 96.0453 51.7915C95.7934 51.7563 91.1855 51.7548 90.9064 51.7931C90.7059 52.2462 90.5475 52.7284 90.3634 53.2014C90.184 53.6652 90.012 54.1321 89.834 54.6066C89.7691 54.6158 89.7119 54.6326 89.6545 54.6326C88.6907 54.6341 87.7269 54.6341 86.7615 54.6326C86.7148 54.6326 86.6665 54.6204 86.6032 54.6127C86.6198 54.55 86.6258 54.4994 86.6439 54.4535C88.3438 50.2745 90.0392 46.0941 91.7421 41.9166C92.9065 41.9166 94.0498 41.9166 95.1931 41.9166C95.2881 41.9932 95.3078 42.1095 95.3485 42.2105C96.0846 44.0168 96.8191 45.8246 97.5537 47.6325C98.4527 49.8444 99.3516 52.0579 100.251 54.2699C100.293 54.3754 100.358 54.4703 100.338 54.6341ZM95.2429 49.604C95.2037 49.4877 95.175 49.3913 95.1388 49.2979C94.8402 48.4989 94.54 47.6998 94.2399 46.9008C94.0227 46.3206 93.807 45.7404 93.5852 45.1603C93.5626 45.1021 93.5672 45.0103 93.4449 45.0088C92.8824 46.492 92.3228 47.983 91.7662 49.477C91.7526 49.5138 91.7511 49.5536 91.7436 49.604C91.7919 49.6163 91.828 49.6301 91.8643 49.6331C92.27 49.6576 95.0016 49.6377 95.2429 49.604Z" fill="#FFFFFF" fill-opacity="0.9"/>
<path d="M56.2542 47.2483C57.2738 45.4542 58.2753 43.6908 59.2723 41.9381C59.586 41.8983 62.2407 41.9029 62.4896 41.9457C62.4684 42.059 62.393 42.1447 62.3373 42.2366C61.6389 43.3678 60.939 44.4975 60.2376 45.6272C59.4307 46.9299 58.6252 48.2341 57.8153 49.5337C57.7036 49.7128 57.6479 49.8888 57.6494 50.1047C57.6569 51.4915 57.6539 52.8768 57.6524 54.2637C57.6524 54.3739 57.6448 54.4841 57.6418 54.602C57.5875 54.6158 57.5513 54.6326 57.5136 54.6326C56.6704 54.6342 55.8258 54.6342 54.9826 54.6342C54.9449 54.6342 54.9057 54.6219 54.8589 54.6142C54.8122 54.4918 54.8273 54.3693 54.8273 54.2499C54.8258 53.0268 54.8273 51.8038 54.8273 50.5807C54.8273 50.4078 54.8212 50.2333 54.8288 50.0603C54.8363 49.8903 54.7896 49.7449 54.699 49.6011C54.15 48.7239 53.607 47.8422 53.061 46.962C52.0836 45.3838 51.1047 43.8041 50.1273 42.2244C50.0745 42.1401 50.0263 42.0514 49.9629 41.9427C50.0157 41.9289 50.0504 41.9121 50.0851 41.9121C51.0896 41.9106 52.0941 41.9121 53.0988 41.9121C53.1183 41.9121 53.1379 41.9182 53.1832 41.9259C53.2314 42.0039 53.2918 42.0958 53.3446 42.1922C54.2375 43.7628 55.1304 45.3348 56.0234 46.9054C56.0822 47.011 56.1275 47.1243 56.2542 47.2483Z" fill="#FFFFFF" fill-opacity="0.9"/>
<path d="M76.9046 41.9375C77.1384 41.9054 87.1205 41.8977 87.4689 41.9299C87.4794 41.9712 87.5021 42.0171 87.5021 42.0646C87.5036 42.7366 87.5036 43.4101 87.5021 44.0821C87.5021 44.1204 87.49 44.1587 87.4824 44.203C87.3678 44.2489 87.2562 44.2321 87.1491 44.2321C86.0842 44.2336 85.0193 44.2321 83.956 44.2336C83.8474 44.2336 83.7388 44.2413 83.6151 44.2443C83.6046 44.3179 83.591 44.376 83.588 44.4342C83.5835 44.5352 83.5865 44.6378 83.5865 44.7403C83.5865 47.8998 83.5865 51.0593 83.5865 54.2188C83.5865 54.3397 83.5865 54.4606 83.5865 54.5968C83.5156 54.6121 83.4613 54.6351 83.4054 54.6351C82.5925 54.6366 81.778 54.6366 80.965 54.6366C80.9258 54.6366 80.8866 54.6275 80.8323 54.6213C80.8202 54.5647 80.8006 54.5081 80.7961 54.4514C80.79 54.3596 80.7931 54.2677 80.7931 54.1759C80.7931 51.0057 80.793 47.837 80.7915 44.6668C80.7915 44.5367 80.8127 44.4035 80.7644 44.275C80.6588 44.2076 80.5457 44.2352 80.4386 44.2352C79.3737 44.2321 78.3088 44.2336 77.2454 44.2336C77.1354 44.2336 77.0268 44.2306 76.9196 44.2275C76.9016 44.1847 76.882 44.1571 76.8805 44.128C76.8775 43.4346 76.8759 42.7427 76.8759 42.0492C76.8759 42.0094 76.8955 41.9712 76.9046 41.9375Z" fill="#FFFFFF" fill-opacity="0.9"/>
</g>
<defs>
<clipPath id="clip0_2097_59604">
<rect width="125" height="55" fill="white"/>
</clipPath>
</defs>
</svg>
