<svg width="382" height="712" viewBox="0 0 382 712" fill="none" xmlns="http://www.w3.org/2000/svg">
<path d="M35.0965 75.3756C45.3019 70.6323 57.2626 71.694 66.4731 78.1605L273.576 223.565C282.787 230.031 287.848 240.921 286.853 252.13L264.48 504.189C263.485 515.399 256.585 525.226 246.38 529.97L16.9047 636.624C6.69926 641.367 -5.26147 640.305 -14.472 633.839L-221.575 488.434C-230.785 481.968 -235.846 471.079 -234.851 459.869L-212.479 207.81C-211.484 196.601 -204.584 186.773 -194.379 182.03L35.0965 75.3756Z" stroke="#00FFFF"/>
<path opacity="0.8" d="M-62.1212 88.9459C-54.0373 80.8619 -42.2545 77.7047 -31.2116 80.6637L213.215 146.158C224.258 149.117 232.884 157.742 235.843 168.785L301.337 413.212C304.296 424.255 301.139 436.038 293.055 444.122L114.122 623.055C106.038 631.139 94.255 634.296 83.2121 631.337L-161.215 565.843C-172.258 562.884 -180.884 554.259 -183.842 543.216L-249.337 298.789C-252.295 287.746 -249.138 275.963 -241.054 267.879L-62.1212 88.9459Z" fill="#09163B"/>
</svg>
