<svg width="294" height="201" viewBox="0 0 294 201" fill="none" xmlns="http://www.w3.org/2000/svg">
<rect x="0.5" y="0.5" width="293" height="200" rx="5.5" stroke="url(#paint0_linear_2025_44546)"/>
<path d="M41.4374 38V26.7969H45.3437C46.0729 26.7969 46.7578 26.9193 47.3984 27.1641C48.039 27.4036 48.6041 27.7526 49.0937 28.2109C49.5885 28.6693 49.9765 29.2604 50.2578 29.9844C50.5442 30.7083 50.6874 31.5234 50.6874 32.4297C50.6874 33.3307 50.5416 34.1406 50.2499 34.8594C49.9635 35.5781 49.5729 36.1641 49.0781 36.6172C48.5833 37.0651 48.013 37.4089 47.3671 37.6484C46.7265 37.8828 46.0416 38 45.3124 38H41.4374ZM42.9453 36.6094H45.2656C45.7968 36.6094 46.2916 36.5234 46.7499 36.3516C47.2083 36.1797 47.6145 35.9271 47.9687 35.5938C48.3281 35.2604 48.6093 34.8229 48.8124 34.2813C49.0156 33.7396 49.1171 33.1224 49.1171 32.4297C49.1171 31.7318 49.0156 31.1094 48.8124 30.5625C48.6145 30.0156 48.3385 29.5729 47.9843 29.2344C47.6354 28.8906 47.2317 28.6328 46.7734 28.4609C46.3203 28.2839 45.8281 28.1953 45.2968 28.1953H42.9453V36.6094ZM52.2031 35.5547C52.2031 35.0443 52.3411 34.5964 52.6171 34.2109C52.8984 33.8255 53.2604 33.5365 53.7031 33.3438C54.1458 33.151 54.6328 33.0547 55.164 33.0547C56.0338 33.0547 56.7604 33.2161 57.3437 33.5391V32.7188C57.3437 32.3229 57.1926 31.9948 56.8906 31.7344C56.5885 31.474 56.1536 31.3438 55.5859 31.3438C55.065 31.3438 54.5442 31.4297 54.0234 31.6016C53.5025 31.7682 53.0468 31.9766 52.6562 32.2266V30.7656C53.5937 30.2969 54.5703 30.0625 55.5859 30.0625C56.138 30.0625 56.6249 30.138 57.0468 30.2891C57.4687 30.4401 57.802 30.6484 58.0468 30.9141C58.2916 31.1745 58.4739 31.4714 58.5937 31.8047C58.7187 32.1328 58.7812 32.4922 58.7812 32.8828V38H57.3906V37.375C57.1354 37.625 56.8124 37.8333 56.4218 38C56.0364 38.1615 55.6171 38.2422 55.164 38.2422C54.2838 38.2422 53.5703 38.0052 53.0234 37.5313C52.4765 37.0521 52.2031 36.3932 52.2031 35.5547ZM53.7109 35.5547C53.7109 35.9974 53.8697 36.3516 54.1874 36.6172C54.5104 36.8776 54.9218 37.0078 55.4218 37.0078C55.8281 37.0078 56.2031 36.9271 56.5468 36.7656C56.8906 36.6042 57.1562 36.4297 57.3437 36.2422V34.8281C57.1666 34.6875 56.901 34.5573 56.5468 34.4375C56.1979 34.3177 55.8229 34.2578 55.4218 34.2578C54.9218 34.2578 54.5104 34.3724 54.1874 34.6016C53.8697 34.8307 53.7109 35.1484 53.7109 35.5547ZM60.5468 32.3984C60.5468 31.7005 60.8176 31.138 61.3593 30.7109C61.901 30.2786 62.5963 30.0625 63.4452 30.0625C64.2838 30.0625 65.0989 30.2396 65.8906 30.5938V32C65.0468 31.5625 64.2317 31.3438 63.4452 31.3438C62.9609 31.3438 62.5963 31.4427 62.3515 31.6406C62.1119 31.8333 61.9921 32.0859 61.9921 32.3984C61.9921 32.6068 62.0702 32.7943 62.2265 32.9609C62.3827 33.1276 62.6145 33.2448 62.9218 33.3125L64.1327 33.5859C64.8255 33.737 65.3541 34.0078 65.7187 34.3984C66.0833 34.7839 66.2656 35.2708 66.2656 35.8594C66.2656 36.6042 65.9713 37.1875 65.3827 37.6094C64.7994 38.0312 64.0624 38.2422 63.1718 38.2422C62.7135 38.2422 62.2499 38.1823 61.7812 38.0625C61.3124 37.9427 60.9062 37.7943 60.5624 37.6172V36.2266C61.4999 36.7161 62.3697 36.9609 63.1718 36.9609C63.6926 36.9609 64.0911 36.8672 64.3671 36.6797C64.6484 36.4922 64.789 36.2188 64.789 35.8594C64.789 35.6146 64.7005 35.4089 64.5234 35.2422C64.3515 35.0755 64.1041 34.9557 63.7812 34.8828L62.4687 34.5938C61.8489 34.4583 61.3723 34.2031 61.039 33.8281C60.7109 33.4479 60.5468 32.9714 60.5468 32.3984ZM68.2656 38V26.3984H69.7031V31.0234C70.3437 30.3828 71.1171 30.0625 72.0234 30.0625C72.5286 30.0625 72.9973 30.1693 73.4296 30.3828C73.8671 30.5911 74.2291 30.9193 74.5156 31.3672C74.8072 31.8099 74.9531 32.3307 74.9531 32.9297V38H73.5156V33.2969C73.5156 32.7344 73.3359 32.2839 72.9765 31.9453C72.6223 31.6068 72.1926 31.4375 71.6874 31.4375C70.901 31.4375 70.2395 31.7786 69.7031 32.4609V38H68.2656ZM77.3593 38V26.3984H78.7968V31.1172C79.4791 30.4141 80.3176 30.0625 81.3124 30.0625C82.0468 30.0625 82.6952 30.2448 83.2577 30.6094C83.8255 30.974 84.2551 31.4635 84.5468 32.0781C84.8437 32.6875 84.9921 33.3698 84.9921 34.125C84.9921 34.8906 84.8437 35.5833 84.5468 36.2031C84.2551 36.8229 83.8255 37.3177 83.2577 37.6875C82.6952 38.0573 82.0468 38.2422 81.3124 38.2422C80.3281 38.2422 79.4895 37.8854 78.7968 37.1719V38H77.3593ZM78.7968 35.6016C79.0572 35.9714 79.3801 36.2786 79.7656 36.5234C80.151 36.763 80.5807 36.8828 81.0546 36.8828C81.7942 36.8828 82.3801 36.6354 82.8124 36.1406C83.2499 35.6458 83.4687 34.974 83.4687 34.125C83.4687 33.2917 83.2499 32.6328 82.8124 32.1484C82.3801 31.6641 81.7942 31.4219 81.0546 31.4219C80.5807 31.4219 80.1484 31.5417 79.7577 31.7813C79.3723 32.0208 79.052 32.3229 78.7968 32.6875V35.6016ZM86.2656 34.1406C86.2656 32.9688 86.6484 31.9974 87.414 31.2266C88.1796 30.4505 89.1458 30.0625 90.3124 30.0625C91.4791 30.0625 92.4452 30.4505 93.2109 31.2266C93.9765 31.9974 94.3593 32.9688 94.3593 34.1406C94.3593 35.3177 93.9765 36.2969 93.2109 37.0781C92.4452 37.8542 91.4791 38.2422 90.3124 38.2422C89.1458 38.2422 88.1796 37.8542 87.414 37.0781C86.6484 36.2969 86.2656 35.3177 86.2656 34.1406ZM87.7812 34.1406C87.7812 34.9948 88.0286 35.6667 88.5234 36.1563C89.0182 36.6406 89.6145 36.8828 90.3124 36.8828C91.0104 36.8828 91.6067 36.6406 92.1015 36.1563C92.5963 35.6667 92.8437 34.9948 92.8437 34.1406C92.8437 33.2969 92.5963 32.6328 92.1015 32.1484C91.6067 31.6641 91.0104 31.4219 90.3124 31.4219C89.6145 31.4219 89.0182 31.6641 88.5234 32.1484C88.0286 32.6328 87.7812 33.2969 87.7812 34.1406ZM95.7968 35.5547C95.7968 35.0443 95.9348 34.5964 96.2109 34.2109C96.4921 33.8255 96.8541 33.5365 97.2968 33.3438C97.7395 33.151 98.2265 33.0547 98.7577 33.0547C99.6275 33.0547 100.354 33.2161 100.937 33.5391V32.7188C100.937 32.3229 100.786 31.9948 100.484 31.7344C100.182 31.474 99.7473 31.3438 99.1796 31.3438C98.6588 31.3438 98.138 31.4297 97.6171 31.6016C97.0963 31.7682 96.6406 31.9766 96.2499 32.2266V30.7656C97.1874 30.2969 98.164 30.0625 99.1796 30.0625C99.7317 30.0625 100.219 30.138 100.641 30.2891C101.062 30.4401 101.396 30.6484 101.641 30.9141C101.885 31.1745 102.068 31.4714 102.187 31.8047C102.312 32.1328 102.375 32.4922 102.375 32.8828V38H100.984V37.375C100.729 37.625 100.406 37.8333 100.016 38C99.6301 38.1615 99.2109 38.2422 98.7577 38.2422C97.8775 38.2422 97.164 38.0052 96.6171 37.5313C96.0702 37.0521 95.7968 36.3932 95.7968 35.5547ZM97.3046 35.5547C97.3046 35.9974 97.4635 36.3516 97.7812 36.6172C98.1041 36.8776 98.5156 37.0078 99.0156 37.0078C99.4218 37.0078 99.7968 36.9271 100.141 36.7656C100.484 36.6042 100.75 36.4297 100.937 36.2422V34.8281C100.76 34.6875 100.495 34.5573 100.141 34.4375C99.7916 34.3177 99.4166 34.2578 99.0156 34.2578C98.5156 34.2578 98.1041 34.3724 97.7812 34.6016C97.4635 34.8307 97.3046 35.1484 97.3046 35.5547ZM104.625 38V30.3203H106.031V31.6484C106.224 31.1484 106.534 30.7604 106.961 30.4844C107.393 30.2031 107.867 30.0625 108.383 30.0625C108.518 30.0625 108.695 30.0781 108.914 30.1094V31.7109C108.685 31.6797 108.456 31.6641 108.226 31.6641C107.643 31.6641 107.167 31.8203 106.797 32.1328C106.427 32.4453 106.182 32.8125 106.062 33.2344V38H104.625ZM109.781 34.125C109.781 33.3698 109.927 32.6875 110.219 32.0781C110.516 31.4635 110.945 30.974 111.508 30.6094C112.075 30.2448 112.726 30.0625 113.461 30.0625C114.45 30.0625 115.286 30.4141 115.969 31.1172V26.3984H117.414V38H115.969V37.1719C115.276 37.8854 114.44 38.2422 113.461 38.2422C112.726 38.2422 112.075 38.0573 111.508 37.6875C110.945 37.3177 110.516 36.8229 110.219 36.2031C109.927 35.5833 109.781 34.8906 109.781 34.125ZM111.297 34.125C111.297 34.974 111.516 35.6458 111.953 36.1406C112.391 36.6354 112.979 36.8828 113.719 36.8828C114.193 36.8828 114.62 36.763 115 36.5234C115.385 36.2786 115.708 35.9714 115.969 35.6016V32.6875C115.708 32.3177 115.385 32.0156 115 31.7813C114.62 31.5417 114.193 31.4219 113.719 31.4219C112.979 31.4219 112.391 31.6641 111.953 32.1484C111.516 32.6328 111.297 33.2917 111.297 34.125Z" fill="white"/>
<path opacity="0.7" d="M19.5359 81H20.7579V73.031H23.7739V71.9H16.5199V73.031H19.5359V81ZM26.4105 81.195C28.3085 81.195 29.6995 79.778 29.6995 77.867C29.6995 75.969 28.3085 74.552 26.4105 74.552C24.5125 74.552 23.1215 75.969 23.1215 77.867C23.1215 79.778 24.5125 81.195 26.4105 81.195ZM26.4105 80.09C25.3445 80.09 24.3565 79.323 24.3565 77.867C24.3565 76.424 25.3445 75.657 26.4105 75.657C27.4765 75.657 28.4645 76.424 28.4645 77.867C28.4645 79.323 27.4765 80.09 26.4105 80.09ZM33.3647 81.195C33.7807 81.195 34.1967 81.104 34.3007 81.065V80.051C34.1577 80.103 33.9237 80.142 33.7157 80.142C33.0917 80.142 32.7797 79.856 32.7797 79.284V75.8H34.3007V74.76H32.7797V72.264L31.6877 72.914V74.76H30.4787V75.8H31.6097V79.466C31.6097 80.597 32.2987 81.195 33.3647 81.195ZM37.9456 81.195C38.7386 81.195 39.3756 80.857 39.7526 80.493V81H40.8836V76.84C40.8836 75.618 40.1426 74.552 38.2836 74.552C37.3476 74.552 36.5806 74.786 35.9046 75.124V76.307C36.4766 75.943 37.3736 75.592 38.2836 75.592C39.2456 75.592 39.7136 76.099 39.7136 76.71V77.373C39.3106 77.152 38.6476 76.983 37.9456 76.983C36.6716 76.983 35.5406 77.724 35.5406 79.011C35.5406 80.402 36.5416 81.195 37.9456 81.195ZM38.1536 80.194C37.3606 80.194 36.7626 79.739 36.7626 79.011C36.7626 78.335 37.3606 77.958 38.1536 77.958C38.8686 77.958 39.4796 78.244 39.7136 78.426V79.57C39.4796 79.804 38.8946 80.194 38.1536 80.194ZM42.7099 81H43.8799V71.575H42.7099V81ZM49.8985 81H51.1205V76.931H55.8265V81H57.0485V71.9H55.8265V75.8H51.1205V71.9H49.8985V81ZM59.3945 81H64.9455V79.869H60.6165V76.996H64.5425V75.865H60.6165V73.031H64.9455V71.9H59.3945V81ZM73.2155 81L71.1615 77.36C72.3445 77.022 73.0855 76.034 73.0855 74.708C73.0855 73.187 71.9155 71.9 70.1735 71.9H66.8975V81H68.1195V77.49H69.9135L71.8375 81H73.2155ZM68.1195 73.031H70.0695C71.1095 73.031 71.8115 73.733 71.8115 74.708C71.8115 75.657 71.2395 76.359 70.0695 76.359H68.1195V73.031ZM78.9512 81.195C81.3302 81.195 83.5792 79.531 83.5792 76.45C83.5792 73.369 81.3302 71.705 78.9512 71.705C76.5722 71.705 74.3232 73.369 74.3232 76.45C74.3232 79.531 76.5722 81.195 78.9512 81.195ZM78.9512 80.025C77.2352 80.025 75.5972 78.803 75.5972 76.45C75.5972 74.11 77.2352 72.875 78.9512 72.875C80.6672 72.875 82.3052 74.11 82.3052 76.45C82.3052 78.803 80.6672 80.025 78.9512 80.025ZM92.2207 74.552C91.2457 74.552 90.6347 74.942 90.1797 75.41V71.575H89.0097V81H90.1797V80.324C90.6347 80.792 91.2457 81.195 92.2207 81.195C94.0537 81.195 95.2107 79.713 95.2107 77.854C95.2107 76.021 94.0537 74.552 92.2207 74.552ZM92.0127 80.09C91.1807 80.09 90.5567 79.583 90.1797 79.05V76.684C90.5567 76.151 91.1807 75.657 92.0127 75.657C93.2087 75.657 93.9757 76.489 93.9757 77.854C93.9757 79.245 93.2087 80.09 92.0127 80.09ZM98.7815 81.195C99.5745 81.195 100.212 80.857 100.589 80.493V81H101.72V76.84C101.72 75.618 100.979 74.552 99.1195 74.552C98.1835 74.552 97.4165 74.786 96.7405 75.124V76.307C97.3125 75.943 98.2095 75.592 99.1195 75.592C100.082 75.592 100.55 76.099 100.55 76.71V77.373C100.147 77.152 99.4835 76.983 98.7815 76.983C97.5075 76.983 96.3765 77.724 96.3765 79.011C96.3765 80.402 97.3775 81.195 98.7815 81.195ZM98.9895 80.194C98.1965 80.194 97.5985 79.739 97.5985 79.011C97.5985 78.335 98.1965 77.958 98.9895 77.958C99.7045 77.958 100.316 78.244 100.55 78.426V79.57C100.316 79.804 99.7305 80.194 98.9895 80.194ZM103.546 81H104.716V71.575H103.546V81ZM108.684 81.195C109.477 81.195 110.114 80.857 110.491 80.493V81H111.622V76.84C111.622 75.618 110.881 74.552 109.022 74.552C108.086 74.552 107.319 74.786 106.643 75.124V76.307C107.215 75.943 108.112 75.592 109.022 75.592C109.984 75.592 110.452 76.099 110.452 76.71V77.373C110.049 77.152 109.386 76.983 108.684 76.983C107.41 76.983 106.279 77.724 106.279 79.011C106.279 80.402 107.28 81.195 108.684 81.195ZM108.892 80.194C108.099 80.194 107.501 79.739 107.501 79.011C107.501 78.335 108.099 77.958 108.892 77.958C109.607 77.958 110.218 78.244 110.452 78.426V79.57C110.218 79.804 109.633 80.194 108.892 80.194ZM113.448 81H114.618V76.502C115.021 75.995 115.541 75.67 116.204 75.67C116.984 75.67 117.66 76.229 117.66 77.178V81H118.83V76.879C118.83 75.358 117.673 74.552 116.477 74.552C115.645 74.552 115.021 74.916 114.592 75.358V74.76H113.448V81ZM123.607 75.696C124.335 75.696 124.92 75.865 125.557 76.294V74.994C125.089 74.773 124.452 74.552 123.607 74.552C121.683 74.552 120.266 75.917 120.266 77.867C120.266 79.817 121.683 81.195 123.607 81.195C124.452 81.195 125.089 80.974 125.557 80.753V79.453C124.92 79.882 124.335 80.051 123.607 80.051C122.593 80.051 121.514 79.323 121.514 77.867C121.514 76.411 122.593 75.696 123.607 75.696ZM129.939 81.195C131.213 81.195 132.019 80.74 132.552 80.324V79.167C131.707 79.83 130.953 80.116 129.939 80.116C128.886 80.116 128.041 79.375 127.989 78.335H132.825C132.838 78.257 132.851 78.075 132.851 77.919C132.851 75.956 131.733 74.552 129.796 74.552C128.145 74.552 126.728 75.852 126.728 77.854C126.728 80.064 128.197 81.195 129.939 81.195ZM128.028 77.321C128.08 76.424 128.769 75.631 129.796 75.631C130.927 75.631 131.551 76.333 131.577 77.321H128.028Z" fill="#CFFFFF"/>
<path d="M22.3589 93.852H20.4349L17.1686 95.9869V97.879L20.3007 95.8335H20.3774V106.943H22.3589V93.852ZM30.2211 107.122C32.8546 107.122 34.7339 105.262 34.7275 102.711C34.7339 100.18 32.9697 98.3392 30.5855 98.3392C29.6139 98.3392 28.7126 98.7099 28.2012 99.2085H28.1245L28.54 95.5459H34.0947V93.852H26.8973L26.1622 100.449L27.9711 100.717C28.4633 100.276 29.3454 99.9755 30.138 99.9755C31.6913 99.9883 32.8163 101.152 32.8163 102.75C32.8163 104.322 31.7233 105.46 30.2211 105.46C28.9555 105.46 27.9519 104.655 27.8497 103.53H25.9321C26.0088 105.613 27.8177 107.122 30.2211 107.122ZM41.4855 107.122C44.2085 107.122 46.1325 105.575 46.1453 103.453C46.1325 101.804 44.9756 100.417 43.5118 100.155V100.078C44.7838 99.771 45.6467 98.5757 45.6595 97.163C45.6467 95.1623 43.8825 93.673 41.4855 93.673C39.0629 93.673 37.2987 95.1623 37.3115 97.163C37.2987 98.5693 38.1616 99.771 39.4592 100.078V100.155C37.9699 100.417 36.8129 101.804 36.8257 103.453C36.8129 105.575 38.7369 107.122 41.4855 107.122ZM41.4855 105.505C39.8491 105.505 38.8136 104.635 38.8264 103.325C38.8136 101.963 39.9386 100.992 41.4855 100.992C43.0068 100.992 44.1318 101.963 44.1446 103.325C44.1318 104.635 43.1027 105.505 41.4855 105.505ZM41.4855 99.413C40.1624 99.413 39.2227 98.5757 39.2355 97.3292C39.2227 96.102 40.1304 95.2902 41.4855 95.2902C42.8151 95.2902 43.7227 96.102 43.7355 97.3292C43.7227 98.5757 42.7895 99.413 41.4855 99.413ZM50.543 105.153H48.7021L48.6382 105.869C48.4912 107.601 48.0821 109.346 47.9095 110.139H49.2646C49.5714 109.302 50.249 107.384 50.4472 105.85L50.543 105.153ZM57.4113 93.673C54.6627 93.6474 52.8665 95.6226 52.8665 98.1027C52.8729 100.602 54.6819 102.405 56.9511 102.405C58.3381 102.405 59.5271 101.727 60.1982 100.628H60.3005C60.2941 103.638 59.1627 105.396 57.2451 105.396C55.9923 105.396 55.1869 104.629 54.9312 103.51H52.9816C53.2692 105.626 54.9056 107.122 57.2451 107.122C60.2877 107.122 62.1925 104.508 62.1925 99.9244C62.1861 95.1432 59.7444 93.6922 57.4113 93.673ZM57.4177 95.3349C58.9326 95.3349 60.0512 96.6197 60.0512 98.0579C60.0576 99.5153 58.8751 100.794 57.3793 100.794C55.8772 100.794 54.7905 99.592 54.7842 98.0771C54.7842 96.5558 55.9155 95.3349 57.4177 95.3349ZM69.4683 93.852H67.5443L64.2779 95.9869V97.879L67.41 95.8335H67.4868V106.943H69.4683V93.852ZM77.3625 93.673C74.6139 93.6474 72.8177 95.6226 72.8177 98.1027C72.8241 100.602 74.6331 102.405 76.9022 102.405C78.2893 102.405 79.4782 101.727 80.1494 100.628H80.2517C80.2453 103.638 79.1139 105.396 77.1963 105.396C75.9434 105.396 75.138 104.629 74.8823 103.51H72.9328C73.2204 105.626 74.8568 107.122 77.1963 107.122C80.2389 107.122 82.1437 104.508 82.1437 99.9244C82.1373 95.1432 79.6956 93.6922 77.3625 93.673ZM77.3689 95.3349C78.8838 95.3349 80.0024 96.6197 80.0024 98.0579C80.0088 99.5153 78.8262 100.794 77.3305 100.794C75.8284 100.794 74.7417 99.592 74.7353 98.0771C74.7353 96.5558 75.8667 95.3349 77.3689 95.3349ZM86.4727 105.153H84.6318L84.5679 105.869C84.4209 107.601 84.0118 109.346 83.8392 110.139H85.1943C85.5011 109.302 86.1787 107.384 86.3768 105.85L86.4727 105.153ZM89.2533 106.943H91.3179L97.0132 95.6034V93.852H88.3584V95.5459H94.9678V95.6417L89.2533 106.943ZM103.396 107.122C106.119 107.122 108.043 105.575 108.055 103.453C108.043 101.804 106.886 100.417 105.422 100.155V100.078C106.694 99.771 107.557 98.5757 107.57 97.163C107.557 95.1623 105.793 93.673 103.396 93.673C100.973 93.673 99.2089 95.1623 99.2217 97.163C99.2089 98.5693 100.072 99.771 101.369 100.078V100.155C99.88 100.417 98.7231 101.804 98.7359 103.453C98.7231 105.575 100.647 107.122 103.396 107.122ZM103.396 105.505C101.759 105.505 100.724 104.635 100.737 103.325C100.724 101.963 101.849 100.992 103.396 100.992C104.917 100.992 106.042 101.963 106.055 103.325C106.042 104.635 105.013 105.505 103.396 105.505ZM103.396 99.413C102.073 99.413 101.133 98.5757 101.146 97.3292C101.133 96.102 102.041 95.2902 103.396 95.2902C104.725 95.2902 105.633 96.102 105.646 97.3292C105.633 98.5757 104.7 99.413 103.396 99.413ZM114.903 107.16C117.926 107.16 119.697 104.693 119.697 100.404C119.697 96.1467 117.901 93.673 114.903 93.673C111.899 93.673 110.109 96.1403 110.103 100.404C110.103 104.686 111.873 107.154 114.903 107.16ZM114.903 105.454C113.132 105.454 112.065 103.677 112.065 100.404C112.071 97.1439 113.139 95.3477 114.903 95.3477C116.661 95.3477 117.735 97.1439 117.735 100.404C117.735 103.677 116.667 105.454 114.903 105.454ZM122.757 107.064C123.454 107.064 124.036 106.495 124.036 105.786C124.036 105.089 123.454 104.514 122.757 104.514C122.054 104.514 121.479 105.089 121.479 105.786C121.479 106.495 122.054 107.064 122.757 107.064ZM130.68 107.122C133.314 107.122 135.193 105.262 135.187 102.711C135.193 100.18 133.429 98.3392 131.044 98.3392C130.073 98.3392 129.172 98.7099 128.66 99.2085H128.584L128.999 95.5459H134.554V93.852H127.356L126.621 100.449L128.43 100.717C128.922 100.276 129.804 99.9755 130.597 99.9755C132.15 99.9883 133.275 101.152 133.275 102.75C133.275 104.322 132.182 105.46 130.68 105.46C129.414 105.46 128.411 104.655 128.309 103.53H126.391C126.468 105.613 128.277 107.122 130.68 107.122ZM142.092 107.122C144.827 107.147 146.643 105.179 146.636 102.667C146.643 100.161 144.821 98.3647 142.552 98.3647C141.171 98.3647 139.976 99.0295 139.305 100.135H139.209C139.215 97.163 140.34 95.3988 142.258 95.3988C143.517 95.3988 144.31 96.1659 144.578 97.2525H146.528C146.227 95.1815 144.597 93.673 142.258 93.673C139.215 93.673 137.317 96.2873 137.317 100.838C137.31 105.658 139.765 107.103 142.092 107.122ZM142.085 105.46C140.564 105.46 139.452 104.182 139.452 102.711C139.458 101.248 140.621 99.9691 142.13 99.9691C143.626 99.9691 144.725 101.177 144.719 102.692C144.725 104.239 143.581 105.46 142.085 105.46Z" fill="white"/>
<path opacity="0.7" d="M19.6688 140.943H20.8908V132.974H23.9068V131.843H16.6528V132.974H19.6688V140.943ZM26.5434 141.138C28.4414 141.138 29.8324 139.721 29.8324 137.81C29.8324 135.912 28.4414 134.495 26.5434 134.495C24.6454 134.495 23.2544 135.912 23.2544 137.81C23.2544 139.721 24.6454 141.138 26.5434 141.138ZM26.5434 140.033C25.4774 140.033 24.4894 139.266 24.4894 137.81C24.4894 136.367 25.4774 135.6 26.5434 135.6C27.6094 135.6 28.5974 136.367 28.5974 137.81C28.5974 139.266 27.6094 140.033 26.5434 140.033ZM33.4976 141.138C33.9136 141.138 34.3296 141.047 34.4336 141.008V139.994C34.2906 140.046 34.0566 140.085 33.8486 140.085C33.2246 140.085 32.9126 139.799 32.9126 139.227V135.743H34.4336V134.703H32.9126V132.207L31.8206 132.857V134.703H30.6116V135.743H31.7426V139.409C31.7426 140.54 32.4316 141.138 33.4976 141.138ZM38.0784 141.138C38.8714 141.138 39.5084 140.8 39.8854 140.436V140.943H41.0164V136.783C41.0164 135.561 40.2754 134.495 38.4164 134.495C37.4804 134.495 36.7134 134.729 36.0374 135.067V136.25C36.6094 135.886 37.5064 135.535 38.4164 135.535C39.3784 135.535 39.8464 136.042 39.8464 136.653V137.316C39.4434 137.095 38.7804 136.926 38.0784 136.926C36.8044 136.926 35.6734 137.667 35.6734 138.954C35.6734 140.345 36.6744 141.138 38.0784 141.138ZM38.2864 140.137C37.4934 140.137 36.8954 139.682 36.8954 138.954C36.8954 138.278 37.4934 137.901 38.2864 137.901C39.0014 137.901 39.6124 138.187 39.8464 138.369V139.513C39.6124 139.747 39.0274 140.137 38.2864 140.137ZM42.8427 140.943H44.0127V131.518H42.8427V140.943ZM51.5913 140.943H52.8263L55.3873 134.703H54.1133L52.2153 139.539L50.3303 134.703H48.9913L51.5913 140.943ZM58.5687 141.138C59.3617 141.138 59.9987 140.8 60.3757 140.436V140.943H61.5067V136.783C61.5067 135.561 60.7657 134.495 58.9067 134.495C57.9707 134.495 57.2037 134.729 56.5277 135.067V136.25C57.0997 135.886 57.9967 135.535 58.9067 135.535C59.8687 135.535 60.3367 136.042 60.3367 136.653V137.316C59.9337 137.095 59.2707 136.926 58.5687 136.926C57.2947 136.926 56.1637 137.667 56.1637 138.954C56.1637 140.345 57.1647 141.138 58.5687 141.138ZM58.7767 140.137C57.9837 140.137 57.3857 139.682 57.3857 138.954C57.3857 138.278 57.9837 137.901 58.7767 137.901C59.4917 137.901 60.1027 138.187 60.3367 138.369V139.513C60.1027 139.747 59.5177 140.137 58.7767 140.137ZM63.333 140.943H64.503V131.518H63.333V140.943ZM68.871 141.138C69.703 141.138 70.327 140.787 70.756 140.345V140.943H71.9V134.703H70.73V139.201C70.327 139.708 69.807 140.02 69.144 140.02C68.364 140.02 67.688 139.461 67.688 138.512V134.703H66.518V138.811C66.518 140.332 67.675 141.138 68.871 141.138ZM76.6119 141.138C77.8859 141.138 78.6919 140.683 79.2249 140.267V139.11C78.3799 139.773 77.6259 140.059 76.6119 140.059C75.5589 140.059 74.7139 139.318 74.6619 138.278H79.4979C79.5109 138.2 79.5239 138.018 79.5239 137.862C79.5239 135.899 78.4059 134.495 76.4689 134.495C74.8179 134.495 73.4009 135.795 73.4009 137.797C73.4009 140.007 74.8699 141.138 76.6119 141.138ZM74.7009 137.264C74.7529 136.367 75.4419 135.574 76.4689 135.574C77.5999 135.574 78.2239 136.276 78.2499 137.264H74.7009Z" fill="#CFFFFF"/>
<path opacity="0.7" d="M203.17 140.943H206.342C208.032 140.943 209.163 139.89 209.163 138.434C209.163 137.407 208.578 136.471 207.525 136.211C208.331 135.912 208.877 135.21 208.877 134.248C208.877 132.766 207.876 131.843 206.121 131.843H203.17V140.943ZM204.392 135.756V132.935H205.978C206.979 132.935 207.616 133.468 207.616 134.261C207.616 135.158 207.005 135.756 205.978 135.756H204.392ZM204.392 139.851V136.848H206.212C207.33 136.848 207.889 137.472 207.889 138.356C207.889 139.253 207.187 139.851 206.212 139.851H204.392ZM210.914 140.943H212.11V133.442L217.089 140.943H218.337V131.843H217.141V138.772L212.435 131.843H210.914V140.943ZM220.677 140.943H223.849C225.539 140.943 226.67 139.89 226.67 138.434C226.67 137.407 226.085 136.471 225.032 136.211C225.838 135.912 226.384 135.21 226.384 134.248C226.384 132.766 225.383 131.843 223.628 131.843H220.677V140.943ZM221.899 135.756V132.935H223.485C224.486 132.935 225.123 133.468 225.123 134.261C225.123 135.158 224.512 135.756 223.485 135.756H221.899ZM221.899 139.851V136.848H223.719C224.837 136.848 225.396 137.472 225.396 138.356C225.396 139.253 224.694 139.851 223.719 139.851H221.899ZM227.511 142.243H228.694L233.803 131.193H232.62L227.511 142.243ZM238.514 141.138C240.386 141.138 241.842 140.02 241.842 137.849V131.843H240.62V137.81C240.62 139.175 239.801 139.968 238.514 139.968C237.24 139.968 236.395 139.175 236.395 137.81V131.843H235.173V137.849C235.173 140.02 236.642 141.138 238.514 141.138ZM247.531 135.86L246.153 135.561C245.373 135.392 244.97 134.937 244.97 134.222C244.97 133.325 245.737 132.766 246.933 132.766C247.778 132.766 248.662 133.039 249.429 133.429V132.181C248.753 131.895 247.986 131.648 246.933 131.648C244.866 131.648 243.722 132.831 243.722 134.222C243.722 135.652 244.567 136.432 245.932 136.731L247.245 137.017C248.168 137.212 248.623 137.823 248.623 138.473C248.623 139.331 248.129 140.007 246.855 140.007C245.724 140.007 244.554 139.565 243.787 139.123V140.345C244.463 140.709 245.464 141.138 246.855 141.138C248.831 141.138 249.897 139.851 249.897 138.473C249.897 137.134 249.065 136.198 247.531 135.86ZM251.844 140.943H254.99C257.33 140.943 259.358 139.435 259.358 136.419C259.358 133.39 257.356 131.843 255.016 131.843H251.844V140.943ZM253.066 139.812V132.974H254.977C256.68 132.974 258.084 134.092 258.084 136.419C258.084 138.733 256.654 139.812 254.951 139.812H253.066Z" fill="#CFFFFF"/>
<path d="M21.2031 168.193H22.4048L22.4112 166.754C25.115 166.556 26.6619 165.009 26.6619 162.938C26.6619 160.58 24.5589 159.666 22.897 159.257L22.4303 159.135L22.4431 155.031C23.6384 155.191 24.4566 155.856 24.5781 156.904H26.4829C26.4318 154.955 24.821 153.497 22.4495 153.306L22.4559 151.829H21.2542L21.2478 153.318C18.9531 153.548 17.272 154.98 17.272 157.045C17.272 158.867 18.5759 159.934 20.6789 160.503L21.2286 160.65L21.2158 165.003C19.9694 164.85 19.0042 164.172 18.9019 162.938H16.9204C17.0418 165.144 18.6335 166.563 21.2095 166.754L21.2031 168.193ZM22.4176 165.003L22.4303 160.982C23.7279 161.34 24.7059 161.813 24.7059 162.919C24.7059 164.038 23.7727 164.824 22.4176 165.003ZM21.235 158.816C20.2826 158.534 19.2343 158.029 19.2407 156.93C19.2407 155.971 20.0014 155.223 21.2414 155.038L21.235 158.816ZM33.8098 153.465H31.8858L28.6194 155.6V157.492L31.7515 155.447H31.8282V166.556H33.8098V153.465ZM41.9213 166.735C44.6571 166.761 46.4724 164.792 46.466 162.28C46.4724 159.774 44.6507 157.978 42.3815 157.978C41.0008 157.978 39.8055 158.643 39.1343 159.749H39.0385C39.0449 156.776 40.1699 155.012 42.0875 155.012C43.3467 155.012 44.1393 155.779 44.4078 156.866H46.3574C46.0569 154.795 44.427 153.286 42.0875 153.286C39.0449 153.286 37.1464 155.901 37.1464 160.452C37.14 165.271 39.5946 166.716 41.9213 166.735ZM41.9149 165.073C40.3936 165.073 39.2814 163.795 39.2814 162.325C39.2878 160.861 40.4511 159.583 41.9596 159.583C43.4554 159.583 44.5548 160.791 44.5484 162.306C44.5548 163.852 43.4106 165.073 41.9149 165.073ZM50.7263 164.767H48.8854L48.8215 165.482C48.6745 167.215 48.2654 168.96 48.0928 169.752H49.4479C49.7547 168.915 50.4323 166.997 50.6304 165.463L50.7263 164.767ZM57.5003 166.735C60.1722 166.735 62.1345 165.137 62.1281 162.964C62.1345 161.308 61.131 160.119 59.3923 159.851V159.749C60.7602 159.397 61.6487 158.323 61.6423 156.853C61.6487 154.929 60.0699 153.286 57.5514 153.286C55.148 153.286 53.2176 154.737 53.1537 156.866H55.0649C55.1097 155.664 56.2411 154.936 57.5259 154.936C58.8618 154.936 59.7375 155.747 59.7311 156.955C59.7375 158.221 58.7212 159.052 57.2702 159.052H56.1644V160.663H57.2702C59.0855 160.663 60.1338 161.583 60.1338 162.9C60.1338 164.172 59.028 165.035 57.4875 165.035C56.0685 165.035 54.9627 164.306 54.8859 163.143H52.8788C52.9619 165.278 54.854 166.735 57.5003 166.735ZM69.1019 166.735C71.7737 166.735 73.7361 165.137 73.7297 162.964C73.7361 161.308 72.7325 160.119 70.9939 159.851V159.749C72.3618 159.397 73.2503 158.323 73.2439 156.853C73.2503 154.929 71.6715 153.286 69.153 153.286C66.7496 153.286 64.8192 154.737 64.7553 156.866H66.6665C66.7112 155.664 67.8426 154.936 69.1274 154.936C70.4634 154.936 71.3391 155.747 71.3327 156.955C71.3391 158.221 70.3227 159.052 68.8717 159.052H67.7659V160.663H68.8717C70.6871 160.663 71.7354 161.583 71.7354 162.9C71.7354 164.172 70.6296 165.035 69.0891 165.035C67.67 165.035 66.5642 164.306 66.4875 163.143H64.4804C64.5635 165.278 66.4555 166.735 69.1019 166.735ZM80.7034 166.774C83.7269 166.774 85.4975 164.306 85.4975 160.017C85.4975 155.76 83.7013 153.286 80.7034 153.286C77.6992 153.286 75.9094 155.754 75.903 160.017C75.903 164.3 77.6736 166.767 80.7034 166.774ZM80.7034 165.067C78.9328 165.067 77.8654 163.29 77.8654 160.017C77.8717 156.757 78.9392 154.961 80.7034 154.961C82.4612 154.961 83.5351 156.757 83.5351 160.017C83.5351 163.29 82.4676 165.067 80.7034 165.067ZM89.7849 164.767H87.944L87.8801 165.482C87.7331 167.215 87.324 168.96 87.1514 169.752H88.5065C88.8133 168.915 89.4909 166.997 89.689 165.463L89.7849 164.767ZM92.5655 166.556H94.6301L100.325 155.217V153.465H91.6706V155.159H98.2799V155.255L92.5655 166.556ZM103.341 166.556H105.405L111.101 155.217V153.465H102.446V155.159H109.055V155.255L103.341 166.556ZM117.483 166.735C120.206 166.735 122.13 165.188 122.143 163.066C122.13 161.417 120.973 160.03 119.51 159.768V159.691C120.782 159.384 121.644 158.189 121.657 156.776C121.644 154.776 119.88 153.286 117.483 153.286C115.061 153.286 113.296 154.776 113.309 156.776C113.296 158.183 114.159 159.384 115.457 159.691V159.768C113.968 160.03 112.811 161.417 112.823 163.066C112.811 165.188 114.735 166.735 117.483 166.735ZM117.483 165.118C115.847 165.118 114.811 164.249 114.824 162.938C114.811 161.577 115.936 160.605 117.483 160.605C119.005 160.605 120.13 161.577 120.142 162.938C120.13 164.249 119.1 165.118 117.483 165.118ZM117.483 159.026C116.16 159.026 115.22 158.189 115.233 156.943C115.22 155.715 116.128 154.904 117.483 154.904C118.813 154.904 119.72 155.715 119.733 156.943C119.72 158.189 118.787 159.026 117.483 159.026ZM125.314 166.678C126.01 166.678 126.592 166.109 126.592 165.399C126.592 164.703 126.01 164.127 125.314 164.127C124.61 164.127 124.035 164.703 124.035 165.399C124.035 166.109 124.61 166.678 125.314 166.678ZM133.192 166.774C136.215 166.774 137.986 164.306 137.986 160.017C137.986 155.76 136.19 153.286 133.192 153.286C130.187 153.286 128.398 155.754 128.391 160.017C128.391 164.3 130.162 166.767 133.192 166.774ZM133.192 165.067C131.421 165.067 130.354 163.29 130.354 160.017C130.36 156.757 131.427 154.961 133.192 154.961C134.95 154.961 136.023 156.757 136.023 160.017C136.023 163.29 134.956 165.067 133.192 165.067ZM144.811 166.735C147.483 166.735 149.445 165.137 149.439 162.964C149.445 161.308 148.442 160.119 146.703 159.851V159.749C148.071 159.397 148.959 158.323 148.953 156.853C148.959 154.929 147.38 153.286 144.862 153.286C142.459 153.286 140.528 154.737 140.464 156.866H142.375C142.42 155.664 143.552 154.936 144.836 154.936C146.172 154.936 147.048 155.747 147.042 156.955C147.048 158.221 146.032 159.052 144.581 159.052H143.475V160.663H144.581C146.396 160.663 147.444 161.583 147.444 162.9C147.444 164.172 146.339 165.035 144.798 165.035C143.379 165.035 142.273 164.306 142.196 163.143H140.189C140.272 165.278 142.165 166.735 144.811 166.735Z" fill="white"/>
<path d="M207.203 168.579H208.405L208.411 167.141C211.115 166.943 212.662 165.396 212.662 163.325C212.662 160.966 210.559 160.052 208.897 159.643L208.43 159.522L208.443 155.418C209.638 155.578 210.457 156.242 210.578 157.291H212.483C212.432 155.341 210.821 153.884 208.45 153.692L208.456 152.215H207.254L207.248 153.705C204.953 153.935 203.272 155.367 203.272 157.431C203.272 159.253 204.576 160.321 206.679 160.889L207.229 161.036L207.216 165.389C205.969 165.236 205.004 164.559 204.902 163.325H202.92C203.042 165.53 204.634 166.949 207.21 167.141L207.203 168.579ZM208.418 165.389L208.43 161.369C209.728 161.727 210.706 162.2 210.706 163.306C210.706 164.424 209.773 165.211 208.418 165.389ZM207.235 159.202C206.283 158.921 205.234 158.416 205.241 157.316C205.241 156.358 206.001 155.61 207.241 155.424L207.235 159.202ZM219.164 167.122C221.798 167.122 223.677 165.262 223.671 162.711C223.677 160.18 221.913 158.339 219.529 158.339C218.557 158.339 217.656 158.71 217.144 159.208H217.068L217.483 155.546H223.038V153.852H215.84L215.105 160.448L216.914 160.717C217.406 160.276 218.289 159.975 219.081 159.975C220.634 159.988 221.759 161.152 221.759 162.75C221.759 164.322 220.666 165.46 219.164 165.46C217.899 165.46 216.895 164.654 216.793 163.529H214.875C214.952 165.613 216.761 167.122 219.164 167.122ZM230.429 167.122C233.152 167.122 235.076 165.575 235.088 163.453C235.076 161.804 233.919 160.416 232.455 160.154V160.078C233.727 159.771 234.59 158.576 234.603 157.163C234.59 155.162 232.826 153.673 230.429 153.673C228.006 153.673 226.242 155.162 226.255 157.163C226.242 158.569 227.105 159.771 228.402 160.078V160.154C226.913 160.416 225.756 161.804 225.769 163.453C225.756 165.575 227.68 167.122 230.429 167.122ZM230.429 165.505C228.792 165.505 227.757 164.635 227.77 163.325C227.757 161.963 228.882 160.992 230.429 160.992C231.95 160.992 233.075 161.963 233.088 163.325C233.075 164.635 232.046 165.505 230.429 165.505ZM230.429 159.413C229.105 159.413 228.166 158.576 228.179 157.329C228.166 156.102 229.074 155.29 230.429 155.29C231.758 155.29 232.666 156.102 232.679 157.329C232.666 158.576 231.733 159.413 230.429 159.413ZM241.699 167.122C244.333 167.122 246.212 165.262 246.206 162.711C246.212 160.18 244.448 158.339 242.064 158.339C241.092 158.339 240.191 158.71 239.68 159.208H239.603L240.018 155.546H245.573V153.852H238.376L237.64 160.448L239.449 160.717C239.942 160.276 240.824 159.975 241.616 159.975C243.17 159.988 244.295 161.152 244.295 162.75C244.295 164.322 243.202 165.46 241.699 165.46C240.434 165.46 239.43 164.654 239.328 163.529H237.41C237.487 165.613 239.296 167.122 241.699 167.122ZM249.368 167.064C250.065 167.064 250.647 166.495 250.647 165.786C250.647 165.089 250.065 164.514 249.368 164.514C248.665 164.514 248.09 165.089 248.09 165.786C248.09 166.495 248.665 167.064 249.368 167.064ZM256.566 153.852H254.642L251.375 155.987V157.879L254.507 155.833H254.584V166.943H256.566V153.852ZM260.548 166.943H262.613L268.308 155.603V153.852H259.653V155.546H266.262V155.642L260.548 166.943Z" fill="white"/>
<line opacity="0.2" x1="15.9999" y1="55.5" x2="280" y2="55.5" stroke="#62C6BA"/>
<path fill-rule="evenodd" clip-rule="evenodd" d="M24 40C28.4183 40 32 36.4183 32 32C32 27.5817 28.4183 24 24 24C19.5817 24 16 27.5817 16 32C16 36.4183 19.5817 40 24 40Z" stroke="#22FFCA" stroke-linecap="round" stroke-linejoin="round"/>
<path fill-rule="evenodd" clip-rule="evenodd" d="M24.0001 33.6001C24.8837 33.6001 25.6001 32.8838 25.6001 32.0001C25.6001 31.1165 24.8837 30.4001 24.0001 30.4001C23.1164 30.4001 22.4001 31.1165 22.4001 32.0001C22.4001 32.8838 23.1164 33.6001 24.0001 33.6001Z" stroke="#22FFCA" stroke-linecap="round" stroke-linejoin="round"/>
<path d="M23.9995 26.8002V27.5993" stroke="#22FFCA" stroke-linecap="round" stroke-linejoin="round"/>
<path d="M18.8 31.9996H19.5991" stroke="#22FFCA" stroke-linecap="round" stroke-linejoin="round"/>
<path d="M28.4 31.9996H29.1991" stroke="#22FFCA" stroke-linecap="round" stroke-linejoin="round"/>
<path d="M27.5993 28.4001L27.0343 28.9652" stroke="#22FFCA" stroke-linecap="round" stroke-linejoin="round"/>
<path d="M20.2344 28.4001L22.4001 30.5658" stroke="#22FFCA" stroke-linecap="round" stroke-linejoin="round"/>
<defs>
<linearGradient id="paint0_linear_2025_44546" x1="38.0808" y1="-46.3242" x2="180.56" y2="121.709" gradientUnits="userSpaceOnUse">
<stop stop-color="#EEE7FF"/>
<stop offset="0.0001" stop-color="white"/>
<stop offset="0.296875" stop-color="#00FFFF" stop-opacity="0.5"/>
<stop offset="1" stop-color="#5200FF" stop-opacity="0"/>
</linearGradient>
</defs>
</svg>
