<svg width="896" height="634" viewBox="0 0 896 634" fill="none" xmlns="http://www.w3.org/2000/svg">
<ellipse cx="528.783" cy="289.334" rx="322.623" ry="213.094" transform="rotate(165 528.783 289.334)" fill="url(#paint0_linear_2401_77754)"/>
<ellipse cx="588.358" cy="291.596" rx="252.13" ry="71.6561" transform="rotate(-120 588.358 291.596)" fill="url(#paint1_linear_2401_77754)"/>
<path opacity="0.5" d="M411.978 134.943C514.316 194.029 546.748 329.537 484.339 437.632C421.931 545.727 288.361 585.395 186.022 526.31C83.6841 467.224 51.2519 331.716 113.661 223.621C176.069 115.526 309.639 75.8585 411.978 134.943Z" stroke="url(#paint2_linear_2401_77754)"/>
<path opacity="0.5" d="M370.763 208.241C422.218 237.948 460.825 278.614 481.662 320.323C502.5 362.036 505.541 404.732 485.994 438.588C466.448 472.443 427.951 491.158 381.408 493.968C334.869 496.778 280.347 483.675 228.892 453.968C177.437 424.26 138.829 383.594 117.993 341.885C97.1547 300.172 94.1139 257.476 113.661 223.621C133.207 189.765 171.703 171.05 218.247 168.24C264.786 165.431 319.307 178.533 370.763 208.241Z" stroke="url(#paint3_linear_2401_77754)"/>
<path opacity="0.5" d="M330.153 278.578C381.653 308.311 424.813 341.191 452.964 370.304C467.042 384.863 477.346 398.458 483.069 410.229C488.802 422.018 489.883 431.852 485.755 439.002C481.627 446.151 472.57 450.132 459.494 451.062C446.439 451.99 429.513 449.865 409.866 444.953C370.578 435.13 320.523 414.192 269.023 384.458C217.524 354.725 174.363 321.845 146.212 292.732C132.134 278.173 121.831 264.578 116.107 252.808C110.375 241.018 109.294 231.184 113.421 224.035C117.549 216.885 126.607 212.904 139.682 211.974C152.737 211.046 169.663 213.171 189.311 218.083C228.598 227.907 278.654 248.844 330.153 278.578Z" stroke="url(#paint4_linear_2401_77754)"/>
<defs>
<linearGradient id="paint0_linear_2401_77754" x1="528.783" y1="76.2401" x2="528.783" y2="482.54" gradientUnits="userSpaceOnUse">
<stop stop-color="#00FFFF" stop-opacity="0.3"/>
<stop offset="1" stop-color="#5200FF" stop-opacity="0"/>
</linearGradient>
<linearGradient id="paint1_linear_2401_77754" x1="588.358" y1="219.94" x2="588.358" y2="356.565" gradientUnits="userSpaceOnUse">
<stop stop-color="#D26FEB" stop-opacity="0.3"/>
<stop offset="1" stop-color="#5200FF" stop-opacity="0"/>
</linearGradient>
<linearGradient id="paint2_linear_2401_77754" x1="48.9929" y1="390.46" x2="454.095" y2="249.307" gradientUnits="userSpaceOnUse">
<stop stop-color="#D26FEB"/>
<stop offset="1" stop-color="#00FFFF" stop-opacity="0"/>
</linearGradient>
<linearGradient id="paint3_linear_2401_77754" x1="81.928" y1="333.663" x2="348.809" y2="169.298" gradientUnits="userSpaceOnUse">
<stop stop-color="#D26FEB"/>
<stop offset="1" stop-color="#00FFFF" stop-opacity="0"/>
</linearGradient>
<linearGradient id="paint4_linear_2401_77754" x1="113.211" y1="279.48" x2="215.921" y2="169.947" gradientUnits="userSpaceOnUse">
<stop stop-color="#D26FEB"/>
<stop offset="1" stop-color="#00FFFF" stop-opacity="0"/>
</linearGradient>
</defs>
</svg>
