<svg width="164" height="164" viewBox="0 0 164 164" fill="none" xmlns="http://www.w3.org/2000/svg">
<path d="M34.3216 51.4975C34.6507 48.6583 36.4694 46.2105 39.0927 45.0759L84.2528 25.5448C86.8761 24.4102 89.9054 24.7614 92.1996 26.4659L131.694 55.8101C133.988 57.5147 135.199 60.3137 134.87 63.1528L129.204 112.028C128.875 114.867 127.056 117.315 124.433 118.45L79.273 137.981C76.6497 139.115 73.6204 138.764 71.3262 137.06L31.8317 107.716C29.5375 106.011 28.3269 103.212 28.656 100.373L34.3216 51.4975Z" fill="url(#paint0_linear)" fill-opacity="0.1"/>
<path d="M34.8183 51.555C35.1268 48.8934 36.8319 46.5985 39.2912 45.5348L84.4513 26.0037C86.9106 24.94 89.7506 25.2692 91.9014 26.8673L131.396 56.2114C133.547 57.8095 134.682 60.4336 134.373 63.0952L128.708 111.971C128.399 114.632 126.694 116.927 124.235 117.991L79.0745 137.522C76.6152 138.586 73.7752 138.256 71.6244 136.658L32.1299 107.314C29.9791 105.716 28.8442 103.092 29.1527 100.43L34.8183 51.555Z" stroke="url(#paint1_radial)"/>
<defs>
<linearGradient id="paint0_linear" x1="34.8534" y1="46.9094" x2="124.294" y2="113.363" gradientUnits="userSpaceOnUse">
<stop stop-color="#00FFFF" stop-opacity="0.5"/>
<stop offset="1" stop-color="#00789D"/>
</linearGradient>
<radialGradient id="paint1_radial" cx="0" cy="0" r="1" gradientUnits="userSpaceOnUse" gradientTransform="translate(55.3297 35.873) rotate(61.049) scale(97.9741)">
<stop stop-color="#00FFFF"/>
<stop offset="1" stop-opacity="0"/>
</radialGradient>
</defs>
</svg>
