<svg width="40" height="40" viewBox="0 0 40 40" fill="none" xmlns="http://www.w3.org/2000/svg">
<path d="M20 0L37.3205 10V30L20 40L2.67949 30V10L20 0Z" fill="white"/>
<g clip-path="url(#clip0)">
<path d="M14.15 12.0833C14.15 13.2342 13.225 14.1667 12.0833 14.1667C10.9417 14.1667 10.0167 13.2342 10.0167 12.0833C10.0167 10.9333 10.9417 10 12.0833 10C13.225 10 14.15 10.9333 14.15 12.0833ZM14.1667 15.8333H10V29.1667H14.1667V15.8333ZM20.8183 15.8333H16.6783V29.1667H20.8192V22.1675C20.8192 18.2758 25.8433 17.9575 25.8433 22.1675V29.1667H30V20.7242C30 14.1575 22.565 14.3967 20.8183 17.6292V15.8333Z" fill="black"/>
</g>
<defs>
<clipPath id="clip0">
<rect width="20" height="20" fill="white" transform="translate(10 9.16675)"/>
</clipPath>
</defs>
</svg>
