<svg width="16" height="24" viewBox="0 0 16 24" fill="none" xmlns="http://www.w3.org/2000/svg">
<path fill-rule="evenodd" clip-rule="evenodd" d="M15.713 10.8172C15.8772 10.1834 15.9645 9.51884 15.9645 8.83405C15.9645 4.45295 12.3907 0.901367 7.98226 0.901367C3.57378 0.901367 0 4.45295 0 8.83405C0 9.51884 0.087312 10.1834 0.251476 10.8172C1.13759 14.2386 7.98226 23.7078 7.98226 23.7078C7.98226 23.7078 14.8269 14.2386 15.713 10.8172ZM7.98226 12.8748C10.1865 12.8748 11.9734 11.0879 11.9734 8.88363C11.9734 6.67939 10.1865 4.8925 7.98226 4.8925C5.77802 4.8925 3.99113 6.67939 3.99113 8.88363C3.99113 11.0879 5.77802 12.8748 7.98226 12.8748Z" fill="#00FFD1"/>
</svg>
