<svg width="19" height="19" viewBox="0 0 19 19" fill="none" xmlns="http://www.w3.org/2000/svg">
<path d="M19 9.43845C19 9.43352 18.9992 9.42942 18.9992 9.42449C18.9868 7.32752 18.2902 5.38976 17.1189 3.8238C17.0967 3.78605 17.0704 3.7524 17.0416 3.72203C15.3036 1.46091 12.5696 0 9.5 0C6.43039 0 3.69636 1.46091 1.9584 3.72203C1.92961 3.75158 1.90329 3.78523 1.88108 3.82298C0.710649 5.38894 0.0131597 7.32752 0.000822059 9.42449C0.000822059 9.42942 0 9.43352 0 9.43845C0 9.44091 -4.518e-07 9.44419 0.000822059 9.44665C0.000822059 9.45732 0 9.46881 0 9.47948C0 14.5024 3.93571 18.6249 8.89216 18.9393C9.09121 18.9795 9.29437 19 9.5 19C9.50987 19 9.51892 18.9992 9.52879 18.9992C9.5329 18.9992 9.53701 19 9.54113 19C9.55182 19 9.56251 18.9992 9.5732 18.9984C9.75416 18.9943 9.93264 18.9737 10.1078 18.9393C15.0643 18.6249 19 14.5024 19 9.47948C19 9.46881 19 9.45732 18.9992 9.44665C19 9.44419 19 9.44091 19 9.43845ZM16.5374 14.1068C15.8802 13.7801 15.1358 13.5044 14.3281 13.2836C14.5658 12.2651 14.7081 11.1497 14.7377 9.97192H17.9159C17.8271 11.4927 17.3319 12.9069 16.5374 14.1068ZM1.08407 9.97192H4.26225C4.29104 11.1497 4.43416 12.2642 4.67186 13.2836C3.86498 13.5035 3.11978 13.7801 2.4626 14.1068C1.66805 12.9069 1.1729 11.4927 1.08407 9.97192ZM2.50866 4.78242C3.16502 5.10415 3.90693 5.37663 4.71052 5.59413C4.4613 6.60937 4.30749 7.72475 4.26719 8.90497H1.089C1.19264 7.38579 1.70095 5.97577 2.50866 4.78242ZM10.0758 6.18834C11.1722 6.15715 12.2398 6.03814 13.2375 5.83952C13.4719 6.78173 13.6216 7.81832 13.6627 8.90497H10.0758V6.18834ZM10.0758 5.12056V1.19253C11.2478 1.53477 12.2809 2.90212 12.9356 4.81361C12.0342 4.98596 11.0694 5.09102 10.0758 5.12056ZM9.00649 1.16955V5.12302C7.98329 5.09676 6.99052 4.99089 6.06437 4.81279C6.73472 2.8578 7.80069 1.47158 9.00649 1.16955ZM9.00649 6.18998V8.90497H5.33727C5.3784 7.81832 5.52727 6.78173 5.76251 5.83952C6.78571 6.04307 7.8813 6.16289 9.00649 6.18998ZM5.33234 9.97192H9.00649V12.6762C7.86649 12.7041 6.75693 12.8273 5.72221 13.0349C5.49931 12.0902 5.36195 11.0545 5.33234 9.97192ZM9.00649 13.7432V17.8707C7.76779 17.5613 6.67632 16.1061 6.01009 14.0641C6.95186 13.8803 7.96355 13.7703 9.00649 13.7432ZM10.0758 17.8485V13.7457C11.0899 13.776 12.0728 13.8844 12.9899 14.0641C12.3385 16.0609 11.2807 17.4964 10.0758 17.8485ZM10.0758 12.6787V9.97192H13.6677C13.6372 11.0545 13.5007 12.0902 13.2778 13.0357C12.2686 12.8322 11.187 12.7099 10.0758 12.6787ZM14.7328 8.90497C14.6925 7.72475 14.5387 6.61019 14.2895 5.59413C15.0931 5.37745 15.835 5.10497 16.4913 4.78242C17.299 5.97577 17.8074 7.38579 17.911 8.90497H14.7328V8.90497ZM15.8218 3.91983C15.2707 4.17425 14.6571 4.39257 13.995 4.56985C13.5953 3.36665 13.05 2.34648 12.4018 1.57991C13.7302 2.06825 14.9022 2.87996 15.8218 3.91983ZM6.59818 1.58073C5.95004 2.3473 5.40554 3.36747 5.00498 4.57067C4.34368 4.39257 3.72926 4.17508 3.17818 3.92065C4.09775 2.87996 5.26983 2.06825 6.59818 1.58073ZM3.12061 14.9735C3.67169 14.7141 4.28857 14.4925 4.95316 14.3111C5.3381 15.5217 5.86615 16.555 6.49948 17.3413C5.18429 16.839 4.02619 16.0183 3.12061 14.9735ZM12.5005 17.3413C13.1339 16.555 13.6619 15.5217 14.0468 14.3111C14.7114 14.4925 15.3283 14.7149 15.8794 14.9735C14.9738 16.0183 13.8157 16.839 12.5005 17.3413Z" fill="white"/>
</svg>
