<svg width="303" height="271" viewBox="0 0 303 271" fill="none" xmlns="http://www.w3.org/2000/svg">
<path d="M0 5.06405C0 2.26725 2.26726 0 5.06407 0H297.936C300.733 0 303 2.26726 303 5.06407V265.02C303 267.816 300.733 270.084 297.936 270.084H5.06406C2.26726 270.084 0 267.816 0 265.02V5.06405Z" fill="black"/>
<path d="M0.422006 5.06405C0.422006 2.50032 2.50033 0.422006 5.06407 0.422006H297.936C300.5 0.422006 302.578 2.50033 302.578 5.06407V265.02C302.578 267.583 300.5 269.662 297.936 269.662H5.06406C2.50032 269.662 0.422006 267.583 0.422006 265.02V5.06405Z" stroke="#00FFFF" stroke-opacity="0.6" stroke-width="0.844011"/>
<path d="M34.9736 28.5042V19.0486H36.2726L39.8399 24.8709L43.4269 19.0486H44.6995V28.5042H43.4533V21.2641L39.8926 27.0205H39.7541L36.2198 21.2641V28.5042H34.9736ZM46.592 26.4403C46.592 26.0095 46.7084 25.6314 46.9414 25.3061C47.1788 24.9808 47.4843 24.7369 47.858 24.5742C48.2316 24.4116 48.6426 24.3303 49.091 24.3303C49.8251 24.3303 50.4384 24.4665 50.9307 24.7391V24.0467C50.9307 23.7126 50.8032 23.4357 50.5483 23.2159C50.2933 22.9961 49.9262 22.8862 49.4471 22.8862C49.0075 22.8862 48.5679 22.9587 48.1283 23.1038C47.6887 23.2445 47.3041 23.4203 46.9744 23.6313V22.3983C47.7657 22.0026 48.5899 21.8048 49.4471 21.8048C49.913 21.8048 50.3241 21.8686 50.6801 21.996C51.0362 22.1235 51.3175 22.2994 51.5241 22.5235C51.7307 22.7433 51.8846 22.9939 51.9857 23.2752C52.0912 23.5522 52.144 23.8555 52.144 24.1852V28.5042H50.9703V27.9766C50.7549 28.1876 50.4823 28.3635 50.1526 28.5042C49.8273 28.6404 49.4735 28.7086 49.091 28.7086C48.3481 28.7086 47.7459 28.5085 47.2843 28.1085C46.8227 27.7041 46.592 27.148 46.592 26.4403ZM47.8646 26.4403C47.8646 26.8139 47.9986 27.1129 48.2668 27.337C48.5393 27.5568 48.8866 27.6667 49.3086 27.6667C49.6515 27.6667 49.968 27.5986 50.2581 27.4623C50.5483 27.3261 50.7724 27.1788 50.9307 27.0205V25.8271C50.7812 25.7084 50.557 25.5985 50.2581 25.4974C49.9636 25.3963 49.6471 25.3457 49.3086 25.3457C48.8866 25.3457 48.5393 25.4424 48.2668 25.6358C47.9986 25.8293 47.8646 26.0974 47.8646 26.4403ZM54.043 28.5042V22.0224H55.2299V23.1434C55.3925 22.7214 55.6541 22.3939 56.0145 22.1609C56.3794 21.9235 56.7794 21.8048 57.2146 21.8048C57.3289 21.8048 57.4784 21.818 57.663 21.8444V23.1961C57.4696 23.1697 57.2762 23.1565 57.0827 23.1565C56.5904 23.1565 56.1882 23.2884 55.8761 23.5522C55.564 23.8159 55.3574 24.1258 55.2563 24.4819V28.5042H54.043ZM59.1466 28.5042V18.7123H60.3599V24.7523L63.281 22.0224H64.9953L62.2523 24.561L65.0481 28.5042H63.492L61.3358 25.4116L60.3599 26.3018V28.5042H59.1466ZM65.4503 25.2336C65.4503 24.7281 65.536 24.2599 65.7075 23.8291C65.8789 23.3939 66.1097 23.0313 66.3998 22.7411C66.69 22.4466 67.0284 22.218 67.4153 22.0554C67.8021 21.8883 68.2087 21.8048 68.6351 21.8048C69.6198 21.8048 70.3957 22.1279 70.9628 22.7741C71.5298 23.4203 71.8134 24.2643 71.8134 25.3061C71.8134 25.46 71.8024 25.6029 71.7804 25.7347H66.7625C66.7889 26.271 66.9955 26.715 67.3823 27.0667C67.7692 27.414 68.2373 27.5876 68.7868 27.5876C69.3055 27.5876 69.7759 27.5107 70.1979 27.3568C70.6199 27.1986 71.0529 26.9458 71.4969 26.5985V27.8052C70.732 28.4074 69.8286 28.7086 68.7868 28.7086C68.3296 28.7086 67.901 28.6338 67.501 28.4844C67.101 28.3349 66.7471 28.1195 66.4394 27.8382C66.1361 27.5524 65.8943 27.1876 65.7141 26.7436C65.5382 26.2952 65.4503 25.7919 65.4503 25.2336ZM66.8021 24.6797H70.488C70.4748 24.1522 70.3056 23.728 69.9803 23.4071C69.655 23.0862 69.2066 22.9258 68.6351 22.9258C68.1164 22.9258 67.6878 23.0972 67.3493 23.4401C67.0109 23.783 66.8284 24.1962 66.8021 24.6797ZM72.6178 23.1038V22.0224H73.8707V20.1036L75.0048 19.431V22.0224H76.5873V23.1038H75.0048V26.7238C75.0048 27.3173 75.3301 27.614 75.9807 27.614C76.1961 27.614 76.3983 27.581 76.5873 27.5151V28.5701C76.3411 28.6624 76.018 28.7086 75.618 28.7086C75.0553 28.7086 74.6092 28.5525 74.2795 28.2404C73.9542 27.9283 73.7915 27.4843 73.7915 26.9084V23.1038H72.6178ZM81.6975 25.2336C81.6975 24.5962 81.8206 24.0203 82.0668 23.506C82.3174 22.9873 82.68 22.5741 83.1548 22.2664C83.6339 21.9587 84.1834 21.8048 84.8032 21.8048C85.6385 21.8048 86.344 22.1015 86.9199 22.695V18.7123H88.1397V28.5042H86.9199V27.8052C86.3352 28.4074 85.6297 28.7086 84.8032 28.7086C84.1834 28.7086 83.6339 28.5525 83.1548 28.2404C82.68 27.9283 82.3174 27.5107 82.0668 26.9876C81.8206 26.4645 81.6975 25.8798 81.6975 25.2336ZM82.9767 25.2336C82.9767 25.9501 83.1614 26.5172 83.5306 26.9348C83.8999 27.3524 84.3966 27.5612 85.0208 27.5612C85.4209 27.5612 85.7813 27.4601 86.1022 27.2579C86.4275 27.0513 86.7001 26.792 86.9199 26.4798V24.0203C86.7001 23.7082 86.4275 23.4533 86.1022 23.2555C85.7813 23.0532 85.4209 22.9521 85.0208 22.9521C84.3966 22.9521 83.8999 23.1565 83.5306 23.5654C83.1614 23.9742 82.9767 24.5303 82.9767 25.2336ZM89.7552 26.4403C89.7552 26.0095 89.8717 25.6314 90.1047 25.3061C90.3421 24.9808 90.6476 24.7369 91.0212 24.5742C91.3949 24.4116 91.8059 24.3303 92.2543 24.3303C92.9884 24.3303 93.6016 24.4665 94.0939 24.7391V24.0467C94.0939 23.7126 93.9665 23.4357 93.7115 23.2159C93.4565 22.9961 93.0895 22.8862 92.6103 22.8862C92.1707 22.8862 91.7312 22.9587 91.2916 23.1038C90.852 23.2445 90.4673 23.4203 90.1376 23.6313V22.3983C90.9289 22.0026 91.7531 21.8048 92.6103 21.8048C93.0763 21.8048 93.4873 21.8686 93.8434 21.996C94.1995 22.1235 94.4808 22.2994 94.6874 22.5235C94.894 22.7433 95.0479 22.9939 95.149 23.2752C95.2545 23.5522 95.3072 23.8555 95.3072 24.1852V28.5042H94.1335V27.9766C93.9181 28.1876 93.6456 28.3635 93.3159 28.5042C92.9906 28.6404 92.6367 28.7086 92.2543 28.7086C91.5114 28.7086 90.9091 28.5085 90.4476 28.1085C89.986 27.7041 89.7552 27.148 89.7552 26.4403ZM91.0278 26.4403C91.0278 26.8139 91.1619 27.1129 91.43 27.337C91.7026 27.5568 92.0499 27.6667 92.4719 27.6667C92.8147 27.6667 93.1312 27.5986 93.4214 27.4623C93.7115 27.3261 93.9357 27.1788 94.0939 27.0205V25.8271C93.9445 25.7084 93.7203 25.5985 93.4214 25.4974C93.1269 25.3963 92.8103 25.3457 92.4719 25.3457C92.0499 25.3457 91.7026 25.4424 91.43 25.6358C91.1619 25.8293 91.0278 26.0974 91.0278 26.4403ZM96.3952 23.1038V22.0224H97.648V20.1036L98.7822 19.431V22.0224H100.365V23.1038H98.7822V26.7238C98.7822 27.3173 99.1075 27.614 99.7581 27.614C99.9735 27.614 100.176 27.581 100.365 27.5151V28.5701C100.119 28.6624 99.7954 28.7086 99.3954 28.7086C98.8327 28.7086 98.3865 28.5525 98.0568 28.2404C97.7315 27.9283 97.5689 27.4843 97.5689 26.9084V23.1038H96.3952ZM101.65 26.4403C101.65 26.0095 101.767 25.6314 102 25.3061C102.237 24.9808 102.543 24.7369 102.917 24.5742C103.29 24.4116 103.701 24.3303 104.15 24.3303C104.884 24.3303 105.497 24.4665 105.989 24.7391V24.0467C105.989 23.7126 105.862 23.4357 105.607 23.2159C105.352 22.9961 104.985 22.8862 104.506 22.8862C104.066 22.8862 103.626 22.9587 103.187 23.1038C102.747 23.2445 102.363 23.4203 102.033 23.6313V22.3983C102.824 22.0026 103.648 21.8048 104.506 21.8048C104.972 21.8048 105.383 21.8686 105.739 21.996C106.095 22.1235 106.376 22.2994 106.583 22.5235C106.789 22.7433 106.943 22.9939 107.044 23.2752C107.15 23.5522 107.202 23.8555 107.202 24.1852V28.5042H106.029V27.9766C105.813 28.1876 105.541 28.3635 105.211 28.5042C104.886 28.6404 104.532 28.7086 104.15 28.7086C103.407 28.7086 102.804 28.5085 102.343 28.1085C101.881 27.7041 101.65 27.148 101.65 26.4403ZM102.923 26.4403C102.923 26.8139 103.057 27.1129 103.325 27.337C103.598 27.5568 103.945 27.6667 104.367 27.6667C104.71 27.6667 105.027 27.5986 105.317 27.4623C105.607 27.3261 105.831 27.1788 105.989 27.0205V25.8271C105.84 25.7084 105.616 25.5985 105.317 25.4974C105.022 25.3963 104.706 25.3457 104.367 25.3457C103.945 25.3457 103.598 25.4424 103.325 25.6358C103.057 25.8293 102.923 26.0974 102.923 26.4403Z" fill="white"/>
<line opacity="0.2" x1="13.5042" y1="43.4665" x2="289.496" y2="43.4665" stroke="#62C6BA" stroke-width="0.844011"/>
<path d="M23.6324 16.0363H27.0084V19.4123" stroke="#22FFCA" stroke-width="0.844011" stroke-linecap="round" stroke-linejoin="round"/>
<path d="M13.5042 21.7752L18.5683 17.724L21.9443 20.0872L26.6708 16.3735" stroke="#22FFCA" stroke-width="0.844011" stroke-linecap="round" stroke-linejoin="round"/>
<path d="M15.1922 23.4635V29.5404" stroke="#22FFCA" stroke-width="0.844011" stroke-linecap="round" stroke-linejoin="round"/>
<path d="M18.5683 20.7627V29.5404" stroke="#22FFCA" stroke-width="0.844011" stroke-linecap="round" stroke-linejoin="round"/>
<path d="M21.9443 22.7883V29.5404" stroke="#22FFCA" stroke-width="0.844011" stroke-linecap="round" stroke-linejoin="round"/>
<path d="M25.3203 21.4379V29.5404" stroke="#22FFCA" stroke-width="0.844011" stroke-linecap="round" stroke-linejoin="round"/>
<path opacity="0.7" d="M14.4897 65.0167V57.3341H15.5451L18.4435 62.0647L21.358 57.3341H22.392V65.0167H21.3794V59.1342L18.4864 63.8113H18.3739L15.5023 59.1342V65.0167H14.4897ZM23.9296 63.3398C23.9296 62.9898 24.0242 62.6826 24.2135 62.4183C24.4064 62.154 24.6546 61.9558 24.9582 61.8237C25.2618 61.6915 25.5958 61.6254 25.9601 61.6254C26.5565 61.6254 27.0548 61.7362 27.4548 61.9576V61.3951C27.4548 61.1236 27.3512 60.8986 27.1441 60.72C26.9369 60.5414 26.6387 60.4521 26.2494 60.4521C25.8922 60.4521 25.535 60.5111 25.1779 60.6289C24.8207 60.7432 24.5082 60.8861 24.2403 61.0575V60.0557C24.8832 59.7342 25.5529 59.5735 26.2494 59.5735C26.628 59.5735 26.9619 59.6253 27.2512 59.7289C27.5405 59.8325 27.7691 59.9753 27.937 60.1575C28.1049 60.3361 28.2299 60.5396 28.312 60.7682C28.3977 60.9932 28.4406 61.2397 28.4406 61.5076V65.0167H27.487V64.5881C27.312 64.7596 27.0905 64.9024 26.8226 65.0167C26.5583 65.1274 26.2708 65.1828 25.9601 65.1828C25.3565 65.1828 24.8671 65.0203 24.4921 64.6953C24.1171 64.3667 23.9296 63.9149 23.9296 63.3398ZM24.9636 63.3398C24.9636 63.6434 25.0725 63.8863 25.2904 64.0684C25.5118 64.247 25.794 64.3363 26.1369 64.3363C26.4155 64.3363 26.6726 64.281 26.9084 64.1702C27.1441 64.0595 27.3262 63.9399 27.4548 63.8113V62.8416C27.3334 62.7451 27.1512 62.6559 26.9084 62.5737C26.6691 62.4916 26.4119 62.4505 26.1369 62.4505C25.794 62.4505 25.5118 62.5291 25.2904 62.6862C25.0725 62.8434 24.9636 63.0612 24.9636 63.3398ZM29.9836 65.0167V59.7503H30.9479V60.6611C31.0801 60.3182 31.2926 60.0521 31.5854 59.8628C31.8819 59.6699 32.2069 59.5735 32.5605 59.5735C32.6534 59.5735 32.7748 59.5842 32.9248 59.6057V60.7039C32.7677 60.6825 32.6105 60.6718 32.4534 60.6718C32.0533 60.6718 31.7265 60.7789 31.4729 60.9932C31.2193 61.2075 31.0515 61.4593 30.9693 61.7487V65.0167H29.9836ZM34.1303 65.0167V57.0608H35.116V61.9683L37.4894 59.7503H38.8823L36.6536 61.8129L38.9252 65.0167H37.6608L35.9089 62.5041L35.116 63.2273V65.0167H34.1303ZM39.252 62.3594C39.252 61.9487 39.3217 61.5683 39.461 61.2183C39.6003 60.8647 39.7878 60.57 40.0235 60.3343C40.2592 60.095 40.5342 59.9092 40.8485 59.7771C41.1629 59.6414 41.4932 59.5735 41.8397 59.5735C42.6397 59.5735 43.2701 59.836 43.7309 60.3611C44.1916 60.8861 44.422 61.5719 44.422 62.4183C44.422 62.5433 44.4131 62.6594 44.3952 62.7666H40.3182C40.3396 63.2023 40.5075 63.5631 40.8218 63.8488C41.1361 64.131 41.5165 64.272 41.9629 64.272C42.3844 64.272 42.7665 64.2095 43.1094 64.0845C43.4523 63.9559 43.8041 63.7506 44.1648 63.4684V64.4488C43.5434 64.9381 42.8094 65.1828 41.9629 65.1828C41.5915 65.1828 41.2432 65.1221 40.9182 65.0007C40.5932 64.8792 40.3057 64.7042 40.0556 64.4756C39.8092 64.2435 39.6128 63.947 39.4663 63.5863C39.3234 63.222 39.252 62.813 39.252 62.3594ZM40.3503 61.9094H43.3451C43.3344 61.4808 43.1969 61.1361 42.9326 60.8754C42.6683 60.6147 42.304 60.4843 41.8397 60.4843C41.4182 60.4843 41.07 60.6236 40.795 60.9022C40.52 61.1808 40.3717 61.5165 40.3503 61.9094ZM45.0756 60.6289V59.7503H46.0935V58.1913L47.015 57.6448V59.7503H48.3008V60.6289H47.015V63.5702C47.015 64.0524 47.2793 64.2935 47.8079 64.2935C47.9829 64.2935 48.1472 64.2667 48.3008 64.2131V65.0703C48.1008 65.1453 47.8383 65.1828 47.5133 65.1828C47.0561 65.1828 46.6936 65.056 46.4257 64.8024C46.1614 64.5488 46.0292 64.1881 46.0292 63.7202V60.6289H45.0756ZM53.2511 64.3899C52.719 63.8613 52.4529 63.188 52.4529 62.3701C52.4529 61.5522 52.719 60.8825 53.2511 60.3611C53.7833 59.836 54.4566 59.5735 55.2709 59.5735C55.8388 59.5735 56.3871 59.6985 56.9157 59.9485V61.0468C56.4156 60.7075 55.8674 60.5379 55.2709 60.5379C55.053 60.5379 54.8405 60.5771 54.6334 60.6557C54.4262 60.7343 54.2369 60.8468 54.0655 60.9932C53.8976 61.1397 53.7619 61.3326 53.6583 61.5719C53.5583 61.8076 53.5083 62.0737 53.5083 62.3701C53.5083 62.6666 53.5583 62.9344 53.6583 63.1737C53.7619 63.413 53.8976 63.6077 54.0655 63.7577C54.2369 63.9042 54.4262 64.0167 54.6334 64.0952C54.8405 64.1738 55.053 64.2131 55.2709 64.2131C55.8745 64.2131 56.4228 64.0452 56.9157 63.7095V64.8078C56.3871 65.0578 55.8388 65.1828 55.2709 65.1828C54.4566 65.1828 53.7833 64.9185 53.2511 64.3899ZM58.014 63.3398C58.014 62.9898 58.1086 62.6826 58.2979 62.4183C58.4908 62.154 58.739 61.9558 59.0426 61.8237C59.3462 61.6915 59.6801 61.6254 60.0444 61.6254C60.6409 61.6254 61.1392 61.7362 61.5392 61.9576V61.3951C61.5392 61.1236 61.4356 60.8986 61.2285 60.72C61.0213 60.5414 60.7231 60.4521 60.3337 60.4521C59.9766 60.4521 59.6194 60.5111 59.2623 60.6289C58.9051 60.7432 58.5926 60.8861 58.3247 61.0575V60.0557C58.9676 59.7342 59.6373 59.5735 60.3337 59.5735C60.7123 59.5735 61.0463 59.6253 61.3356 59.7289C61.6249 59.8325 61.8535 59.9753 62.0214 60.1575C62.1892 60.3361 62.3142 60.5396 62.3964 60.7682C62.4821 60.9932 62.525 61.2397 62.525 61.5076V65.0167H61.5713V64.5881C61.3963 64.7596 61.1749 64.9024 60.907 65.0167C60.6427 65.1274 60.3552 65.1828 60.0444 65.1828C59.4408 65.1828 58.9515 65.0203 58.5765 64.6953C58.2015 64.3667 58.014 63.9149 58.014 63.3398ZM59.048 63.3398C59.048 63.6434 59.1569 63.8863 59.3748 64.0684C59.5962 64.247 59.8784 64.3363 60.2212 64.3363C60.4998 64.3363 60.757 64.281 60.9927 64.1702C61.2285 64.0595 61.4106 63.9399 61.5392 63.8113V62.8416C61.4177 62.7451 61.2356 62.6559 60.9927 62.5737C60.7534 62.4916 60.4963 62.4505 60.2212 62.4505C59.8784 62.4505 59.5962 62.5291 59.3748 62.6862C59.1569 62.8434 59.048 63.0612 59.048 63.3398ZM64.0679 67.0901V59.7503H65.0537V60.2968C65.5216 59.8146 66.0966 59.5735 66.7788 59.5735C67.2824 59.5735 67.7271 59.6985 68.1128 59.9485C68.5021 60.1986 68.7968 60.5343 68.9968 60.9557C69.2004 61.3736 69.3022 61.8415 69.3022 62.3594C69.3022 62.8844 69.2004 63.3595 68.9968 63.7845C68.7968 64.2095 68.5021 64.5488 68.1128 64.8024C67.7271 65.056 67.2824 65.1828 66.7788 65.1828C66.1038 65.1828 65.5287 64.9381 65.0537 64.4488V67.0901H64.0679ZM65.0537 63.372C65.2323 63.6256 65.4537 63.8363 65.718 64.0042C65.9823 64.1685 66.277 64.2506 66.602 64.2506C67.1092 64.2506 67.511 64.0809 67.8075 63.7416C68.1075 63.4023 68.2575 62.9416 68.2575 62.3594C68.2575 61.7879 68.1075 61.3361 67.8075 61.004C67.511 60.6718 67.1092 60.5057 66.602 60.5057C66.277 60.5057 65.9805 60.5879 65.7127 60.7522C65.4484 60.9165 65.2287 61.1236 65.0537 61.3736V63.372Z" fill="#CFFFFF"/>
<path opacity="0.7" d="M246.82 24.8784C246.602 24.3605 246.493 23.7873 246.493 23.1587C246.493 22.5301 246.602 21.9586 246.82 21.4443C247.038 20.9264 247.329 20.5049 247.693 20.1799C248.061 19.8513 248.477 19.5995 248.941 19.4245C249.406 19.2459 249.891 19.1566 250.399 19.1566C250.906 19.1566 251.391 19.2459 251.856 19.4245C252.32 19.5995 252.734 19.8513 253.099 20.1799C253.467 20.5049 253.759 20.9264 253.977 21.4443C254.195 21.9586 254.304 22.5301 254.304 23.1587C254.304 23.8302 254.184 24.4302 253.945 24.9588C253.706 25.4838 253.375 25.9196 252.954 26.266L254.063 27.6483H252.847L252.156 26.7803C251.609 27.0375 251.024 27.1661 250.399 27.1661C249.891 27.1661 249.406 27.0786 248.941 26.9036C248.477 26.725 248.061 26.4714 247.693 26.1428C247.329 25.8142 247.038 25.3928 246.82 24.8784ZM247.805 21.8568C247.648 22.2461 247.57 22.6801 247.57 23.1587C247.57 23.6373 247.648 24.073 247.805 24.4659C247.966 24.8552 248.179 25.1731 248.443 25.4195C248.711 25.6624 249.011 25.8499 249.343 25.9821C249.679 26.1107 250.031 26.1749 250.399 26.1749C250.781 26.1749 251.15 26.1017 251.508 25.9553L250.157 24.257H251.352L252.311 25.4517C252.925 24.8981 253.233 24.1337 253.233 23.1587C253.233 22.6801 253.152 22.2461 252.992 21.8568C252.834 21.4675 252.622 21.1514 252.354 20.9085C252.09 20.6621 251.79 20.4728 251.454 20.3406C251.118 20.2085 250.766 20.1424 250.399 20.1424C250.031 20.1424 249.679 20.2085 249.343 20.3406C249.007 20.4728 248.707 20.6621 248.443 20.9085C248.179 21.1514 247.966 21.4675 247.805 21.8568ZM255.783 26.6035V25.5428C256.54 25.9785 257.283 26.1964 258.011 26.1964C258.283 26.1964 258.528 26.1517 258.745 26.0624C258.967 25.9731 259.144 25.8571 259.276 25.7142C259.408 25.5678 259.51 25.407 259.581 25.232C259.653 25.057 259.688 24.8784 259.688 24.6963C259.688 24.2534 259.529 23.9069 259.212 23.6569C258.897 23.4069 258.522 23.2819 258.087 23.2819C257.879 23.2819 257.672 23.3176 257.465 23.389L256.972 22.4354L259.217 20.3085H255.783V19.3174H260.61V20.2871L258.263 22.4461C258.328 22.4318 258.445 22.4247 258.617 22.4247C258.86 22.4247 259.104 22.4765 259.351 22.5801C259.601 22.6801 259.833 22.8212 260.047 23.0033C260.262 23.1855 260.437 23.423 260.572 23.7159C260.708 24.0087 260.776 24.3284 260.776 24.6748C260.776 25.007 260.715 25.3213 260.594 25.6178C260.476 25.9142 260.305 26.1785 260.079 26.4107C259.854 26.6428 259.563 26.8268 259.206 26.9625C258.853 27.0982 258.454 27.1661 258.011 27.1661C257.261 27.1661 256.519 26.9786 255.783 26.6035ZM265.641 27C265.641 26.4535 265.701 25.9856 265.823 25.5963C265.948 25.207 266.123 24.8749 266.348 24.5998C266.576 24.3248 266.896 24.0284 267.307 23.7105L268.469 22.8104C268.801 22.5533 269.052 22.3015 269.219 22.055C269.387 21.8086 269.471 21.5514 269.471 21.2836C269.471 20.9335 269.332 20.6532 269.053 20.4424C268.775 20.2281 268.394 20.121 267.912 20.121C267.148 20.121 266.426 20.3514 265.748 20.8121V19.7138C265.966 19.6031 266.151 19.5156 266.305 19.4513C266.462 19.3834 266.689 19.3174 266.985 19.2531C267.282 19.1888 267.591 19.1566 267.912 19.1566C268.712 19.1566 269.346 19.3584 269.814 19.762C270.286 20.1656 270.521 20.6728 270.521 21.2836C270.521 22.0765 270.068 22.8087 269.16 23.4801L267.778 24.5088C267.51 24.7052 267.282 24.9356 267.092 25.1999C266.907 25.4606 266.814 25.7321 266.814 26.0142H270.564V27H265.641ZM272.037 23.1587C272.037 22.6908 272.07 22.2586 272.134 21.8622C272.198 21.4657 272.302 21.0996 272.445 20.7639C272.587 20.4246 272.766 20.1388 272.98 19.9067C273.195 19.6709 273.461 19.487 273.779 19.3549C274.096 19.2227 274.455 19.1566 274.855 19.1566C275.255 19.1566 275.614 19.2227 275.932 19.3549C276.25 19.487 276.516 19.6709 276.731 19.9067C276.948 20.1388 277.129 20.4246 277.272 20.7639C277.415 21.0996 277.518 21.4657 277.582 21.8622C277.647 22.2586 277.679 22.6908 277.679 23.1587C277.679 23.6266 277.647 24.0587 277.582 24.4552C277.518 24.8516 277.415 25.2195 277.272 25.5588C277.129 25.8946 276.948 26.1803 276.731 26.416C276.516 26.6518 276.25 26.8357 275.932 26.9679C275.614 27.1 275.255 27.1661 274.855 27.1661C274.359 27.1661 273.927 27.0661 273.559 26.8661C273.191 26.666 272.896 26.3839 272.675 26.0196C272.457 25.6517 272.296 25.2302 272.193 24.7552C272.089 24.2802 272.037 23.748 272.037 23.1587ZM273.136 22.1997C273.104 22.4854 273.087 22.8051 273.087 23.1587C273.087 23.5123 273.104 23.8337 273.136 24.123C273.168 24.4088 273.223 24.6856 273.302 24.9534C273.384 25.2213 273.489 25.4463 273.618 25.6285C273.75 25.8106 273.92 25.9553 274.127 26.0624C274.338 26.1696 274.58 26.2232 274.855 26.2232C275.13 26.2232 275.372 26.1696 275.579 26.0624C275.789 25.9553 275.959 25.8106 276.088 25.6285C276.22 25.4463 276.325 25.2213 276.404 24.9534C276.486 24.6856 276.543 24.4088 276.575 24.123C276.607 23.8337 276.623 23.5123 276.623 23.1587C276.623 22.8051 276.607 22.4854 276.575 22.1997C276.543 21.9104 276.486 21.6318 276.404 21.3639C276.325 21.096 276.22 20.8728 276.088 20.6942C275.959 20.5121 275.789 20.3674 275.579 20.2603C275.372 20.1531 275.13 20.0995 274.855 20.0995C274.58 20.0995 274.338 20.1531 274.127 20.2603C273.92 20.3674 273.75 20.5121 273.618 20.6942C273.489 20.8728 273.384 21.096 273.302 21.3639C273.223 21.6318 273.168 21.9104 273.136 22.1997ZM279.099 27C279.099 26.4535 279.159 25.9856 279.281 25.5963C279.406 25.207 279.581 24.8749 279.806 24.5998C280.034 24.3248 280.354 24.0284 280.765 23.7105L281.927 22.8104C282.26 22.5533 282.51 22.3015 282.677 22.055C282.845 21.8086 282.929 21.5514 282.929 21.2836C282.929 20.9335 282.79 20.6532 282.511 20.4424C282.233 20.2281 281.852 20.121 281.37 20.121C280.606 20.121 279.884 20.3514 279.206 20.8121V19.7138C279.424 19.6031 279.609 19.5156 279.763 19.4513C279.92 19.3834 280.147 19.3174 280.443 19.2531C280.74 19.1888 281.049 19.1566 281.37 19.1566C282.17 19.1566 282.804 19.3584 283.272 19.762C283.744 20.1656 283.979 20.6728 283.979 21.2836C283.979 22.0765 283.526 22.8087 282.618 23.4801L281.236 24.5088C280.968 24.7052 280.74 24.9356 280.55 25.1999C280.365 25.4606 280.272 25.7321 280.272 26.0142H284.022V27H279.099ZM285.442 21.3586V20.3299L287.381 19.3174H288.281V27H287.274V20.4371L285.442 21.3586Z" fill="#CFFFFF"/>
<path d="M17.7833 88.6943H18.7976L18.803 87.4805C21.085 87.3132 22.3906 86.0077 22.3906 84.2597C22.3906 82.2689 20.6157 81.4975 19.213 81.1522L18.8191 81.0497L18.8299 77.5861C19.8388 77.721 20.5293 78.2821 20.6318 79.1668H22.2395C22.1964 77.5214 20.8369 76.2913 18.8353 76.1295L18.8407 74.8832H17.8265L17.8211 76.1403C15.8843 76.3345 14.4654 77.543 14.4654 79.2855C14.4654 80.8231 15.566 81.7241 17.3409 82.2042L17.8049 82.3283L17.7941 86.0023C16.7421 85.8728 15.9274 85.3009 15.8411 84.2597H14.1687C14.2712 86.1209 15.6145 87.3186 17.7887 87.4805L17.7833 88.6943ZM18.8084 86.0023L18.8191 82.6088C19.9143 82.9109 20.7397 83.3102 20.7397 84.2435C20.7397 85.1876 19.9521 85.8512 18.8084 86.0023ZM17.8103 80.7799C17.0064 80.5426 16.1217 80.1164 16.1271 79.1884C16.1271 78.3792 16.7691 77.748 17.8157 77.5915L17.8103 80.7799ZM27.8786 87.4643C30.1013 87.4643 31.6875 85.8944 31.6821 83.7418C31.6875 81.6054 30.1985 80.0516 28.1861 80.0516C27.3661 80.0516 26.6054 80.3645 26.1738 80.7853H26.1091L26.4598 77.694H31.148V76.2644H25.0732L24.4528 81.832L25.9796 82.0585C26.395 81.6863 27.1395 81.4327 27.8085 81.4327C29.1195 81.4435 30.069 82.4254 30.069 83.7741C30.069 85.1013 29.1464 86.0616 27.8786 86.0616C26.8104 86.0616 25.9634 85.3818 25.8771 84.4323H24.2586C24.3233 86.1911 25.8501 87.4643 27.8786 87.4643ZM33.6526 87.3132H40.925V85.8836H35.9508V85.8026L38.1466 83.5044C40.1697 81.4597 40.7469 80.4832 40.7469 79.2478C40.7469 77.4728 39.3011 76.1133 37.2186 76.1133C35.1524 76.1133 33.6418 77.4512 33.6418 79.469H35.2333C35.2279 78.2821 35.994 77.5052 37.1863 77.5052C38.3084 77.5052 39.1608 78.1958 39.1608 79.2963C39.1608 80.2728 38.5782 80.9742 37.3913 82.2312L33.6526 86.1048V87.3132ZM42.5003 85.1552H47.7388V87.3132H49.3303V85.1552H50.7924V83.7418H49.3303V76.2644H47.2748L42.5003 83.8065V85.1552ZM47.7496 83.7418H44.2483V83.6555L47.6633 78.2497H47.7496V83.7418ZM54.3773 85.8026H52.8236L52.7696 86.4069C52.6455 87.8689 52.3002 89.3417 52.1546 90.0107H53.2983C53.5573 89.304 54.1291 87.6855 54.2964 86.3907L54.3773 85.8026ZM60.0946 87.4643C62.3497 87.4643 64.006 86.1156 64.0006 84.2813C64.006 82.884 63.159 81.8805 61.6915 81.6539V81.5676C62.846 81.2709 63.5959 80.3645 63.5905 79.1237C63.5959 77.4998 62.2634 76.1133 60.1378 76.1133C58.1093 76.1133 56.48 77.338 56.426 79.1345H58.0391C58.0769 78.1202 59.0318 77.5052 60.1162 77.5052C61.2437 77.5052 61.9829 78.1904 61.9775 79.21C61.9829 80.2782 61.1251 80.9796 59.9004 80.9796H58.9671V82.3391H59.9004C61.4326 82.3391 62.3173 83.116 62.3173 84.2273C62.3173 85.3009 61.384 86.0292 60.0838 86.0292C58.8861 86.0292 57.9528 85.4142 57.8881 84.4323H56.1941C56.2642 86.2342 57.8611 87.4643 60.0946 87.4643ZM69.8865 87.4967C72.4383 87.4967 73.9327 85.4142 73.9327 81.7942C73.9327 78.2011 72.4167 76.1133 69.8865 76.1133C67.3508 76.1133 65.8402 78.1958 65.8348 81.7942C65.8348 85.4088 67.3293 87.4913 69.8865 87.4967ZM69.8865 86.0562C68.3921 86.0562 67.4911 84.5564 67.4911 81.7942C67.4965 79.0428 68.3975 77.5268 69.8865 77.5268C71.3701 77.5268 72.2764 79.0428 72.2764 81.7942C72.2764 84.5564 71.3755 86.0562 69.8865 86.0562ZM75.6146 85.1552H80.8531V87.3132H82.4446V85.1552H83.9066V83.7418H82.4446V76.2644H80.3891L75.6146 83.8065V85.1552ZM80.8639 83.7418H77.3625V83.6555L80.7775 78.2497H80.8639V83.7418ZM87.4916 85.8026H85.9378L85.8839 86.4069C85.7598 87.8689 85.4145 89.3417 85.2688 90.0107H86.4126C86.6715 89.304 87.2434 87.6855 87.4106 86.3907L87.4916 85.8026ZM89.748 87.3132H97.0204V85.8836H92.0463V85.8026L94.242 83.5044C96.2651 81.4597 96.8424 80.4832 96.8424 79.2478C96.8424 77.4728 95.3965 76.1133 93.3141 76.1133C91.2478 76.1133 89.7372 77.4512 89.7372 79.469H91.3287C91.3233 78.2821 92.0894 77.5052 93.2817 77.5052C94.4039 77.5052 95.2563 78.1958 95.2563 79.2963C95.2563 80.2728 94.6736 80.9742 93.4867 82.2312L89.748 86.1048V87.3132ZM102.912 87.4643C105.167 87.4643 106.823 86.1156 106.818 84.2813C106.823 82.884 105.976 81.8805 104.509 81.6539V81.5676C105.663 81.2709 106.413 80.3645 106.408 79.1237C106.413 77.4998 105.08 76.1133 102.955 76.1133C100.926 76.1133 99.2971 77.338 99.2431 79.1345H100.856C100.894 78.1202 101.849 77.5052 102.933 77.5052C104.061 77.5052 104.8 78.1904 104.795 79.21C104.8 80.2782 103.942 80.9796 102.717 80.9796H101.784V82.3391H102.717C104.25 82.3391 105.134 83.116 105.134 84.2273C105.134 85.3009 104.201 86.0292 102.901 86.0292C101.703 86.0292 100.77 85.4142 100.705 84.4323H99.0111C99.0813 86.2342 100.678 87.4643 102.912 87.4643ZM112.704 87.4643C114.959 87.4643 116.615 86.1156 116.609 84.2813C116.615 82.884 115.768 81.8805 114.3 81.6539V81.5676C115.455 81.2709 116.205 80.3645 116.199 79.1237C116.205 77.4998 114.872 76.1133 112.747 76.1133C110.718 76.1133 109.089 77.338 109.035 79.1345H110.648C110.686 78.1202 111.641 77.5052 112.725 77.5052C113.853 77.5052 114.592 78.1904 114.586 79.21C114.592 80.2782 113.734 80.9796 112.509 80.9796H111.576V82.3391H112.509C114.041 82.3391 114.926 83.116 114.926 84.2273C114.926 85.3009 113.993 86.0292 112.693 86.0292C111.495 86.0292 110.562 85.4142 110.497 84.4323H108.803C108.873 86.2342 110.47 87.4643 112.704 87.4643Z" fill="white"/>
<path opacity="0.7" d="M170.71 57.3341H171.905L174.198 62.7987L176.512 57.3341H177.701L174.23 65.1828H174.123L170.71 57.3341ZM177.251 62.3701C177.251 61.5665 177.514 60.9004 178.039 60.3718C178.564 59.8396 179.227 59.5735 180.027 59.5735C180.827 59.5735 181.489 59.8396 182.014 60.3718C182.539 60.9004 182.802 61.5665 182.802 62.3701C182.802 63.1773 182.539 63.8488 182.014 64.3845C181.489 64.9167 180.827 65.1828 180.027 65.1828C179.227 65.1828 178.564 64.9167 178.039 64.3845C177.514 63.8488 177.251 63.1773 177.251 62.3701ZM178.291 62.3701C178.291 62.9559 178.46 63.4166 178.8 63.7524C179.139 64.0845 179.548 64.2506 180.027 64.2506C180.505 64.2506 180.914 64.0845 181.253 63.7524C181.593 63.4166 181.762 62.9559 181.762 62.3701C181.762 61.7915 181.593 61.3361 181.253 61.004C180.914 60.6718 180.505 60.5057 180.027 60.5057C179.548 60.5057 179.139 60.6718 178.8 61.004C178.46 61.3361 178.291 61.7915 178.291 62.3701ZM184.12 65.0167V57.0608H185.106V65.0167H184.12ZM186.809 63.2166V59.7503H187.795V62.9648C187.795 63.3541 187.913 63.6648 188.149 63.897C188.388 64.1256 188.679 64.2399 189.022 64.2399C189.55 64.2399 189.997 64.0095 190.361 63.5488V59.7503H191.347V65.0167H190.383V64.5131C189.95 64.9596 189.42 65.1828 188.791 65.1828C188.534 65.1828 188.288 65.1399 188.052 65.0542C187.82 64.9685 187.609 64.8453 187.42 64.6846C187.234 64.5238 187.086 64.3167 186.975 64.0631C186.865 63.8095 186.809 63.5273 186.809 63.2166ZM193.056 65.0167V59.7503H194.02V60.2539C194.46 59.8003 194.99 59.5735 195.612 59.5735C195.922 59.5735 196.206 59.636 196.463 59.761C196.724 59.8825 196.935 60.061 197.096 60.2968C197.596 59.8146 198.201 59.5735 198.912 59.5735C199.448 59.5735 199.907 59.7485 200.289 60.0985C200.674 60.4486 200.867 60.929 200.867 61.5397V65.0167H199.881V61.7915C199.881 61.3951 199.778 61.0843 199.571 60.8593C199.367 60.6307 199.098 60.5164 198.762 60.5164C198.233 60.5164 197.79 60.7432 197.433 61.1968C197.447 61.3397 197.455 61.454 197.455 61.5397V65.0167H196.479V61.7915C196.479 61.3951 196.379 61.0843 196.179 60.8593C195.979 60.6307 195.713 60.5164 195.381 60.5164C194.856 60.5164 194.41 60.7504 194.042 61.2183V65.0167H193.056ZM202.078 62.3594C202.078 61.9487 202.148 61.5683 202.287 61.2183C202.426 60.8647 202.614 60.57 202.85 60.3343C203.085 60.095 203.36 59.9092 203.675 59.7771C203.989 59.6414 204.319 59.5735 204.666 59.5735C205.466 59.5735 206.096 59.836 206.557 60.3611C207.018 60.8861 207.248 61.5719 207.248 62.4183C207.248 62.5433 207.239 62.6594 207.221 62.7666H203.144C203.166 63.2023 203.334 63.5631 203.648 63.8488C203.962 64.131 204.343 64.272 204.789 64.272C205.21 64.272 205.593 64.2095 205.935 64.0845C206.278 63.9559 206.63 63.7506 206.991 63.4684V64.4488C206.369 64.9381 205.635 65.1828 204.789 65.1828C204.418 65.1828 204.069 65.1221 203.744 65.0007C203.419 64.8792 203.132 64.7042 202.882 64.4756C202.635 64.2435 202.439 63.947 202.292 63.5863C202.15 63.222 202.078 62.813 202.078 62.3594ZM203.176 61.9094H206.171C206.16 61.4808 206.023 61.1361 205.759 60.8754C205.494 60.6147 205.13 60.4843 204.666 60.4843C204.244 60.4843 203.896 60.6236 203.621 60.9022C203.346 61.1808 203.198 61.5165 203.176 61.9094ZM211.775 65.0167C211.775 64.4703 211.836 64.0024 211.957 63.6131C212.082 63.2237 212.257 62.8916 212.482 62.6166C212.711 62.3415 213.031 62.0451 213.441 61.7272L214.604 60.8272C214.936 60.57 215.186 60.3182 215.354 60.0718C215.522 59.8253 215.606 59.5682 215.606 59.3003C215.606 58.9503 215.466 58.6699 215.188 58.4592C214.909 58.2449 214.529 58.1377 214.047 58.1377C213.282 58.1377 212.561 58.3681 211.882 58.8288V57.7305C212.1 57.6198 212.286 57.5323 212.439 57.468C212.597 57.4002 212.823 57.3341 213.12 57.2698C213.416 57.2055 213.725 57.1734 214.047 57.1734C214.847 57.1734 215.481 57.3752 215.949 57.7788C216.42 58.1823 216.656 58.6895 216.656 59.3003C216.656 60.0932 216.202 60.8254 215.295 61.4969L213.913 62.5255C213.645 62.7219 213.416 62.9523 213.227 63.2166C213.041 63.4773 212.948 63.7488 212.948 64.0309H216.699V65.0167H211.775ZM217.567 63.088V61.8558L220.728 57.3341H222.142V62.1183H223.358V63.088H222.142V65.0167H221.135V63.088H217.567ZM218.51 62.1183H221.135V58.3038L218.51 62.1183ZM224.783 65.0167V57.0608H225.769V60.2325C226.208 59.7932 226.739 59.5735 227.36 59.5735C227.707 59.5735 228.028 59.6467 228.324 59.7932C228.624 59.936 228.873 60.161 229.069 60.4682C229.269 60.7718 229.369 61.129 229.369 61.5397V65.0167H228.383V61.7915C228.383 61.4058 228.26 61.0968 228.014 60.8647C227.771 60.6325 227.476 60.5164 227.13 60.5164C226.59 60.5164 226.137 60.7504 225.769 61.2183V65.0167H224.783Z" fill="#CFFFFF"/>
<path d="M174.882 88.2781H175.896L175.901 87.0642C178.184 86.897 179.489 85.5914 179.489 83.8434C179.489 81.8527 177.714 81.0812 176.311 80.7359L175.918 80.6334L175.928 77.1699C176.937 77.3047 177.628 77.8658 177.73 78.7506H179.338C179.295 77.1051 177.935 75.8751 175.934 75.7132L175.939 74.467H174.925L174.92 75.724C172.983 75.9182 171.564 77.1267 171.564 78.8693C171.564 80.4068 172.664 81.3078 174.439 81.7879L174.903 81.912L174.893 85.586C173.841 85.4565 173.026 84.8847 172.94 83.8434H171.267C171.37 85.7047 172.713 86.9024 174.887 87.0642L174.882 88.2781ZM175.907 85.586L175.918 82.1926C177.013 82.4947 177.838 82.8939 177.838 83.8272C177.838 84.7714 177.051 85.4349 175.907 85.586ZM174.909 80.3637C174.105 80.1263 173.22 79.7001 173.226 78.7722C173.226 77.9629 173.868 77.3317 174.914 77.1753L174.909 80.3637ZM185.522 75.8481H183.898L181.141 77.65V79.2469L183.785 77.5205H183.85V86.897H185.522V75.8481ZM192.158 87.048C194.381 87.048 195.967 85.4781 195.961 83.3255C195.967 81.1891 194.478 79.6354 192.465 79.6354C191.645 79.6354 190.885 79.9483 190.453 80.3691H190.388L190.739 77.2778H195.427V75.8481H189.352L188.732 81.4157L190.259 81.6423C190.674 81.27 191.419 81.0165 192.088 81.0165C193.399 81.0273 194.348 82.0091 194.348 83.3579C194.348 84.685 193.426 85.6453 192.158 85.6453C191.09 85.6453 190.243 84.9656 190.156 84.0161H188.538C188.603 85.7748 190.129 87.048 192.158 87.048ZM199.666 85.3864H198.113L198.059 85.9906C197.934 87.4527 197.589 88.9255 197.444 89.5945H198.587C198.846 88.8877 199.418 87.2692 199.585 85.9744L199.666 85.3864ZM201.923 86.897H209.195V85.4673H204.221V85.3864L206.417 83.0881C208.44 81.0434 209.017 80.067 209.017 78.8315C209.017 77.0566 207.571 75.697 205.489 75.697C203.422 75.697 201.912 77.035 201.912 79.0527H203.503C203.498 77.8658 204.264 77.0889 205.456 77.0889C206.579 77.0889 207.431 77.7795 207.431 78.8801C207.431 79.8566 206.848 80.5579 205.661 81.8149L201.923 85.6885V86.897ZM215.097 87.048C217.406 87.0696 218.938 85.408 218.933 83.2877C218.938 81.1729 217.401 79.6569 215.486 79.6569C214.32 79.6569 213.311 80.218 212.745 81.1513H212.664C212.669 78.6427 213.619 77.1537 215.237 77.1537C216.3 77.1537 216.969 77.8011 217.196 78.7182H218.841C218.588 76.9703 217.212 75.697 215.237 75.697C212.669 75.697 211.067 77.9036 211.067 81.7448C211.062 85.8126 213.133 87.0318 215.097 87.048ZM215.092 85.6453C213.808 85.6453 212.869 84.5664 212.869 83.3255C212.874 82.0901 213.856 81.0111 215.13 81.0111C216.392 81.0111 217.32 82.0307 217.315 83.3093C217.32 84.6149 216.354 85.6453 215.092 85.6453ZM224.745 87.048C227 87.048 228.656 85.6993 228.651 83.865C228.656 82.4677 227.809 81.4643 226.342 81.2377V81.1513C227.496 80.8546 228.246 79.9483 228.241 78.7074C228.246 77.0835 226.913 75.697 224.788 75.697C222.759 75.697 221.13 76.9217 221.076 78.7182H222.689C222.727 77.704 223.682 77.0889 224.766 77.0889C225.894 77.0889 226.633 77.7741 226.628 78.7937C226.633 79.8619 225.775 80.5633 224.55 80.5633H223.617V81.9228H224.55C226.083 81.9228 226.967 82.6997 226.967 83.8111C226.967 84.8847 226.034 85.613 224.734 85.613C223.536 85.613 222.603 84.9979 222.538 84.0161H220.844C220.914 85.818 222.511 87.048 224.745 87.048ZM232.469 85.3864H230.915L230.861 85.9906C230.737 87.4527 230.392 88.9255 230.246 89.5945H231.39C231.649 88.8877 232.221 87.2692 232.388 85.9744L232.469 85.3864ZM238.186 87.048C240.441 87.048 242.098 85.6993 242.092 83.865C242.098 82.4677 241.251 81.4643 239.783 81.2377V81.1513C240.938 80.8546 241.688 79.9483 241.682 78.7074C241.688 77.0835 240.355 75.697 238.229 75.697C236.201 75.697 234.572 76.9217 234.518 78.7182H236.131C236.169 77.704 237.123 77.0889 238.208 77.0889C239.335 77.0889 240.074 77.7741 240.069 78.7937C240.074 79.8619 239.217 80.5633 237.992 80.5633H237.059V81.9228H237.992C239.524 81.9228 240.409 82.6997 240.409 83.8111C240.409 84.8847 239.476 85.613 238.175 85.613C236.978 85.613 236.044 84.9979 235.98 84.0161H234.286C234.356 85.818 235.953 87.048 238.186 87.048ZM247.805 75.697C245.486 75.6755 243.97 77.3425 243.97 79.4357C243.975 81.5452 245.502 83.0666 247.417 83.0666C248.588 83.0666 249.591 82.4947 250.158 81.5668H250.244C250.239 84.1078 249.284 85.5914 247.665 85.5914C246.608 85.5914 245.928 84.944 245.712 83.9999H244.067C244.31 85.7856 245.691 87.048 247.665 87.048C250.233 87.048 251.841 84.8415 251.841 80.9733C251.835 76.9379 249.775 75.7132 247.805 75.697ZM247.811 77.0997C249.089 77.0997 250.034 78.1841 250.034 79.398C250.039 80.628 249.041 81.707 247.778 81.707C246.511 81.707 245.594 80.6928 245.588 79.4142C245.588 78.1302 246.543 77.0997 247.811 77.0997ZM257.437 87.048C259.66 87.048 261.246 85.4781 261.24 83.3255C261.246 81.1891 259.757 79.6354 257.744 79.6354C256.924 79.6354 256.164 79.9483 255.732 80.3691H255.667L256.018 77.2778H260.706V75.8481H254.631L254.011 81.4157L255.538 81.6423C255.953 81.27 256.698 81.0165 257.367 81.0165C258.678 81.0273 259.627 82.0091 259.627 83.3579C259.627 84.685 258.705 85.6453 257.437 85.6453C256.369 85.6453 255.522 84.9656 255.435 84.0161H253.817C253.882 85.7748 255.408 87.048 257.437 87.048Z" fill="white"/>
<path opacity="0.7" d="M13.9971 111.816C13.9971 111.298 14.0685 110.82 14.2114 110.38C14.3542 109.941 14.5489 109.566 14.7953 109.255C15.0454 108.944 15.3364 108.68 15.6686 108.462C16.0043 108.241 16.3615 108.078 16.7401 107.975C17.1187 107.868 17.5098 107.814 17.9134 107.814C18.4206 107.814 18.8724 107.873 19.2688 107.991C19.6653 108.109 20.0814 108.284 20.5171 108.516V109.614C19.6492 109.064 18.7813 108.789 17.9134 108.789C17.6241 108.789 17.3437 108.827 17.0723 108.902C16.8044 108.977 16.5472 109.096 16.3008 109.261C16.0579 109.421 15.8454 109.618 15.6633 109.85C15.4847 110.082 15.3418 110.368 15.2347 110.707C15.1275 111.043 15.0739 111.412 15.0739 111.816C15.0739 112.22 15.1275 112.591 15.2347 112.93C15.3418 113.266 15.4847 113.55 15.6633 113.782C15.8454 114.014 16.0579 114.213 16.3008 114.377C16.5472 114.538 16.8044 114.655 17.0723 114.731C17.3437 114.806 17.6241 114.843 17.9134 114.843C18.7849 114.843 19.6528 114.57 20.5171 114.023V115.122C20.0814 115.354 19.6653 115.529 19.2688 115.647C18.8724 115.764 18.4206 115.823 17.9134 115.823C17.4062 115.823 16.9205 115.738 16.4562 115.566C15.9918 115.395 15.5757 115.147 15.2079 114.822C14.84 114.497 14.5453 114.075 14.3239 113.557C14.106 113.039 13.9971 112.459 13.9971 111.816ZM21.7761 113.857V110.391H22.7619V113.605C22.7619 113.995 22.8798 114.305 23.1155 114.538C23.3548 114.766 23.6459 114.881 23.9888 114.881C24.5174 114.881 24.9639 114.65 25.3282 114.189V110.391H26.3139V115.657H25.3496V115.154C24.9174 115.6 24.387 115.823 23.7584 115.823C23.5013 115.823 23.2548 115.781 23.0191 115.695C22.7869 115.609 22.5762 115.486 22.3869 115.325C22.2012 115.164 22.053 114.957 21.9422 114.704C21.8315 114.45 21.7761 114.168 21.7761 113.857ZM28.023 115.657V110.391H28.9873V111.302C29.1195 110.959 29.332 110.693 29.6249 110.503C29.9213 110.311 30.2463 110.214 30.5999 110.214C30.6928 110.214 30.8142 110.225 30.9642 110.246V111.345C30.8071 111.323 30.6499 111.312 30.4928 111.312C30.0928 111.312 29.766 111.42 29.5124 111.634C29.2588 111.848 29.0909 112.1 29.0088 112.389V115.657H28.023ZM32.1697 115.657V110.391H33.134V111.302C33.2662 110.959 33.4787 110.693 33.7716 110.503C34.068 110.311 34.393 110.214 34.7466 110.214C34.8395 110.214 34.9609 110.225 35.1109 110.246V111.345C34.9538 111.323 34.7966 111.312 34.6395 111.312C34.2395 111.312 33.9127 111.42 33.6591 111.634C33.4055 111.848 33.2376 112.1 33.1555 112.389V115.657H32.1697ZM35.7056 113C35.7056 112.589 35.7753 112.209 35.9146 111.859C36.0539 111.505 36.2414 111.211 36.4771 110.975C36.7128 110.736 36.9879 110.55 37.3022 110.418C37.6165 110.282 37.9468 110.214 38.2933 110.214C39.0934 110.214 39.7237 110.477 40.1845 111.002C40.6452 111.527 40.8756 112.212 40.8756 113.059C40.8756 113.184 40.8667 113.3 40.8488 113.407H36.7718C36.7932 113.843 36.9611 114.204 37.2754 114.489C37.5897 114.772 37.9701 114.913 38.4165 114.913C38.838 114.913 39.2201 114.85 39.563 114.725C39.9059 114.597 40.2577 114.391 40.6185 114.109V115.089C39.997 115.579 39.263 115.823 38.4165 115.823C38.0451 115.823 37.6968 115.763 37.3718 115.641C37.0468 115.52 36.7593 115.345 36.5093 115.116C36.2628 114.884 36.0664 114.588 35.9199 114.227C35.7771 113.863 35.7056 113.454 35.7056 113ZM36.8039 112.55H39.7988C39.788 112.121 39.6505 111.777 39.3862 111.516C39.1219 111.255 38.7576 111.125 38.2933 111.125C37.8718 111.125 37.5236 111.264 37.2486 111.543C36.9736 111.821 36.8253 112.157 36.8039 112.55ZM42.1882 115.657V110.391H43.1525V110.895C43.5919 110.441 44.1223 110.214 44.7437 110.214C45.0009 110.214 45.2455 110.257 45.4777 110.343C45.7134 110.428 45.9242 110.552 46.1099 110.712C46.2992 110.873 46.4492 111.08 46.5599 111.334C46.6742 111.587 46.7314 111.87 46.7314 112.18V115.657H45.7402V112.432C45.7402 112.043 45.6206 111.734 45.3813 111.505C45.1455 111.273 44.8562 111.157 44.5133 111.157C43.9883 111.157 43.5419 111.391 43.174 111.859V115.657H42.1882ZM47.7225 111.27V110.391H48.7404V108.832L49.6619 108.285V110.391H50.9477V111.27H49.6619V114.211C49.6619 114.693 49.9262 114.934 50.4548 114.934C50.6298 114.934 50.7941 114.907 50.9477 114.854V115.711C50.7477 115.786 50.4852 115.823 50.1601 115.823C49.703 115.823 49.3405 115.697 49.0726 115.443C48.8083 115.189 48.6761 114.829 48.6761 114.361V111.27H47.7225ZM55.6462 115.657V107.975H56.6802V111.27H60.6501V107.975H61.6841V115.657H60.6501V112.223H56.6802V115.657H55.6462ZM63.661 115.657V107.975H68.3488V108.934H64.695V111.323H68.006V112.277H64.695V114.704H68.3488V115.657H63.661ZM69.9936 115.657V107.975H72.758C73.476 107.975 74.0653 108.207 74.526 108.671C74.9868 109.132 75.2171 109.691 75.2171 110.348C75.2171 110.905 75.0707 111.382 74.7778 111.779C74.4885 112.175 74.0939 112.445 73.5938 112.588L75.3296 115.657H74.1671L72.5384 112.695H71.0276V115.657H69.9936ZM71.0276 111.741H72.6723C73.1474 111.741 73.5099 111.614 73.7599 111.361C74.0135 111.103 74.1403 110.766 74.1403 110.348C74.1403 109.934 74.0046 109.594 73.7331 109.33C73.4617 109.066 73.1081 108.934 72.6723 108.934H71.0276V111.741ZM76.5887 113.536C76.3708 113.018 76.2618 112.445 76.2618 111.816C76.2618 111.187 76.3708 110.616 76.5887 110.102C76.8065 109.584 77.0976 109.162 77.4619 108.837C77.8298 108.509 78.2459 108.257 78.7102 108.082C79.1745 107.903 79.6603 107.814 80.1675 107.814C80.6746 107.814 81.1604 107.903 81.6247 108.082C82.089 108.257 82.5033 108.509 82.8676 108.837C83.2355 109.162 83.5284 109.584 83.7463 110.102C83.9641 110.616 84.0731 111.187 84.0731 111.816C84.0731 112.445 83.9641 113.018 83.7463 113.536C83.5284 114.05 83.2355 114.472 82.8676 114.8C82.5033 115.129 82.089 115.382 81.6247 115.561C81.1604 115.736 80.6746 115.823 80.1675 115.823C79.6603 115.823 79.1745 115.736 78.7102 115.561C78.2459 115.382 77.8298 115.129 77.4619 114.8C77.0976 114.472 76.8065 114.05 76.5887 113.536ZM77.5744 110.514C77.4173 110.903 77.3387 111.337 77.3387 111.816C77.3387 112.295 77.4173 112.73 77.5744 113.123C77.7352 113.513 77.9477 113.83 78.212 114.077C78.4799 114.32 78.7799 114.507 79.112 114.639C79.4478 114.768 79.7996 114.832 80.1675 114.832C80.5353 114.832 80.8872 114.768 81.2229 114.639C81.5586 114.507 81.8586 114.32 82.1229 114.077C82.3908 113.83 82.6033 113.513 82.7605 113.123C82.9212 112.73 83.0016 112.295 83.0016 111.816C83.0016 111.337 82.9212 110.903 82.7605 110.514C82.6033 110.125 82.3908 109.809 82.1229 109.566C81.8586 109.319 81.5586 109.13 81.2229 108.998C80.8872 108.866 80.5353 108.8 80.1675 108.8C79.7996 108.8 79.4478 108.866 79.112 108.998C78.7763 109.13 78.4763 109.319 78.212 109.566C77.9477 109.809 77.7352 110.125 77.5744 110.514ZM88.6591 117.731V110.391H89.6449V110.937C90.1128 110.455 90.6878 110.214 91.37 110.214C91.8736 110.214 92.3183 110.339 92.704 110.589C93.0933 110.839 93.388 111.175 93.588 111.596C93.7916 112.014 93.8934 112.482 93.8934 113C93.8934 113.525 93.7916 114 93.588 114.425C93.388 114.85 93.0933 115.189 92.704 115.443C92.3183 115.697 91.8736 115.823 91.37 115.823C90.6949 115.823 90.1199 115.579 89.6449 115.089V117.731H88.6591ZM89.6449 114.013C89.8234 114.266 90.0449 114.477 90.3092 114.645C90.5735 114.809 90.8682 114.891 91.1932 114.891C91.7004 114.891 92.1022 114.722 92.3986 114.382C92.6986 114.043 92.8486 113.582 92.8486 113C92.8486 112.429 92.6986 111.977 92.3986 111.645C92.1022 111.312 91.7004 111.146 91.1932 111.146C90.8682 111.146 90.5717 111.228 90.3038 111.393C90.0395 111.557 89.8199 111.764 89.6449 112.014V114.013ZM95.2059 115.657V110.391H96.1703V111.302C96.3024 110.959 96.515 110.693 96.8078 110.503C97.1043 110.311 97.4293 110.214 97.7829 110.214C97.8758 110.214 97.9972 110.225 98.1472 110.246V111.345C97.9901 111.323 97.8329 111.312 97.6757 111.312C97.2757 111.312 96.9489 111.42 96.6953 111.634C96.4417 111.848 96.2739 112.1 96.1917 112.389V115.657H95.2059ZM99.133 108.382C99.133 108.171 99.2008 107.996 99.3366 107.857C99.4723 107.718 99.6419 107.648 99.8455 107.648C100.053 107.648 100.224 107.718 100.36 107.857C100.499 107.996 100.569 108.171 100.569 108.382C100.569 108.585 100.499 108.757 100.36 108.896C100.224 109.035 100.053 109.105 99.8455 109.105C99.6419 109.105 99.4723 109.035 99.3366 108.896C99.2008 108.757 99.133 108.585 99.133 108.382ZM99.3634 115.657V110.391H100.349V115.657H99.3634ZM102.465 115.031C101.933 114.502 101.667 113.829 101.667 113.011C101.667 112.193 101.933 111.523 102.465 111.002C102.998 110.477 103.671 110.214 104.485 110.214C105.053 110.214 105.601 110.339 106.13 110.589V111.687C105.63 111.348 105.082 111.178 104.485 111.178C104.267 111.178 104.055 111.218 103.848 111.296C103.64 111.375 103.451 111.487 103.28 111.634C103.112 111.78 102.976 111.973 102.873 112.212C102.773 112.448 102.723 112.714 102.723 113.011C102.723 113.307 102.773 113.575 102.873 113.814C102.976 114.054 103.112 114.248 103.28 114.398C103.451 114.545 103.64 114.657 103.848 114.736C104.055 114.814 104.267 114.854 104.485 114.854C105.089 114.854 105.637 114.686 106.13 114.35V115.448C105.601 115.698 105.053 115.823 104.485 115.823C103.671 115.823 102.998 115.559 102.465 115.031ZM107.121 113C107.121 112.589 107.191 112.209 107.33 111.859C107.469 111.505 107.657 111.211 107.892 110.975C108.128 110.736 108.403 110.55 108.718 110.418C109.032 110.282 109.362 110.214 109.709 110.214C110.509 110.214 111.139 110.477 111.6 111.002C112.061 111.527 112.291 112.212 112.291 113.059C112.291 113.184 112.282 113.3 112.264 113.407H108.187C108.209 113.843 108.376 114.204 108.691 114.489C109.005 114.772 109.385 114.913 109.832 114.913C110.253 114.913 110.636 114.85 110.978 114.725C111.321 114.597 111.673 114.391 112.034 114.109V115.089C111.412 115.579 110.678 115.823 109.832 115.823C109.46 115.823 109.112 115.763 108.787 115.641C108.462 115.52 108.175 115.345 107.925 115.116C107.678 114.884 107.482 114.588 107.335 114.227C107.192 113.863 107.121 113.454 107.121 113ZM108.219 112.55H111.214C111.203 112.121 111.066 111.777 110.802 111.516C110.537 111.255 110.173 111.125 109.709 111.125C109.287 111.125 108.939 111.264 108.664 111.543C108.389 111.821 108.241 112.157 108.219 112.55Z" fill="#CFFFFF"/>
<path d="M17.8956 138.919H18.9098L18.9152 137.705C21.1973 137.538 22.5029 136.232 22.5029 134.484C22.5029 132.493 20.7279 131.722 19.3252 131.377L18.9314 131.274L18.9422 127.81C19.9511 127.945 20.6416 128.506 20.7441 129.391H22.3518C22.3087 127.746 20.9491 126.516 18.9476 126.354L18.953 125.108H17.9387L17.9333 126.365C15.9966 126.559 14.5777 127.767 14.5777 129.51C14.5777 131.047 15.6783 131.948 17.4532 132.429L17.9172 132.553L17.9064 136.227C16.8544 136.097 16.0397 135.525 15.9534 134.484H14.281C14.3835 136.345 15.7268 137.543 17.901 137.705L17.8956 138.919ZM18.9206 136.227L18.9314 132.833C20.0266 133.135 20.852 133.535 20.852 134.468C20.852 135.412 20.0644 136.076 18.9206 136.227ZM17.9226 131.004C17.1187 130.767 16.2339 130.341 16.2393 129.413C16.2393 128.604 16.8813 127.972 17.928 127.816L17.9226 131.004ZM28.1905 137.721C30.7423 137.721 32.2367 135.639 32.2367 132.019C32.2367 128.426 30.7207 126.338 28.1905 126.338C25.6549 126.338 24.1443 128.42 24.1389 132.019C24.1389 135.633 25.6333 137.716 28.1905 137.721ZM28.1905 136.281C26.6961 136.281 25.7952 134.781 25.7952 132.019C25.8005 129.267 26.7015 127.751 28.1905 127.751C29.6741 127.751 30.5805 129.267 30.5805 132.019C30.5805 134.781 29.6795 136.281 28.1905 136.281ZM34.8196 137.64C35.4076 137.64 35.8986 137.16 35.8986 136.561C35.8986 135.973 35.4076 135.488 34.8196 135.488C34.2261 135.488 33.7406 135.973 33.7406 136.561C33.7406 137.16 34.2261 137.64 34.8196 137.64ZM40.8943 126.489H39.2704L36.5136 128.291V129.888L39.1571 128.161H39.2219V137.538H40.8943V126.489ZM47.7297 137.721C50.2815 137.721 51.7759 135.639 51.7759 132.019C51.7759 128.426 50.2599 126.338 47.7297 126.338C45.1941 126.338 43.6835 128.42 43.6781 132.019C43.6781 135.633 45.1725 137.716 47.7297 137.721ZM47.7297 136.281C46.2353 136.281 45.3343 134.781 45.3343 132.019C45.3397 129.267 46.2407 127.751 47.7297 127.751C49.2133 127.751 50.1197 129.267 50.1197 132.019C50.1197 134.781 49.2187 136.281 47.7297 136.281ZM53.7653 137.538H55.5079L60.3148 127.967V126.489H53.01V127.918H58.5884V127.999L53.7653 137.538ZM65.8109 137.689C68.1199 137.71 69.6521 136.049 69.6467 133.928C69.6521 131.814 68.1145 130.298 66.1993 130.298C65.034 130.298 64.0252 130.859 63.4587 131.792H63.3778C63.3832 129.283 64.3327 127.794 65.9512 127.794C67.014 127.794 67.6829 128.442 67.9095 129.359H69.555C69.3014 127.611 67.9257 126.338 65.9512 126.338C63.3832 126.338 61.7809 128.544 61.7809 132.385C61.7755 136.453 63.8471 137.672 65.8109 137.689ZM65.8055 136.286C64.5215 136.286 63.5828 135.207 63.5828 133.966C63.5882 132.731 64.5701 131.652 65.8433 131.652C67.1057 131.652 68.0336 132.671 68.0282 133.95C68.0336 135.256 67.0679 136.286 65.8055 136.286ZM75.8037 126.489H74.1798L71.423 128.291V129.888L74.0665 128.161H74.1313V137.538H75.8037V126.489Z" fill="white"/>
<path d="M99.8714 132.29C99.8714 134.246 100.394 135.874 101.383 137.262H102.451C101.683 136.233 101.079 134.144 101.079 132.29C101.079 130.439 101.683 128.351 102.451 127.322H101.383C100.394 128.709 99.8714 130.338 99.8714 132.29ZM106.025 135.095H107.073V132.983H109.185V131.935H107.073V129.827H106.025V131.935H103.917V132.983H106.025V135.095ZM113.653 135.711C115.282 135.711 116.478 134.737 116.474 133.412C116.478 132.403 115.866 131.678 114.806 131.514V131.452C115.64 131.238 116.182 130.583 116.178 129.687C116.182 128.514 115.219 127.513 113.684 127.513C112.219 127.513 111.042 128.397 111.003 129.695H112.168C112.196 128.962 112.885 128.518 113.668 128.518C114.483 128.518 115.017 129.013 115.013 129.749C115.017 130.521 114.397 131.027 113.513 131.027H112.839V132.009H113.513C114.619 132.009 115.258 132.57 115.258 133.373C115.258 134.148 114.584 134.674 113.645 134.674C112.78 134.674 112.106 134.23 112.059 133.521H110.836C110.886 134.822 112.04 135.711 113.653 135.711ZM117.947 135.602H123.199V134.569H119.607V134.511L121.192 132.851C122.653 131.374 123.07 130.669 123.07 129.777C123.07 128.495 122.026 127.513 120.522 127.513C119.03 127.513 117.939 128.479 117.939 129.936H119.088C119.084 129.079 119.638 128.518 120.499 128.518C121.309 128.518 121.925 129.017 121.925 129.812C121.925 130.517 121.504 131.023 120.647 131.931L117.947 134.729V135.602ZM128.841 134.105C128.845 135.006 129.41 135.765 130.466 135.765C131.51 135.765 132.083 135.006 132.083 134.105V133.685C132.083 132.781 131.525 132.025 130.466 132.025C129.425 132.025 128.845 132.785 128.841 133.685V134.105ZM124.828 129.539C124.828 130.439 125.396 131.199 126.452 131.199C127.493 131.199 128.069 130.443 128.065 129.539V129.118C128.069 128.214 127.508 127.458 126.452 127.458C125.416 127.458 124.828 128.214 124.828 129.118V129.539ZM125.155 135.602H126.086L131.572 127.622H130.641L125.155 135.602ZM129.749 133.685C129.753 133.237 129.947 132.804 130.466 132.804C131.003 132.804 131.171 133.237 131.171 133.685V134.105C131.171 134.554 130.988 134.986 130.466 134.986C129.936 134.986 129.753 134.55 129.749 134.105V133.685ZM125.739 129.118C125.739 128.674 125.934 128.238 126.452 128.238C126.99 128.238 127.158 128.67 127.158 129.118V129.539C127.158 129.987 126.975 130.42 126.452 130.42C125.923 130.42 125.739 129.987 125.739 129.539V129.118ZM136.018 132.294C136.018 130.338 135.496 128.709 134.506 127.322H133.439C134.206 128.351 134.81 130.439 134.81 132.294C134.81 134.144 134.206 136.233 133.439 137.262H134.506C135.496 135.874 136.018 134.246 136.018 132.294Z" fill="#22FFCA"/>
<path d="M94.4597 130.625L90.4366 126.602L86.4135 130.625" stroke="#22FFCA" stroke-width="1.46295" stroke-linecap="round" stroke-linejoin="round"/>
<rect x="90.8024" y="137.208" width="0.731476" height="9.50919" rx="0.365738" transform="rotate(-180 90.8024 137.208)" stroke="#22FFCA" stroke-width="0.731476" stroke-linecap="round" stroke-linejoin="round"/>
<path d="M14.3292 160.657V159.628L16.2686 158.615H17.1687V166.298H16.1615V159.735L14.3292 160.657ZM18.9206 164.369V163.137L22.0815 158.615H23.4959V163.4H24.7121V164.369H23.4959V166.298H22.4887V164.369H18.9206ZM19.8635 163.4H22.4887V159.585L19.8635 163.4ZM26.1371 162.457C26.1371 161.989 26.1693 161.557 26.2336 161.16C26.2979 160.764 26.4015 160.398 26.5443 160.062C26.6872 159.723 26.8658 159.437 27.0801 159.205C27.2944 158.969 27.5605 158.785 27.8783 158.653C28.1962 158.521 28.5552 158.455 28.9552 158.455C29.3552 158.455 29.7142 158.521 30.032 158.653C30.3499 158.785 30.616 158.969 30.8303 159.205C31.0482 159.437 31.2286 159.723 31.3714 160.062C31.5143 160.398 31.6179 160.764 31.6822 161.16C31.7464 161.557 31.7786 161.989 31.7786 162.457C31.7786 162.925 31.7464 163.357 31.6822 163.753C31.6179 164.15 31.5143 164.518 31.3714 164.857C31.2286 165.193 31.0482 165.478 30.8303 165.714C30.616 165.95 30.3499 166.134 30.032 166.266C29.7142 166.398 29.3552 166.464 28.9552 166.464C28.4587 166.464 28.0266 166.364 27.6587 166.164C27.2908 165.964 26.9961 165.682 26.7747 165.318C26.5568 164.95 26.3961 164.528 26.2925 164.053C26.1889 163.578 26.1371 163.046 26.1371 162.457ZM27.2354 161.498C27.2033 161.784 27.1872 162.103 27.1872 162.457C27.1872 162.81 27.2033 163.132 27.2354 163.421C27.2676 163.707 27.3229 163.984 27.4015 164.252C27.4837 164.519 27.589 164.744 27.7176 164.927C27.8498 165.109 28.0194 165.253 28.2266 165.361C28.4373 165.468 28.6802 165.521 28.9552 165.521C29.2302 165.521 29.4713 165.468 29.6785 165.361C29.8892 165.253 30.0588 165.109 30.1874 164.927C30.3196 164.744 30.4249 164.519 30.5035 164.252C30.5857 163.984 30.6428 163.707 30.6749 163.421C30.7071 163.132 30.7232 162.81 30.7232 162.457C30.7232 162.103 30.7071 161.784 30.6749 161.498C30.6428 161.208 30.5857 160.93 30.5035 160.662C30.4249 160.394 30.3196 160.171 30.1874 159.992C30.0588 159.81 29.8892 159.666 29.6785 159.558C29.4713 159.451 29.2302 159.398 28.9552 159.398C28.6802 159.398 28.4373 159.451 28.2266 159.558C28.0194 159.666 27.8498 159.81 27.7176 159.992C27.589 160.171 27.4837 160.394 27.4015 160.662C27.3229 160.93 27.2676 161.208 27.2354 161.498Z" fill="#127F6E"/>
<path d="M14.3293 186.821V185.792L16.2687 184.78H17.1687V192.463H16.1615V185.9L14.3293 186.821ZM19.3117 192.463C19.3117 191.916 19.3725 191.448 19.4939 191.059C19.6189 190.67 19.7939 190.337 20.0189 190.062C20.2475 189.787 20.5672 189.491 20.9779 189.173L22.1405 188.273C22.4727 188.016 22.7227 187.764 22.8905 187.518C23.0584 187.271 23.1423 187.014 23.1423 186.746C23.1423 186.396 23.003 186.116 22.7245 185.905C22.4459 185.691 22.0655 185.584 21.5833 185.584C20.819 185.584 20.0975 185.814 19.4189 186.275V185.176C19.6368 185.066 19.8225 184.978 19.9761 184.914C20.1332 184.846 20.36 184.78 20.6565 184.716C20.9529 184.651 21.2619 184.619 21.5833 184.619C22.3834 184.619 23.0173 184.821 23.4852 185.225C23.9567 185.628 24.1924 186.135 24.1924 186.746C24.1924 187.539 23.7388 188.271 22.8316 188.943L21.4494 189.971C21.1815 190.168 20.9529 190.398 20.7636 190.662C20.5779 190.923 20.485 191.195 20.485 191.477H24.2353V192.463H19.3117ZM25.7086 188.621C25.7086 188.153 25.7407 187.721 25.805 187.325C25.8693 186.928 25.9729 186.562 26.1157 186.226C26.2586 185.887 26.4372 185.601 26.6515 185.369C26.8658 185.133 27.1319 184.95 27.4498 184.817C27.7676 184.685 28.1266 184.619 28.5266 184.619C28.9266 184.619 29.2856 184.685 29.6035 184.817C29.9214 184.95 30.1874 185.133 30.4017 185.369C30.6196 185.601 30.8 185.887 30.9428 186.226C31.0857 186.562 31.1893 186.928 31.2536 187.325C31.3179 187.721 31.35 188.153 31.35 188.621C31.35 189.089 31.3179 189.521 31.2536 189.918C31.1893 190.314 31.0857 190.682 30.9428 191.021C30.8 191.357 30.6196 191.643 30.4017 191.879C30.1874 192.114 29.9214 192.298 29.6035 192.43C29.2856 192.563 28.9266 192.629 28.5266 192.629C28.0302 192.629 27.598 192.529 27.2301 192.329C26.8622 192.129 26.5676 191.846 26.3461 191.482C26.1282 191.114 25.9675 190.693 25.8639 190.218C25.7604 189.743 25.7086 189.211 25.7086 188.621ZM26.8069 187.662C26.7747 187.948 26.7586 188.268 26.7586 188.621C26.7586 188.975 26.7747 189.296 26.8069 189.586C26.839 189.871 26.8944 190.148 26.9729 190.416C27.0551 190.684 27.1605 190.909 27.289 191.091C27.4212 191.273 27.5908 191.418 27.798 191.525C28.0087 191.632 28.2516 191.686 28.5266 191.686C28.8016 191.686 29.0427 191.632 29.2499 191.525C29.4606 191.418 29.6303 191.273 29.7588 191.091C29.891 190.909 29.9964 190.684 30.0749 190.416C30.1571 190.148 30.2142 189.871 30.2464 189.586C30.2785 189.296 30.2946 188.975 30.2946 188.621C30.2946 188.268 30.2785 187.948 30.2464 187.662C30.2142 187.373 30.1571 187.094 30.0749 186.826C29.9964 186.559 29.891 186.335 29.7588 186.157C29.6303 185.975 29.4606 185.83 29.2499 185.723C29.0427 185.616 28.8016 185.562 28.5266 185.562C28.2516 185.562 28.0087 185.616 27.798 185.723C27.5908 185.83 27.4212 185.975 27.289 186.157C27.1605 186.335 27.0551 186.559 26.9729 186.826C26.8944 187.094 26.839 187.373 26.8069 187.662Z" fill="#127F6E"/>
<path d="M14.3293 213.829V212.801L16.2687 211.788H17.1687V219.471H16.1615V212.908L14.3293 213.829ZM19.3117 215.629C19.3117 215.161 19.3439 214.729 19.4082 214.333C19.4725 213.936 19.576 213.57 19.7189 213.235C19.8618 212.895 20.0404 212.61 20.2547 212.377C20.469 212.142 20.735 211.958 21.0529 211.826C21.3708 211.693 21.7297 211.627 22.1298 211.627C22.5298 211.627 22.8888 211.693 23.2066 211.826C23.5245 211.958 23.7906 212.142 24.0049 212.377C24.2228 212.61 24.4031 212.895 24.546 213.235C24.6889 213.57 24.7924 213.936 24.8567 214.333C24.921 214.729 24.9532 215.161 24.9532 215.629C24.9532 216.097 24.921 216.529 24.8567 216.926C24.7924 217.322 24.6889 217.69 24.546 218.03C24.4031 218.365 24.2228 218.651 24.0049 218.887C23.7906 219.122 23.5245 219.306 23.2066 219.439C22.8888 219.571 22.5298 219.637 22.1298 219.637C21.6333 219.637 21.2011 219.537 20.8333 219.337C20.4654 219.137 20.1707 218.855 19.9493 218.49C19.7314 218.122 19.5707 217.701 19.4671 217.226C19.3635 216.751 19.3117 216.219 19.3117 215.629ZM20.41 214.67C20.3779 214.956 20.3618 215.276 20.3618 215.629C20.3618 215.983 20.3779 216.304 20.41 216.594C20.4422 216.879 20.4975 217.156 20.5761 217.424C20.6582 217.692 20.7636 217.917 20.8922 218.099C21.0243 218.281 21.194 218.426 21.4012 218.533C21.6119 218.64 21.8548 218.694 22.1298 218.694C22.4048 218.694 22.6459 218.64 22.853 218.533C23.0638 218.426 23.2334 218.281 23.362 218.099C23.4941 217.917 23.5995 217.692 23.6781 217.424C23.7602 217.156 23.8174 216.879 23.8495 216.594C23.8817 216.304 23.8977 215.983 23.8977 215.629C23.8977 215.276 23.8817 214.956 23.8495 214.67C23.8174 214.381 23.7602 214.102 23.6781 213.835C23.5995 213.567 23.4941 213.344 23.362 213.165C23.2334 212.983 23.0638 212.838 22.853 212.731C22.6459 212.624 22.4048 212.57 22.1298 212.57C21.8548 212.57 21.6119 212.624 21.4012 212.731C21.194 212.838 21.0243 212.983 20.8922 213.165C20.7636 213.344 20.6582 213.567 20.5761 213.835C20.4975 214.102 20.4422 214.381 20.41 214.67ZM26.7051 215.629C26.7051 215.161 26.7372 214.729 26.8015 214.333C26.8658 213.936 26.9694 213.57 27.1122 213.235C27.2551 212.895 27.4337 212.61 27.648 212.377C27.8623 212.142 28.1284 211.958 28.4463 211.826C28.7641 211.693 29.1231 211.627 29.5231 211.627C29.9231 211.627 30.2821 211.693 30.6 211.826C30.9178 211.958 31.1839 212.142 31.3982 212.377C31.6161 212.61 31.7965 212.895 31.9393 213.235C32.0822 213.57 32.1858 213.936 32.2501 214.333C32.3144 214.729 32.3465 215.161 32.3465 215.629C32.3465 216.097 32.3144 216.529 32.2501 216.926C32.1858 217.322 32.0822 217.69 31.9393 218.03C31.7965 218.365 31.6161 218.651 31.3982 218.887C31.1839 219.122 30.9178 219.306 30.6 219.439C30.2821 219.571 29.9231 219.637 29.5231 219.637C29.0267 219.637 28.5945 219.537 28.2266 219.337C27.8587 219.137 27.5641 218.855 27.3426 218.49C27.1247 218.122 26.964 217.701 26.8604 217.226C26.7569 216.751 26.7051 216.219 26.7051 215.629ZM27.8034 214.67C27.7712 214.956 27.7551 215.276 27.7551 215.629C27.7551 215.983 27.7712 216.304 27.8034 216.594C27.8355 216.879 27.8909 217.156 27.9694 217.424C28.0516 217.692 28.157 217.917 28.2855 218.099C28.4177 218.281 28.5873 218.426 28.7945 218.533C29.0052 218.64 29.2481 218.694 29.5231 218.694C29.7981 218.694 30.0392 218.64 30.2464 218.533C30.4571 218.426 30.6268 218.281 30.7553 218.099C30.8875 217.917 30.9929 217.692 31.0714 217.424C31.1536 217.156 31.2107 216.879 31.2429 216.594C31.275 216.304 31.2911 215.983 31.2911 215.629C31.2911 215.276 31.275 214.956 31.2429 214.67C31.2107 214.381 31.1536 214.102 31.0714 213.835C30.9929 213.567 30.8875 213.344 30.7553 213.165C30.6268 212.983 30.4571 212.838 30.2464 212.731C30.0392 212.624 29.7981 212.57 29.5231 212.57C29.2481 212.57 29.0052 212.624 28.7945 212.731C28.5873 212.838 28.4177 212.983 28.2855 213.165C28.157 213.344 28.0516 213.567 27.9694 213.835C27.8909 214.102 27.8355 214.381 27.8034 214.67Z" fill="#127F6E"/>
<path d="M45.5766 216.067C49.7087 215.952 57.3822 205.902 66.5662 201.001C83.0779 192.192 91.4038 203.125 104.535 200.301C120.384 196.891 128.889 190.666 144.479 186.42C163.145 181.337 181.424 189.923 200.426 187.023C217.257 184.454 230.134 174.192 246.613 169.634C263.093 165.075 284.686 163.385 289.496 163.397" stroke="#22FFCA" stroke-width="1.68802" stroke-miterlimit="3" stroke-linecap="square"/>
<line opacity="0.4" x1="45.5766" y1="216.489" x2="289.496" y2="216.489" stroke="#62C6BA" stroke-width="0.844011"/>
<line opacity="0.4" x1="45.5766" y1="189.481" x2="289.496" y2="189.481" stroke="#62C6BA" stroke-width="0.844011"/>
<line opacity="0.2" x1="45.5766" y1="175.976" x2="289.496" y2="175.976" stroke="#62C6BA" stroke-width="0.844011" stroke-dasharray="2.53 5.06"/>
<line opacity="0.2" x1="45.5766" y1="202.985" x2="289.496" y2="202.985" stroke="#62C6BA" stroke-width="0.844011" stroke-dasharray="2.53 5.06"/>
<line opacity="0.4" x1="45.5766" y1="162.472" x2="289.496" y2="162.472" stroke="#62C6BA" stroke-width="0.844011"/>
<path opacity="0.7" d="M170.93 108.934V107.975H177.053V108.934H174.508V115.657H173.474V108.934H170.93ZM176.501 113.011C176.501 112.207 176.764 111.541 177.289 111.012C177.814 110.48 178.476 110.214 179.277 110.214C180.077 110.214 180.739 110.48 181.264 111.012C181.789 111.541 182.052 112.207 182.052 113.011C182.052 113.818 181.789 114.489 181.264 115.025C180.739 115.557 180.077 115.823 179.277 115.823C178.476 115.823 177.814 115.557 177.289 115.025C176.764 114.489 176.501 113.818 176.501 113.011ZM177.541 113.011C177.541 113.596 177.71 114.057 178.05 114.393C178.389 114.725 178.798 114.891 179.277 114.891C179.755 114.891 180.164 114.725 180.503 114.393C180.843 114.057 181.012 113.596 181.012 113.011C181.012 112.432 180.843 111.977 180.503 111.645C180.164 111.312 179.755 111.146 179.277 111.146C178.798 111.146 178.389 111.312 178.05 111.645C177.71 111.977 177.541 112.432 177.541 113.011ZM183.37 115.657V107.701H184.355V112.609L186.729 110.391H188.122L185.893 112.454L188.165 115.657H186.9L185.148 113.145L184.355 113.868V115.657H183.37ZM188.491 113C188.491 112.589 188.561 112.209 188.7 111.859C188.84 111.505 189.027 111.211 189.263 110.975C189.499 110.736 189.774 110.55 190.088 110.418C190.402 110.282 190.733 110.214 191.079 110.214C191.879 110.214 192.51 110.477 192.97 111.002C193.431 111.527 193.661 112.212 193.661 113.059C193.661 113.184 193.652 113.3 193.635 113.407H189.558C189.579 113.843 189.747 114.204 190.061 114.489C190.375 114.772 190.756 114.913 191.202 114.913C191.624 114.913 192.006 114.85 192.349 114.725C192.692 114.597 193.043 114.391 193.404 114.109V115.089C192.783 115.579 192.049 115.823 191.202 115.823C190.831 115.823 190.483 115.763 190.158 115.641C189.833 115.52 189.545 115.345 189.295 115.116C189.049 114.884 188.852 114.588 188.706 114.227C188.563 113.863 188.491 113.454 188.491 113ZM189.59 112.55H192.585C192.574 112.121 192.436 111.777 192.172 111.516C191.908 111.255 191.543 111.125 191.079 111.125C190.658 111.125 190.309 111.264 190.034 111.543C189.759 111.821 189.611 112.157 189.59 112.55ZM194.974 115.657V110.391H195.938V110.895C196.378 110.441 196.908 110.214 197.53 110.214C197.787 110.214 198.031 110.257 198.263 110.343C198.499 110.428 198.71 110.552 198.896 110.712C199.085 110.873 199.235 111.08 199.346 111.334C199.46 111.587 199.517 111.87 199.517 112.18V115.657H198.526V112.432C198.526 112.043 198.406 111.734 198.167 111.505C197.931 111.273 197.642 111.157 197.299 111.157C196.774 111.157 196.328 111.391 195.96 111.859V115.657H194.974ZM200.835 111.816C200.835 111.337 201.021 110.952 201.392 110.659C201.764 110.362 202.241 110.214 202.823 110.214C203.398 110.214 203.957 110.336 204.5 110.578V111.543C203.921 111.243 203.362 111.093 202.823 111.093C202.491 111.093 202.241 111.161 202.073 111.296C201.908 111.429 201.826 111.602 201.826 111.816C201.826 111.959 201.88 112.087 201.987 112.202C202.094 112.316 202.253 112.396 202.464 112.443L203.294 112.63C203.769 112.734 204.132 112.92 204.382 113.188C204.632 113.452 204.757 113.786 204.757 114.189C204.757 114.7 204.555 115.1 204.151 115.389C203.751 115.679 203.246 115.823 202.635 115.823C202.321 115.823 202.003 115.782 201.682 115.7C201.36 115.618 201.082 115.516 200.846 115.395V114.441C201.489 114.777 202.085 114.945 202.635 114.945C202.992 114.945 203.266 114.881 203.455 114.752C203.648 114.623 203.744 114.436 203.744 114.189C203.744 114.022 203.683 113.88 203.562 113.766C203.444 113.652 203.275 113.57 203.053 113.52L202.153 113.321C201.728 113.229 201.401 113.054 201.173 112.796C200.948 112.536 200.835 112.209 200.835 111.816ZM209.343 115.657V107.701H210.329V110.937C210.796 110.455 211.371 110.214 212.054 110.214C212.557 110.214 213.002 110.339 213.388 110.589C213.777 110.839 214.072 111.175 214.272 111.596C214.475 112.014 214.577 112.482 214.577 113C214.577 113.525 214.475 114 214.272 114.425C214.072 114.85 213.777 115.189 213.388 115.443C213.002 115.697 212.557 115.823 212.054 115.823C211.379 115.823 210.804 115.579 210.329 115.089V115.657H209.343ZM210.329 114.013C210.507 114.266 210.729 114.477 210.993 114.645C211.257 114.809 211.552 114.891 211.877 114.891C212.384 114.891 212.786 114.722 213.082 114.382C213.382 114.043 213.532 113.582 213.532 113C213.532 112.429 213.382 111.977 213.082 111.645C212.786 111.312 212.384 111.146 211.877 111.146C211.552 111.146 211.255 111.228 210.988 111.393C210.723 111.557 210.504 111.764 210.329 112.014V114.013ZM215.836 113.857V110.391H216.822V113.605C216.822 113.995 216.94 114.305 217.175 114.538C217.415 114.766 217.706 114.881 218.049 114.881C218.577 114.881 219.024 114.65 219.388 114.189V110.391H220.374V115.657H219.409V115.154C218.977 115.6 218.447 115.823 217.818 115.823C217.561 115.823 217.315 115.781 217.079 115.695C216.847 115.609 216.636 115.486 216.447 115.325C216.261 115.164 216.113 114.957 216.002 114.704C215.891 114.45 215.836 114.168 215.836 113.857ZM222.083 115.657V110.391H223.047V111.302C223.179 110.959 223.392 110.693 223.685 110.503C223.981 110.311 224.306 110.214 224.66 110.214C224.753 110.214 224.874 110.225 225.024 110.246V111.345C224.867 111.323 224.71 111.312 224.553 111.312C224.153 111.312 223.826 111.42 223.572 111.634C223.319 111.848 223.151 112.1 223.069 112.389V115.657H222.083ZM226.23 115.657V110.391H227.194V110.895C227.633 110.441 228.164 110.214 228.785 110.214C229.042 110.214 229.287 110.257 229.519 110.343C229.755 110.428 229.966 110.552 230.151 110.712C230.341 110.873 230.491 111.08 230.601 111.334C230.716 111.587 230.773 111.87 230.773 112.18V115.657H229.782V112.432C229.782 112.043 229.662 111.734 229.423 111.505C229.187 111.273 228.898 111.157 228.555 111.157C228.03 111.157 227.583 111.391 227.215 111.859V115.657H226.23ZM231.984 113C231.984 112.589 232.053 112.209 232.192 111.859C232.332 111.505 232.519 111.211 232.755 110.975C232.991 110.736 233.266 110.55 233.58 110.418C233.894 110.282 234.225 110.214 234.571 110.214C235.371 110.214 236.002 110.477 236.462 111.002C236.923 111.527 237.154 112.212 237.154 113.059C237.154 113.184 237.145 113.3 237.127 113.407H233.05C233.071 113.843 233.239 114.204 233.553 114.489C233.868 114.772 234.248 114.913 234.694 114.913C235.116 114.913 235.498 114.85 235.841 114.725C236.184 114.597 236.536 114.391 236.896 114.109V115.089C236.275 115.579 235.541 115.823 234.694 115.823C234.323 115.823 233.975 115.763 233.65 115.641C233.325 115.52 233.037 115.345 232.787 115.116C232.541 114.884 232.344 114.588 232.198 114.227C232.055 113.863 231.984 113.454 231.984 113ZM233.082 112.55H236.077C236.066 112.121 235.928 111.777 235.664 111.516C235.4 111.255 235.036 111.125 234.571 111.125C234.15 111.125 233.802 111.264 233.526 111.543C233.251 111.821 233.103 112.157 233.082 112.55ZM238.027 113C238.027 112.482 238.127 112.014 238.327 111.596C238.53 111.175 238.825 110.839 239.211 110.589C239.6 110.339 240.047 110.214 240.55 110.214C241.229 110.214 241.802 110.455 242.27 110.937V107.701H243.261V115.657H242.27V115.089C241.795 115.579 241.222 115.823 240.55 115.823C240.047 115.823 239.6 115.697 239.211 115.443C238.825 115.189 238.53 114.85 238.327 114.425C238.127 114 238.027 113.525 238.027 113ZM239.066 113C239.066 113.582 239.216 114.043 239.516 114.382C239.816 114.722 240.22 114.891 240.727 114.891C241.052 114.891 241.345 114.809 241.606 114.645C241.87 114.477 242.091 114.266 242.27 114.013V112.014C242.091 111.761 241.87 111.554 241.606 111.393C241.345 111.228 241.052 111.146 240.727 111.146C240.22 111.146 239.816 111.312 239.516 111.645C239.216 111.977 239.066 112.429 239.066 113Z" fill="#CFFFFF"/>
<path d="M171.553 137.538H178.825V136.108H173.851V136.027L176.047 133.729C178.07 131.684 178.647 130.708 178.647 129.472C178.647 127.697 177.202 126.338 175.119 126.338C173.053 126.338 171.542 127.676 171.542 129.693H173.134C173.128 128.506 173.894 127.73 175.087 127.73C176.209 127.73 177.061 128.42 177.061 129.521C177.061 130.497 176.479 131.199 175.292 132.456L171.553 136.329V137.538ZM184.717 137.689C186.972 137.689 188.628 136.34 188.623 134.506C188.628 133.108 187.781 132.105 186.314 131.878V131.792C187.468 131.495 188.218 130.589 188.213 129.348C188.218 127.724 186.886 126.338 184.76 126.338C182.731 126.338 181.102 127.562 181.048 129.359H182.661C182.699 128.345 183.654 127.73 184.738 127.73C185.866 127.73 186.605 128.415 186.6 129.434C186.605 130.503 185.747 131.204 184.523 131.204H183.589V132.563H184.523C186.055 132.563 186.939 133.34 186.939 134.452C186.939 135.525 186.006 136.254 184.706 136.254C183.508 136.254 182.575 135.639 182.51 134.657H180.816C180.886 136.459 182.483 137.689 184.717 137.689ZM194.509 137.689C196.764 137.689 198.42 136.34 198.415 134.506C198.42 133.108 197.573 132.105 196.106 131.878V131.792C197.26 131.495 198.01 130.589 198.005 129.348C198.01 127.724 196.677 126.338 194.552 126.338C192.523 126.338 190.894 127.562 190.84 129.359H192.453C192.491 128.345 193.446 127.73 194.53 127.73C195.658 127.73 196.397 128.415 196.391 129.434C196.397 130.503 195.539 131.204 194.314 131.204H193.381V132.563H194.314C195.847 132.563 196.731 133.34 196.731 134.452C196.731 135.525 195.798 136.254 194.498 136.254C193.3 136.254 192.367 135.639 192.302 134.657H190.608C190.678 136.459 192.275 137.689 194.509 137.689ZM202.233 136.027H200.679L200.625 136.631C200.501 138.093 200.156 139.566 200.01 140.235H201.154C201.413 139.528 201.985 137.91 202.152 136.615L202.233 136.027ZM204.58 137.538H206.322L211.129 127.967V126.489H203.824V127.918H209.403V127.999L204.58 137.538ZM216.516 137.689C218.814 137.689 220.438 136.383 220.449 134.592C220.438 133.2 219.462 132.029 218.226 131.808V131.743C219.3 131.484 220.028 130.476 220.039 129.283C220.028 127.595 218.539 126.338 216.516 126.338C214.471 126.338 212.982 127.595 212.993 129.283C212.982 130.47 213.711 131.484 214.806 131.743V131.808C213.549 132.029 212.572 133.2 212.583 134.592C212.572 136.383 214.196 137.689 216.516 137.689ZM216.516 136.324C215.135 136.324 214.261 135.59 214.272 134.484C214.261 133.335 215.21 132.515 216.516 132.515C217.8 132.515 218.75 133.335 218.76 134.484C218.75 135.59 217.881 136.324 216.516 136.324ZM216.516 131.182C215.399 131.182 214.606 130.476 214.617 129.424C214.606 128.388 215.372 127.703 216.516 127.703C217.638 127.703 218.404 128.388 218.415 129.424C218.404 130.476 217.617 131.182 216.516 131.182ZM226.239 137.689C228.548 137.71 230.08 136.049 230.075 133.928C230.08 131.814 228.543 130.298 226.627 130.298C225.462 130.298 224.453 130.859 223.887 131.792H223.806C223.811 129.283 224.761 127.794 226.379 127.794C227.442 127.794 228.111 128.442 228.338 129.359H229.983C229.73 127.611 228.354 126.338 226.379 126.338C223.811 126.338 222.209 128.544 222.209 132.385C222.204 136.453 224.275 137.672 226.239 137.689ZM226.234 136.286C224.95 136.286 224.011 135.207 224.011 133.966C224.016 132.731 224.998 131.652 226.271 131.652C227.534 131.652 228.462 132.671 228.456 133.95C228.462 135.256 227.496 136.286 226.234 136.286ZM233.671 136.027H232.117L232.063 136.631C231.939 138.093 231.594 139.566 231.448 140.235H232.592C232.851 139.528 233.422 137.91 233.59 136.615L233.671 136.027ZM235.695 135.38H240.934V137.538H242.525V135.38H243.987V133.966H242.525V126.489H240.47L235.695 134.031V135.38ZM240.944 133.966H237.443V133.88L240.858 128.474H240.944V133.966ZM245.635 135.38H250.874V137.538H252.465V135.38H253.927V133.966H252.465V126.489H250.41L245.635 134.031V135.38ZM250.885 133.966H247.383V133.88L250.798 128.474H250.885V133.966ZM259.454 137.689C261.677 137.689 263.263 136.119 263.258 133.966C263.263 131.83 261.774 130.276 259.762 130.276C258.942 130.276 258.181 130.589 257.75 131.01H257.685L258.036 127.918H262.724V126.489H256.649L256.029 132.056L257.555 132.283C257.971 131.911 258.715 131.657 259.384 131.657C260.695 131.668 261.645 132.65 261.645 133.999C261.645 135.326 260.722 136.286 259.454 136.286C258.386 136.286 257.539 135.606 257.453 134.657H255.834C255.899 136.415 257.426 137.689 259.454 137.689Z" fill="white"/>
<path opacity="0.45" d="M46.6382 241.415V233.141H49.6153C50.3885 233.141 51.0231 233.391 51.5193 233.891C52.0155 234.388 52.2636 234.99 52.2636 235.697C52.2636 236.297 52.1059 236.811 51.7905 237.238C51.4789 237.665 51.0539 237.955 50.5154 238.109L52.3847 241.415H51.1327L49.3788 238.224H47.7517V241.415H46.6382ZM47.7517 237.197H49.523C50.0346 237.197 50.425 237.061 50.6942 236.788C50.9673 236.511 51.1039 236.147 51.1039 235.697C51.1039 235.251 50.9577 234.886 50.6654 234.601C50.3731 234.316 49.9923 234.174 49.523 234.174H47.7517V237.197ZM53.331 238.553C53.331 238.111 53.406 237.701 53.556 237.324C53.706 236.944 53.9079 236.626 54.1618 236.372C54.4156 236.115 54.7118 235.915 55.0503 235.772C55.3888 235.626 55.7446 235.553 56.1177 235.553C56.9793 235.553 57.6582 235.836 58.1543 236.401C58.6505 236.967 58.8986 237.705 58.8986 238.617C58.8986 238.751 58.889 238.876 58.8698 238.992H54.4791C54.5022 239.461 54.683 239.85 55.0214 240.157C55.3599 240.461 55.7696 240.613 56.2504 240.613C56.7042 240.613 57.1158 240.546 57.4851 240.411C57.8543 240.273 58.2332 240.051 58.6217 239.748V240.803C57.9524 241.33 57.162 241.594 56.2504 241.594C55.8503 241.594 55.4753 241.529 55.1253 241.398C54.7753 241.267 54.4656 241.078 54.1964 240.832C53.931 240.582 53.7194 240.263 53.5617 239.875C53.4079 239.482 53.331 239.042 53.331 238.553ZM54.5137 238.069H57.7389C57.7274 237.607 57.5793 237.236 57.2947 236.955C57.01 236.674 56.6177 236.534 56.1177 236.534C55.6638 236.534 55.2888 236.684 54.9926 236.984C54.6964 237.284 54.5368 237.646 54.5137 238.069ZM60.6987 240.74C60.1256 240.171 59.8391 239.446 59.8391 238.565C59.8391 237.684 60.1256 236.963 60.6987 236.401C61.2719 235.836 61.9969 235.553 62.8739 235.553C63.4855 235.553 64.0759 235.688 64.6452 235.957V237.14C64.1067 236.774 63.5162 236.592 62.8739 236.592C62.6393 236.592 62.4104 236.634 62.1873 236.719C61.9642 236.803 61.7603 236.924 61.5757 237.082C61.3949 237.24 61.2488 237.447 61.1372 237.705C61.0295 237.959 60.9757 238.246 60.9757 238.565C60.9757 238.884 61.0295 239.173 61.1372 239.43C61.2488 239.688 61.3949 239.898 61.5757 240.059C61.7603 240.217 61.9642 240.338 62.1873 240.423C62.4104 240.507 62.6393 240.55 62.8739 240.55C63.5239 240.55 64.1143 240.369 64.6452 240.007V241.19C64.0759 241.459 63.4855 241.594 62.8739 241.594C61.9969 241.594 61.2719 241.309 60.6987 240.74ZM65.7125 238.553C65.7125 238.111 65.7875 237.701 65.9375 237.324C66.0876 236.944 66.2895 236.626 66.5434 236.372C66.7972 236.115 67.0934 235.915 67.4319 235.772C67.7704 235.626 68.1261 235.553 68.4992 235.553C69.3608 235.553 70.0397 235.836 70.5359 236.401C71.0321 236.967 71.2802 237.705 71.2802 238.617C71.2802 238.751 71.2706 238.876 71.2514 238.992H66.8607C66.8838 239.461 67.0645 239.85 67.403 240.157C67.7415 240.461 68.1511 240.613 68.6319 240.613C69.0858 240.613 69.4974 240.546 69.8666 240.411C70.2359 240.273 70.6148 240.051 71.0033 239.748V240.803C70.334 241.33 69.5435 241.594 68.6319 241.594C68.2319 241.594 67.8569 241.529 67.5069 241.398C67.1569 241.267 66.8472 241.078 66.578 240.832C66.3126 240.582 66.101 240.263 65.9433 239.875C65.7895 239.482 65.7125 239.042 65.7125 238.553ZM66.8953 238.069H70.1205C70.109 237.607 69.9609 237.236 69.6762 236.955C69.3916 236.674 68.9993 236.534 68.4992 236.534C68.0454 236.534 67.6703 236.684 67.3742 236.984C67.078 237.284 66.9184 237.646 66.8953 238.069ZM72.6938 241.415V235.744H73.7323V236.286C74.2054 235.797 74.7766 235.553 75.4459 235.553C75.7228 235.553 75.9863 235.599 76.2363 235.692C76.4902 235.784 76.7171 235.917 76.9171 236.09C77.121 236.263 77.2825 236.486 77.4018 236.759C77.5248 237.032 77.5864 237.336 77.5864 237.671V241.415H76.519V237.942C76.519 237.522 76.3901 237.19 76.1324 236.944C75.8786 236.694 75.567 236.569 75.1978 236.569C74.6323 236.569 74.1515 236.821 73.7554 237.324V241.415H72.6938ZM78.6538 236.69V235.744H79.75V234.065L80.7424 233.476V235.744H82.1271V236.69H80.7424V239.857C80.7424 240.377 81.027 240.636 81.5963 240.636C81.7847 240.636 81.9617 240.607 82.1271 240.55V241.473C81.9117 241.554 81.6289 241.594 81.2789 241.594C80.7866 241.594 80.3962 241.457 80.1077 241.184C79.8231 240.911 79.6807 240.523 79.6807 240.019V236.69H78.6538Z" fill="#22FFCA"/>
<path d="M125.86 241.415C125.86 240.827 125.925 240.323 126.056 239.903C126.191 239.484 126.379 239.126 126.621 238.83C126.868 238.534 127.212 238.215 127.654 237.873L128.906 236.903C129.264 236.626 129.533 236.355 129.714 236.09C129.895 235.824 129.985 235.547 129.985 235.259C129.985 234.882 129.835 234.58 129.535 234.353C129.235 234.122 128.825 234.007 128.306 234.007C127.483 234.007 126.706 234.255 125.975 234.751V233.568C126.21 233.449 126.41 233.355 126.575 233.286C126.744 233.213 126.989 233.141 127.308 233.072C127.627 233.003 127.96 232.968 128.306 232.968C129.168 232.968 129.85 233.186 130.354 233.62C130.862 234.055 131.116 234.601 131.116 235.259C131.116 236.113 130.627 236.901 129.65 237.624L128.162 238.732C127.873 238.944 127.627 239.192 127.423 239.476C127.223 239.757 127.123 240.05 127.123 240.353H131.162V241.415H125.86ZM132.097 239.338V238.011L135.501 233.141H137.024V238.294H138.334V239.338H137.024V241.415H135.939V239.338H132.097ZM133.112 238.294H135.939V234.186L133.112 238.294ZM143.33 241.415V232.847H144.392V236.263C144.865 235.79 145.436 235.553 146.105 235.553C146.478 235.553 146.825 235.632 147.144 235.79C147.467 235.944 147.734 236.186 147.946 236.517C148.161 236.844 148.269 237.228 148.269 237.671V241.415H147.207V237.942C147.207 237.526 147.075 237.194 146.809 236.944C146.548 236.694 146.23 236.569 145.857 236.569C145.276 236.569 144.788 236.821 144.392 237.324V241.415H143.33Z" fill="#22FFCA"/>
<path opacity="0.45" d="M192.479 235.34V234.232L194.568 233.141H195.537V241.415H194.452V234.347L192.479 235.34ZM201.306 241.415V235.744H202.345V236.286C202.818 235.797 203.389 235.553 204.059 235.553C204.393 235.553 204.699 235.62 204.976 235.755C205.257 235.886 205.484 236.078 205.657 236.332C206.195 235.813 206.847 235.553 207.613 235.553C208.19 235.553 208.684 235.742 209.095 236.119C209.511 236.495 209.719 237.013 209.719 237.671V241.415H208.657V237.942C208.657 237.515 208.545 237.18 208.322 236.938C208.103 236.692 207.813 236.569 207.451 236.569C206.882 236.569 206.405 236.813 206.02 237.301C206.036 237.455 206.043 237.578 206.043 237.671V241.415H204.993V237.942C204.993 237.515 204.886 237.18 204.67 236.938C204.455 236.692 204.168 236.569 203.81 236.569C203.245 236.569 202.764 236.821 202.368 237.324V241.415H201.306ZM211.022 238.565C211.022 237.699 211.305 236.982 211.871 236.413C212.436 235.84 213.15 235.553 214.011 235.553C214.873 235.553 215.586 235.84 216.152 236.413C216.717 236.982 217 237.699 217 238.565C217 239.434 216.717 240.157 216.152 240.734C215.586 241.307 214.873 241.594 214.011 241.594C213.15 241.594 212.436 241.307 211.871 240.734C211.305 240.157 211.022 239.434 211.022 238.565ZM212.142 238.565C212.142 239.196 212.324 239.692 212.69 240.053C213.055 240.411 213.496 240.59 214.011 240.59C214.527 240.59 214.967 240.411 215.332 240.053C215.698 239.692 215.881 239.196 215.881 238.565C215.881 237.942 215.698 237.451 215.332 237.094C214.967 236.736 214.527 236.557 214.011 236.557C213.496 236.557 213.055 236.736 212.69 237.094C212.324 237.451 212.142 237.942 212.142 238.565Z" fill="#22FFCA"/>
<path opacity="0.45" d="M261.017 240.988V239.846C261.832 240.315 262.632 240.55 263.417 240.55C263.709 240.55 263.973 240.502 264.208 240.405C264.446 240.309 264.636 240.184 264.779 240.03C264.921 239.873 265.031 239.7 265.108 239.511C265.185 239.323 265.223 239.13 265.223 238.934C265.223 238.457 265.052 238.084 264.71 237.815C264.371 237.546 263.967 237.411 263.498 237.411C263.275 237.411 263.052 237.449 262.829 237.526L262.298 236.499L264.715 234.209H261.017V233.141H266.215V234.186L263.688 236.511C263.758 236.495 263.884 236.488 264.069 236.488C264.331 236.488 264.594 236.544 264.86 236.655C265.129 236.763 265.379 236.915 265.61 237.111C265.84 237.307 266.029 237.563 266.175 237.878C266.321 238.194 266.394 238.538 266.394 238.911C266.394 239.269 266.329 239.607 266.198 239.926C266.071 240.246 265.887 240.53 265.644 240.78C265.402 241.03 265.088 241.228 264.704 241.375C264.323 241.521 263.894 241.594 263.417 241.594C262.609 241.594 261.809 241.392 261.017 240.988ZM271.633 241.415V235.744H272.672V236.286C273.145 235.797 273.716 235.553 274.385 235.553C274.72 235.553 275.026 235.62 275.303 235.755C275.583 235.886 275.81 236.078 275.983 236.332C276.522 235.813 277.174 235.553 277.939 235.553C278.516 235.553 279.01 235.742 279.422 236.119C279.837 236.495 280.045 237.013 280.045 237.671V241.415H278.984V237.942C278.984 237.515 278.872 237.18 278.649 236.938C278.43 236.692 278.139 236.569 277.778 236.569C277.208 236.569 276.731 236.813 276.347 237.301C276.362 237.455 276.37 237.578 276.37 237.671V241.415H275.32V237.942C275.32 237.515 275.212 237.18 274.997 236.938C274.781 236.692 274.495 236.569 274.137 236.569C273.572 236.569 273.091 236.821 272.695 237.324V241.415H271.633ZM281.349 238.565C281.349 237.699 281.632 236.982 282.197 236.413C282.763 235.84 283.476 235.553 284.338 235.553C285.199 235.553 285.913 235.84 286.478 236.413C287.044 236.982 287.326 237.699 287.326 238.565C287.326 239.434 287.044 240.157 286.478 240.734C285.913 241.307 285.199 241.594 284.338 241.594C283.476 241.594 282.763 241.307 282.197 240.734C281.632 240.157 281.349 239.434 281.349 238.565ZM282.468 238.565C282.468 239.196 282.651 239.692 283.016 240.053C283.382 240.411 283.822 240.59 284.338 240.59C284.853 240.59 285.294 240.411 285.659 240.053C286.024 239.692 286.207 239.196 286.207 238.565C286.207 237.942 286.024 237.451 285.659 237.094C285.294 236.736 284.853 236.557 284.338 236.557C283.822 236.557 283.382 236.736 283.016 237.094C282.651 237.451 282.468 237.942 282.468 238.565Z" fill="#22FFCA"/>
<circle cx="137.574" cy="251.515" r="1.68802" fill="#22FFCA"/>
</svg>
