<svg width="221" height="58" viewBox="0 0 221 58" fill="none" xmlns="http://www.w3.org/2000/svg">
    <mask id="path-1-outside-1" maskUnits="userSpaceOnUse" x="0" y="0" width="221" height="58" fill="black">
        <rect fill="white" width="221" height="58"/>
        <path fill-rule="evenodd" clip-rule="evenodd"
              d="M13.557 2.1485H1V55.7453H11.9491V17.9213L37.2927 55.7453H48.3183V2.1485H37.3693V36.6036L13.557 2.1485ZM38.2716 3.05086V39.4964L13.0837 3.05086H1.90236V54.843H11.0467V14.9535L37.7743 54.843H47.416V3.05086H38.2716ZM69.2232 46.2346V33.0214H91.5807V24.7193H69.2232V11.353H93.9543V3.05086H59.9257V54.843H93.9543V46.2346H69.2232ZM94.8567 45.3322V55.7453H59.0234V2.1485H94.8567V12.2553H70.1256V23.8169H92.4831V33.9238H70.1256V45.3322H94.8567ZM112.63 2.1485H99.9962L120.593 57.4298H122.43L138.586 18.2276L154.818 57.4298H156.579L177.176 2.1485H164.542L155.124 30.6314L143.333 2.1485H133.839L122.124 30.6314L112.63 2.1485ZM134.443 3.05086L122.035 33.2191L111.979 3.05086H101.295L121.219 56.5275H121.826L138.584 15.8641L155.421 56.5275H155.952L175.877 3.05086H165.194L155.219 33.2193L142.73 3.05086H134.443ZM197.327 22.1325C194.264 21.4434 192.656 19.6058 192.656 17.0791C192.656 13.8632 195.565 11.5662 200.772 11.5662C205.532 11.5662 211.038 13.0605 215.949 15.2174C216.252 15.3506 216.553 15.4863 216.851 15.6243V4.29238C212.87 2.53134 207.357 1 201.155 1C187.909 1 180.712 8.19729 180.712 17.7682C180.712 27.5687 186.99 31.8565 195.106 33.6175L202.533 35.2254C206.285 35.9911 208.046 38.2115 208.046 40.8148C208.046 43.7243 205.902 46.251 200.695 46.251C194.455 46.251 186.67 43.8994 181.997 41.3361C181.681 41.1631 181.38 40.9891 181.094 40.8148V52.2233C185.076 54.2906 191.967 56.8938 200.695 56.8938C213.023 56.8938 220.143 49.5434 220.143 40.1257C220.143 31.3205 215.167 26.0374 205.825 23.9701L197.327 22.1325ZM205.633 24.8516C205.632 24.8514 205.631 24.8513 205.63 24.8511L197.128 23.0128C195.467 22.639 194.116 21.9345 193.176 20.9026C192.226 19.86 191.754 18.5461 191.754 17.0791C191.754 15.1644 192.635 13.5175 194.24 12.3804C195.818 11.2627 198.05 10.6639 200.772 10.6639C205.576 10.6639 211.056 12.1287 215.949 14.2335V4.88548C212.112 3.26685 206.938 1.90236 201.155 1.90236C194.691 1.90236 189.809 3.65748 186.557 6.47678C183.316 9.28678 181.614 13.2217 181.614 17.7682C181.614 22.4551 183.106 25.7339 185.495 28.0613C187.911 30.4145 191.326 31.8738 195.297 32.7356C195.297 32.7356 195.297 32.7355 195.297 32.7356L202.714 34.3413C202.715 34.3416 202.717 34.342 202.719 34.3424C204.729 34.7536 206.291 35.5721 207.357 36.716C208.431 37.8689 208.948 39.2985 208.948 40.8148C208.948 42.5031 208.318 44.1283 206.903 45.3154C205.504 46.4889 203.435 47.1534 200.695 47.1534C194.485 47.1534 186.832 44.8999 181.997 42.36V51.6702C185.946 53.6429 192.491 55.9915 200.695 55.9915C206.68 55.9915 211.311 54.2097 214.436 51.3733C217.556 48.5409 219.241 44.5976 219.241 40.1257C219.241 35.9023 218.053 32.6091 215.817 30.1248C213.569 27.6279 210.184 25.8592 205.633 24.8516Z"/>
    </mask>
    <path d="M13.557 2.1485L13.9281 1.89199L13.7936 1.69732H13.557V2.1485ZM1 2.1485V1.69732H0.548821V2.1485H1ZM1 55.7453H0.548821V56.1965H1V55.7453ZM11.9491 55.7453V56.1965H12.4002V55.7453H11.9491ZM11.9491 17.9213L12.3239 17.6701L11.4979 16.4374V17.9213H11.9491ZM37.2927 55.7453L36.9179 55.9965L37.0519 56.1965H37.2927V55.7453ZM48.3183 55.7453V56.1965H48.7695V55.7453H48.3183ZM48.3183 2.1485H48.7695V1.69732H48.3183V2.1485ZM37.3693 2.1485V1.69732H36.9181V2.1485H37.3693ZM37.3693 36.6036L36.9981 36.8601L37.8205 38.05V36.6036H37.3693ZM38.2716 3.05086V2.59968H37.8205V3.05086H38.2716ZM38.2716 39.4964L37.9005 39.7529L38.7228 40.9428V39.4964H38.2716ZM13.0837 3.05086L13.4549 2.79434L13.3203 2.59968H13.0837V3.05086ZM1.90236 3.05086V2.59968H1.45118V3.05086H1.90236ZM1.90236 54.843H1.45118V55.2942H1.90236V54.843ZM11.0467 54.843V55.2942H11.4979V54.843H11.0467ZM11.0467 14.9535L11.4215 14.7023L10.5955 13.4696V14.9535H11.0467ZM37.7743 54.843L37.3995 55.0941L37.5335 55.2942H37.7743V54.843ZM47.416 54.843V55.2942H47.8672V54.843H47.416ZM47.416 3.05086H47.8672V2.59968H47.416V3.05086ZM69.2232 46.2346H68.772V46.6858H69.2232V46.2346ZM69.2232 33.0214V32.5702H68.772V33.0214H69.2232ZM91.5807 33.0214V33.4726H92.0319V33.0214H91.5807ZM91.5807 24.7193H92.0319V24.2681H91.5807V24.7193ZM69.2232 24.7193H68.772V25.1705H69.2232V24.7193ZM69.2232 11.353V10.9018H68.772V11.353H69.2232ZM93.9543 11.353V11.8042H94.4055V11.353H93.9543ZM93.9543 3.05086H94.4055V2.59968H93.9543V3.05086ZM59.9257 3.05086V2.59968H59.4745V3.05086H59.9257ZM59.9257 54.843H59.4745V55.2942H59.9257V54.843ZM93.9543 54.843V55.2942H94.4055V54.843H93.9543ZM93.9543 46.2346H94.4055V45.7834H93.9543V46.2346ZM94.8567 45.3322H95.3079V44.8811H94.8567V45.3322ZM94.8567 55.7453V56.1965H95.3079V55.7453H94.8567ZM59.0234 55.7453H58.5722V56.1965H59.0234V55.7453ZM59.0234 2.1485V1.69732H58.5722V2.1485H59.0234ZM94.8567 2.1485H95.3079V1.69732H94.8567V2.1485ZM94.8567 12.2553V12.7065H95.3079V12.2553H94.8567ZM70.1256 12.2553V11.8042H69.6744V12.2553H70.1256ZM70.1256 23.8169H69.6744V24.2681H70.1256V23.8169ZM92.4831 23.8169H92.9343V23.3658H92.4831V23.8169ZM92.4831 33.9238V34.375H92.9343V33.9238H92.4831ZM70.1256 33.9238V33.4726H69.6744V33.9238H70.1256ZM70.1256 45.3322H69.6744V45.7834H70.1256V45.3322ZM112.63 2.1485L113.058 2.00583L112.955 1.69732H112.63V2.1485ZM99.9962 2.1485V1.69732H99.3466L99.5734 2.30602L99.9962 2.1485ZM120.593 57.4298L120.17 57.5873L120.279 57.881H120.593V57.4298ZM122.43 57.4298V57.881H122.732L122.847 57.6017L122.43 57.4298ZM138.586 18.2276L139.003 18.0549L138.585 17.0458L138.169 18.0556L138.586 18.2276ZM154.818 57.4298L154.401 57.6024L154.517 57.881H154.818V57.4298ZM156.579 57.4298V57.881H156.893L157.002 57.5873L156.579 57.4298ZM177.176 2.1485L177.598 2.30602L177.825 1.69732H177.176V2.1485ZM164.542 2.1485V1.69732H164.216L164.114 2.00686L164.542 2.1485ZM155.124 30.6314L154.708 30.804L155.172 31.9254L155.553 30.773L155.124 30.6314ZM143.333 2.1485L143.75 1.97593L143.635 1.69732H143.333V2.1485ZM133.839 2.1485V1.69732H133.537L133.422 1.97689L133.839 2.1485ZM122.124 30.6314L121.696 30.7741L122.08 31.9252L122.541 30.803L122.124 30.6314ZM134.443 3.05086V2.59968H134.141L134.026 2.87924L134.443 3.05086ZM122.035 33.2191L121.607 33.3618L121.991 34.513L122.453 33.3907L122.035 33.2191ZM111.979 3.05086L112.407 2.90818L112.305 2.59968H111.979V3.05086ZM101.295 3.05086V2.59968H100.646L100.873 3.20838L101.295 3.05086ZM121.219 56.5275L120.797 56.685L120.906 56.9786H121.219V56.5275ZM121.826 56.5275V56.9786H122.128L122.243 56.6994L121.826 56.5275ZM138.584 15.8641L139.001 15.6915L138.583 14.6823L138.167 15.6922L138.584 15.8641ZM155.421 56.5275L155.004 56.7001L155.12 56.9786H155.421V56.5275ZM155.952 56.5275V56.9786H156.266L156.375 56.685L155.952 56.5275ZM175.877 3.05086L176.299 3.20838L176.526 2.59968H175.877V3.05086ZM165.194 3.05086V2.59968H164.868L164.766 2.90922L165.194 3.05086ZM155.219 33.2193L154.802 33.3919L155.266 34.5133L155.647 33.361L155.219 33.2193ZM142.73 3.05086L143.147 2.87828L143.032 2.59968H142.73V3.05086ZM197.327 22.1325L197.227 22.5727L197.231 22.5735L197.327 22.1325ZM215.949 15.2174L216.13 14.8043V14.8043L215.949 15.2174ZM216.851 15.6243L216.662 16.0338L217.302 16.3302V15.6243H216.851ZM216.851 4.29238H217.302V3.99859L217.034 3.87976L216.851 4.29238ZM195.106 33.6175L195.01 34.0584L195.011 34.0585L195.106 33.6175ZM202.533 35.2254L202.438 35.6664L202.443 35.6675L202.533 35.2254ZM181.997 41.3361L181.78 41.7317L181.997 41.3361ZM181.094 40.8148L181.329 40.4296L180.643 40.011V40.8148H181.094ZM181.094 52.2233H180.643V52.4974L180.886 52.6237L181.094 52.2233ZM205.825 23.9701L205.923 23.5295L205.921 23.5291L205.825 23.9701ZM205.63 24.8511L205.728 24.4105L205.726 24.4101L205.63 24.8511ZM205.633 24.8516L205.73 24.4111L205.73 24.411L205.633 24.8516ZM197.128 23.0128L197.029 23.453L197.033 23.4538L197.128 23.0128ZM193.176 20.9026L192.842 21.2065V21.2065L193.176 20.9026ZM194.24 12.3804L193.979 12.0122V12.0122L194.24 12.3804ZM215.949 14.2335L215.77 14.6479L216.4 14.9187V14.2335H215.949ZM215.949 4.88548H216.4V4.58613L216.124 4.46978L215.949 4.88548ZM186.557 6.47678L186.261 6.13589L186.557 6.47678ZM185.495 28.0613L185.18 28.3845L185.495 28.0613ZM202.714 34.3413L202.618 34.7823L202.624 34.7834L202.714 34.3413ZM202.719 34.3424L202.628 34.7843L202.628 34.7844L202.719 34.3424ZM207.357 36.716L207.687 36.4085V36.4085L207.357 36.716ZM206.903 45.3154L206.613 44.9697L206.903 45.3154ZM181.997 42.36L182.206 41.9606L181.546 41.6134V42.36H181.997ZM181.997 51.6702H181.546V51.9492L181.795 52.0738L181.997 51.6702ZM214.436 51.3733L214.132 51.0392L214.436 51.3733ZM215.817 30.1248L215.481 30.4266V30.4266L215.817 30.1248ZM1.90236 3.50204H13.0837V2.59968H1.90236V3.50204ZM2.35354 54.843V3.05086H1.45118V54.843H2.35354ZM11.0467 54.3918H1.90236V55.2942H11.0467V54.3918ZM47.416 54.3918H37.7743V55.2942H47.416V54.3918ZM46.9648 3.05086V54.843H47.8672V3.05086H46.9648ZM38.2716 3.50204H47.416V2.59968H38.2716V3.50204ZM91.1296 24.7193V33.0214H92.0319V24.7193H91.1296ZM93.5031 3.05086V11.353H94.4055V3.05086H93.5031ZM59.9257 3.50204H93.9543V2.59968H59.9257V3.50204ZM60.3769 54.843V3.05086H59.4745V54.843H60.3769ZM93.9543 54.3918H59.9257V55.2942H93.9543V54.3918ZM93.5031 46.2346V54.843H94.4055V46.2346H93.5031ZM120.593 57.881H122.43V56.9786H120.593V57.881ZM154.818 57.881H156.579V56.9786H154.818V57.881ZM143.333 1.69732H133.839V2.59968H143.333V1.69732ZM101.295 3.50204H111.979V2.59968H101.295V3.50204ZM121.642 56.3699L101.718 2.89334L100.873 3.20838L120.797 56.685L121.642 56.3699ZM121.826 56.0763H121.219V56.9786H121.826V56.0763ZM155.952 56.0763H155.421V56.9786H155.952V56.0763ZM175.454 2.89334L155.53 56.3699L156.375 56.685L176.299 3.20838L175.454 2.89334ZM165.194 3.50204H175.877V2.59968H165.194V3.50204ZM134.443 3.50204H142.73V2.59968H134.443V3.50204ZM197.426 21.6923C195.959 21.3624 194.883 20.7671 194.176 19.991C193.474 19.2202 193.107 18.2406 193.107 17.0791H192.205C192.205 18.4442 192.642 19.6468 193.509 20.5987C194.372 21.5454 195.631 22.2134 197.227 22.5726L197.426 21.6923ZM193.107 17.0791C193.107 15.6245 193.758 14.3807 195.022 13.4849C196.301 12.5794 198.228 12.0174 200.772 12.0174V11.1151C198.109 11.1151 195.979 11.7016 194.501 12.7485C193.009 13.8052 192.205 15.3178 192.205 17.0791H193.107ZM200.772 12.0174C205.448 12.0174 210.891 13.4888 215.767 15.6305L216.13 14.8043C211.185 12.6322 205.615 11.1151 200.772 11.1151V12.0174ZM215.767 15.6305C216.068 15.7625 216.366 15.897 216.662 16.0338L217.041 15.2148C216.74 15.0756 216.436 14.9387 216.13 14.8043L215.767 15.6305ZM217.034 3.87976C213.004 2.09726 207.429 0.548821 201.155 0.548821V1.45118C207.285 1.45118 212.736 2.96541 216.669 4.70499L217.034 3.87976ZM201.155 0.548821C194.452 0.548821 189.227 2.37024 185.67 5.45411C182.108 8.54263 180.26 12.8632 180.26 17.7682H181.163C181.163 13.1022 182.913 9.03873 186.261 6.13589C189.615 3.2284 194.611 1.45118 201.155 1.45118V0.548821ZM180.26 17.7682C180.26 22.7751 181.869 26.4188 184.55 29.0308C187.219 31.6299 190.909 33.1685 195.01 34.0584L195.202 33.1766C191.187 32.3054 187.68 30.8197 185.18 28.3845C182.693 25.9622 181.163 22.5617 181.163 17.7682H180.26ZM195.011 34.0585L202.438 35.6664L202.629 34.7844L195.202 33.1765L195.011 34.0585ZM202.443 35.6675C204.25 36.0363 205.536 36.7466 206.366 37.6385C207.193 38.5264 207.595 39.6205 207.595 40.8148H208.497C208.497 39.4058 208.018 38.0881 207.027 37.0235C206.039 35.9629 204.568 35.1802 202.623 34.7833L202.443 35.6675ZM207.595 40.8148C207.595 42.1528 207.106 43.3788 206.033 44.2783C204.953 45.1846 203.231 45.7999 200.695 45.7999V46.7022C203.367 46.7022 205.32 46.0541 206.613 44.9697C207.914 43.8784 208.497 42.3863 208.497 40.8148H207.595ZM200.695 45.7999C194.541 45.7999 186.83 43.4726 182.214 40.9405L181.78 41.7317C186.51 44.3262 194.369 46.7022 200.695 46.7022V45.7999ZM182.214 40.9405C181.904 40.7706 181.609 40.6 181.329 40.4296L180.859 41.1999C181.151 41.3781 181.459 41.5556 181.78 41.7317L182.214 40.9405ZM180.886 52.6237C184.916 54.7157 191.878 57.345 200.695 57.345V56.4427C192.056 56.4427 185.236 53.8654 181.302 51.8228L180.886 52.6237ZM200.695 57.345C206.949 57.345 211.926 55.4795 215.345 52.3755C218.767 49.2694 220.595 44.953 220.595 40.1257H219.692C219.692 44.7161 217.96 48.7838 214.739 51.7074C211.516 54.633 206.769 56.4427 200.695 56.4427V57.345ZM220.595 40.1257C220.595 35.6335 219.323 31.9969 216.823 29.2193C214.329 26.4483 210.653 24.5763 205.923 23.5296L205.728 24.4106C210.339 25.4312 213.822 27.2344 216.152 29.823C218.476 32.4051 219.692 35.8127 219.692 40.1257H220.595ZM205.921 23.5291L197.422 21.6915L197.231 22.5735L205.73 24.4111L205.921 23.5291ZM205.533 25.2917C205.534 25.2918 205.534 25.2918 205.534 25.2919C205.535 25.292 205.535 25.2921 205.535 25.2922L205.73 24.411C205.729 24.4109 205.729 24.4109 205.729 24.4108C205.728 24.4107 205.728 24.4106 205.728 24.4105L205.533 25.2917ZM192.842 21.2065C193.86 22.3237 195.303 23.0645 197.029 23.453L197.227 22.5727C195.631 22.2134 194.372 21.5453 193.509 20.5987L192.842 21.2065ZM191.302 17.0791C191.302 18.6478 191.81 20.0732 192.842 21.2065L193.509 20.5987C192.642 19.6468 192.205 18.4443 192.205 17.0791H191.302ZM193.979 12.0122C192.26 13.2297 191.302 15.011 191.302 17.0791H192.205C192.205 15.3179 193.009 13.8053 194.501 12.7485L193.979 12.0122ZM200.772 10.2127C197.99 10.2127 195.657 10.8237 193.979 12.0122L194.501 12.7485C195.979 11.7016 198.109 11.1151 200.772 11.1151V10.2127ZM216.127 13.819C211.2 11.6995 205.657 10.2127 200.772 10.2127V11.1151C205.494 11.1151 210.912 12.5579 215.77 14.6479L216.127 13.819ZM215.498 4.88548V14.2335H216.4V4.88548H215.498ZM201.155 2.35354C206.869 2.35354 211.983 3.70231 215.773 5.30119L216.124 4.46978C212.24 2.83139 207.007 1.45118 201.155 1.45118V2.35354ZM186.853 6.81767C190.003 4.08653 194.77 2.35354 201.155 2.35354V1.45118C194.611 1.45118 189.615 3.22843 186.261 6.13589L186.853 6.81767ZM182.065 17.7682C182.065 13.3413 183.719 9.53486 186.853 6.81767L186.261 6.13589C182.913 9.0387 181.163 13.1022 181.163 17.7682H182.065ZM185.81 27.7381C183.518 25.5055 182.065 22.3483 182.065 17.7682H181.163C181.163 22.5618 182.693 25.9622 185.18 28.3845L185.81 27.7381ZM195.393 32.2947C191.465 31.4423 188.141 30.0093 185.81 27.7381L185.18 28.3845C187.68 30.8196 191.187 32.3053 195.201 33.1765L195.393 32.2947ZM195.396 32.2954C195.396 32.2954 195.396 32.2954 195.396 32.2954C195.396 32.2954 195.396 32.2954 195.396 32.2954V32.2954C195.396 32.2954 195.396 32.2954 195.396 32.2954C195.396 32.2954 195.396 32.2954 195.396 32.2954C195.737 32.8346 195.198 33.1757 195.198 33.1757C195.198 33.1757 195.198 33.1757 195.198 33.1757C195.198 33.1757 195.198 33.1757 195.198 33.1757C195.198 33.1758 195.198 33.1757 195.198 33.1757C195.198 33.1757 195.198 33.1757 195.198 33.1757C195.198 33.1758 195.198 33.1757 195.198 33.1757C195.198 33.1758 195.198 33.1758 195.198 33.1758C195.198 33.1758 195.198 33.1758 195.198 33.1758C195.198 33.1758 195.198 33.1758 195.198 33.1758C195.198 33.1758 195.198 33.1758 195.198 33.1758C195.198 33.1758 195.198 33.1758 195.198 33.1758C195.198 33.1758 195.198 33.1758 195.198 33.1758C195.198 33.1758 195.198 33.1757 195.198 33.1758C195.198 33.1758 195.198 33.1758 195.198 33.1758C195.198 33.1758 195.198 33.1758 195.198 33.1758C195.198 33.1758 195.198 33.1758 195.198 33.1758V33.1758C195.198 33.1758 195.737 32.8346 195.396 32.2954C195.396 32.2954 195.396 32.2954 195.396 32.2954C195.396 32.2954 195.396 32.2954 195.396 32.2954V32.2954C195.396 32.2954 195.396 32.2954 195.396 32.2954C195.396 32.2954 195.396 32.2954 195.396 32.2954L195.198 33.1758C195.198 33.1758 195.198 33.1758 195.198 33.1758C195.198 33.1758 195.198 33.1758 195.198 33.1758C195.198 33.1758 195.198 33.1758 195.198 33.1758C195.198 33.1758 195.198 33.1757 195.198 33.1758C195.198 33.1758 195.198 33.1758 195.198 33.1758C194.857 32.6365 195.396 32.2954 195.396 32.2954C195.396 32.2954 195.396 32.2954 195.396 32.2954C195.396 32.2954 195.396 32.2954 195.396 32.2954C195.396 32.2954 195.396 32.2954 195.396 32.2954C195.396 32.2954 195.396 32.2954 195.396 32.2954V32.2954C195.396 32.2954 195.396 32.2954 195.396 32.2954H195.396C195.396 32.2954 195.396 32.2954 195.396 32.2954C195.396 32.2954 195.396 32.2954 195.396 32.2954C195.396 32.2954 195.396 32.2954 195.396 32.2954V32.2954C195.396 32.2954 195.396 32.2954 195.396 32.2954C195.396 32.2954 195.396 32.2954 195.396 32.2954C195.396 32.2954 195.396 32.2954 195.396 32.2954C195.396 32.2954 194.857 32.6365 195.198 33.1757C195.198 33.1757 195.198 33.1757 195.198 33.1757C195.198 33.1758 195.198 33.1757 195.198 33.1757C195.198 33.1757 195.198 33.1757 195.198 33.1757C195.198 33.1757 195.198 33.1757 195.198 33.1758C195.198 33.1758 195.198 33.1757 195.198 33.1758L195.396 32.2954ZM202.809 33.9003L195.392 32.2946L195.202 33.1765L202.618 34.7822L202.809 33.9003ZM202.81 33.9004C202.807 33.9 202.805 33.8995 202.803 33.8992L202.624 34.7834C202.625 34.7838 202.627 34.784 202.628 34.7843L202.81 33.9004ZM207.687 36.4085C206.543 35.1802 204.888 34.3256 202.809 33.9003L202.628 34.7844C204.57 35.1816 206.04 35.9639 207.027 37.0235L207.687 36.4085ZM209.399 40.8148C209.399 39.1912 208.843 37.6498 207.687 36.4085L207.027 37.0235C208.018 38.088 208.497 39.4058 208.497 40.8148H209.399ZM207.193 45.6611C208.723 44.378 209.399 42.6197 209.399 40.8148H208.497C208.497 42.3865 207.914 43.8786 206.613 44.9697L207.193 45.6611ZM200.695 47.6046C203.503 47.6046 205.687 46.9238 207.193 45.6611L206.613 44.9697C205.32 46.0541 203.367 46.7022 200.695 46.7022V47.6046ZM181.787 42.7595C186.676 45.3275 194.4 47.6046 200.695 47.6046V46.7022C194.569 46.7022 186.989 44.4723 182.206 41.9606L181.787 42.7595ZM182.448 51.6702V42.36H181.546V51.6702H182.448ZM200.695 55.5403C192.577 55.5403 186.101 53.2157 182.198 51.2665L181.795 52.0738C185.792 54.07 192.406 56.4427 200.695 56.4427V55.5403ZM214.132 51.0392C211.106 53.7864 206.59 55.5403 200.695 55.5403V56.4427C206.769 56.4427 211.516 54.6329 214.739 51.7074L214.132 51.0392ZM218.79 40.1257C218.79 44.4791 217.152 48.2981 214.132 51.0392L214.739 51.7074C217.96 48.7838 219.692 44.7161 219.692 40.1257H218.79ZM215.481 30.4266C217.629 32.8133 218.79 35.992 218.79 40.1257H219.692C219.692 35.8126 218.476 32.405 216.152 29.823L215.481 30.4266ZM205.535 25.2921C210.027 26.2866 213.316 28.0209 215.481 30.4266L216.152 29.823C213.823 27.2348 210.341 25.4317 205.73 24.4111L205.535 25.2921ZM37.7404 36.3471L13.9281 1.89199L13.1858 2.40502L36.9981 36.8601L37.7404 36.3471ZM13.557 1.69732H1V2.59968H13.557V1.69732ZM0.548821 2.1485V55.7453H1.45118V2.1485H0.548821ZM1 56.1965H11.9491V55.2942H1V56.1965ZM12.4002 55.7453V17.9213H11.4979V55.7453H12.4002ZM11.5743 18.1724L36.9179 55.9965L37.6675 55.4942L12.3239 17.6701L11.5743 18.1724ZM37.2927 56.1965H48.3183V55.2942H37.2927V56.1965ZM48.7695 55.7453V2.1485H47.8672V55.7453H48.7695ZM48.3183 1.69732H37.3693V2.59968H48.3183V1.69732ZM36.9181 2.1485V36.6036H37.8205V2.1485H36.9181ZM38.7228 39.4964V3.05086H37.8205V39.4964H38.7228ZM12.7126 3.30737L37.9005 39.7529L38.6428 39.2399L13.4549 2.79434L12.7126 3.30737ZM10.5955 14.9535V54.843H11.4979V14.9535H10.5955ZM38.1491 54.5918L11.4215 14.7023L10.6719 15.2046L37.3995 55.0941L38.1491 54.5918ZM68.772 33.0214V46.2346H69.6744V33.0214H68.772ZM91.5807 32.5702H69.2232V33.4726H91.5807V32.5702ZM69.2232 25.1705H91.5807V24.2681H69.2232V25.1705ZM68.772 11.353V24.7193H69.6744V11.353H68.772ZM93.9543 10.9018H69.2232V11.8042H93.9543V10.9018ZM69.2232 46.6858H93.9543V45.7834H69.2232V46.6858ZM94.8567 44.8811H70.1256V45.7834H94.8567V44.8811ZM95.3079 55.7453V45.3322H94.4055V55.7453H95.3079ZM59.0234 56.1965H94.8567V55.2942H59.0234V56.1965ZM58.5722 2.1485V55.7453H59.4745V2.1485H58.5722ZM94.8567 1.69732H59.0234V2.59968H94.8567V1.69732ZM95.3079 12.2553V2.1485H94.4055V12.2553H95.3079ZM70.1256 12.7065H94.8567V11.8042H70.1256V12.7065ZM70.5767 23.8169V12.2553H69.6744V23.8169H70.5767ZM92.4831 23.3658H70.1256V24.2681H92.4831V23.3658ZM92.9343 33.9238V23.8169H92.0319V33.9238H92.9343ZM70.1256 34.375H92.4831V33.4726H70.1256V34.375ZM70.5767 45.3322V33.9238H69.6744V45.3322H70.5767ZM122.552 30.4887L113.058 2.00583L112.202 2.29118L121.696 30.7741L122.552 30.4887ZM112.63 1.69732H99.9962V2.59968H112.63V1.69732ZM99.5734 2.30602L120.17 57.5873L121.016 57.2723L100.419 1.99098L99.5734 2.30602ZM122.847 57.6017L139.003 18.3995L138.169 18.0556L122.013 57.2579L122.847 57.6017ZM138.169 18.4002L154.401 57.6024L155.235 57.2572L139.003 18.0549L138.169 18.4002ZM157.002 57.5873L177.598 2.30602L176.753 1.99098L156.156 57.2723L157.002 57.5873ZM177.176 1.69732H164.542V2.59968H177.176V1.69732ZM164.114 2.00686L154.696 30.4898L155.553 30.773L164.97 2.29014L164.114 2.00686ZM155.541 30.4588L143.75 1.97593L142.916 2.32108L154.708 30.804L155.541 30.4588ZM133.422 1.97689L121.707 30.4598L122.541 30.803L134.256 2.32012L133.422 1.97689ZM122.453 33.3907L134.861 3.22248L134.026 2.87924L121.618 33.0475L122.453 33.3907ZM111.551 3.19354L121.607 33.3618L122.463 33.0764L112.407 2.90818L111.551 3.19354ZM138.167 15.6922L121.409 56.3555L122.243 56.6994L139.001 16.036L138.167 15.6922ZM155.838 56.3548L139.001 15.6915L138.167 16.0367L155.004 56.7001L155.838 56.3548ZM155.647 33.361L165.623 3.1925L164.766 2.90922L154.791 33.0777L155.647 33.361ZM142.313 3.22343L154.802 33.3919L155.636 33.0467L143.147 2.87828L142.313 3.22343ZM217.302 15.6243V4.29238H216.4V15.6243H217.302ZM180.643 40.8148V52.2233H181.546V40.8148H180.643ZM197.033 23.4538L205.535 25.2921L205.726 24.4101L197.224 22.5719L197.033 23.4538Z"
          fill="url(#paint0_linear)" mask="url(#path-1-outside-1)"/>
    <defs>
        <linearGradient id="paint0_linear" x1="111" y1="-26" x2="111" y2="44" gradientUnits="userSpaceOnUse">
            <stop stop-color="#00FFFF"/>
            <stop offset="1" stop-color="#00FFFF" stop-opacity="0"/>
        </linearGradient>
    </defs>
</svg>
