<svg width="24" height="24" viewBox="0 0 24 24" fill="none" xmlns="http://www.w3.org/2000/svg">
<ellipse cx="12.5" cy="12" rx="11.5" ry="12" fill="black"/>
<ellipse cx="12.5" cy="12" rx="11.5" ry="12" fill="#00FFD1" fill-opacity="0.2"/>
<path d="M9.52734 9.68701V7.89258C10.3477 7.48242 11.2559 7.27734 12.252 7.27734C13.375 7.27734 14.2734 7.54346 14.9473 8.07568C15.6211 8.60303 15.958 9.29639 15.958 10.1558C15.958 10.7271 15.8213 11.2129 15.5479 11.6133C15.2744 12.0088 14.8716 12.3677 14.3394 12.6899L13.5923 13.1514C13.3579 13.2979 13.1943 13.4614 13.1016 13.6421C13.0088 13.8228 12.9624 14.0498 12.9624 14.3232V14.6089H11.3071V14.0083C11.3071 13.5591 11.3975 13.1733 11.5781 12.8511C11.7588 12.5239 12.0542 12.231 12.4644 11.9722L13.3506 11.4448C13.8291 11.1323 14.0684 10.7368 14.0684 10.2583C14.0684 9.88721 13.9023 9.57959 13.5703 9.33545C13.2432 9.09131 12.8037 8.96924 12.252 8.96924C11.3682 8.96924 10.46 9.2085 9.52734 9.68701ZM10.9336 16.9014C10.9336 16.5645 11.0459 16.2812 11.2705 16.0518C11.5 15.8223 11.7832 15.7075 12.1201 15.7075C12.457 15.7075 12.7402 15.8223 12.9697 16.0518C13.2041 16.2812 13.3213 16.5645 13.3213 16.9014C13.3213 17.2285 13.2041 17.5068 12.9697 17.7363C12.7402 17.9609 12.457 18.0732 12.1201 18.0732C11.7832 18.0732 11.5 17.9609 11.2705 17.7363C11.0459 17.5117 10.9336 17.2334 10.9336 16.9014Z" fill="black"/>
<path d="M9.52734 9.68701V7.89258C10.3477 7.48242 11.2559 7.27734 12.252 7.27734C13.375 7.27734 14.2734 7.54346 14.9473 8.07568C15.6211 8.60303 15.958 9.29639 15.958 10.1558C15.958 10.7271 15.8213 11.2129 15.5479 11.6133C15.2744 12.0088 14.8716 12.3677 14.3394 12.6899L13.5923 13.1514C13.3579 13.2979 13.1943 13.4614 13.1016 13.6421C13.0088 13.8228 12.9624 14.0498 12.9624 14.3232V14.6089H11.3071V14.0083C11.3071 13.5591 11.3975 13.1733 11.5781 12.8511C11.7588 12.5239 12.0542 12.231 12.4644 11.9722L13.3506 11.4448C13.8291 11.1323 14.0684 10.7368 14.0684 10.2583C14.0684 9.88721 13.9023 9.57959 13.5703 9.33545C13.2432 9.09131 12.8037 8.96924 12.252 8.96924C11.3682 8.96924 10.46 9.2085 9.52734 9.68701ZM10.9336 16.9014C10.9336 16.5645 11.0459 16.2812 11.2705 16.0518C11.5 15.8223 11.7832 15.7075 12.1201 15.7075C12.457 15.7075 12.7402 15.8223 12.9697 16.0518C13.2041 16.2812 13.3213 16.5645 13.3213 16.9014C13.3213 17.2285 13.2041 17.5068 12.9697 17.7363C12.7402 17.9609 12.457 18.0732 12.1201 18.0732C11.7832 18.0732 11.5 17.9609 11.2705 17.7363C11.0459 17.5117 10.9336 17.2334 10.9336 16.9014Z" fill="#00FFD1"/>
</svg>
