<svg width="732" height="505" viewBox="0 0 732 505" fill="none" xmlns="http://www.w3.org/2000/svg">
<g clip-path="url(#clip0_2769_98195)">
<rect opacity="0.6" width="774" height="505" rx="16" fill="url(#paint0_linear_2769_98195)"/>
<path opacity="0.7" d="M106.676 350.511L94.9514 342.853L97.7071 338.634C98.4263 337.533 99.2813 336.855 100.272 336.6C101.257 336.342 102.213 336.515 103.14 337.121C103.745 337.516 104.176 337.999 104.432 338.571C104.683 339.139 104.75 339.727 104.633 340.335C105.219 339.831 105.874 339.571 106.6 339.556C107.329 339.534 108.026 339.741 108.691 340.175C109.689 340.827 110.276 341.684 110.452 342.748C110.623 343.808 110.338 344.905 109.597 346.039L106.676 350.511ZM106.172 347.336L107.582 345.178C107.945 344.622 108.089 344.074 108.013 343.535C107.941 342.99 107.652 342.552 107.145 342.221C106.627 341.883 106.113 341.777 105.604 341.903C105.094 342.028 104.641 342.394 104.246 342.999L102.836 345.157L106.172 347.336ZM101.16 344.062L102.383 342.19C102.746 341.634 102.886 341.099 102.801 340.585C102.715 340.063 102.424 339.639 101.928 339.315C101.476 339.02 101.005 338.949 100.515 339.104C100.029 339.253 99.6077 339.6 99.2517 340.145L98.0287 342.017L101.16 344.062ZM113.234 340.471C112.351 339.894 111.656 339.316 111.148 338.736C110.644 338.15 110.282 337.544 110.061 336.917C109.844 336.286 109.714 335.532 109.672 334.657L109.542 331.784C109.503 331.129 109.404 330.59 109.245 330.167C109.089 329.739 108.84 329.413 108.496 329.188C108.022 328.878 107.505 328.825 106.945 329.027C106.389 329.223 105.885 329.668 105.433 330.36C104.675 331.521 104.321 332.83 104.373 334.287L102.28 332.919C102.4 331.521 102.859 330.211 103.657 328.99C104.077 328.347 104.549 327.82 105.075 327.408C105.603 326.992 106.134 326.709 106.668 326.559C107.195 326.406 107.723 326.366 108.251 326.439C108.782 326.506 109.272 326.685 109.719 326.977C111.043 327.842 111.723 329.29 111.758 331.319L111.836 334.647C111.853 335.133 111.943 335.584 112.106 336.002C112.269 336.419 112.514 336.735 112.841 336.948L116.515 331.323L118.403 332.557L113.234 340.471ZM120.027 330.071L108.303 322.413L111.058 318.194C111.777 317.093 112.632 316.415 113.623 316.16C114.608 315.902 115.564 316.075 116.491 316.681C117.096 317.076 117.527 317.559 117.783 318.131C118.034 318.699 118.101 319.287 117.984 319.895C118.57 319.391 119.225 319.131 119.951 319.116C120.68 319.094 121.378 319.301 122.043 319.735C123.04 320.387 123.627 321.244 123.803 322.308C123.974 323.368 123.689 324.465 122.948 325.599L120.027 330.071ZM119.523 326.896L120.933 324.738C121.296 324.182 121.44 323.634 121.364 323.095C121.293 322.55 121.003 322.112 120.496 321.781C119.978 321.443 119.465 321.337 118.955 321.462C118.445 321.588 117.992 321.954 117.597 322.559L116.187 324.717L119.523 326.896ZM114.511 323.622L115.734 321.75C116.097 321.194 116.237 320.659 116.152 320.145C116.066 319.622 115.775 319.199 115.279 318.875C114.827 318.58 114.356 318.509 113.866 318.664C113.38 318.813 112.959 319.16 112.603 319.705L111.38 321.577L114.511 323.622ZM123.453 312.13C122.701 311.638 122.273 310.947 122.171 310.056C122.063 309.161 122.328 308.226 122.965 307.251C123.553 306.351 124.308 305.6 125.23 304.997L127.037 306.178C126.021 306.781 125.23 307.516 124.663 308.383C124.386 308.808 124.255 309.181 124.27 309.503C124.284 309.815 124.419 310.055 124.675 310.222C125.079 310.486 125.526 310.366 126.018 309.863L126.947 308.941C128.308 307.583 129.637 307.328 130.935 308.175C131.736 308.699 132.173 309.428 132.247 310.362C132.316 311.293 132.015 312.271 131.346 313.296C130.719 314.255 129.907 315.047 128.909 315.67L127.069 314.468C128.233 313.782 129.092 313.014 129.648 312.164C129.943 311.711 130.093 311.315 130.097 310.976C130.099 310.627 129.953 310.357 129.659 310.165C129.233 309.887 128.76 310.005 128.237 310.519L127.242 311.525C126.673 312.11 126.063 312.466 125.413 312.593C124.766 312.715 124.112 312.56 123.453 312.13ZM131.663 306.668C131.129 306.319 130.757 305.87 130.548 305.321C130.333 304.769 130.277 304.2 130.38 303.614C130.481 303.019 130.713 302.443 131.076 301.887C131.617 301.059 132.256 300.45 132.993 300.06L132.29 299.601C131.908 299.351 131.498 299.289 131.058 299.414C130.619 299.54 130.216 299.883 129.849 300.444C129.19 301.453 128.836 302.679 128.787 304.124L126.89 302.885C127.043 301.555 127.487 300.328 128.22 299.205C128.601 298.622 129.019 298.156 129.472 297.807C129.929 297.452 130.385 297.225 130.839 297.125C131.297 297.02 131.746 297.01 132.188 297.096C132.633 297.177 133.057 297.349 133.46 297.612L138.905 301.169L137.709 303L137.104 302.605C137.274 303.595 137.058 304.55 136.457 305.472C135.869 306.371 135.144 306.939 134.281 307.177C133.413 307.411 132.54 307.241 131.663 306.668ZM132.901 304.701C133.299 304.96 133.709 305.023 134.132 304.887C134.559 304.745 134.917 304.454 135.205 304.013C135.444 303.647 135.595 303.26 135.66 302.852C135.725 302.443 135.727 302.095 135.666 301.806L134.432 301C134.18 301.076 133.891 301.238 133.567 301.485C133.242 301.731 132.963 302.035 132.728 302.394C132.443 302.831 132.311 303.265 132.331 303.698C132.351 304.132 132.541 304.466 132.901 304.701ZM140.23 299.141L128.088 291.211L129.349 289.281L141.49 297.212L140.23 299.141ZM138.523 292.789C137.896 292.38 137.383 291.893 136.982 291.328C136.585 290.757 136.323 290.17 136.196 289.566C136.068 288.954 136.062 288.332 136.179 287.7C136.295 287.069 136.534 286.478 136.893 285.928C137.708 284.679 138.75 283.96 140.018 283.769C141.283 283.57 142.562 283.892 143.854 284.735C144.116 284.906 144.316 285.052 144.454 285.174L140.513 291.208C141.128 291.563 141.77 291.64 142.438 291.439C143.104 291.229 143.637 290.818 144.035 290.208C144.434 289.597 144.713 288.986 144.871 288.374C145.028 287.753 145.088 287.042 145.052 286.241L146.81 287.389C146.868 288.788 146.477 290.131 145.637 291.417C145.128 292.197 144.506 292.797 143.771 293.22C143.035 293.633 142.205 293.814 141.282 293.763C140.358 293.712 139.439 293.388 138.523 292.789ZM139.111 290.211L141.723 286.213C141.178 285.88 140.618 285.779 140.043 285.909C139.466 286.03 138.975 286.401 138.569 287.022C138.206 287.578 138.086 288.161 138.209 288.77C138.336 289.374 138.637 289.854 139.111 290.211ZM142.967 282.255C142.214 281.763 141.787 281.072 141.685 280.181C141.577 279.286 141.842 278.351 142.479 277.375C143.067 276.476 143.822 275.725 144.744 275.122L146.551 276.303C145.535 276.906 144.743 277.641 144.177 278.508C143.9 278.933 143.769 279.306 143.784 279.628C143.798 279.94 143.933 280.18 144.189 280.347C144.593 280.61 145.04 280.491 145.532 279.988L146.461 279.066C147.822 277.708 149.151 277.453 150.449 278.3C151.25 278.823 151.687 279.552 151.761 280.487C151.829 281.418 151.529 282.396 150.86 283.421C150.233 284.38 149.421 285.172 148.423 285.795L146.583 284.593C147.747 283.907 148.606 283.139 149.162 282.288C149.457 281.836 149.607 281.44 149.611 281.101C149.613 280.752 149.467 280.482 149.173 280.289C148.747 280.012 148.274 280.13 147.751 280.644L146.756 281.65C146.187 282.235 145.577 282.591 144.927 282.718C144.279 282.84 143.626 282.685 142.967 282.255Z" fill="#00FFFF"/>
<path opacity="0.7" d="M274.03 345.212C273.027 344.556 272.443 343.635 272.279 342.446C272.118 341.252 272.477 339.982 273.356 338.636C274.082 337.524 275.041 336.568 276.233 335.768L278.277 337.103C276.914 337.915 275.891 338.845 275.207 339.892C274.769 340.562 274.563 341.182 274.588 341.75C274.611 342.31 274.86 342.744 275.334 343.054C276.086 343.545 276.834 343.431 277.576 342.711L279.168 341.149C280.045 340.283 280.948 339.781 281.879 339.642C282.804 339.5 283.721 339.726 284.632 340.32C285.117 340.637 285.516 341.026 285.829 341.487C286.137 341.945 286.344 342.45 286.45 343.001C286.551 343.549 286.526 344.147 286.375 344.795C286.222 345.434 285.935 346.075 285.515 346.718C284.547 348.201 283.309 349.352 281.802 350.171L279.758 348.836C280.425 348.517 281.122 348.051 281.849 347.438C282.576 346.824 283.166 346.171 283.618 345.479C284.049 344.82 284.223 344.237 284.141 343.732C284.059 343.228 283.778 342.819 283.298 342.505C282.938 342.27 282.533 342.188 282.082 342.259C281.635 342.325 281.201 342.567 280.781 342.984L279.329 344.403C277.589 346.114 275.823 346.383 274.03 345.212ZM284.677 338.554C283.407 337.724 282.64 336.636 282.377 335.29C282.111 333.935 282.393 332.622 283.223 331.352C283.789 330.485 284.526 329.773 285.435 329.216L287.487 330.556C286.951 330.781 286.497 331.048 286.124 331.357C285.755 331.66 285.417 332.046 285.111 332.515C284.68 333.175 284.525 333.882 284.646 334.638C284.767 335.393 285.217 336.025 285.996 336.535C286.776 337.044 287.538 337.204 288.284 337.014C289.03 336.825 289.618 336.4 290.049 335.741C290.615 334.874 290.895 333.886 290.888 332.778L292.932 334.113C292.787 335.169 292.431 336.13 291.865 336.997C291.035 338.267 289.947 339.053 288.599 339.354C287.249 339.647 285.942 339.38 284.677 338.554ZM291.68 331.137C291.146 330.788 290.774 330.339 290.565 329.79C290.35 329.238 290.294 328.669 290.397 328.083C290.498 327.488 290.73 326.912 291.093 326.356C291.634 325.528 292.273 324.919 293.01 324.529L292.307 324.07C291.925 323.821 291.515 323.758 291.075 323.884C290.636 324.009 290.233 324.352 289.866 324.913C289.208 325.922 288.853 327.149 288.804 328.594L286.907 327.355C287.061 326.024 287.504 324.797 288.238 323.675C288.618 323.091 289.036 322.625 289.489 322.276C289.946 321.921 290.402 321.694 290.856 321.594C291.314 321.489 291.763 321.479 292.205 321.565C292.65 321.646 293.074 321.818 293.477 322.081L298.922 325.638L297.726 327.47L297.121 327.074C297.291 328.064 297.075 329.02 296.474 329.941C295.886 330.84 295.161 331.409 294.298 331.646C293.43 331.88 292.557 331.71 291.68 331.137ZM292.918 329.17C293.316 329.43 293.727 329.492 294.15 329.356C294.576 329.215 294.934 328.923 295.222 328.482C295.461 328.117 295.612 327.73 295.677 327.321C295.742 326.912 295.744 326.564 295.684 326.275L294.449 325.469C294.197 325.545 293.909 325.707 293.584 325.954C293.26 326.201 292.98 326.504 292.745 326.864C292.46 327.3 292.328 327.734 292.348 328.168C292.368 328.601 292.558 328.935 292.918 329.17ZM300.268 323.578L292.149 318.275L293.388 316.378L294.108 316.848C293.879 315.758 294.064 314.755 294.662 313.839C295.004 313.316 295.432 312.903 295.948 312.602C296.467 312.296 297.055 312.151 297.713 312.169C298.368 312.177 299.007 312.384 299.628 312.79L305.016 316.309L303.761 318.231L298.855 315.026C298.343 314.692 297.835 314.582 297.333 314.697C296.825 314.808 296.419 315.095 296.116 315.559C295.654 316.267 295.583 317.072 295.904 317.974L301.529 321.648L300.268 323.578ZM309.432 309.548L301.314 304.245L302.553 302.348L303.853 303.197C303.492 302.666 303.309 302.107 303.303 301.52C303.296 300.924 303.461 300.368 303.8 299.85C303.956 299.61 304.106 299.428 304.249 299.304L306.261 300.617C305.982 300.949 305.786 301.202 305.672 301.376C305.33 301.899 305.184 302.445 305.232 303.013C305.281 303.582 305.477 304.056 305.82 304.435L310.693 307.618L309.432 309.548ZM308.976 301.283C308.349 300.873 307.835 300.386 307.434 299.821C307.037 299.25 306.775 298.663 306.648 298.06C306.52 297.447 306.514 296.825 306.631 296.194C306.748 295.562 306.986 294.971 307.346 294.421C308.161 293.173 309.202 292.453 310.47 292.262C311.736 292.063 313.015 292.385 314.306 293.229C314.568 293.4 314.768 293.546 314.906 293.667L310.965 299.701C311.581 300.056 312.222 300.134 312.89 299.932C313.557 299.722 314.089 299.312 314.488 298.701C314.887 298.091 315.165 297.479 315.324 296.868C315.48 296.247 315.541 295.536 315.504 294.734L317.262 295.882C317.32 297.281 316.929 298.624 316.089 299.91C315.58 300.69 314.958 301.291 314.224 301.713C313.487 302.126 312.657 302.307 311.734 302.256C310.811 302.205 309.891 301.881 308.976 301.283ZM309.564 298.704L312.175 294.706C311.63 294.373 311.07 294.272 310.496 294.402C309.919 294.523 309.428 294.894 309.022 295.516C308.658 296.072 308.538 296.654 308.662 297.263C308.788 297.867 309.089 298.347 309.564 298.704ZM310.601 290.027L312.016 287.86L319.402 289.535L314.91 283.429L316.278 281.336L322.319 289.819L320.845 292.076L310.601 290.027ZM320.66 283.394C320.034 282.984 319.52 282.497 319.119 281.932C318.722 281.361 318.46 280.774 318.333 280.17C318.205 279.558 318.199 278.936 318.316 278.304C318.433 277.673 318.671 277.082 319.03 276.532C319.846 275.283 320.887 274.564 322.155 274.373C323.421 274.174 324.699 274.496 325.991 275.34C326.253 275.51 326.453 275.657 326.591 275.778L322.65 281.812C323.265 282.167 323.907 282.244 324.575 282.043C325.241 281.833 325.774 281.422 326.173 280.812C326.571 280.201 326.85 279.59 327.009 278.978C327.165 278.358 327.225 277.646 327.189 276.845L328.947 277.993C329.005 279.392 328.614 280.735 327.774 282.021C327.265 282.801 326.643 283.401 325.908 283.824C325.172 284.237 324.342 284.418 323.419 284.367C322.496 284.316 321.576 283.992 320.66 283.394ZM321.248 280.815L323.86 276.817C323.315 276.484 322.755 276.383 322.18 276.513C321.604 276.634 321.112 277.005 320.706 277.626C320.343 278.182 320.223 278.765 320.346 279.374C320.473 279.978 320.774 280.458 321.248 280.815ZM331.189 276.239L323.071 270.936L324.31 269.039L325.029 269.509C324.8 268.418 324.985 267.415 325.583 266.5C325.925 265.976 326.353 265.564 326.869 265.263C327.388 264.957 327.976 264.812 328.634 264.83C329.289 264.838 329.928 265.045 330.549 265.451L335.937 268.97L334.682 270.892L329.776 267.687C329.264 267.353 328.756 267.243 328.254 267.358C327.746 267.469 327.34 267.756 327.038 268.22C326.575 268.928 326.504 269.733 326.825 270.635L332.45 274.309L331.189 276.239ZM334.562 265.075L329.191 261.566L330.451 259.636L335.34 262.83C335.853 263.165 336.366 263.278 336.879 263.17C337.387 263.059 337.791 262.774 338.09 262.317C338.553 261.608 338.624 260.803 338.303 259.901L332.678 256.227L333.938 254.297L342.057 259.6L340.823 261.489L340.104 261.019C340.343 262.07 340.153 263.069 339.534 264.018C339.277 264.41 338.966 264.743 338.6 265.018C338.238 265.287 337.842 265.483 337.411 265.606C336.981 265.729 336.517 265.749 336.02 265.665C335.522 265.581 335.037 265.384 334.562 265.075ZM339.053 255.235C338.426 254.826 337.912 254.339 337.511 253.774C337.114 253.203 336.852 252.616 336.726 252.012C336.597 251.4 336.591 250.778 336.708 250.146C336.825 249.515 337.063 248.924 337.423 248.373C338.238 247.125 339.28 246.406 340.547 246.215C341.813 246.015 343.092 246.338 344.384 247.181C344.645 247.352 344.845 247.498 344.984 247.62L341.042 253.654C341.658 254.009 342.3 254.086 342.968 253.885C343.634 253.675 344.166 253.264 344.565 252.654C344.964 252.043 345.242 251.432 345.401 250.82C345.558 250.199 345.618 249.488 345.581 248.687L347.339 249.835C347.398 251.234 347.007 252.577 346.166 253.863C345.657 254.642 345.035 255.243 344.301 255.665C343.564 256.079 342.734 256.26 341.811 256.209C340.888 256.158 339.969 255.833 339.053 255.235ZM339.641 252.657L342.252 248.659C341.707 248.326 341.148 248.225 340.573 248.355C339.996 248.476 339.505 248.847 339.099 249.468C338.736 250.024 338.616 250.607 338.739 251.216C338.865 251.82 339.166 252.3 339.641 252.657Z" fill="#00FFFF"/>
<path opacity="0.7" d="M464.753 350.394L453.028 342.735L454.417 340.61L463.625 340.816L459.752 332.442L461.119 330.349L472.844 338.007L471.556 339.977L463.168 334.498L467.053 342.961L466.941 343.133L457.657 342.936L466.045 348.415L464.753 350.394ZM471.636 334.267C471.101 333.918 470.73 333.469 470.52 332.92C470.306 332.368 470.25 331.799 470.353 331.213C470.454 330.618 470.686 330.042 471.049 329.486C471.59 328.658 472.229 328.049 472.966 327.659L472.263 327.2C471.881 326.95 471.471 326.888 471.031 327.013C470.592 327.138 470.189 327.482 469.822 328.043C469.163 329.052 468.809 330.278 468.759 331.723L466.863 330.484C467.016 329.154 467.46 327.927 468.193 326.804C468.574 326.221 468.991 325.755 469.445 325.406C469.902 325.051 470.358 324.824 470.812 324.724C471.27 324.619 471.719 324.609 472.16 324.695C472.605 324.776 473.03 324.948 473.433 325.211L478.878 328.768L477.682 330.599L477.077 330.204C477.247 331.194 477.031 332.149 476.429 333.071C475.842 333.97 475.117 334.538 474.254 334.776C473.386 335.01 472.513 334.84 471.636 334.267ZM472.874 332.3C473.272 332.559 473.682 332.622 474.105 332.486C474.532 332.344 474.889 332.053 475.178 331.612C475.416 331.246 475.568 330.859 475.633 330.451C475.698 330.042 475.7 329.693 475.639 329.405L474.405 328.599C474.153 328.675 473.864 328.837 473.54 329.084C473.215 329.33 472.935 329.634 472.701 329.993C472.416 330.429 472.283 330.864 472.304 331.297C472.324 331.73 472.514 332.065 472.874 332.3ZM480.224 326.708L472.105 321.405L473.344 319.508L474.644 320.357C474.283 319.826 474.1 319.267 474.095 318.68C474.087 318.084 474.253 317.527 474.591 317.01C474.748 316.77 474.898 316.588 475.041 316.464L477.052 317.777C476.774 318.109 476.577 318.361 476.463 318.536C476.122 319.059 475.975 319.605 476.024 320.173C476.072 320.742 476.268 321.216 476.611 321.595L481.484 324.778L480.224 326.708ZM484.432 320.265L472.291 312.334L473.551 310.405L480.754 315.11L479.715 309.754L481.403 307.17L482.419 312.453L489.596 312.359L488.064 314.705L482.88 314.784L483.248 316.739L485.693 318.335L484.432 320.265ZM485.642 309.449C485.015 309.039 484.501 308.552 484.1 307.987C483.703 307.417 483.441 306.83 483.314 306.226C483.186 305.613 483.18 304.991 483.297 304.36C483.414 303.728 483.652 303.138 484.012 302.587C484.827 301.339 485.868 300.619 487.136 300.429C488.402 300.229 489.681 300.551 490.972 301.395C491.234 301.566 491.434 301.712 491.572 301.833L487.631 307.867C488.247 308.223 488.888 308.3 489.556 308.098C490.223 307.888 490.755 307.478 491.154 306.867C491.552 306.257 491.831 305.646 491.99 305.034C492.146 304.413 492.207 303.702 492.17 302.9L493.928 304.049C493.986 305.448 493.595 306.79 492.755 308.077C492.246 308.856 491.624 309.457 490.89 309.879C490.153 310.292 489.323 310.473 488.4 310.422C487.477 310.372 486.557 310.047 485.642 309.449ZM486.23 306.87L488.841 302.872C488.296 302.54 487.736 302.438 487.161 302.568C486.585 302.689 486.093 303.06 485.688 303.682C485.324 304.238 485.204 304.82 485.328 305.43C485.454 306.033 485.755 306.513 486.23 306.87ZM489.126 298.953L487.475 297.874L488.458 296.37L486.16 294.869L486.517 292.501L489.648 294.546L490.898 292.633L492.55 293.712L491.3 295.625L495.192 298.167C495.917 298.641 496.539 298.48 497.059 297.684C497.241 297.406 497.362 297.143 497.423 296.895L499.082 297.979C498.973 298.421 498.751 298.898 498.416 299.41C497.921 300.168 497.318 300.645 496.606 300.841C495.89 301.034 495.128 300.866 494.321 300.34L490.045 297.546L489.126 298.953ZM503.361 298.196L492.078 290.826L493.339 288.897L494.058 289.367C493.844 288.255 494.05 287.219 494.676 286.26C495.178 285.491 495.818 284.941 496.595 284.608C497.37 284.267 498.181 284.155 499.029 284.274C499.881 284.387 500.702 284.701 501.492 285.218C502.294 285.741 502.92 286.372 503.371 287.11C503.826 287.842 504.055 288.634 504.06 289.484C504.067 290.329 503.82 291.136 503.318 291.904C502.688 292.869 501.823 293.474 500.722 293.719L504.622 296.267L503.361 298.196ZM498.776 292.448C499.895 292.378 500.719 291.937 501.25 291.125C501.691 290.449 501.817 289.757 501.626 289.049C501.435 288.341 500.953 287.735 500.179 287.229C499.421 286.734 498.683 286.548 497.966 286.67C497.252 286.787 496.676 287.181 496.238 287.851C495.7 288.674 495.62 289.601 495.996 290.632L498.776 292.448ZM506.702 286.171L494.56 278.24L495.821 276.311L507.962 284.241L506.702 286.171ZM506.541 280.828C506.006 280.479 505.635 280.031 505.425 279.482C505.211 278.929 505.155 278.36 505.258 277.774C505.359 277.179 505.591 276.604 505.954 276.048C506.495 275.219 507.134 274.61 507.871 274.22L507.168 273.761C506.786 273.512 506.376 273.45 505.936 273.575C505.497 273.7 505.094 274.043 504.727 274.605C504.068 275.613 503.714 276.84 503.664 278.285L501.768 277.046C501.921 275.715 502.365 274.489 503.098 273.366C503.479 272.783 503.896 272.317 504.35 271.967C504.807 271.613 505.263 271.385 505.717 271.285C506.175 271.18 506.624 271.17 507.065 271.257C507.51 271.337 507.935 271.509 508.338 271.773L513.783 275.33L512.587 277.161L511.982 276.766C512.152 277.756 511.936 278.711 511.334 279.632C510.747 280.532 510.022 281.1 509.159 281.337C508.291 281.571 507.418 281.402 506.541 280.828ZM507.779 278.861C508.177 279.121 508.587 279.183 509.01 279.047C509.437 278.906 509.794 278.615 510.083 278.173C510.321 277.808 510.473 277.421 510.538 277.012C510.603 276.604 510.605 276.255 510.544 275.967L509.31 275.16C509.058 275.237 508.769 275.398 508.445 275.645C508.12 275.892 507.84 276.195 507.606 276.555C507.321 276.991 507.188 277.426 507.209 277.859C507.229 278.292 507.419 278.626 507.779 278.861ZM510.678 271.19C509.408 270.361 508.641 269.273 508.378 267.926C508.112 266.571 508.394 265.258 509.224 263.988C509.79 263.121 510.527 262.409 511.436 261.852L513.488 263.192C512.952 263.418 512.497 263.685 512.125 263.993C511.756 264.297 511.418 264.682 511.112 265.151C510.681 265.811 510.526 266.518 510.647 267.274C510.768 268.029 511.218 268.662 511.997 269.171C512.777 269.68 513.539 269.84 514.285 269.65C515.031 269.461 515.619 269.036 516.05 268.377C516.616 267.51 516.896 266.523 516.889 265.414L518.933 266.749C518.788 267.805 518.432 268.766 517.866 269.633C517.036 270.903 515.947 271.689 514.6 271.99C513.25 272.283 511.943 272.016 510.678 271.19ZM516.05 262.895C515.423 262.485 514.909 261.998 514.509 261.433C514.111 260.862 513.849 260.275 513.723 259.672C513.594 259.059 513.588 258.437 513.705 257.806C513.822 257.174 514.06 256.583 514.42 256.033C515.235 254.785 516.277 254.065 517.544 253.874C518.81 253.675 520.089 253.997 521.381 254.841C521.642 255.011 521.842 255.158 521.981 255.279L518.039 261.313C518.655 261.668 519.297 261.745 519.965 261.544C520.631 261.334 521.163 260.923 521.562 260.313C521.961 259.703 522.24 259.091 522.398 258.48C522.555 257.859 522.615 257.148 522.579 256.346L524.336 257.494C524.395 258.893 524.004 260.236 523.163 261.522C522.654 262.302 522.032 262.903 521.298 263.325C520.561 263.738 519.732 263.919 518.808 263.868C517.885 263.817 516.966 263.493 516.05 262.895ZM516.638 260.316L519.249 256.318C518.705 255.985 518.145 255.884 517.57 256.014C516.993 256.135 516.502 256.506 516.096 257.128C515.733 257.684 515.613 258.266 515.736 258.875C515.863 259.479 516.163 259.959 516.638 260.316ZM523.484 247.781C522.732 247.29 522.305 246.599 522.202 245.708C522.095 244.813 522.359 243.878 522.997 242.902C523.584 242.003 524.339 241.252 525.262 240.649L527.068 241.829C526.052 242.433 525.261 243.168 524.695 244.035C524.417 244.46 524.286 244.833 524.302 245.154C524.315 245.466 524.45 245.706 524.707 245.874C525.11 246.137 525.558 246.017 526.049 245.514L526.978 244.593C528.339 243.235 529.669 242.979 530.966 243.827C531.767 244.35 532.205 245.079 532.279 246.014C532.347 246.945 532.046 247.923 531.377 248.948C530.75 249.907 529.938 250.698 528.94 251.322L527.1 250.12C528.264 249.434 529.123 248.665 529.679 247.815C529.974 247.363 530.124 246.967 530.128 246.627C530.13 246.279 529.984 246.008 529.69 245.816C529.265 245.538 528.791 245.656 528.269 246.171L527.273 247.177C526.704 247.762 526.095 248.118 525.444 248.245C524.797 248.367 524.144 248.212 523.484 247.781ZM531.694 242.319C531.16 241.97 530.788 241.522 530.579 240.973C530.364 240.42 530.308 239.851 530.411 239.265C530.512 238.67 530.744 238.095 531.107 237.539C531.648 236.71 532.287 236.101 533.024 235.711L532.321 235.252C531.939 235.003 531.529 234.941 531.089 235.066C530.65 235.191 530.247 235.534 529.88 236.096C529.222 237.104 528.868 238.331 528.818 239.776L526.921 238.537C527.075 237.206 527.518 235.98 528.252 234.857C528.633 234.274 529.05 233.807 529.503 233.458C529.961 233.104 530.416 232.876 530.87 232.776C531.328 232.671 531.777 232.661 532.219 232.748C532.664 232.828 533.088 233 533.491 233.264L538.937 236.82L537.74 238.652L537.135 238.257C537.305 239.246 537.089 240.202 536.488 241.123C535.9 242.022 535.175 242.591 534.313 242.828C533.444 243.062 532.572 242.892 531.694 242.319ZM532.932 240.352C533.33 240.612 533.741 240.674 534.164 240.538C534.59 240.397 534.948 240.106 535.236 239.664C535.475 239.299 535.626 238.912 535.691 238.503C535.756 238.095 535.758 237.746 535.698 237.458L534.463 236.651C534.211 236.728 533.923 236.889 533.598 237.136C533.274 237.383 532.994 237.686 532.759 238.046C532.474 238.482 532.342 238.917 532.362 239.35C532.382 239.783 532.573 240.117 532.932 240.352ZM540.261 234.793L528.12 226.862L529.38 224.933L541.521 232.863L540.261 234.793ZM538.555 228.441C537.928 228.031 537.414 227.544 537.013 226.979C536.616 226.409 536.354 225.822 536.227 225.218C536.099 224.605 536.093 223.983 536.21 223.352C536.327 222.72 536.565 222.13 536.924 221.579C537.74 220.331 538.781 219.611 540.049 219.421C541.315 219.221 542.593 219.543 543.885 220.387C544.147 220.558 544.347 220.704 544.485 220.825L540.544 226.859C541.16 227.215 541.801 227.292 542.469 227.09C543.135 226.88 543.668 226.47 544.067 225.859C544.465 225.249 544.744 224.638 544.903 224.026C545.059 223.405 545.119 222.694 545.083 221.892L546.841 223.041C546.899 224.44 546.508 225.782 545.668 227.069C545.159 227.848 544.537 228.449 543.802 228.871C543.066 229.284 542.236 229.465 541.313 229.414C540.39 229.364 539.47 229.039 538.555 228.441ZM539.142 225.862L541.754 221.864C541.209 221.532 540.649 221.43 540.074 221.56C539.498 221.681 539.006 222.052 538.601 222.674C538.237 223.23 538.117 223.812 538.24 224.422C538.367 225.025 538.668 225.505 539.142 225.862ZM542.998 217.906C542.246 217.415 541.818 216.723 541.716 215.832C541.608 214.938 541.873 214.003 542.511 213.027C543.098 212.128 543.853 211.376 544.775 210.774L546.582 211.954C545.566 212.558 544.775 213.293 544.209 214.159C543.931 214.585 543.8 214.958 543.816 215.279C543.829 215.591 543.964 215.831 544.221 215.998C544.624 216.262 545.071 216.142 545.563 215.639L546.492 214.718C547.853 213.36 549.183 213.104 550.48 213.952C551.281 214.475 551.719 215.204 551.792 216.139C551.861 217.07 551.56 218.048 550.891 219.072C550.264 220.032 549.452 220.823 548.454 221.446L546.614 220.245C547.778 219.558 548.637 218.79 549.193 217.94C549.488 217.487 549.638 217.091 549.642 216.752C549.644 216.403 549.498 216.133 549.204 215.941C548.779 215.663 548.305 215.781 547.782 216.295L546.787 217.302C546.218 217.887 545.609 218.243 544.958 218.37C544.311 218.491 543.657 218.337 542.998 217.906Z" fill="#00FFFF"/>
<path d="M739.645 218.25C746.037 218.25 751.936 221.687 755.087 227.248L830.752 360.748C833.829 366.177 833.829 372.823 830.752 378.252L755.087 511.752C751.936 517.313 746.037 520.75 739.645 520.75L575.92 520.75C569.902 520.75 564.294 517.701 561.022 512.65L474.549 379.15C470.746 373.279 470.746 365.721 474.549 359.85L561.022 226.35C564.294 221.299 569.902 218.25 575.92 218.25L739.645 218.25Z" stroke="#00FFFF" stroke-width="0.5"/>
<path d="M818.721 81.25C825.108 81.25 831.003 84.6818 834.156 90.2362L987.737 360.736C990.823 366.171 990.823 372.829 987.737 378.264L834.156 648.764C831.003 654.318 825.108 657.75 818.721 657.75L487.978 657.75C481.965 657.75 476.361 654.706 473.087 649.662L297.567 379.162C293.754 373.285 293.754 365.715 297.567 359.838L473.088 89.3382C476.361 84.2941 481.965 81.25 487.978 81.25L818.721 81.25Z" stroke="#00FFFF" stroke-width="0.5"/>
<path d="M913.115 -64.75C919.505 -64.75 925.402 -61.3148 928.555 -55.7559L1164.75 360.744C1167.83 366.175 1167.83 372.825 1164.75 378.256L928.555 794.756C925.402 800.315 919.505 803.75 913.115 803.75L405.384 803.75C399.368 803.75 393.761 800.702 390.489 795.654L120.554 379.154C116.748 373.281 116.748 365.719 120.554 359.846L390.489 -56.6537C393.761 -61.7025 399.368 -64.75 405.384 -64.75L913.115 -64.75Z" stroke="#00FFFF" stroke-width="0.5"/>
<path opacity="0.4" d="M753.645 218.25C760.037 218.25 765.936 221.687 769.087 227.248L844.752 360.748C847.829 366.177 847.829 372.823 844.752 378.252L769.087 511.752C765.936 517.313 760.037 520.75 753.645 520.75L589.92 520.75C583.902 520.75 578.294 517.701 575.022 512.65L488.549 379.15C484.746 373.279 484.746 365.721 488.549 359.85L575.022 226.35C578.294 221.299 583.902 218.25 589.92 218.25L753.645 218.25Z" stroke="#00FFFF" stroke-width="0.5"/>
<path opacity="0.4" d="M832.721 81.25C839.108 81.25 845.003 84.6818 848.156 90.2362L1001.74 360.736C1004.82 366.171 1004.82 372.829 1001.74 378.264L848.156 648.764C845.003 654.318 839.108 657.75 832.721 657.75L501.978 657.75C495.965 657.75 490.361 654.706 487.087 649.662L311.567 379.162C307.754 373.285 307.754 365.715 311.567 359.838L487.088 89.3382C490.361 84.2941 495.965 81.25 501.978 81.25L832.721 81.25Z" stroke="#00FFFF" stroke-width="0.5"/>
<path opacity="0.4" d="M927.115 -64.75C933.505 -64.75 939.402 -61.3148 942.555 -55.7559L1178.75 360.744C1181.83 366.175 1181.83 372.825 1178.75 378.256L942.555 794.756C939.402 800.315 933.505 803.75 927.115 803.75L419.384 803.75C413.368 803.75 407.761 800.702 404.489 795.654L134.554 379.154C130.748 373.281 130.748 365.719 134.554 359.846L404.489 -56.6537C407.761 -61.7025 413.368 -64.75 419.384 -64.75L927.115 -64.75Z" stroke="#00FFFF" stroke-width="0.5"/>
<rect opacity="0.6" x="45" y="46" width="168" height="36" rx="18" fill="#073A4D"/>
<path d="M63.1211 70V60.1973H66.8877C67.8493 60.1973 68.6309 60.4958 69.2324 61.0928C69.834 61.6898 70.1348 62.4281 70.1348 63.3076C70.1348 64.014 69.9593 64.6247 69.6084 65.1396C69.262 65.6546 68.779 66.0192 68.1592 66.2334L70.2305 70H68.3438L66.4912 66.4453H64.8164V70H63.1211ZM64.8164 64.9072H66.6484C67.1862 64.9072 67.6032 64.766 67.8994 64.4834C68.1956 64.1963 68.3438 63.8044 68.3438 63.3076C68.3438 62.8245 68.1865 62.4395 67.8721 62.1523C67.5576 61.8607 67.1497 61.7148 66.6484 61.7148H64.8164V64.9072ZM72.1511 70V60.1973H78.406V61.7422H73.8191V64.3193H77.9753V65.8574H73.8191V68.4482H78.406V70H72.1511ZM79.6293 60.1973H81.5434L84.2914 66.582L87.0463 60.1973H88.9672L84.3735 70.2529H84.1342L79.6293 60.1973ZM90.5939 70V60.1973H96.8488V61.7422H92.2619V64.3193H96.4181V65.8574H92.2619V68.4482H96.8488V70H90.5939ZM98.954 70V60.1973H100.93L105.633 67.0742V60.1973H107.266V70H105.605L100.588 62.5078V70H98.954ZM109.72 66.4453V60.1973H111.409V66.418C111.409 67.0833 111.591 67.6097 111.956 67.9971C112.32 68.3799 112.819 68.5713 113.453 68.5713C114.091 68.5713 114.588 68.3799 114.943 67.9971C115.303 67.6143 115.483 67.0879 115.483 66.418V60.1973H117.178V66.4453C117.178 67.6302 116.841 68.5553 116.167 69.2207C115.497 69.8815 114.592 70.2119 113.453 70.2119C112.309 70.2119 111.4 69.8792 110.725 69.2139C110.055 68.5485 109.72 67.6257 109.72 66.4453ZM119.625 70V60.1973H125.88V61.7422H121.293V64.3193H125.45V65.8574H121.293V68.4482H125.88V70H119.625ZM131.718 62.9043C131.718 62.0658 132.034 61.3708 132.668 60.8193C133.306 60.2679 134.188 59.9922 135.313 59.9922C136.243 59.9922 137.17 60.1882 138.095 60.5801V62.2891C137.097 61.8014 136.161 61.5576 135.286 61.5576C134.725 61.5576 134.283 61.6738 133.96 61.9062C133.641 62.1341 133.481 62.4463 133.481 62.8428C133.481 63.4717 133.834 63.8659 134.541 64.0254L136.065 64.3604C136.908 64.5426 137.549 64.8799 137.986 65.3721C138.424 65.8597 138.642 66.484 138.642 67.2451C138.642 67.6507 138.567 68.0335 138.417 68.3936C138.266 68.749 138.05 69.0635 137.767 69.3369C137.485 69.6058 137.125 69.82 136.687 69.9795C136.254 70.1344 135.769 70.2119 135.231 70.2119C133.992 70.2119 132.843 69.9271 131.786 69.3574V67.6484C132.228 67.9173 132.768 68.1475 133.406 68.3389C134.044 68.5303 134.652 68.626 135.231 68.626C135.783 68.626 136.191 68.5052 136.455 68.2637C136.719 68.0221 136.851 67.7008 136.851 67.2998C136.851 66.999 136.744 66.7301 136.53 66.4932C136.32 66.2562 136.013 66.0944 135.607 66.0078L134.219 65.7002C132.552 65.3356 131.718 64.4036 131.718 62.9043ZM139.661 61.7695V60.1973H147.748V61.7695H144.555V70H142.853V61.7695H139.661ZM149.62 70V60.1973H153.387C154.349 60.1973 155.13 60.4958 155.732 61.0928C156.333 61.6898 156.634 62.4281 156.634 63.3076C156.634 64.014 156.459 64.6247 156.108 65.1396C155.761 65.6546 155.278 66.0192 154.658 66.2334L156.73 70H154.843L152.99 66.4453H151.316V70H149.62ZM151.316 64.9072H153.148C153.685 64.9072 154.102 64.766 154.399 64.4834C154.695 64.1963 154.843 63.8044 154.843 63.3076C154.843 62.8245 154.686 62.4395 154.371 62.1523C154.057 61.8607 153.649 61.7148 153.148 61.7148H151.316V64.9072ZM158.65 70V60.1973H164.905V61.7422H160.318V64.3193H164.475V65.8574H160.318V68.4482H164.905V70H158.65ZM165.999 70L169.868 60.1973H171.809L175.678 70H173.867L172.985 67.7441H168.665L167.81 70H165.999ZM169.253 66.2061H172.383L170.804 62.1318L169.253 66.2061ZM177.202 70V60.1973H178.98L182.384 65.6729L185.809 60.1973H187.559V70H185.911V62.9863L182.439 68.5029H182.295L178.857 62.9863V70H177.202ZM189.712 62.9043C189.712 62.0658 190.029 61.3708 190.662 60.8193C191.3 60.2679 192.182 59.9922 193.308 59.9922C194.237 59.9922 195.165 60.1882 196.09 60.5801V62.2891C195.092 61.8014 194.155 61.5576 193.28 61.5576C192.72 61.5576 192.278 61.6738 191.954 61.9062C191.635 62.1341 191.476 62.4463 191.476 62.8428C191.476 63.4717 191.829 63.8659 192.535 64.0254L194.06 64.3604C194.903 64.5426 195.543 64.8799 195.981 65.3721C196.418 65.8597 196.637 66.484 196.637 67.2451C196.637 67.6507 196.562 68.0335 196.411 68.3936C196.261 68.749 196.044 69.0635 195.762 69.3369C195.479 69.6058 195.119 69.82 194.682 69.9795C194.249 70.1344 193.763 70.2119 193.226 70.2119C191.986 70.2119 190.838 69.9271 189.78 69.3574V67.6484C190.222 67.9173 190.762 68.1475 191.4 68.3389C192.038 68.5303 192.647 68.626 193.226 68.626C193.777 68.626 194.185 68.5052 194.449 68.2637C194.714 68.0221 194.846 67.7008 194.846 67.2998C194.846 66.999 194.739 66.7301 194.524 66.4932C194.315 66.2562 194.007 66.0944 193.602 66.0078L192.214 65.7002C190.546 65.3356 189.712 64.4036 189.712 62.9043Z" fill="url(#paint1_linear_2769_98195)"/>
</g>
<defs>
<linearGradient id="paint0_linear_2769_98195" x1="719" y1="883.5" x2="318.002" y2="-592.179" gradientUnits="userSpaceOnUse">
<stop stop-color="#00FFD1" stop-opacity="0.3"/>
<stop offset="1" stop-color="#5200FF" stop-opacity="0.2"/>
</linearGradient>
<linearGradient id="paint1_linear_2769_98195" x1="62" y1="56" x2="117.279" y2="87.34" gradientUnits="userSpaceOnUse">
<stop stop-color="#00FFFF"/>
<stop offset="1" stop-color="#00FFFF" stop-opacity="0.4"/>
</linearGradient>
<clipPath id="clip0_2769_98195">
<rect width="732" height="505" fill="white"/>
</clipPath>
</defs>
</svg>
