<svg width="40" height="40" viewBox="0 0 40 40" fill="none" xmlns="http://www.w3.org/2000/svg">
<path d="M20 0L37.3205 10V30L20 40L2.67949 30V10L20 0Z" fill="white"/>
<g clip-path="url(#clip0)">
<path d="M30 14.7975C29.2642 15.1241 28.4733 15.3441 27.6433 15.4433C28.4908 14.9358 29.1417 14.1316 29.4475 13.1733C28.655 13.6433 27.7767 13.985 26.8417 14.1691C26.0942 13.3716 25.0267 12.8733 23.8467 12.8733C21.1975 12.8733 19.2508 15.345 19.8492 17.9108C16.44 17.74 13.4167 16.1066 11.3925 13.6241C10.3175 15.4683 10.835 17.8808 12.6617 19.1025C11.99 19.0808 11.3567 18.8966 10.8042 18.5891C10.7592 20.49 12.1217 22.2683 14.095 22.6641C13.5175 22.8208 12.885 22.8575 12.2417 22.7341C12.7633 24.3641 14.2783 25.55 16.075 25.5833C14.35 26.9358 12.1767 27.54 10 27.2833C11.8158 28.4475 13.9733 29.1266 16.29 29.1266C23.9083 29.1266 28.2125 22.6925 27.9525 16.9216C28.7542 16.3425 29.45 15.62 30 14.7975Z" fill="black"/>
</g>
<defs>
<clipPath id="clip0">
<rect width="20" height="20" fill="white" transform="translate(10 11)"/>
</clipPath>
</defs>
</svg>
