<?xml version="1.0"?>
<svg xmlns="http://www.w3.org/2000/svg" width="125" height="55" viewBox="0 0 125 55" fill="none">
<path d="M56.2399 0C56.2449 0.100527 56.25 0.201061 56.25 0.301595C56.25 7.42926 56.25 14.557 56.25 21.6897C56.25 21.8052 56.25 21.9208 56.25 22.0615C56.1188 22.0666 56.0127 22.0767 55.9068 22.0767C52.4242 22.0767 48.9416 22.0767 45.459 22.0717C45.247 22.0717 45.1007 22.137 44.9544 22.2827C41.4062 25.8215 37.8579 29.3601 34.3098 32.8939C34.2644 32.9391 34.2089 32.9793 34.1281 33.0496C34.118 32.8989 34.1028 32.7782 34.1028 32.6626C34.1028 29.2446 34.1079 25.8265 34.1129 22.4084C34.1129 22.0717 34.1129 22.0717 33.7798 22.0717C30.262 22.0717 26.7491 22.0717 23.2312 22.0666C23.0495 22.0666 22.9183 22.1118 22.787 22.2426C19.1783 25.8415 15.5695 29.4305 11.9608 33.0296C11.9305 33.0597 11.9053 33.0898 11.875 33.125C11.875 22.0817 11.875 11.0434 11.875 0C26.6633 0 41.4515 0 56.2399 0Z" fill="#FFFFFF" fill-opacity="0.9"/>
<path d="M113.12 43.745C109.454 43.745 105.787 43.745 102.126 43.75C101.942 43.75 101.808 43.7051 101.68 43.5755C99.9215 41.8548 98.1524 40.144 96.3936 38.4234C96.3167 38.3486 96.2552 38.2289 96.2552 38.1241C96.25 32.7476 96.25 27.3712 96.25 21.9946C96.25 21.9597 96.2552 21.9298 96.2603 21.875C98.1114 21.875 99.9573 21.875 101.834 21.875C101.834 23.6804 101.834 25.4909 101.834 27.3363C105.613 27.3363 109.372 27.3363 113.125 27.3363C113.125 29.1467 113.125 30.9622 113.125 32.7726C112.981 32.7775 112.833 32.7875 112.689 32.7875C109.177 32.7875 105.664 32.7926 102.152 32.7825C101.916 32.7825 101.834 32.8374 101.834 33.0818C101.844 34.7277 101.839 36.3735 101.839 38.0194C101.839 38.1091 101.839 38.194 101.839 38.3086C105.623 38.3086 109.372 38.3086 113.12 38.3086C113.12 40.1191 113.12 41.9345 113.12 43.745Z" fill="#FFFFFF" fill-opacity="0.9"/>
<path d="M11.875 33.125C14.1435 33.125 16.4172 33.1298 18.6857 33.1298C20.054 33.1298 21.4275 33.1298 22.7958 33.1298C22.8987 33.1298 23.0015 33.1298 23.125 33.1298C23.125 36.6699 23.125 40.1954 23.125 43.7306C23.053 43.7354 22.9912 43.75 22.9244 43.75C19.2824 43.75 15.6404 43.75 12.0036 43.75C11.9624 43.75 11.9162 43.7452 11.875 43.7452C11.875 40.2051 11.875 36.6651 11.875 33.125Z" fill="#FFFFFF" fill-opacity="0.9"/>
<path d="M105.626 55C105.626 54.4371 105.626 53.8788 105.626 53.292C107.519 53.292 109.371 53.292 111.269 53.292C111.269 53.0201 111.273 52.772 111.263 52.5191C111.263 52.481 111.16 52.4237 111.098 52.4189C110.97 52.4046 110.842 52.4142 110.713 52.4142C109.036 52.4142 107.355 52.4142 105.642 52.4142C105.637 52.3235 105.626 52.2424 105.626 52.1565C105.626 51.4408 105.621 50.7252 105.631 50.0096C105.631 49.9284 105.673 49.8235 105.734 49.7662C106.274 49.2557 106.815 48.7453 107.37 48.2491C107.447 48.1775 107.591 48.1346 107.704 48.1346C109.509 48.125 111.32 48.125 113.125 48.125C113.125 48.6975 113.125 49.2701 113.125 49.8426C111.243 49.8426 109.365 49.8426 107.447 49.8426C107.447 50.0621 107.462 50.2577 107.441 50.4533C107.421 50.6679 107.509 50.7204 107.73 50.7204C109.221 50.7109 110.708 50.7157 112.199 50.7157C112.508 50.7157 112.816 50.7062 113.12 50.7013C113.12 51.5601 113.12 52.4189 113.12 53.2777C112.888 53.4828 112.646 53.6832 112.42 53.8932C112.029 54.2557 111.654 54.6279 111.269 54.9952C109.396 55 107.513 55 105.626 55Z" fill="#FFFFFF" fill-opacity="0.9"/>
<path d="M61.875 55C61.875 54.4363 61.875 53.8727 61.875 53.2851C63.7653 53.2851 65.63 53.2851 67.5204 53.2851C67.5204 53.0224 67.5306 52.7883 67.5152 52.5495C67.5101 52.5017 67.4228 52.4396 67.3612 52.4157C67.3046 52.3919 67.2276 52.4109 67.1557 52.4109C65.4092 52.4109 63.6678 52.4109 61.8955 52.4109C61.8905 52.3345 61.8802 52.2677 61.8802 52.2008C61.8802 51.4747 61.875 50.7534 61.8853 50.0273C61.8853 49.9318 61.9366 49.8076 62.0086 49.7407C62.5325 49.2392 63.0668 48.7424 63.6061 48.2552C63.6781 48.1883 63.7911 48.131 63.8886 48.131C65.6711 48.1214 67.4485 48.1262 69.231 48.1262C69.2618 48.1262 69.2977 48.1357 69.3491 48.1405C69.3491 48.6947 69.3491 49.2487 69.3491 49.8267C67.4896 49.8267 65.63 49.8267 63.7448 49.8267C63.7448 50.1229 63.7448 50.3952 63.7448 50.7056C65.6043 50.7056 67.469 50.7056 69.3696 50.7056C69.3696 50.9922 69.3696 51.2454 69.3696 51.4938C69.3696 51.9954 69.3593 52.497 69.3747 52.9986C69.3799 53.1895 69.3182 53.3234 69.1744 53.4571C68.6196 53.9635 68.0803 54.4841 67.5357 55C65.6403 55 63.7602 55 61.875 55Z" fill="#FFFFFF" fill-opacity="0.9"/>
<path d="M99.1717 55C98.9728 54.785 98.7834 54.57 98.5798 54.3599C98.2672 54.0351 97.9404 53.7198 97.6279 53.395C97.5616 53.3281 97.5048 53.2231 97.5048 53.1323C97.5 51.5081 97.5 49.8841 97.5 48.2647C97.5 48.2265 97.5095 48.1883 97.5189 48.1357C97.6042 48.131 97.68 48.1262 97.7557 48.1262C99.3233 48.1262 100.896 48.1214 102.463 48.131C102.581 48.131 102.723 48.1931 102.804 48.2791C103.292 48.7519 103.77 49.2392 104.244 49.7312C104.31 49.8028 104.371 49.9175 104.371 50.0131C104.376 51.6753 104.376 53.3377 104.371 55C102.643 55 100.91 55 99.1717 55ZM102.69 49.8506C101.521 49.8506 100.375 49.8506 99.2096 49.8506C99.2096 50.997 99.2096 52.1291 99.2096 53.2756C100.375 53.2756 101.521 53.2756 102.69 53.2756C102.69 52.1291 102.69 50.997 102.69 49.8506Z" fill="#FFFFFF" fill-opacity="0.9"/>
<path d="M87.4753 55C86.9103 54.4267 86.3402 53.8584 85.7753 53.2799C85.7084 53.2128 85.6314 53.1147 85.6314 53.0268C85.6212 51.8234 85.6263 50.6198 85.6263 49.3698C85.7342 49.3698 85.8317 49.3698 85.9293 49.3698C87.614 49.3698 89.2986 49.3647 90.9833 49.375C91.2041 49.375 91.2812 49.3233 91.276 49.0909C91.2606 48.5692 91.2709 48.0424 91.2709 47.5C91.8821 47.5 92.4779 47.5 93.1096 47.5C93.1096 47.6033 93.1096 47.7015 93.1096 47.7996C93.1096 50.0879 93.1096 52.376 93.1096 54.6643C93.1096 54.7779 93.1199 54.8863 93.125 55C91.2401 55 89.3603 55 87.4753 55ZM91.2709 53.1353C91.2709 52.562 91.2606 52.0197 91.276 51.4825C91.2812 51.2862 91.2298 51.2139 91.0192 51.219C89.9149 51.2293 88.8106 51.2242 87.7115 51.2242C87.6396 51.2242 87.5626 51.2345 87.4855 51.2397C87.4855 51.8802 87.4855 52.5051 87.4855 53.1353C88.7439 53.1353 89.9868 53.1353 91.2709 53.1353Z" fill="#FFFFFF" fill-opacity="0.9"/>
<path d="M78.7372 54.9952C78.1594 54.4605 77.5817 53.9258 77.0143 53.3863C76.9421 53.3195 76.8802 53.2144 76.8802 53.1237C76.875 51.4956 76.875 49.8629 76.875 48.2348C76.875 48.2061 76.8802 48.1727 76.8853 48.125C77.4837 48.125 78.0821 48.125 78.7165 48.125C78.7165 49.8342 78.7165 51.5482 78.7165 53.2717C78.8351 53.2764 78.9176 53.286 79.0002 53.286C80.0835 53.286 81.1666 53.2813 82.2498 53.2908C82.4923 53.2956 82.5542 53.224 82.5542 53.0091C82.5439 51.4766 82.549 49.9392 82.549 48.4066C82.549 48.3207 82.549 48.2348 82.549 48.1298C83.1525 48.1298 83.7406 48.1298 84.3596 48.1298C84.3647 48.2014 84.3699 48.2826 84.3699 48.3684C84.3699 49.9248 84.3647 51.4861 84.375 53.0425C84.375 53.2048 84.3286 53.3242 84.1996 53.4387C83.689 53.9019 83.1887 54.3697 82.6883 54.8377C82.6367 54.8854 82.5955 54.9474 82.549 55C81.2801 54.9952 80.0112 54.9952 78.7372 54.9952Z" fill="#FFFFFF" fill-opacity="0.9"/>
<path d="M72.4759 55C71.933 54.4473 71.3953 53.8895 70.8473 53.3471C70.6974 53.1973 70.625 53.0527 70.625 52.8306C70.6353 51.126 70.6301 49.4215 70.6301 47.7169C70.6301 47.6498 70.6353 47.5827 70.6405 47.5C71.2506 47.5 71.8503 47.5 72.4759 47.5C72.4759 48.1095 72.4759 48.7139 72.4759 49.3595C73.7425 49.3595 74.9885 49.3595 76.2449 49.3595C76.2449 49.9897 76.2449 50.5888 76.2449 51.2139C74.9989 51.2139 73.7632 51.2139 72.481 51.2139C72.481 51.4825 72.481 51.7304 72.481 51.9731C72.481 52.283 72.4913 52.593 72.4759 52.9029C72.4655 53.094 72.5276 53.1508 72.724 53.1508C73.7994 53.1405 74.8748 53.1457 75.9553 53.1457C76.0484 53.1457 76.1415 53.1457 76.25 53.1457C76.25 53.781 76.25 54.3905 76.25 54.9949C74.9937 55 73.7322 55 72.4759 55Z" fill="#FFFFFF" fill-opacity="0.9"/>
<path d="M94.375 55C94.3802 54.2609 94.3854 53.517 94.3854 52.7778C94.3854 51.3185 94.3854 49.8592 94.3854 48.3998C94.3854 48.3145 94.3854 48.2292 94.3854 48.125C95.0052 48.125 95.6093 48.125 96.25 48.125C96.25 50.4182 96.25 52.7115 96.25 55C95.625 55 94.9999 55 94.375 55Z" fill="#FFFFFF" fill-opacity="0.9"/>
<path d="M84.3699 27.3497C84.3699 27.4744 84.3699 27.5591 84.3699 27.6389C84.3699 31.1041 84.3699 34.5694 84.375 38.0348C84.375 38.2242 84.3134 38.3538 84.1801 38.4884C82.4308 40.1837 80.6865 41.884 78.9321 43.5743C78.8346 43.6689 78.6757 43.7438 78.5423 43.7438C73.0634 43.7537 67.5795 43.7488 62.1007 43.7488C62.034 43.7488 61.9673 43.7488 61.875 43.7488C61.875 36.4541 61.875 29.1746 61.875 21.875C63.7218 21.875 65.5634 21.875 67.441 21.875C67.441 23.69 67.441 25.5049 67.441 27.3447C73.0942 27.3497 78.7166 27.3497 84.3699 27.3497ZM78.7576 38.309C78.7576 36.4642 78.7576 34.6442 78.7576 32.8194C74.982 32.8194 71.2269 32.8194 67.4667 32.8194C67.4667 34.6592 67.4667 36.4791 67.4667 38.309C71.232 38.309 74.982 38.309 78.7576 38.309Z" fill="#FFFFFF" fill-opacity="0.9"/>
<path d="M34.375 33.125C37.9248 33.125 41.4502 33.125 45 33.125C45 36.6682 45 40.197 45 43.75C41.4599 43.75 37.9248 43.75 34.375 43.75C34.375 40.2115 34.375 36.678 34.375 33.125Z" fill="#FFFFFF" fill-opacity="0.9"/>
<path d="M93.125 27.5C93.125 32.925 93.125 38.3301 93.125 43.75C91.25 43.75 89.3854 43.75 87.5 43.75C87.5 38.3399 87.5 32.925 87.5 27.5C89.3698 27.5 91.2345 27.5 93.125 27.5Z" fill="#FFFFFF" fill-opacity="0.9"/>
<path d="M45 55C45 51.4796 45 47.9347 45 44.375C48.7656 44.375 52.5156 44.375 56.25 44.375C52.5 47.92 48.7447 51.4649 45 55Z" fill="#FFFFFF" fill-opacity="0.9"/>
</svg>
