<?xml version="1.0"?>
<svg xmlns="http://www.w3.org/2000/svg" width="125" height="55" viewBox="0 0 125 55" fill="none">
<path d="M97.2979 42.4781C96.4918 42.3425 95.4019 41.8344 94.8342 41.3262C94.3687 40.9083 93.7784 39.858 93.7784 39.4515C93.7784 39.2256 93.8351 39.2143 95.1635 39.2143H96.5372L96.9232 39.666C97.3774 40.1968 97.8315 40.3436 98.9441 40.3436C100.556 40.3436 101.272 39.6209 101.272 38.0059C101.272 37.0573 101.215 37.0234 100.534 37.5316C99.6707 38.1753 98.4559 38.356 97.1503 38.0172C95.5041 37.5994 94.2325 36.3345 93.7102 34.5841C93.3129 33.308 93.5172 31.2639 94.1417 30.0216C94.4482 29.4344 95.277 28.5535 95.8787 28.2034C96.594 27.7968 97.7747 27.5484 98.6376 27.6274C99.4096 27.6952 100.363 28.0679 100.783 28.4744C101.124 28.8019 101.272 28.7681 101.272 28.3954C101.272 27.8646 101.43 27.8081 102.827 27.8081H104.121L104.087 33.658L104.053 39.4966L103.735 40.1404C102.918 41.8005 101.249 42.6249 98.7738 42.591C98.3083 42.5797 97.6385 42.5345 97.2979 42.4781ZM99.8751 35.6569C100.397 35.4311 100.658 35.2165 101.033 34.6406C101.306 34.2227 101.328 34.0985 101.328 32.9466C101.328 31.7834 101.306 31.6704 101.01 31.1622C100.579 30.4282 99.9546 30.0329 99.1144 29.9764C97.9904 29.8974 97.1957 30.3152 96.6962 31.2413C96.4918 31.6253 96.4464 31.8963 96.4464 32.8901C96.4464 34.1662 96.6053 34.6744 97.2071 35.2278C97.8315 35.8038 99.0463 35.9957 99.8751 35.6569Z" fill="#FFFFFF" fill-opacity="0.9"/>
<path d="M55.8811 35.1826L55.9152 27.8646H57.2776H58.64L58.674 28.4067C58.6967 28.7003 58.7535 28.9375 58.8216 28.9375C58.8784 28.9375 59.2076 28.7116 59.5482 28.4406C61.5691 26.7917 64.7935 27.6274 66.0537 30.1232C66.5419 31.1058 66.6895 31.8624 66.7008 33.3983C66.7008 35.1262 66.4737 36.0409 65.7585 37.1364C65.0092 38.277 64.1236 38.8642 62.7385 39.1127C61.4896 39.3498 60.0024 38.9546 59.3325 38.2092C58.8557 37.6897 58.8216 37.8365 58.7876 40.2081L58.7535 42.4329L57.3003 42.4668L55.8584 42.5006L55.8811 35.1826ZM62.466 36.4701C63.0337 36.12 63.3402 35.7021 63.59 34.9003C64.0668 33.387 63.7376 31.4333 62.852 30.5637C62.3184 30.0216 61.7848 29.8861 60.7744 30.0103C60.2408 30.0781 60.0818 30.1571 59.6618 30.5637C58.9806 31.2526 58.7535 31.964 58.7535 33.4548C58.7535 34.7196 58.9692 35.4311 59.5255 36.0409C60.1727 36.7411 61.6599 36.9557 62.466 36.4701Z" fill="#FFFFFF" fill-opacity="0.9"/>
<path d="M27.3046 39.0449C25.3973 38.6497 24.0349 37.4978 23.3082 35.6344C23.0358 34.9455 23.0017 34.7196 23.0017 33.3983C23.0017 32.077 23.0358 31.8511 23.3082 31.1622C24.3868 28.4406 26.9186 27.0967 29.7342 27.7517C32.073 28.305 33.6398 30.4846 33.742 33.3418L33.776 34.1888L29.8137 34.2227L25.8514 34.2453L25.9195 34.6632C26.033 35.3182 26.4872 36.0748 26.9754 36.4136C28.1334 37.2267 30.0635 36.967 30.5971 35.928L30.7787 35.6005H32.1865C33.2424 35.6005 33.6057 35.6344 33.6057 35.7473C33.6057 35.8151 33.4581 36.1877 33.2765 36.5604C32.3341 38.5367 29.8478 39.5644 27.3046 39.0449ZM30.6879 31.8398C30.6538 31.2978 30.1997 30.5185 29.7569 30.2362C28.8827 29.6715 27.35 29.7732 26.7029 30.4395C26.3396 30.8234 25.8968 31.6704 25.8855 32.0205C25.8855 32.2012 26.0558 32.2125 28.3037 32.1899L30.7106 32.156L30.6879 31.8398Z" fill="#FFFFFF" fill-opacity="0.9"/>
<path d="M48.138 39.0788C46.7756 38.8868 45.4473 38.0963 44.8228 37.0799C44.5731 36.6846 44.2438 35.5101 44.346 35.352C44.3801 35.3068 44.9591 35.2617 45.6289 35.2617C46.8551 35.2617 47.1162 35.3407 47.1162 35.7021C47.1162 36.0296 47.6385 36.6282 48.1267 36.8653C49.1144 37.3396 50.9536 37.0799 51.3169 36.4023C51.4872 36.0635 51.4418 35.5666 51.2034 35.2843C50.9309 34.9568 50.4087 34.7761 48.8646 34.4711C46.3442 33.9742 45.4813 33.5338 44.9364 32.4497C44.4255 31.4446 44.5163 30.2927 45.1862 29.2424C46.435 27.2774 50.7039 27.0063 52.6566 28.7681C53.1675 29.2198 53.6444 30.0894 53.7693 30.7783L53.8374 31.1961H52.5318H51.2261L51.0785 30.7783C50.8969 30.2136 50.772 30.0668 50.2384 29.8296C49.4096 29.4457 48.0358 29.6038 47.4341 30.1458C47.173 30.3717 47.1616 31.1171 47.4114 31.3542C47.6839 31.6365 47.9109 31.7269 48.5921 31.8624C52.2025 32.54 53.1675 32.9804 53.7806 34.2227C54.3937 35.4762 54.0985 37.0234 53.0767 37.9608C52.4069 38.5706 51.7711 38.8755 50.7606 39.0562C49.7842 39.2256 49.2052 39.2369 48.138 39.0788Z" fill="#FFFFFF" fill-opacity="0.9"/>
<path d="M110.343 39.0449C108.821 38.74 107.402 37.7236 106.698 36.4362C105.756 34.6857 105.745 32.2012 106.687 30.3604C107.073 29.5925 108.22 28.497 109.026 28.1131C110.388 27.458 112.318 27.4468 113.726 28.0905C115.463 28.881 116.723 31.0606 116.757 33.3418L116.769 34.1888L112.806 34.2227L108.855 34.2453L108.935 34.6744C109.048 35.3068 109.548 36.12 110.002 36.4362C110.229 36.5943 110.683 36.775 111.013 36.8427C112.159 37.0573 113.102 36.7411 113.59 35.9731L113.817 35.6118L115.213 35.6005C116.814 35.6005 116.803 35.5892 116.292 36.6282C115.667 37.8704 114.43 38.7626 112.909 39.0449C111.875 39.2482 111.353 39.2482 110.343 39.0449ZM113.715 31.7382C113.624 31.1396 113.147 30.4282 112.625 30.1345C112.068 29.807 110.683 29.807 110.127 30.1345C109.605 30.4395 109.105 31.1622 109.026 31.7382L108.958 32.2125H111.376H113.794L113.715 31.7382Z" fill="#FFFFFF" fill-opacity="0.9"/>
<path d="M2.52043 38.932C0.965024 38.5028 0.113525 37.3622 0.113525 35.7247C0.113525 33.7371 1.54404 32.6078 4.59808 32.2125C5.79018 32.0544 6.67574 31.8172 6.93687 31.5801C7.23205 31.3203 7.2207 30.6315 6.92551 30.2588C6.60762 29.8522 6.0286 29.6941 5.05222 29.7506C3.9623 29.7958 3.50817 30.112 3.24704 31.0041C3.19027 31.1735 3.01997 31.1961 1.87329 31.1961H0.556305L0.635778 30.7783C0.806078 29.8409 1.4078 28.9375 2.20254 28.4293C3.30381 27.7291 4.82515 27.4693 6.47138 27.6952C8.0722 27.9098 9.15076 28.61 9.67302 29.7732C9.92279 30.3265 9.93414 30.4959 9.99091 34.3018C10.0363 37.1589 10.0817 38.3222 10.1953 38.5028C10.2634 38.6384 10.3315 38.7739 10.3315 38.8191C10.3315 38.8529 9.70708 38.8642 8.9464 38.8529L7.54995 38.8191L7.37965 38.3447C7.18664 37.7914 7.09581 37.7575 6.80063 38.1302C6.67574 38.2883 6.30108 38.548 5.94913 38.7174C5.42688 38.9772 5.13169 39.0336 4.22343 39.0675C3.48546 39.0901 2.92915 39.0449 2.52043 38.932ZM6.16484 36.6959C6.97093 36.2216 7.15258 35.8263 7.15258 34.5841V33.5451L6.84604 33.6016C5.71071 33.7936 3.99636 34.3131 3.54223 34.5841C2.69073 35.1036 2.74749 36.4136 3.63305 36.8766C4.22343 37.1815 5.48364 37.0912 6.16484 36.6959Z" fill="#FFFFFF" fill-opacity="0.9"/>
<path d="M11.5803 38.8191C11.5803 38.7852 12.1026 38.0172 12.727 37.1025C14.8274 34.0872 15.4404 33.1499 15.4404 33.0031C15.4404 32.9353 15.1453 32.4497 14.782 31.9528C14.2029 31.1397 13.113 29.5925 12.2956 28.3841C12.148 28.1696 12.0345 27.955 12.0345 27.8985C12.0345 27.842 12.7611 27.8195 13.6466 27.8308L15.2588 27.8646L16.0195 29.1069C16.9391 30.5976 17.1775 30.9138 17.3365 30.8235C17.4046 30.7783 17.7565 30.2249 18.1198 29.5925C18.4831 28.9488 18.8691 28.2938 18.994 28.1244L19.1984 27.8082H20.6176C21.5826 27.8082 22.0254 27.8533 22.0254 27.9324C22.0254 28.0002 21.3215 29.1069 20.47 30.3943C19.6185 31.6705 18.9032 32.8224 18.8805 32.9466C18.8464 33.1047 19.4255 34.0646 20.7084 35.9619C21.7415 37.4978 22.593 38.7739 22.593 38.8191C22.593 38.8529 21.821 38.8642 20.8787 38.8529L19.1643 38.8191L18.2107 37.1251C17.6884 36.199 17.1889 35.4198 17.1207 35.3972C17.0413 35.3859 16.7234 35.7699 16.4168 36.2442C16.1103 36.7298 15.5994 37.5203 15.2815 38.006L14.7025 38.8755H13.1471C12.2842 38.8755 11.5803 38.8529 11.5803 38.8191Z" fill="#FFFFFF" fill-opacity="0.9"/>
<path d="M35.6721 31.23L35.7062 23.5732H37.1254H38.5445L38.5786 31.23L38.6013 38.8756H37.1254H35.6494L35.6721 31.23Z" fill="#FFFFFF" fill-opacity="0.9"/>
<path d="M68.5402 38.8078C68.4948 38.7626 68.4607 36.3232 68.4607 33.3983C68.4607 28.9713 68.4834 28.034 68.6196 27.9324C68.7218 27.842 69.21 27.8081 70.0615 27.8307L71.3558 27.8646L71.4125 28.689L71.4693 29.5134L71.8894 28.9488C72.5592 28.0566 73.2972 27.7291 74.512 27.7968L74.8185 27.8081V29.1069V30.4056H74.2849C73.1496 30.4056 72.3322 30.8686 71.8326 31.8059C71.5942 32.2464 71.5828 32.4497 71.5261 35.544L71.4693 38.8191L70.0388 38.8529C69.2554 38.8642 68.5856 38.8416 68.5402 38.8078Z" fill="#FFFFFF" fill-opacity="0.9"/>
<path d="M76.5439 33.3757L76.578 27.8646H77.9972H79.4163L79.4504 33.3757L79.4731 38.8755H77.9972H76.5212L76.5439 33.3757Z" fill="#FFFFFF" fill-opacity="0.9"/>
<path d="M81.8005 38.74C81.7665 38.6609 81.7551 36.1764 81.7665 33.2289L81.8005 27.8646L83.1516 27.8307C84.6729 27.7968 84.6956 27.8081 84.6956 28.5761C84.6956 28.8358 84.7297 29.0504 84.7637 29.0504C84.7978 29.0504 85.0703 28.8358 85.3541 28.5874C86.1943 27.842 86.7392 27.65 87.9313 27.65C88.726 27.65 89.0666 27.6952 89.4754 27.8872C90.0998 28.1695 90.8378 28.8019 91.1784 29.344C91.7006 30.191 91.7574 30.6992 91.8141 34.618C91.8482 36.6507 91.8368 38.4464 91.8028 38.6045L91.7233 38.8868L90.2814 38.8529L88.8396 38.819L88.7828 35.0358C88.726 31.5914 88.7033 31.2187 88.5103 30.9025C87.92 29.92 86.4554 29.8296 85.479 30.7105C84.7524 31.3655 84.6956 31.7269 84.6956 35.5666V38.8755H83.2765C82.2433 38.8755 81.8346 38.8416 81.8005 38.74Z" fill="#FFFFFF" fill-opacity="0.9"/>
<path d="M118.665 33.3757L118.699 27.8646H120.061H121.424L121.458 28.5761C121.492 29.3892 121.639 29.4682 122.014 28.881C122.502 28.1356 123.615 27.65 124.534 27.7855L124.886 27.8307V29.1181V30.4056H124.353C123.217 30.4056 122.4 30.8686 121.9 31.8059C121.662 32.2464 121.651 32.4497 121.594 35.544L121.537 38.819L120.084 38.8529L118.642 38.8868L118.665 33.3757Z" fill="#FFFFFF" fill-opacity="0.9"/>
<path d="M76.5441 24.8493L76.5781 23.5732H77.9973H79.4165L79.4505 24.8493L79.4846 26.1142H77.9973H76.51L76.5441 24.8493Z" fill="#FFFFFF" fill-opacity="0.9"/>
<path d="M92.4272 21.4726C91.167 21.258 90.202 20.8289 89.5435 20.1852C89.0894 19.756 88.6012 18.8978 88.5444 18.4347L88.499 18.1524L89.9181 18.1298L91.3373 18.0959L91.5644 18.4573C91.9277 19.0333 92.5521 19.2817 93.608 19.2817C95.2769 19.2817 95.9468 18.638 96.0262 16.944C96.083 15.9502 96.0262 15.8938 95.4359 16.3455C94.732 16.8763 94.0735 17.0908 93.1198 17.0908C90.7583 17.1021 88.7715 15.3969 88.3173 12.9575C88.1243 11.9298 88.2719 10.5746 88.6806 9.50179C89.1461 8.3047 89.8614 7.51418 91.0308 6.94952C91.8482 6.54296 91.939 6.52037 92.9722 6.53167C93.9599 6.53167 94.1189 6.56555 94.7433 6.88176C95.118 7.07374 95.5494 7.36737 95.7083 7.53676L95.9922 7.84168L96.0489 7.34478L96.1057 6.85917H97.5249H98.944L98.9781 11.8847C98.9894 14.9338 98.9554 17.2038 98.8873 17.6668C98.5126 20.1061 96.8891 21.3823 93.9486 21.5404C93.449 21.563 92.7678 21.5404 92.4272 21.4726ZM94.8114 14.5386C95.7424 14.0643 96.1625 13.2286 96.1625 11.8282C96.1625 10.4504 95.6402 9.4792 94.6638 9.06135C93.3355 8.49669 91.9617 9.00488 91.3714 10.3036C91.1897 10.6989 91.133 11.0377 91.133 11.8282C91.133 13.4657 91.6325 14.2562 92.9835 14.7531C93.2901 14.8661 94.4141 14.7306 94.8114 14.5386Z" fill="#FFFFFF" fill-opacity="0.9"/>
<path d="M110.082 17.9266C108.095 17.3845 106.642 15.9051 106.142 13.9175C105.938 13.0705 105.961 11.4217 106.199 10.5295C107.062 7.3448 110.275 5.70728 113.408 6.87048C115.032 7.46902 116.224 9.03878 116.644 11.1167C116.746 11.5911 116.826 12.2461 116.826 12.5623V13.1269H112.841H108.856L108.935 13.5448C109.026 14.053 109.457 14.9226 109.753 15.1823C110.831 16.1535 112.875 16.018 113.545 14.9339L113.817 14.4934L115.214 14.4821C116.826 14.4821 116.814 14.4708 116.247 15.5889C115.679 16.7182 114.578 17.5539 113.136 17.9379C112.421 18.1298 110.808 18.1185 110.082 17.9266ZM113.76 10.936C113.76 10.5747 113.386 9.77284 113.045 9.42275C111.932 8.27084 109.843 8.6774 109.208 10.1681C108.788 11.1393 108.674 11.0942 111.376 11.0942C113.317 11.0942 113.76 11.0603 113.76 10.936Z" fill="#FFFFFF" fill-opacity="0.9"/>
<path d="M63.3516 12.2799V6.79143L64.748 6.82531L66.1331 6.85919L66.1672 7.50291C66.1899 7.86429 66.2467 8.15791 66.2921 8.15791C66.3375 8.15791 66.5532 7.94334 66.7576 7.69489C66.9846 7.41256 67.3706 7.11894 67.7453 6.94954C68.3357 6.6785 69.1985 6.56557 69.4596 6.73497C69.5505 6.79143 69.5959 7.24316 69.5959 8.05628V9.28724H69.0509C67.8588 9.28724 66.8597 9.94225 66.451 10.9812C66.2921 11.4104 66.2467 11.975 66.2126 14.6289L66.1785 17.7572H64.7594H63.3516V12.2799Z" fill="#FFFFFF" fill-opacity="0.9"/>
<path d="M71.2988 12.28V6.79144L72.7521 6.82532L74.194 6.8592L74.228 12.3138L74.2507 17.7572H72.7748H71.2988V12.28Z" fill="#FFFFFF" fill-opacity="0.9"/>
<path d="M76.5439 12.3138L76.578 6.85921L77.9291 6.82533C79.439 6.79145 79.4731 6.80275 79.4731 7.51422C79.4731 8.01112 79.6207 8.045 79.984 7.61586C80.1316 7.43517 80.5744 7.11896 80.9717 6.90439C81.6189 6.5543 81.7778 6.52042 82.652 6.52042C83.5262 6.52042 83.6965 6.5543 84.3777 6.89309C85.2292 7.29965 85.7742 7.8756 86.1943 8.77906C86.4554 9.33243 86.4554 9.43407 86.4895 13.5561L86.5235 17.7685L85.0703 17.7346L83.6171 17.7007L83.5603 13.8949C83.5035 10.2811 83.4922 10.0778 83.2651 9.77287C82.8791 9.24209 82.3568 9.03881 81.5281 9.09527C80.7106 9.16303 80.3814 9.34373 79.8705 10.0665L79.5299 10.5521L79.4958 14.1546L79.4618 17.7572H77.9858H76.5212L76.5439 12.3138Z" fill="#FFFFFF" fill-opacity="0.9"/>
<path d="M101.271 12.28V6.80273H102.691H104.11V12.28V17.7572H102.691H101.271V12.28Z" fill="#FFFFFF" fill-opacity="0.9"/>
<path d="M118.642 12.2799V6.80271H120.061H121.48V7.4803C121.48 8.29342 121.617 8.34988 122.105 7.69487C122.616 7.00599 123.558 6.62202 124.58 6.66719L124.886 6.68978V7.9885V9.28722H124.296C123.558 9.28722 122.673 9.67119 122.241 10.1794C121.673 10.857 121.594 11.4103 121.594 14.7306V17.7571H120.118H118.642V12.2799Z" fill="#FFFFFF" fill-opacity="0.9"/>
<path d="M71.2988 3.81002V2.5L72.7521 2.53388L74.194 2.56776V3.81002V5.05227L72.7521 5.08615L71.2988 5.12003V3.81002Z" fill="#FFFFFF" fill-opacity="0.9"/>
<path d="M101.271 3.81001V2.51129H102.691H104.11V3.81001V5.10874H102.691H101.271V3.81001Z" fill="#FFFFFF" fill-opacity="0.9"/>
<path d="M53.4741 50.3382V48.5877H73.1154H92.7566V50.3382V52.0886H73.1154H53.4741V50.3382Z" fill="#B2B6BD"/>
<path d="M1.24878 50.3382V48.5877H11.8074H22.3659V50.3382V52.0886H11.8074H1.24878V50.3382Z" fill="#979BA2"/>
<path d="M53.3606 50.3382C53.3606 48.6668 53.3719 48.5877 53.5877 48.5877C53.8034 48.5877 53.8147 48.6668 53.8147 50.3382C53.8147 52.0096 53.8034 52.0886 53.5877 52.0886C53.3719 52.0886 53.3606 52.0096 53.3606 50.3382Z" fill="#979BA2"/>
<path d="M109.56 50.3382V48.5877H116.655H123.751V50.3382V52.0886H116.655H109.56V50.3382Z" fill="#979BA2"/>
<path d="M22.0254 50.3382V48.5877H22.3092H22.5931V50.3382V52.0886H22.3092H22.0254V50.3382Z" fill="#868A91"/>
<path d="M42.802 50.3382V48.5877H48.2516H53.7012V50.3382V52.0886H48.2516H42.802V50.3382Z" fill="#868A91"/>
<path d="M22.2524 50.3382V48.5877H32.6975H43.1425V50.3382V52.0886H32.6975H22.2524V50.3382Z" fill="#777B82"/>
<path d="M92.416 50.3382V48.5877H101.158H109.9V50.3382V52.0886H101.158H92.416V50.3382Z" fill="#2F333A"/>
</svg>
