<?xml version="1.0"?>
<svg xmlns="http://www.w3.org/2000/svg" width="125" height="55" viewBox="0 0 125 55" fill="none">
<path d="M9.07884 48.6759C9.85384 47.8304 10.7673 46.872 11.3209 46.4211C11.1548 46.4211 10.9334 46.3647 10.6566 46.3365C10.0753 46.872 9.35564 47.633 8.71901 48.3377C7.8886 49.2396 7.2243 50.0288 7.2243 50.0288L7.19663 50.057C6.67075 50.1979 5.75731 50.4516 5.14836 50.6207C4.26262 50.8744 3.43224 50.818 3.43224 51.4099C3.43224 51.4099 2.49115 51.9172 2.71258 52.6782C2.71258 52.6782 4.56709 51.1562 6.1725 50.9026C6.1725 50.9026 5.20372 51.5508 5.28676 52.4245C5.28676 52.4245 6.61535 50.4234 8.13773 51.6354C8.13773 51.6354 7.44576 50.677 7.75023 50.1697C7.99936 49.9161 8.49756 49.3241 9.07884 48.6759ZM6.11715 25.0285C6.03413 25.0567 5.95105 25.0849 5.86802 25.0849C5.59123 25.0849 5.34212 24.9158 5.2314 24.6339C5.2314 24.6057 5.20372 24.5775 5.20372 24.5494L5.00996 24.6057C5.17604 25.113 5.70195 25.3949 6.14483 25.2258C6.25552 25.1694 6.36628 25.113 6.4493 25.0285C6.69843 24.7748 6.80913 24.3802 6.67075 24.0138L6.20017 24.1829C6.22785 24.2393 6.25552 24.3238 6.25552 24.4084C6.25552 24.4648 6.25552 24.5494 6.22785 24.6057L6.4493 24.7466C6.42163 24.803 6.36628 24.8594 6.31087 24.9158C6.25552 24.944 6.20017 25.0003 6.11715 25.0285ZM24.9391 23.4783L15.7495 25.7613L33.6858 17.8694L18.905 19.7015L26.8213 13.8108L18.3514 17.193L19.6246 14.5717L13.5629 19.0251L13.5076 18.9405L22.1158 0L8.13773 16.8548L8.05471 7.6664L2.90633 19.9552L2.62954 16.3474L0.110717 25.7613C0.110717 25.7613 0.44287 25.5076 0.913419 25.3667C0.941099 25.3667 0.996459 25.3386 1.02413 25.3386C1.02413 25.3386 1.02413 25.3386 1.05181 25.3386C1.07949 25.3386 1.13485 25.3104 1.16253 25.3104C1.16253 25.3104 1.16253 25.3104 1.19021 25.3104C1.21789 25.3104 1.27325 25.3104 1.30093 25.2822C1.32861 25.2822 1.38397 25.2822 1.41165 25.2822H1.43933C1.46701 25.2822 1.52237 25.2822 1.55005 25.2822C1.55005 25.2822 1.55005 25.2822 1.57772 25.2822C1.6054 25.2822 1.63308 25.2822 1.68844 25.2822C1.68844 25.2822 1.68844 25.2822 1.71612 25.2822C1.7438 25.2822 1.79916 25.2822 1.82684 25.3104H1.85452C1.8822 25.3104 1.93756 25.3386 1.96523 25.3386C2.8233 25.6486 3.57064 25.3386 3.57064 25.3386C3.57064 25.3386 4.37334 25.8741 4.37334 26.325C4.37334 26.325 3.29384 26.3814 3.29384 25.9022C3.29384 25.9022 1.90988 25.3949 0 26.1277L4.04119 27.9034C4.04119 27.8752 3.81975 27.1142 4.06887 26.8605C4.15191 26.776 4.26262 26.7478 4.48406 26.8041C4.56709 26.8323 4.62245 26.8323 4.65013 26.8041C4.9546 26.4659 3.43224 23.6192 3.43224 23.6192C3.43224 23.6192 2.07595 23.4783 0.885738 24.7466C0.802703 24.8312 0.719663 24.9158 0.636628 25.0285C0.747343 24.803 1.13485 24.1829 1.77148 23.6474C2.15899 23.3092 2.62954 23.0273 3.21081 22.8582C3.37688 22.4636 3.15545 22.7173 3.4876 22.52C3.62599 21.5054 4.20726 18.9123 6.14483 16.6856C6.2832 16.5447 6.42163 16.3756 6.56 16.2347C6.56 16.2347 6.0618 17.193 6.0618 17.8413C6.08948 17.8131 6.56 17.0802 7.25198 16.3756C7.25198 16.3756 7.25198 16.3756 7.2243 16.4038C7.08593 16.6856 6.1725 18.6868 6.2832 19.2787L8.16541 17.5312C8.11006 17.6158 6.42163 19.9551 6.25552 20.7443L9.07884 18.6868C9.07884 18.715 8.71901 19.1941 8.58058 19.476C8.46988 19.6733 8.46988 19.7297 8.46988 19.7579V19.7861L9.99227 19.1096C9.99227 19.1096 9.93692 19.1941 9.82616 19.3069L9.27262 19.8988L9.13419 20.0397L8.02703 21.1108V21.139L7.25198 21.9563L6.75378 22.4918C6.75378 22.4918 6.33855 22.9146 6.2832 23.1401C6.22785 23.3656 6.47698 23.5065 6.47698 23.5065C6.69843 23.6192 6.86448 23.8165 6.9475 24.042C7.00291 24.1829 7.03058 24.3238 7.03058 24.4648C7.03058 24.7748 6.91983 25.0567 6.69843 25.254C6.50465 25.4513 6.20017 25.5922 5.8957 25.5922C5.61891 25.5922 5.3698 25.4795 5.14836 25.3104C5.17604 25.3667 5.72963 26.0713 6.75378 25.5076L8.02703 24.5775L8.08238 24.5212L9.38331 23.5347C9.68779 23.9011 9.99227 24.352 10.2413 24.8594C9.46634 25.6204 8.13773 26.9169 6.80913 28.3262C6.03413 29.1717 5.2314 30.0737 4.56709 30.9192L5.03765 28.6644L5.06533 28.4671C5.06533 28.4671 5.06533 28.4671 5.03765 28.4671C5.03765 28.4671 5.03764 28.4671 5.00996 28.4671C5.00996 28.4671 5.00996 28.4671 4.98228 28.4953C4.98228 28.4953 4.98228 28.4953 4.9546 28.4953C4.9546 28.4953 4.9546 28.5234 4.92692 28.5234L4.81621 28.6362L4.78853 28.6644C4.78853 28.6644 4.76085 28.6644 4.76085 28.6926L4.67781 28.7772L4.65013 28.8053C4.65013 28.8335 4.62245 28.8335 4.59477 28.8617L4.53942 28.918C4.53942 28.918 4.51174 28.9462 4.48406 28.9744L4.45638 29.0026C4.4287 29.0026 4.4287 29.0308 4.40102 29.059L4.37334 29.0872C4.37334 29.1154 4.34566 29.1154 4.34566 29.1154C4.34566 29.1154 4.34566 29.1154 4.31798 29.1436L4.2903 29.1717C4.2903 29.1999 4.26262 29.1999 4.26262 29.1999C4.26262 29.1999 4.26262 29.1999 4.23494 29.1999L4.20726 29.2281C4.17958 29.2563 4.17958 29.2563 4.15191 29.2845C4.15191 29.3126 4.12423 29.3126 4.12423 29.3408C4.09655 29.369 4.09655 29.369 4.06887 29.3972C4.04119 29.4254 4.04119 29.4254 4.01351 29.4536C3.98583 29.4818 3.98583 29.5099 3.95815 29.5099C3.95815 29.5381 3.93047 29.5381 3.90279 29.5663C3.87511 29.5945 3.87511 29.6227 3.84743 29.6227C3.81975 29.6227 3.81975 29.6509 3.79208 29.6791C3.76439 29.7072 3.76439 29.7354 3.73671 29.7636C3.70903 29.7918 3.70903 29.7918 3.70903 29.82C3.68135 29.8481 3.65367 29.8763 3.62599 29.9045L3.59832 29.9327C3.57064 29.9891 3.51528 30.0173 3.4876 30.0737C3.45992 30.13 3.43224 30.1582 3.37688 30.2146C3.37688 30.2427 3.3492 30.2427 3.3492 30.2709C3.32152 30.2991 3.29384 30.3555 3.26616 30.3837C3.26616 30.4119 3.23849 30.4119 3.23849 30.4401C3.21081 30.4683 3.18313 30.5246 3.15545 30.5528C3.15545 30.581 3.12777 30.6092 3.12777 30.6092C3.10009 30.6373 3.07241 30.6937 3.07241 30.7219C3.07241 30.7501 3.04473 30.7783 3.04473 30.7783C3.01705 30.8065 2.98937 30.8629 2.98937 30.891C2.98937 30.9192 2.96169 30.9474 2.96169 30.9474C2.93401 31.0038 2.90633 31.0319 2.90633 31.0601C2.90633 31.0883 2.87865 31.1165 2.87865 31.1447C2.76794 31.342 2.6849 31.5393 2.57418 31.7648L2.04827 31.8493C2.15899 31.5674 2.24203 31.342 2.38042 31.0883L1.52237 32.3003L2.38042 32.2157C1.66076 33.9069 1.13485 36.1335 1.13485 39.2902L1.82684 38.8393C2.43578 42.3624 5.28676 43.9126 5.28676 43.9126V43.8844C6.86448 44.9273 8.77436 45.6601 10.878 45.9701C11.1824 45.9983 11.4039 46.0265 11.4592 46.0265C11.4869 46.0265 11.5423 46.0265 11.57 46.0265C12.7048 46.1393 13.812 46.0829 14.8915 45.9419C14.8915 45.9701 14.8915 46.0265 14.8915 46.0547C14.8915 46.7593 15.279 47.323 15.7495 47.3794C14.7531 49.0987 13.9504 51.4099 13.9504 51.4099C13.9227 51.5226 13.8397 51.7199 13.7566 51.7763C13.5076 51.8326 13.4798 51.8326 13.2308 51.9454C13.1477 51.8608 12.345 51.6918 11.5423 52.0018C11.0994 52.1991 10.6566 52.5655 10.3244 53.1855C10.6566 52.9037 11.2655 52.4809 11.7637 52.5373C11.1824 52.8755 10.1583 53.5238 10.0476 54.4539C10.0476 54.4539 13.5629 51.9454 15.3067 52.3963C15.3067 52.3963 15.0576 52.6782 15.6388 53.7775L15.9156 52.7627C16.2201 51.7763 15.0299 51.6354 14.504 51.6072C14.504 51.6072 14.5594 51.438 14.6701 51.1844C14.9745 50.3952 15.6665 48.6477 16.4416 47.4076C16.4416 47.3794 16.4692 47.3512 16.4692 47.323L16.3308 47.1257C16.3308 47.1257 16.4416 47.013 16.4969 46.9284C16.6076 46.7593 16.746 46.4775 16.746 46.1111C16.746 45.8292 16.6906 45.4628 16.4692 45.0118L16.9121 44.7863C16.9398 44.8427 16.9674 44.8991 16.9951 44.9555C16.9951 44.9836 16.9951 44.9836 17.0228 45.0118C17.0228 45.04 17.0505 45.0964 17.0505 45.1245C17.0505 45.1527 17.0505 45.1527 17.0782 45.1809C17.0782 45.2091 17.1059 45.2655 17.1059 45.2937V45.3219L19.68 44.5327L19.0988 44.0536L19.0711 44.0254L9.32796 34.9779C12.0405 36.3308 15.196 37.8809 20.5658 40.4176C25.8525 42.8979 29.2017 44.3354 30.9178 45.0682C30.9455 45.0682 30.9455 45.0964 30.9732 45.0964C31.2223 45.2091 31.4438 45.2937 31.6098 45.3782C31.9696 45.5191 32.3295 45.6601 32.3571 45.6601C32.3849 45.6319 32.4126 45.6319 32.4402 45.6319L12.7048 31.8493L24.9391 23.4783ZM11.2932 27.7342L8.35919 30.0173L10.4628 25.2822C10.7949 26.0149 11.0717 26.8323 11.2932 27.7342ZM21.7837 44.0254L21.8667 44.3918L25.299 46.4492L26.157 46.9566L25.6864 45.7165C28.5098 46.562 30.8348 46.6184 32.3571 45.8856C29.6999 46.6748 23.0846 44.42 21.7837 44.0254Z" fill="#FFFFFF" fill-opacity="0.9"/>
<path d="M47.996 28.4108C47.6915 28.3263 47.221 28.2699 46.612 28.2699H45.2834V35.8799L45.4218 35.7672L46.5013 34.978L46.529 34.9498V32.8077H46.9442C47.7192 32.8077 48.3281 32.6104 48.7987 32.1877C49.2692 31.7649 49.4907 31.2294 49.4907 30.5247C49.4907 29.8765 49.2692 29.3409 48.8541 28.89C48.6049 28.6645 48.3281 28.4954 47.996 28.4108ZM46.8888 31.7367H46.529V29.3973H46.9165C47.913 29.3973 48.4112 29.7637 48.4112 30.5247C48.4388 31.3139 47.9406 31.7367 46.8888 31.7367ZM55.0266 32.6386C55.4694 32.5259 55.8292 32.2722 56.106 31.9058C56.4105 31.5112 56.5766 31.032 56.5766 30.4965C56.5766 29.8201 56.3275 29.2282 55.8569 28.8054C55.4141 28.439 54.6944 28.2417 53.7256 28.2417H52.3694V35.8517L52.5077 35.739L53.5872 34.9498L53.6149 34.9216V32.7513H53.6703L55.7185 35.7108L55.7739 35.7954L55.8569 35.739L56.7427 35.0907L56.8257 35.0344L56.7703 34.9498L55.0266 32.6386ZM53.6149 31.7367V29.3973H54.0024C54.9989 29.3973 55.4971 29.7637 55.4971 30.5247C55.4971 31.3139 54.9712 31.7367 53.947 31.7367H53.6149ZM36.0385 28.4954C35.5956 28.3545 35.0144 28.2699 34.2947 28.2699H32.6893V35.7954H34.267C35.0144 35.7954 35.568 35.739 35.9831 35.5981C36.426 35.4572 36.8412 35.2035 37.2287 34.8652C38.0314 34.1606 38.4189 33.2023 38.4189 32.0467C38.4189 30.8911 38.0314 29.961 37.2841 29.2564C36.9242 28.89 36.5091 28.6363 36.0385 28.4954ZM36.3983 33.9351C36.1492 34.1606 35.8724 34.3297 35.5403 34.4424C35.2358 34.5552 34.8206 34.5834 34.3501 34.5834H33.9626V29.5101H34.3501C35.2358 29.5101 35.9278 29.7355 36.3983 30.1583C36.8966 30.6374 37.1734 31.2857 37.1734 32.0467C37.1734 32.8077 36.8966 33.4278 36.3983 33.9351ZM28.0669 29.3691C28.5374 29.3691 29.008 29.5101 29.4508 29.7637L29.5338 29.8201L29.5892 29.7355L30.1151 28.8054L30.1705 28.7209L30.0874 28.6645C29.4785 28.2981 28.8142 28.129 28.1776 28.129C26.9597 28.129 25.9632 28.5799 25.2159 29.5101C24.6069 30.2711 24.2748 31.1166 24.2748 32.0749C24.2748 33.1459 24.6623 34.0479 25.382 34.8089C26.1293 35.5417 27.0427 35.9363 28.0945 35.9363C28.7865 35.9363 29.4508 35.739 30.0874 35.3726L30.1428 35.3444V35.2316L29.6169 34.3015L29.5616 34.217L29.4785 34.2734C29.3401 34.3579 29.174 34.4424 29.0633 34.4988C28.8142 34.6116 28.482 34.668 28.1222 34.668C27.4026 34.668 26.7936 34.4143 26.3231 33.9069C25.8248 33.3996 25.5757 32.7513 25.5757 32.0186C25.5757 31.2576 25.8248 30.6093 26.3231 30.1019C26.7659 29.6228 27.3749 29.3691 28.0669 29.3691ZM111.409 29.5101L112.434 28.439L112.572 28.2699H108.281V35.7954H111.409L111.437 35.7672L112.406 34.7243L112.544 34.5834H109.527V32.244H110.469L110.496 32.2158L111.52 31.173L111.659 31.0039H109.527V29.4819H111.409V29.5101ZM91.3698 29.5101V35.9081L91.5081 35.7954L92.5872 35.0062L92.6151 34.978V29.5101H94.2762V28.2699H89.6814V29.5101H91.3698ZM62.9151 28.129C61.8634 28.129 60.9221 28.5236 60.175 29.2564C59.4273 30.0174 59.0401 30.9193 59.0401 31.9904C59.0401 33.1741 59.4552 34.1606 60.2855 34.9216C61.0331 35.5981 61.8913 35.9363 62.8599 35.9363C63.9395 35.9363 64.8529 35.5417 65.6279 34.8089C66.375 34.0479 66.7628 33.1459 66.7628 32.0467C66.7628 30.9757 66.375 30.0456 65.6279 29.2846C64.8802 28.5236 63.9669 28.129 62.9151 28.129ZM64.7145 33.9351C64.2163 34.4424 63.5796 34.6961 62.8599 34.6961C62.1953 34.6961 61.5866 34.4424 61.0884 33.9351C60.5622 33.4278 60.3134 32.7795 60.3134 31.9904C60.3134 31.2576 60.5622 30.6093 61.0605 30.1019C61.5587 29.5946 62.168 29.3409 62.8872 29.3409C63.607 29.3409 64.2163 29.5946 64.7145 30.1019C65.2128 30.6093 65.4616 31.2576 65.4616 32.0186C65.4895 32.7795 65.2128 33.4278 64.7145 33.9351ZM120.156 29.2564C119.769 28.9181 119.353 28.6645 118.883 28.5236C118.44 28.3826 117.859 28.2981 117.139 28.2981H115.534V35.7954H117.112C117.859 35.7954 118.44 35.739 118.827 35.5981C119.27 35.4572 119.685 35.2035 120.073 34.8652C120.876 34.1606 121.263 33.2023 121.263 32.0467C121.291 30.8911 120.903 29.961 120.156 29.2564ZM119.242 33.9351C118.994 34.1606 118.717 34.3297 118.385 34.4424C118.08 34.5552 117.665 34.5834 117.194 34.5834H116.807V29.5101H117.222C118.135 29.5101 118.8 29.7355 119.27 30.1583C119.769 30.6374 120.045 31.2857 120.045 32.0467C120.017 32.8077 119.769 33.4278 119.242 33.9351ZM103.438 32.6386C103.881 32.5259 104.241 32.2722 104.517 31.9058C104.822 31.5112 104.988 31.032 104.988 30.4965C104.988 29.8201 104.739 29.2282 104.268 28.8054C103.825 28.439 103.106 28.2417 102.137 28.2417H100.753V35.8517L100.891 35.739L101.971 34.9498L101.998 34.9216V32.7513H102.054L104.074 35.7108L104.13 35.7954L104.213 35.739L105.098 35.0907L105.181 35.0344L105.126 34.9498L103.438 32.6386ZM102.026 31.7367V29.3973H102.413C103.41 29.3973 103.908 29.7637 103.908 30.5247C103.908 31.3139 103.383 31.7367 102.358 31.7367H102.026ZM86.2488 28.2981L83.5919 31.0602V28.1854L83.4535 28.2981L82.3738 29.0873L82.3459 29.1155V35.9081L82.4843 35.7954L83.5639 35.0062L83.5919 34.978V32.695L83.7302 32.5541L86.2767 35.739L86.332 35.7954L86.4151 35.739L87.3558 35.0907L87.4389 35.0344L87.3837 34.9498L84.6709 31.624L87.882 28.3545L88.0203 28.1854H86.3041L86.2488 28.2981ZM70.6651 29.0873L70.6378 29.1155V33.1177C70.6378 33.7379 70.5826 34.1606 70.4442 34.3861C70.3331 34.6116 70.1395 34.7243 69.8628 34.7243C69.6413 34.7243 69.4198 34.6398 69.1709 34.4706L69.0878 34.4143L69.0325 34.4988L68.5064 35.4572L68.4512 35.5417L68.5343 35.5981C68.9494 35.8517 69.3919 35.9645 69.8628 35.9645C70.4994 35.9645 70.9977 35.739 71.3849 35.288C71.5791 35.0626 71.7174 34.7807 71.8 34.4424C71.8831 34.1606 71.911 33.7379 71.911 33.1459V28.1854L71.7727 28.2981L70.6651 29.0873ZM78.443 29.5101L78.4709 29.4819L79.4674 28.439L79.6058 28.2699H75.3157V35.7954H78.443L78.4709 35.7672L79.4395 34.7243L79.5779 34.5834H76.561V32.244H77.4744L77.5023 32.2158L78.5262 31.173L78.6645 31.0039H76.5331V29.4819H78.443V29.5101Z" fill="#FFFFFF" fill-opacity="0.9"/>
<path d="M123.699 30.7784C122.979 30.7784 122.398 30.1865 122.398 29.4537C122.398 28.7209 122.979 28.129 123.699 28.129C124.419 28.129 125 28.7209 125 29.4537C125 30.1865 124.419 30.7784 123.699 30.7784ZM123.699 28.3263C123.09 28.3263 122.592 28.8054 122.592 29.4537C122.592 30.0738 123.09 30.5811 123.699 30.5811C124.308 30.5811 124.806 30.0738 124.806 29.4537C124.806 28.8336 124.308 28.3263 123.699 28.3263ZM124.059 30.2147L123.672 29.6228H123.422V30.2147H123.228V28.6927H123.837C124.087 28.6927 124.308 28.8618 124.308 29.1437C124.308 29.4819 124.003 29.5946 123.92 29.5946L124.308 30.1865H124.059V30.2147ZM123.81 28.89H123.422V29.4255H123.81C123.948 29.4255 124.087 29.3127 124.087 29.1718C124.087 29.0027 123.948 28.89 123.81 28.89Z" fill="#FFFFFF" fill-opacity="0.9"/>
</svg>
