<?xml version="1.0"?>
<svg xmlns="http://www.w3.org/2000/svg" width="125" height="55" viewBox="0 0 125 55" fill="none">
<path d="M62.5 51.7647C49.2314 51.7647 38.3316 40.7686 38.3316 27.5C38.3316 24.7461 38.8323 22.0886 39.6989 19.5466L53.8533 47.0466C54.0459 47.4317 54.2385 47.7398 54.7392 47.7398C55.2398 47.7398 55.4324 47.451 55.625 47.0466L62.2112 32.4107C62.3074 32.2181 62.4037 32.1219 62.5 32.1219C62.6926 32.1219 62.6926 32.3144 62.7888 32.4107L69.4712 47.0466C69.6638 47.4317 69.8564 47.7398 70.3572 47.7398C70.8578 47.7398 71.0504 47.451 71.243 47.0466L85.3974 19.5466C86.2833 22.0115 86.7647 24.6499 86.7647 27.5C86.6684 40.7686 75.7686 51.7647 62.5 51.7647ZM62.5 21.222C62.3074 21.222 62.3074 21.0294 62.2112 20.9331L54.6428 4.62185C57.1079 3.736 59.7461 3.25455 62.5 3.25455C65.2539 3.25455 67.9114 3.75525 70.3572 4.62185L62.7888 20.9331C62.6926 21.0294 62.6926 21.222 62.5 21.222ZM54.5466 38.9006C54.354 38.9006 54.354 38.708 54.2577 38.6117L41.875 14.8284C44.0319 11.2851 47.1709 8.33858 50.8106 6.27801L59.5535 25.1313C59.7461 25.5165 59.9387 25.632 60.2469 25.632H64.7724C65.0613 25.632 65.2731 25.5357 65.4657 25.1313L74.0931 6.27801C77.7329 8.33858 80.8719 11.2851 83.0288 14.8284L70.7423 38.5925C70.646 38.7851 70.5497 38.8813 70.4534 38.8813C70.2608 38.8813 70.2608 38.6887 70.1646 38.5925L65.4465 28.174C65.2539 27.7888 65.0613 27.6733 64.7531 27.6733H60.2276C59.9387 27.6733 59.7269 27.7696 59.5343 28.174L54.8354 38.6117C54.7392 38.708 54.7392 38.9006 54.5466 38.9006ZM62.5 55C77.7329 55 90 42.7136 90 27.5C90 12.2864 77.7329 0 62.5 0C47.2671 0 35 12.2864 35 27.5C35 42.7136 47.2864 55 62.5 55Z" fill="#FFFFFF" fill-opacity="0.9"/>
</svg>
