<?xml version="1.0"?>
<svg xmlns="http://www.w3.org/2000/svg" width="125" height="55" viewBox="0 0 125 55" fill="none">
<path fill-rule="evenodd" clip-rule="evenodd" d="M62.4211 7.48053C63.2835 7.54651 64.0795 7.8764 64.7428 8.40422C65.6051 9.19596 65.8705 10.5815 65.4062 11.7032C63.8141 15.002 59.9667 17.1793 57.3797 17.905C55.854 18.3009 53.864 18.3009 52.4046 17.7072C51.7412 18.103 51.1442 19.4226 50.2819 18.8948C49.0879 17.9711 50.1493 16.4535 49.4196 15.3979C49.2868 15.2 48.8889 15.1339 48.7563 14.8041C47.8275 12.6928 48.9552 10.7134 50.2819 9.12998C52.5373 6.68879 58.9054 3.98369 62.4211 7.48053ZM55.058 9.12998C53.7977 9.32792 52.4046 9.92172 51.6749 10.7795C50.9453 11.6371 50.4146 12.4949 50.8789 13.4186C52.4709 12.231 53.267 10.5815 55.058 9.59183C55.058 9.3939 55.3233 9.26194 55.058 9.12998ZM62.5538 9.59183C59.3697 9.32792 56.9817 11.7032 54.7926 13.9464C54.66 14.3422 53.864 14.7381 54.461 15.1339C57.5123 15.3979 60.3647 14.5402 62.5538 12.5608C63.2172 11.9671 63.6814 11.1753 63.3498 10.3836C63.1508 10.0537 62.8191 9.72379 62.5538 9.59183Z" fill="#FFFFFF" fill-opacity="0.9"/>
<path fill-rule="evenodd" clip-rule="evenodd" d="M89.8835 23.184C91.3428 26.7468 92.6031 32.3549 89.8835 35.7199C89.1538 36.5116 87.8934 37.3033 87.031 36.6435C83.9797 34.2023 82.7194 30.7715 80.862 27.6705C80.5966 27.5385 80.5966 27.8684 80.464 28.0663C79.8006 31.2333 81.061 35.324 78.9383 37.7651C78.1422 37.8971 77.3462 37.5012 77.0809 36.6435C76.0196 33.4105 77.1473 30.0457 77.4126 26.8128C78.0759 25.1633 78.3413 23.2499 79.7343 22.0623C82.056 22.986 83.1173 25.4932 84.444 27.4065C85.3727 28.7921 86.1687 30.4416 87.2964 31.6951C88.2251 31.2993 87.7608 30.0457 87.7608 29.2539C87.3627 26.285 86.5668 23.5798 85.7707 20.7428C85.7044 20.017 85.3064 18.7634 86.1024 18.3016C88.0924 19.2912 89.0212 21.4025 89.8835 23.184Z" fill="#FFFFFF" fill-opacity="0.9"/>
<path fill-rule="evenodd" clip-rule="evenodd" d="M76.086 22.0614C76.086 22.7211 75.5553 23.5788 75.091 23.7108C70.7129 24.3705 65.8041 23.9747 61.6914 25.3602C61.5588 25.8881 62.1558 25.954 62.4874 26.0859C66.0032 26.6138 69.7179 26.7457 73.1673 27.6035C74.9583 28.0653 75.6217 30.1766 75.7543 31.9579C75.8206 33.3435 75.2899 35.0589 73.8969 35.9826C70.5139 38.0939 65.3398 38.0279 61.8904 36.0485C60.5637 35.3228 59.3034 34.1352 59.2371 32.6837C59.2371 31.4961 59.7677 30.6384 60.5637 30.1766C63.8804 28.857 67.9269 29.5828 70.7792 31.2981C70.9783 32.2218 69.9832 32.1559 69.5189 32.4857C66.3348 34.3331 63.9468 30.4405 61.0281 31.826C60.63 32.0899 60.2984 32.8816 60.8291 33.0796C64.4774 34.6631 68.4576 33.5414 72.0396 32.5518C72.4376 32.4198 72.9683 32.0239 72.9683 31.6281C72.8356 30.1766 71.1772 29.8467 70.1159 29.4509C66.9981 28.6591 63.5488 28.6591 60.2321 28.3292C59.5688 28.1972 58.7727 27.7354 58.5737 27.2076C58.1757 26.0859 58.1757 24.6344 59.0381 23.7108C63.2834 19.9501 69.7842 20.28 75.1573 21.2696C75.5553 21.5335 75.9533 21.6655 76.086 22.0614Z" fill="#FFFFFF" fill-opacity="0.9"/>
<path fill-rule="evenodd" clip-rule="evenodd" d="M56.0528 23.8429C56.4509 28.1975 56.7162 32.2881 56.5835 36.8405C56.5172 37.4343 55.7875 37.5663 55.3232 37.7642C54.5935 37.8962 53.6648 37.7642 53.3332 37.3684C52.2718 35.6529 52.6697 33.4097 52.5371 31.3644C52.6697 28.1314 52.6034 24.6346 53.5321 21.5997C53.7311 21.1379 54.1955 20.8079 54.6598 21.0718C55.8539 21.5997 56.0528 22.7213 56.0528 23.8429Z" fill="#FFFFFF" fill-opacity="0.9"/>
<path fill-rule="evenodd" clip-rule="evenodd" d="M106.931 23.1844C107.131 23.5802 107.396 24.1081 106.931 24.372C104.875 25.2956 102.089 24.8998 99.7005 25.1637C99.0373 25.6915 98.5737 26.6152 98.7724 27.4729C98.9711 27.6049 99.2369 27.8027 99.4356 27.8027C100.895 27.8688 103.084 27.143 104.079 28.4625C104.344 28.8584 104.079 30.3759 103.416 30.4418C101.625 30.6397 98.7061 30.2439 97.8433 30.6398C96.7155 31.3655 96.8489 32.7509 96.4505 33.9385C97.2463 34.4663 98.0429 33.9385 98.9711 33.8066C100.696 33.5427 102.553 33.0149 104.212 33.4107C104.543 34.0046 105.007 34.6643 104.676 35.39C101.824 37.6992 98.0429 40.0084 94.1287 38.359C92.6695 37.6992 92.0061 35.456 92.4705 33.5427C92.8021 32.1572 94.195 30.8377 93.333 29.3862C93.2002 28.7264 93.5317 28.1986 94.1287 28.0667C95.6548 28.0667 95.3228 26.2193 96.1185 25.3617C95.2565 24.438 93.0675 24.438 93.2665 22.5246C94.3274 21.9968 95.5886 22.1288 96.7826 21.9968C99.5019 21.469 102.487 21.1392 105.273 21.469C105.737 21.4031 106.467 22.5246 106.931 23.1844Z" fill="#FFFFFF" fill-opacity="0.9"/>
<path fill-rule="evenodd" clip-rule="evenodd" d="M41.5257 12.7588C45.7711 16.1897 51.2105 22.0617 50.5472 28.7913C49.7511 34.1355 44.0464 38.0942 39.2703 39.4138C34.6269 40.7993 28.7231 40.6674 23.947 39.5457C23.6154 40.4035 23.2837 41.4591 22.2887 41.8549C21.6254 42.0529 20.8294 41.9209 20.2987 41.5251C18.9057 40.2055 20.0333 37.6324 17.977 36.8407C13.9306 35.1252 9.61884 31.8263 7.56246 27.7357C7.29712 26.944 7.6288 26.0863 8.09313 25.4265C11.2771 22.9194 15.2573 21.9297 19.2373 21.138C19.4363 21.2039 19.37 20.94 19.569 20.8081C19.768 18.103 19.9007 15.266 20.763 12.8248C20.962 12.4949 21.4263 12.363 21.758 12.6269C24.2787 14.5402 23.0847 18.1689 24.2124 20.7421C28.9884 20.94 33.8309 21.2039 37.6119 23.9091C38.8723 24.9647 39.204 26.944 38.806 28.0656C38.4079 29.1872 37.0813 30.045 35.8209 30.1109C35.0249 30.1109 33.4328 30.1769 33.4993 29.5831C33.5656 28.9893 36.2853 27.9337 35.4893 27.0759C34.2952 25.8224 28.3251 25.0966 24.6105 24.6348C24.1461 24.5688 23.748 24.7008 23.748 25.1626C23.6817 28.5935 23.3501 32.4202 23.947 35.785C24.0134 35.9829 24.2787 36.3128 24.4777 36.3128C31.0449 37.3685 37.9437 36.7746 43.0514 33.0139C45.4395 31.1006 46.2355 28.3955 45.7711 25.4265C43.7811 17.3113 35.1576 12.363 28.0598 9.13005C21.161 6.16106 13.4662 4.57759 5.30709 4.97346C3.9804 5.10541 1.92403 5.56725 1.92403 6.0291C1.92403 6.49095 4.24574 6.29301 3.9804 7.21669C3.71507 8.07441 1.32702 7.54658 0.597344 7.34865C-0.132334 7.15072 -0.0659997 6.09508 0.133004 5.50128C1.92403 2.33435 6.89911 2.07044 9.15449 1.93849C21.6254 1.6086 33.6319 6.35899 41.5257 12.7588ZM19.1047 24.9647C15.9206 25.0307 12.6039 25.3605 9.68517 26.4161C9.08815 26.6141 8.35847 27.2739 8.82282 28.0656C10.0168 29.6491 11.7415 30.9687 13.3336 31.8924C14.9256 32.816 17.0483 34.0036 18.972 34.2675C19.4363 31.2985 19.4363 28.3955 19.37 25.3605C19.171 25.2946 19.37 25.0966 19.1047 24.9647Z" fill="#FFFFFF" fill-opacity="0.9"/>
<path fill-rule="evenodd" clip-rule="evenodd" d="M113.764 20.8737C113.631 24.8324 109.916 27.2735 109.916 31.2322C110.049 31.3641 110.116 31.562 110.314 31.4301C113.299 28.1972 116.218 23.5787 120.596 22.2592C121.724 22.1932 122.785 23.1828 123.184 23.9087C124.709 26.9437 124.311 31.1662 122.255 33.8713C120.065 36.5764 116.284 39.2155 111.973 38.8196C110.182 43.1742 108.922 47.7926 108.258 52.543C107.86 53.4667 106.998 52.609 106.467 52.4771C102.753 49.574 105.804 41.8546 106.069 40.8649C106.334 39.8753 107.329 37.566 108.059 35.6527C106.334 32.5517 107.395 28.791 108.855 25.9539C109.983 24.0406 111.442 22.1272 113.233 20.6757C113.432 20.6097 113.631 20.6757 113.764 20.8737ZM121.127 25.756C120.596 25.69 120.331 26.4158 119.867 26.5478C117.743 28.923 115.687 31.2981 114.626 34.1352C116.02 34.3331 117.214 33.4094 118.474 32.8816C120.596 31.562 121.923 29.3848 121.79 26.8776C121.658 26.4818 121.326 26.1519 121.127 25.756Z" fill="#FFFFFF" fill-opacity="0.9"/>
</svg>
