<?xml version="1.0"?>
<svg xmlns="http://www.w3.org/2000/svg" width="125" height="55" viewBox="0 0 125 55" fill="none">
<g clip-path="url(#clip0_2097_59500)">
<path d="M98.6173 37.8266H98.6533C98.8709 37.7899 99.0163 37.7899 99.1612 37.7899C99.306 37.7899 99.4875 37.7899 99.705 37.8266H99.7411V37.7899C99.705 37.204 99.669 36.6914 99.669 36.252V35.1534C99.669 34.6774 99.705 34.2746 100.067 33.8718C100.249 33.6521 100.539 33.5423 100.865 33.5423C101.01 33.5423 101.228 33.5789 101.554 33.6521H101.627V33.5423C101.627 33.3958 101.591 33.2493 101.591 33.0662C101.591 32.9197 101.591 32.7733 101.627 32.5902V32.517H101.591C101.518 32.517 101.409 32.517 101.337 32.517C100.648 32.517 100.14 32.8465 99.7411 33.5789C99.7411 33.3225 99.7777 33.0296 99.8138 32.7V32.6268H99.7411C99.5962 32.6634 99.4147 32.6634 99.1972 32.6634C99.0163 32.6634 98.8348 32.6634 98.6533 32.6268H98.6173V32.6634C98.69 33.2859 98.69 33.8352 98.69 34.3844C98.69 36.1788 98.69 37.204 98.6173 37.7167V37.8266Z" fill="#FFFFFF" fill-opacity="0.9"/>
<path d="M72.3997 32.4067V34.8601C72.3997 35.7023 72.4364 36.3249 72.7987 36.9107C73.2699 37.643 74.104 37.9727 75.3372 37.9727C77.4406 37.9727 78.4917 36.9473 78.4917 34.97V33.1757C78.4917 32.0771 78.5283 31.235 78.6371 30.6124L78.9267 30.4659L78.6371 30.5392C78.4917 30.5758 78.3468 30.5758 78.1653 30.5758C77.9845 30.5758 77.8757 30.5758 77.6942 30.5392H77.6581V30.5758C77.7669 31.3082 77.7669 32.0771 77.7669 32.6997V34.4573C77.7669 35.5192 77.7302 36.1783 77.2224 36.691C76.824 37.0938 76.2434 37.2769 75.5187 37.2769C74.5391 37.2769 73.9953 36.9473 73.6689 36.1417C73.5602 35.8488 73.4881 35.2263 73.4881 34.2376V32.3701C73.4881 32.0039 73.5241 31.4546 73.5968 30.5392V30.5026H73.5602C73.3787 30.5392 73.1611 30.5392 72.9436 30.5392C72.726 30.5392 72.5085 30.5392 72.3276 30.5026H72.2909V30.5392C72.3636 31.1617 72.3997 31.7476 72.3997 32.4067Z" fill="#FFFFFF" fill-opacity="0.9"/>
<path d="M86.4694 31.5646C86.8318 31.5646 87.086 31.3082 87.086 30.9787C87.086 30.5759 86.8318 30.3196 86.4334 30.3196C86.0704 30.3196 85.8168 30.5759 85.8168 30.9421C85.7807 31.3449 86.0704 31.5646 86.4694 31.5646Z" fill="#FFFFFF" fill-opacity="0.9"/>
<path d="M86.9773 32.6998H86.9406C86.7958 32.7364 86.6143 32.7364 86.3968 32.7364C86.2159 32.7364 86.0344 32.7364 85.8896 32.6998H85.8529V32.7364C85.9256 33.3223 85.9256 33.9448 85.9256 34.7138C85.9256 36.2151 85.8896 37.1672 85.8529 37.753V37.7897H85.8896C86.1071 37.753 86.2519 37.753 86.3968 37.753C86.5422 37.753 86.7231 37.753 86.9406 37.7897V37.753H86.9773V37.7164C86.9406 36.984 86.9046 35.9588 86.9046 34.5673C86.9046 33.9814 86.9046 33.3589 86.9773 32.6998Z" fill="#FFFFFF" fill-opacity="0.9"/>
<path d="M89.7693 37.8263V37.8629H89.8053C89.9141 37.8263 90.0229 37.7897 90.1683 37.7897C90.2771 37.7897 90.4219 37.8263 90.5307 37.8629H90.5668V37.8263C91.2921 35.8123 92.0175 34.2011 92.7789 32.773L92.7429 32.6998C92.5974 32.7364 92.4526 32.7364 92.3078 32.7364C92.1623 32.7364 92.0175 32.7364 91.8727 32.6998H91.836V32.7364C91.6184 33.4688 91.4736 33.9448 91.2921 34.4208L90.458 36.6911L89.6966 34.7138C89.479 34.1279 89.2615 33.4321 89.0439 32.773V32.7364H89.0079C88.8264 32.773 88.6449 32.773 88.3913 32.773C88.1737 32.773 87.9562 32.773 87.7386 32.7364H87.6659L87.7026 32.8097C88.8264 35.1898 89.5518 36.9475 89.7693 37.8263Z" fill="#FFFFFF" fill-opacity="0.9"/>
<path d="M107.574 31.5646C107.936 31.5646 108.19 31.3082 108.19 30.9787C108.19 30.5759 107.936 30.3196 107.537 30.3196C107.175 30.3196 106.921 30.5759 106.921 30.9421C106.885 31.3083 107.175 31.5646 107.574 31.5646Z" fill="#FFFFFF" fill-opacity="0.9"/>
<path d="M103.694 37.9731C105 37.9731 105.797 37.314 105.797 36.2154C105.797 35.3732 105.326 35.0437 104.346 34.7507L104.165 34.7141C103.476 34.4944 103.114 34.3845 103.114 33.9085C103.114 33.4325 103.476 33.1029 104.057 33.1029C104.637 33.1029 104.963 33.3592 105.072 33.9085V33.9451H105.217V33.9085C105.253 33.762 105.326 33.6156 105.362 33.4325C105.398 33.286 105.471 33.1395 105.507 32.993V32.9564H105.471C104.963 32.7367 104.528 32.6269 104.093 32.6269C102.932 32.6269 102.171 33.286 102.171 34.3113C102.171 35.1169 102.715 35.483 103.585 35.7394C103.658 35.776 103.73 35.776 103.802 35.8127C104.455 35.9957 104.818 36.1056 104.818 36.6548C104.818 37.2041 104.419 37.5337 103.73 37.5337C103.078 37.5337 102.715 37.2408 102.533 36.5816V36.545H102.388V36.5816C102.316 36.8379 102.243 37.0942 102.207 37.3506C102.171 37.4604 102.171 37.5337 102.135 37.6435V37.6801H102.171C102.642 37.8632 103.15 37.9731 103.694 37.9731Z" fill="#FFFFFF" fill-opacity="0.9"/>
<path d="M108.045 32.6998H108.009C107.864 32.7364 107.683 32.7364 107.465 32.7364C107.284 32.7364 107.102 32.7364 106.957 32.6998H106.921V32.7364C106.993 33.3223 106.993 33.9081 106.993 34.7138C106.993 36.2151 106.957 37.1672 106.921 37.753V37.7897H106.957C107.175 37.753 107.32 37.753 107.465 37.753C107.61 37.753 107.792 37.753 108.009 37.7897V37.753H108.045V37.7164C108.009 36.984 107.972 35.9588 107.972 34.5673C107.972 33.9814 107.972 33.3589 108.045 32.6998Z" fill="#FFFFFF" fill-opacity="0.9"/>
<path d="M55.0667 32.5898C53.4712 32.5898 52.4559 33.6517 52.4559 35.2995C52.4559 36.9839 53.4349 38.0092 55.0667 38.0092C56.6622 38.0092 57.6776 36.9473 57.6776 35.2995C57.6776 33.6151 56.6622 32.5898 55.0667 32.5898ZM56.5172 35.2995C56.5172 36.691 55.9732 37.5332 55.0667 37.5332C54.1601 37.5332 53.58 36.691 53.58 35.2995C53.58 33.908 54.1239 33.0659 55.0667 33.0659C56.0095 33.0659 56.5172 33.8714 56.5172 35.2995Z" fill="#FFFFFF" fill-opacity="0.9"/>
<path d="M62.9718 44.2708C63.2981 44.2708 63.842 44.344 64.4947 44.4538H64.5673V44.4172C64.531 44.3074 64.5311 44.1609 64.5311 44.0511C64.5311 43.9412 64.5673 43.7948 64.5673 43.6849V43.6483H64.5311C63.407 43.7215 62.5366 43.7215 61.8477 43.7215C61.3038 43.7215 60.4698 43.6849 59.1643 43.6483H59.128V43.6849C59.1643 43.7948 59.1643 43.9412 59.1643 44.0511C59.1643 44.1609 59.1643 44.2708 59.128 44.4172V44.4905H59.2006C59.9621 44.3806 60.4335 44.344 60.7236 44.344H61.3038C61.34 45.113 61.34 45.7721 61.34 46.3213C61.34 48.555 61.3038 49.9832 61.2312 50.9352V50.9719H61.2675C61.4851 50.9352 61.7026 50.9352 61.8839 50.9352C62.029 50.9352 62.2466 50.9352 62.5004 50.9719H62.5366V50.9352C62.4279 50.093 62.3916 48.2987 62.3916 45.5158C62.3916 45.2228 62.3916 44.8566 62.4279 44.344H62.9718V44.2708Z" fill="#FFFFFF" fill-opacity="0.9"/>
<path d="M84.6563 49.068V47.4934C84.6563 46.9442 84.6563 46.5414 84.33 46.1386C84.0397 45.809 83.5686 45.5893 83.0247 45.5893C82.2994 45.5893 81.6828 45.9189 81.2843 46.5414C81.2843 46.285 81.2843 46.0287 81.3204 45.7724V45.7358H81.2843C81.1389 45.7724 80.9941 45.7724 80.8126 45.7724C80.6311 45.7724 80.4863 45.7724 80.3048 45.7358H80.2687V45.7724C80.3414 46.3949 80.3414 47.0906 80.3414 47.7864C80.3414 49.2145 80.3414 50.1665 80.2687 50.8257V50.8623H80.3048C80.5223 50.8257 80.6678 50.8257 80.8126 50.8257C80.958 50.8257 81.1389 50.8257 81.3204 50.8623H81.3564V50.8257C81.3204 49.9468 81.3204 49.1412 81.3204 48.4089C81.3204 46.9808 81.7194 46.3583 82.5896 46.3583C82.952 46.3583 83.2423 46.4682 83.4598 46.7245C83.6774 46.9808 83.6774 47.4202 83.6774 47.9329V48.4821C83.6774 49.1046 83.6413 49.8736 83.6046 50.8623V50.8989H83.6413C84.0397 50.8257 84.2212 50.8257 84.6203 50.8989V50.9722L84.7651 50.8257H84.6924C84.6563 50.1299 84.6563 49.5807 84.6563 49.068Z" fill="#FFFFFF" fill-opacity="0.9"/>
<path d="M73.4881 45.9919C73.0163 45.7356 72.4725 45.6258 71.8559 45.6258C70.0793 45.6258 69.0639 46.6877 69.0639 48.4087C69.0639 49.9833 70.1155 51.0086 71.7111 51.0086C72.4364 51.0086 73.0163 50.8255 73.4154 50.5326L73.5242 49.8734L73.3793 49.8368V49.8734C73.053 50.2762 72.6173 50.496 72.0374 50.496C70.913 50.496 70.2243 49.6537 70.2243 48.2989C70.2243 46.9074 70.8409 46.1018 71.9286 46.1018C72.5812 46.1018 72.9803 46.4314 73.1618 47.0539V47.0905H73.3427V47.0539C73.3793 46.6877 73.4514 46.3948 73.5602 46.1384L73.7777 46.2483L73.4881 45.9919Z" fill="#FFFFFF" fill-opacity="0.9"/>
<path d="M81.1028 37.8262H81.1388V37.7895C81.1028 36.9107 81.1028 36.1051 81.1028 35.3727C81.1028 33.9447 81.5018 33.3222 82.372 33.3222C82.7344 33.3222 83.0247 33.432 83.2422 33.6883C83.4598 33.9447 83.4598 34.3841 83.4598 34.8967V35.446C83.4598 36.0685 83.4237 36.8375 83.387 37.8262V37.8628H83.4237C83.6413 37.8262 83.7861 37.8262 83.9309 37.8262C84.0764 37.8262 84.2212 37.8262 84.4027 37.8628V37.936L84.5475 37.7895H84.4748C84.4387 37.1304 84.4387 36.5811 84.4387 36.0685V34.494C84.4387 33.9447 84.4387 33.5419 84.1124 33.1391C83.8221 32.8095 83.351 32.5898 82.8071 32.5898C82.0818 32.5898 81.4652 32.9193 81.0661 33.5419C81.0661 33.2856 81.0661 33.0292 81.1028 32.7729V32.7363H81.0661C80.9213 32.7729 80.7765 32.7729 80.595 32.7729C80.4135 32.7729 80.2687 32.7729 80.0872 32.7363H80.0511V32.7729C80.1238 33.3954 80.1238 34.0911 80.1238 34.7869C80.1238 36.215 80.1238 37.167 80.0511 37.8262V37.8628H80.0872C80.3047 37.8262 80.4501 37.8262 80.595 37.8262C80.7398 37.7895 80.9213 37.7895 81.1028 37.8262Z" fill="#FFFFFF" fill-opacity="0.9"/>
<path d="M78.8548 49.4338V47.5297C78.8548 47.0536 78.8548 46.6142 78.4918 46.1748C78.2022 45.8086 77.7304 45.6255 77.2226 45.6255C76.4978 45.6255 75.9173 45.9185 75.4822 46.541V44.1608C75.4822 43.6481 75.4822 43.2454 75.5189 42.9524V42.9158H75.4822C75.3374 42.9524 75.1919 42.9524 74.9744 42.9524C74.7935 42.9524 74.612 42.9524 74.4672 42.9158H74.4305V42.9524C74.5032 43.6481 74.5032 44.4171 74.5032 45.0762V45.5889C74.5032 48.6648 74.5032 50.3126 74.4305 50.8985V50.9351H74.4672C74.6847 50.8985 74.8296 50.8985 74.9744 50.8985C75.1198 50.8985 75.3013 50.8985 75.4822 50.9351H75.5189V50.8985C75.4822 50.0197 75.4822 49.2141 75.4822 48.4817C75.4822 47.0536 75.8812 46.4311 76.7514 46.4311C77.1138 46.4311 77.4408 46.5776 77.6216 46.7973C77.8031 47.0536 77.8392 47.4564 77.8392 47.8958V48.5184C77.8392 49.1408 77.8031 49.9098 77.7671 50.8985V50.9351H77.8031C78.2022 50.8619 78.383 50.8619 78.7821 50.9351V50.9717L78.9636 50.8985L78.8548 50.8619C78.8548 50.276 78.8548 49.8365 78.8548 49.4338Z" fill="#FFFFFF" fill-opacity="0.9"/>
<path d="M66.3443 45.6258C64.8576 45.6258 63.8785 46.7243 63.8785 48.4087C63.8785 50.0565 64.8213 51.0452 66.4168 51.0452C67.1058 51.0452 67.7585 50.8621 68.2662 50.5326V50.496C68.3025 50.2396 68.3025 50.0565 68.3387 49.8734V49.8368L68.1211 49.8002V49.8368C67.7948 50.2762 67.2509 50.496 66.6344 50.496C65.5828 50.496 64.9664 49.727 64.9664 48.3721V48.2989C65.1477 48.2989 65.3653 48.2989 65.5466 48.2989C66.4531 48.2989 67.4684 48.2989 68.4838 48.3355H68.52V48.2989C68.52 48.189 68.52 48.0792 68.52 47.9693C68.5925 46.5046 67.7585 45.6258 66.3443 45.6258ZM67.5047 47.5299C67.5047 47.6032 67.5047 47.713 67.5047 47.7862H67.0696C66.4168 47.7862 65.9454 47.7862 65.5103 47.7862H65.0389C65.1114 46.6877 65.5828 46.1018 66.3443 46.1018C67.0696 46.1018 67.5047 46.6511 67.5047 47.5299Z" fill="#FFFFFF" fill-opacity="0.9"/>
<path d="M65.5103 37.7894C66.2355 37.7894 67.1784 37.8261 68.3387 37.8627H68.375V37.7894C68.3387 37.6796 68.3387 37.6064 68.3387 37.4965C68.3387 37.3867 68.375 37.2768 68.375 37.167V37.1304H68.3387C67.5772 37.2402 66.8883 37.2768 66.4168 37.2768H65.3653C66.3806 35.7023 67.3959 34.3108 68.4475 33.0292L68.4838 32.9559H68.4475V32.7362H68.4112C67.8673 32.7728 67.1421 32.8095 66.2718 32.8095C65.6191 32.8095 64.9301 32.8095 64.2411 32.7362H64.2049V32.7728C64.2412 32.8827 64.2411 32.9925 64.2411 33.1024C64.2411 33.2122 64.2412 33.3221 64.2049 33.4319V33.5052H64.2774C64.8576 33.3953 65.3652 33.3587 65.8729 33.3587H66.9245C66.0543 34.7136 65.0752 36.0684 63.8785 37.5698V37.8627H63.9148C64.4225 37.7894 64.9301 37.7894 65.5103 37.7894Z" fill="#FFFFFF" fill-opacity="0.9"/>
<path d="M50.2804 45.6258C48.6849 45.6258 47.6695 46.6877 47.6695 48.3355C47.6695 50.0199 48.6486 51.0452 50.2804 51.0452C51.8759 51.0452 52.8913 49.9833 52.8913 48.3355C52.8913 46.6511 51.8759 45.6258 50.2804 45.6258ZM51.7309 48.3355C51.7309 49.727 51.187 50.5692 50.2804 50.5692C49.3739 50.5692 48.7937 49.727 48.7937 48.3355C48.7937 46.944 49.3376 46.1018 50.2804 46.1018C51.2232 46.1018 51.7309 46.9074 51.7309 48.3355Z" fill="#FFFFFF" fill-opacity="0.9"/>
<path d="M56.0462 42.9158C55.6111 42.9158 55.1397 43.2088 54.7771 43.7214C54.3781 44.2707 54.1243 45.003 54.088 45.8086H53.9067C53.6529 45.8086 53.4353 45.8086 53.254 45.772H53.1815V45.8452C53.2178 45.9185 53.2178 45.9917 53.2178 46.0649C53.2178 46.1382 53.2178 46.2114 53.1815 46.3213V46.3945H53.254C53.4716 46.3579 53.7617 46.3213 54.0155 46.3213H54.088V48.3718C54.088 49.2873 54.088 50.1295 54.0155 50.8985V50.9351H54.0518C54.2694 50.8985 54.4144 50.8985 54.5957 50.8985C54.7408 50.8985 54.9221 50.8985 55.1397 50.9351H55.1759V50.8985C55.1397 50.0929 55.1034 49.1408 55.1034 48.0423V46.2846H55.2121C55.5023 46.2846 55.7924 46.3213 56.1912 46.3579H56.2638V46.2846C56.2275 46.2114 56.2275 46.1382 56.2275 46.0283C56.2275 45.9551 56.2275 45.8819 56.2638 45.8086V45.772H56.1912C55.9374 45.8086 55.6473 45.8086 55.321 45.8086H55.1034L54.9946 45.0762V45.003C54.9584 44.8565 54.9584 44.7101 54.9584 44.6002C54.9584 44.0875 55.2121 43.8312 55.6836 43.8312C55.8649 43.8312 56.1187 43.9045 56.3725 44.0143L56.4088 44.0509V44.0143C56.4451 43.6481 56.4813 43.3186 56.5539 43.0989V43.0623H56.4813C56.3363 42.9158 56.1912 42.9158 56.0462 42.9158Z" fill="#FFFFFF" fill-opacity="0.9"/>
<path d="M62.1739 37.0576C62.1739 37.2773 62.1376 37.5336 62.1014 37.8266V37.8632H62.1376C62.2827 37.8266 62.4278 37.8266 62.6453 37.8266C62.8266 37.8266 62.9716 37.8632 63.153 37.8632H63.1893V37.8266C63.153 36.9112 63.1167 35.2267 63.1167 32.81C63.1167 31.8579 63.1167 30.8692 63.1893 29.9172V29.8805H63.153C63.0079 29.9172 62.8266 29.9172 62.6453 29.9172C62.464 29.9172 62.2827 29.9172 62.1376 29.8805H62.1014V29.9172C62.1739 30.5396 62.1739 31.2353 62.1739 32.0043V33.3958C61.8113 32.8466 61.3036 32.5902 60.5421 32.5902C59.2367 32.5902 58.4027 33.6155 58.4027 35.2267C58.4027 36.9844 59.2004 37.973 60.5784 37.973C61.2311 37.973 61.775 37.6801 62.1739 37.0576ZM62.1739 35.2633C62.1739 36.5449 61.6662 37.314 60.796 37.314C59.9257 37.314 59.4543 36.5449 59.4543 35.2633C59.4543 33.9817 59.962 33.2127 60.796 33.2127C61.6662 33.1761 62.1739 33.9817 62.1739 35.2633Z" fill="#FFFFFF" fill-opacity="0.9"/>
<path d="M88.2097 45.6258C86.6148 45.6258 85.5992 46.6877 85.5992 48.3355C85.5992 50.0199 86.5781 51.0452 88.2097 51.0452C89.8053 51.0452 90.8209 49.9833 90.8209 48.3355C90.8209 46.6511 89.842 45.6258 88.2097 45.6258ZM89.6965 48.3355C89.6965 49.727 89.1526 50.5692 88.2464 50.5692C87.3395 50.5692 86.7596 49.727 86.7596 48.3355C86.7596 46.944 87.3035 46.1018 88.2464 46.1018C89.1893 46.1018 89.6965 46.9074 89.6965 48.3355Z" fill="#FFFFFF" fill-opacity="0.9"/>
<path d="M111.562 37.4235C110.873 37.4235 110.764 36.9841 110.764 36.0687V35.8124L110.801 33.2491H110.946C111.272 33.2491 111.599 33.2857 111.889 33.3223H111.925V33.2491C111.925 33.1759 111.925 33.1026 111.925 33.0294C111.925 32.9562 111.925 32.8829 111.925 32.8097V32.7365H111.889C111.562 32.7731 111.163 32.8097 110.801 32.8097V32.3337C110.801 32.0408 110.837 31.6379 110.91 31.1253V31.0521L110.837 31.0887C110.547 31.2718 110.221 31.4182 109.785 31.5647H109.749V31.6013C109.785 31.9675 109.785 32.2605 109.785 32.3703V32.7365C109.568 32.7365 109.278 32.6999 108.988 32.6632H108.915V32.7365C108.951 32.8097 108.951 32.8829 108.951 32.9928C108.951 33.066 108.951 33.1759 108.915 33.2491V33.3223H108.988C109.206 33.2857 109.459 33.2491 109.677 33.2491H109.785L109.749 34.7871C109.749 35.1166 109.749 35.4096 109.713 35.6659C109.713 35.9588 109.677 36.2152 109.677 36.4349C109.677 37.4968 110.112 37.9728 111.019 37.9728C111.345 37.9728 111.635 37.8996 111.962 37.7898L111.998 37.7531V37.3503H111.962C111.853 37.3869 111.671 37.4235 111.562 37.4235Z" fill="#FFFFFF" fill-opacity="0.9"/>
<path d="M109.786 45.7722C109.677 45.8088 109.568 45.8088 109.423 45.8088C109.278 45.8088 109.133 45.8088 109.024 45.7722H108.988V45.8088C108.698 46.7608 108.516 47.3101 108.371 47.6763L107.537 49.8001L106.631 47.5298C106.377 46.9073 106.196 46.358 106.051 45.8088V45.7722H106.014C105.833 45.8088 105.652 45.8088 105.398 45.8088C105.18 45.8088 104.963 45.8088 104.781 45.7722H104.709L104.745 45.8454C105.615 47.6763 106.341 49.4339 106.921 51.0817L105.543 53.828H105.615C105.797 53.7914 105.906 53.7914 106.014 53.7914C106.159 53.7914 106.268 53.7914 106.414 53.828H106.45V53.7914C106.849 52.5464 107.755 50.1297 109.822 45.882L110.149 45.8088L109.786 45.7722Z" fill="#FFFFFF" fill-opacity="0.9"/>
<path d="M48.2859 34.2377C48.2859 35.6292 48.2496 36.8009 48.1409 37.8262V37.8629H48.1771C48.9023 37.8263 49.5551 37.8262 50.2078 37.8262C50.8605 37.8262 51.5132 37.8263 52.1296 37.8629L52.1659 37.8262V37.7896C52.1296 37.6798 52.1296 37.5699 52.1296 37.46C52.1296 37.3502 52.1296 37.2037 52.1659 37.0939V37.0206H52.0933C51.4769 37.1305 50.933 37.2037 50.3528 37.2037H49.3375C49.3012 36.508 49.3012 35.3728 49.3012 33.4687C49.3012 32.6631 49.3012 31.6744 49.3737 30.6125V30.5759H49.3375C49.1562 30.6125 48.9749 30.6125 48.721 30.6125C48.5034 30.6125 48.2859 30.6125 48.1046 30.5759H48.0683V30.6125C48.2496 31.5646 48.2859 32.6997 48.2859 34.2377Z" fill="#FFFFFF" fill-opacity="0.9"/>
<path d="M104.02 45.7724C103.911 45.7724 103.839 45.7724 103.839 45.7724H103.331C103.187 45.7724 103.005 45.7358 102.824 45.6992C102.57 45.6626 102.28 45.5893 101.953 45.5893C100.757 45.5893 99.9588 46.3217 99.9588 47.3836C99.9588 48.1526 100.322 48.6652 100.938 48.8483C100.394 49.068 100.068 49.3976 100.068 49.8736C100.068 50.313 100.322 50.6059 100.83 50.7525C100.068 51.0454 99.6692 51.558 99.6692 52.2538C99.6692 53.1692 100.503 53.7551 101.845 53.7551C103.44 53.7551 104.637 52.8396 104.637 51.5946V51.558C104.637 50.4961 103.984 49.9835 102.752 49.9835H101.736C101.192 49.9835 100.938 49.837 100.938 49.5075C100.938 49.2145 101.119 49.0314 101.41 49.0314C101.446 49.0314 101.518 49.0314 101.591 49.0314C101.7 49.0314 101.881 49.068 102.062 49.068C103.259 49.068 104.129 48.3357 104.129 47.3103C104.129 46.871 103.984 46.5414 103.694 46.285C104.02 46.3216 104.31 46.3583 104.565 46.3949H104.601V45.7358H104.565C104.346 45.7358 104.166 45.7358 104.02 45.7724ZM102.062 53.279C101.156 53.279 100.575 52.8396 100.575 52.1073C100.575 51.2651 101.119 50.8623 102.207 50.8623C103.223 50.8623 103.767 51.2285 103.767 51.9242C103.73 52.7664 103.078 53.279 102.062 53.279ZM103.114 47.2371C103.114 48.1526 102.715 48.6652 102.062 48.6652C101.41 48.6652 101.047 48.1892 101.047 47.3836C101.047 46.578 101.446 46.0287 102.062 46.0287C102.715 46.0287 103.114 46.4682 103.114 47.2371Z" fill="#FFFFFF" fill-opacity="0.9"/>
<path d="M117.147 32.6998C117.038 32.7364 116.893 32.7364 116.784 32.7364C116.639 32.7364 116.494 32.7364 116.385 32.6998H116.349V32.7364C116.059 33.6884 115.877 34.2378 115.733 34.6039L114.898 36.7277L113.992 34.4575C113.738 33.8349 113.557 33.2857 113.412 32.7364V32.6998H113.376C113.194 32.7364 113.013 32.7364 112.759 32.7364C112.541 32.7364 112.324 32.7364 112.142 32.6998H112.07L112.106 32.773C112.977 34.6039 113.702 36.3616 114.282 38.0093L112.94 40.6825L112.904 40.7557H112.977C113.158 40.7191 113.267 40.7191 113.376 40.7191C113.52 40.7191 113.629 40.7191 113.775 40.7557H113.811V40.7191C114.21 39.4741 115.116 37.0573 117.183 32.8097L117.51 32.7364H117.147V32.6998Z" fill="#FFFFFF" fill-opacity="0.9"/>
<path d="M96.6227 45.6258C95.0272 45.6258 94.0122 46.6877 94.0122 48.3355C94.0122 50.0199 94.9911 51.0452 96.6227 51.0452C98.2183 51.0452 99.2333 49.9833 99.2333 48.3355C99.2333 46.6511 98.2183 45.6258 96.6227 45.6258ZM98.0735 48.3355C98.0735 49.727 97.5296 50.5692 96.6227 50.5692C95.7165 50.5692 95.1359 49.727 95.1359 48.3355C95.1359 46.944 95.6798 46.1018 96.6227 46.1018C97.5656 46.1018 98.0735 46.9074 98.0735 48.3355Z" fill="#FFFFFF" fill-opacity="0.9"/>
<path d="M92.9603 42.9524V42.9158H92.9243C92.7428 42.9524 92.5973 42.9524 92.4164 42.9524C92.2349 42.9524 92.0534 42.9524 91.9086 42.9158H91.8726V42.9524C91.9447 43.5017 91.9447 44.1242 91.9447 44.6368V45.5523C91.9447 46.5043 91.9447 47.3832 91.9447 48.1521C91.9447 48.8113 91.9447 49.3971 91.9447 49.9464C91.9447 50.0197 91.9447 50.3126 91.9086 50.8619V50.8985H91.9447C92.1622 50.8619 92.3077 50.8619 92.4525 50.8619C92.5973 50.8619 92.7428 50.8619 92.9603 50.8985H92.9964V50.8619C92.9603 50.276 92.9243 48.555 92.9243 45.4424V44.9298C92.8876 44.1608 92.9243 43.5383 92.9603 42.9524Z" fill="#FFFFFF" fill-opacity="0.9"/>
<path d="M97.4568 37.4966C97.4928 37.2037 97.5295 37.0205 97.5656 36.8375V36.8008L97.348 36.7642V36.8008C97.0217 37.2403 96.4778 37.46 95.8612 37.46C94.8095 37.46 94.1929 36.691 94.1929 35.3361V35.2629C94.3744 35.2629 94.592 35.2629 94.7735 35.2629C95.6797 35.2629 96.6954 35.2629 97.7104 35.2995H97.747V35.2629C97.747 35.1531 97.747 35.0432 97.747 34.9334C97.747 33.4686 96.9129 32.5898 95.4989 32.5898C94.0121 32.5898 93.0331 33.6883 93.0331 35.3727C93.0331 37.0205 93.9754 38.0092 95.571 38.0092C96.2963 37.9726 96.9129 37.7895 97.4568 37.4966ZM94.1929 34.7503C94.2657 33.6517 94.7368 33.0659 95.4989 33.0659C96.2236 33.0659 96.6587 33.6151 96.6587 34.4573C96.6587 34.5306 96.6587 34.6404 96.6587 34.7137H96.1515C95.5349 34.7137 95.0638 34.7137 94.6647 34.7137H94.1929V34.7503Z" fill="#FFFFFF" fill-opacity="0.9"/>
<path d="M18.0799 29.9534C17.3909 30.6492 16.8469 31.4181 16.4118 32.297C16.8107 32.7364 17.0282 33.3223 17.0282 33.9814C17.0282 35.1166 16.4843 35.9588 15.4328 36.2884C15.4328 36.325 15.4328 36.3616 15.4328 36.3982C15.4328 37.6432 15.6866 38.815 16.1218 39.8769C16.5932 40.9754 17.2459 42.0007 18.0799 42.843C18.9139 43.6852 19.893 44.3443 21.0171 44.8203C21.7423 45.1132 22.5038 45.3329 23.3378 45.4428L23.2653 42.6598H20.5094C20.038 42.6598 19.6391 42.4768 19.349 42.1838C19.0589 41.8909 18.8777 41.4515 18.8777 41.012V30.3563H22.9027L22.8302 27.4269C22.2137 27.5367 21.5972 27.7198 21.0171 27.9761C19.893 28.4155 18.9139 29.1113 18.0799 29.9534Z" fill="#FFFFFF" fill-opacity="0.9"/>
<path d="M14.0186 36.8743C14.0186 36.7278 14.0186 36.5814 14.0186 36.4349H13.4021V37.2405L14.0549 37.2039C14.0549 37.094 14.0549 36.9841 14.0186 36.8743Z" fill="#FFFFFF" fill-opacity="0.9"/>
<path d="M33.4548 36.032C33.4185 34.9335 33.1647 33.8716 32.7657 32.8829C32.2944 31.7844 31.6417 30.7591 30.8076 29.9168C29.9736 29.0746 28.9945 28.4155 27.8704 27.9395C27.3627 27.7198 26.8189 27.5733 26.2749 27.4269L26.2024 30.3197H30.2999V41.012C30.2999 41.4515 30.1186 41.8543 29.8285 42.1472C29.5385 42.4401 29.1396 42.6232 28.7044 42.6232H25.876L25.8035 45.3696C26.4925 45.2597 27.1815 45.0766 27.8342 44.7837C28.922 44.3077 29.9374 43.6485 30.7714 42.8064C31.4966 42.074 32.0768 41.2317 32.512 40.2797V40.06C32.5482 40.06 32.5844 40.06 32.6207 40.06C32.657 39.9868 32.6933 39.9136 32.7295 39.8403C33.1284 38.8882 33.346 37.8263 33.4185 36.7278L32.2944 37.7165V37.0207L33.4548 36.032Z" fill="#FFFFFF" fill-opacity="0.9"/>
<path d="M35.1227 39.1445L35.7755 39.3276L36.2468 37.5334L35.1227 37.2038V38.8149C35.1227 38.9248 35.1227 39.0347 35.1227 39.1445Z" fill="#FFFFFF" fill-opacity="0.9"/>
<path d="M20.9083 45.0032C19.7842 44.5272 18.7689 43.8314 17.8986 42.9893C17.0646 42.147 16.3756 41.0851 15.9042 39.9499C15.4328 38.8514 15.2152 37.643 15.2152 36.398V36.3614C14.9614 36.4346 14.6713 36.4713 14.345 36.4713H14.1637C14.1637 36.5811 14.1637 36.691 14.1637 36.8374C14.1637 36.9839 14.1637 37.1304 14.1999 37.2769V37.3867H14.0911L13.4021 37.3501V38.8881C13.4021 38.9979 13.4021 39.1077 13.4021 39.181L14.4537 39.1077H14.5263L14.5625 39.181C14.6351 39.4373 14.7076 39.6936 14.8164 39.9133C14.9251 40.1697 14.9977 40.3894 15.1064 40.6457L15.1427 40.7189L15.0702 40.7555L14.1637 41.2682L15.0339 42.916L16.013 42.3667L16.0855 42.3301L16.1218 42.4033C16.2668 42.623 16.4482 42.8428 16.6295 43.0259C16.8108 43.2456 16.992 43.4287 17.1733 43.6117L17.2459 43.685L16.3756 44.5638L17.681 45.8821L18.6601 44.8934L18.7326 44.93C18.9502 45.0764 19.1677 45.2229 19.3854 45.3328C19.6029 45.4426 19.8568 45.5891 20.0743 45.699L20.1468 45.7356L20.1105 45.8088L19.7117 46.9439L21.4522 47.5665L21.8511 46.4313L21.8874 46.3581L21.9599 46.3947C22.3588 46.5045 22.7577 46.5778 23.1928 46.6144C23.229 46.6144 23.2653 46.6144 23.3379 46.6144L23.3016 45.5891C22.4676 45.5158 21.6698 45.2961 20.9083 45.0032Z" fill="#FFFFFF" fill-opacity="0.9"/>
<path d="M33.4912 38.8516V38.1925C33.3824 38.7784 33.2011 39.3643 32.9836 39.9135C32.9836 39.9502 32.9473 39.9868 32.9473 40.0234C33.3462 39.9135 33.4912 39.584 33.4912 38.8516Z" fill="#FFFFFF" fill-opacity="0.9"/>
<path d="M14.4174 33.5051C14.49 33.2488 14.5625 32.9924 14.6713 32.7361C14.7076 32.6262 14.7438 32.5164 14.8164 32.4065C14.6351 32.1502 14.345 32.0038 13.946 32.0038C13.511 32.0038 13.4021 32.1868 13.4021 32.6628V33.3952L14.4174 33.5051Z" fill="#FFFFFF" fill-opacity="0.9"/>
<path d="M6.875 55H41.5412V0H6.875V55ZM25.8399 17.6498C28.9947 18.016 31.9681 18.6385 33.6724 17.6132L33.1285 18.8216C31.8593 19.0047 30.3363 18.9315 28.8858 18.8948C26.7827 18.8216 24.7883 18.7484 23.7004 19.4075C22.6489 20.0299 22.4313 21.3116 23.7367 23.765H21.9599C18.5875 18.6751 22.1774 17.2104 25.8399 17.6498ZM30.3726 20.6891C29.8287 20.6891 29.2485 20.6891 28.7408 20.7257C27.2903 20.8722 26.1299 21.4947 26.2388 23.7284H25.6223C25.0058 21.6778 25.5861 20.7989 26.6739 20.3962C27.6167 20.0666 28.9221 20.1032 30.155 20.1032C31.0253 20.1399 31.8956 20.1399 32.5846 20.0299L32.3307 20.5426C31.7506 20.6891 31.0616 20.6891 30.3726 20.6891ZM32.1494 20.9454L31.823 21.6046C30.2638 22.4467 28.0881 20.9088 27.1453 23.765H26.5289C26.4201 21.751 27.4717 21.2383 28.7771 21.0919C29.2848 21.0553 29.8287 21.0553 30.4089 21.0553C30.989 21.0186 31.6055 21.0186 32.1494 20.9454ZM30.1188 19.8102C28.8496 19.7736 27.5079 19.7736 26.5289 20.1032C25.2959 20.5426 24.607 21.5313 25.2597 23.7284H24.1356C22.8302 21.3848 22.9752 20.2131 23.8817 19.6638C24.8971 19.0413 26.8189 19.1145 28.8858 19.1878C30.2638 19.2244 31.7143 19.2976 32.9834 19.1512L32.6933 19.737C32.0043 19.8469 31.0616 19.8469 30.1188 19.8102ZM10.755 40.1332C11.5165 40.0966 11.6978 39.8036 11.6978 38.8882V33.0293C11.6978 32.1871 11.4802 31.8942 10.755 31.8575V31.528H13.8735C13.946 31.528 14.0186 31.528 14.0911 31.528L13.946 31.4548L13.9823 31.3815L14.9251 29.5872L14.9614 29.514L15.0339 29.5506L16.1218 30.1365C16.2668 29.9534 16.4118 29.7703 16.5569 29.5872C16.7019 29.4041 16.8469 29.2211 17.0283 29.0746L16.3393 28.1591L16.3031 28.0859L16.3755 28.0493L17.9711 26.8043L18.0436 26.7676L18.0799 26.8409L18.7326 27.6831C18.9139 27.5733 19.1314 27.4268 19.3491 27.3169C19.5666 27.2071 19.7479 27.0972 19.9655 26.9873L19.6391 25.8522L19.6028 25.7423L19.7117 25.7057L20.7995 25.3762V24.1678H28.3057V25.01L29.5748 25.6691L29.6474 25.7057L29.6111 25.779L29.0671 26.8409C29.2848 26.9507 29.5386 27.0972 29.7561 27.2071C29.9737 27.3536 30.2275 27.5 30.4089 27.6465L31.2792 26.6578L31.3516 26.5846L31.4242 26.6578L32.9109 28.0493L32.9834 28.1225L32.9109 28.1957L32.0769 29.1478C32.222 29.3309 32.367 29.4774 32.512 29.6604C32.6571 29.8435 32.8021 30.0267 32.9472 30.2098L34.2526 29.5506L35.1954 31.4548V31.4914H36.1382V31.8575C35.2679 31.8942 35.0866 32.1139 35.0866 33.0293V33.4321L36.0294 33.3223H36.1382V33.4321L36.2107 33.9813L36.7909 33.4687V34.201L36.2833 34.6771L36.3558 35.4827V35.5925H36.247L35.0866 35.7024L35.0503 35.7391V37.1672L36.3195 37.4967L36.4283 37.5333L36.392 37.6432L35.8481 39.6205L35.8119 39.7304L35.7031 39.6937L35.0503 39.5107C35.1229 39.8768 35.3042 39.9501 35.8119 39.9501C37.226 39.9501 37.9513 39.4008 38.4952 37.4601H38.7853L38.3864 40.4994H34.1438C34.1075 40.6092 34.0713 40.6824 33.9988 40.7923L35.1229 41.3782L35.1954 41.4148L34.2163 43.3922L34.1438 43.3555L32.8747 42.733C32.7659 42.9161 32.6208 43.0992 32.4757 43.2457C32.3307 43.4288 32.1857 43.5752 32.0406 43.7217L32.8747 44.747L32.9472 44.8203L32.8747 44.8935L31.3154 46.1751L31.2429 46.2484L31.1703 46.1385L30.3726 45.1498C30.1913 45.2597 30.01 45.4061 29.7924 45.516C29.5748 45.6259 29.3935 45.7357 29.176 45.8456L29.5386 47.1272L29.5748 47.2371L29.4661 47.2737L27.5079 47.8595L27.3991 47.8961L27.3629 47.7863L27.0365 46.6878C26.6376 46.7976 26.2025 46.8708 25.7674 46.9441L25.6948 50.3862V50.4228L25.6585 50.4594C25.5498 50.6791 25.441 50.8988 25.3685 51.0453C25.0058 51.741 24.8245 52.1072 24.5345 52.1072C24.1718 52.1072 23.9543 51.6312 23.4829 50.5693C23.4466 50.5326 23.4466 50.496 23.4466 50.4594L23.4104 50.4228V50.3862L23.3016 46.9807C23.229 46.9807 23.1928 46.9807 23.1203 46.9807C22.7213 46.9441 22.3225 46.8708 21.9236 46.761L21.5247 47.8961L21.4885 47.9694L21.4159 47.9328L19.4941 47.2737L19.4215 47.2371L19.4578 47.1638L19.8567 46.0287C19.6391 45.9188 19.4578 45.809 19.2403 45.6991C19.0227 45.5893 18.8414 45.4427 18.6238 45.3329L17.5722 46.3948L17.4997 46.3216L16.0855 44.8569L16.0129 44.7836L16.8832 43.9048C16.7019 43.7217 16.5569 43.5386 16.4118 43.3555C16.2668 43.1725 16.1218 42.9894 15.9405 42.7697L14.9614 43.3189L14.8888 43.3555L14.8526 43.2823L13.8735 41.4881L13.8373 41.4148L13.9098 41.3782L14.8163 40.8655C14.7075 40.6458 14.635 40.4261 14.5625 40.2064C14.49 39.9867 14.4174 39.7304 14.3449 39.5107L13.3296 39.5839C13.4021 40.0233 13.656 40.2064 14.2361 40.243V40.5726H10.6462V40.1332H10.755Z" fill="#FFFFFF" fill-opacity="0.9"/>
<path d="M16.2666 32.1138C16.7017 31.2716 17.2819 30.466 17.9346 29.8068C18.7686 28.9647 19.8202 28.2689 20.9443 27.7929C21.4157 27.6098 21.8871 27.4267 22.3948 27.3168H20.763V25.4493L19.7839 25.7423L20.1103 26.8408L20.1466 26.914L20.0741 26.9507C19.8565 27.0605 19.6027 27.1704 19.3851 27.3168C19.1675 27.4267 18.9499 27.5732 18.7324 27.7197L18.6598 27.7563L18.6236 27.683L18.0071 26.8408L16.5567 27.976L17.2457 28.8914L17.2819 28.9647L17.2457 29.0379C17.0643 29.221 16.883 29.4041 16.738 29.5871C16.5567 29.7702 16.4116 29.9899 16.2666 30.1731L16.2303 30.2463L16.1578 30.2097L14.9974 29.6604L14.1271 31.3082L14.5623 31.5279C15.0337 31.5645 15.4689 31.6378 15.8677 31.8209C16.0127 31.9307 16.1216 32.0039 16.2666 32.1138Z" fill="#FFFFFF" fill-opacity="0.9"/>
<path d="M36.2107 35.2628L36.1381 34.7501L35.4854 35.336L36.2107 35.2628Z" fill="#FFFFFF" fill-opacity="0.9"/>
<path d="M36.1018 34.0913L36.0293 33.4322L35.1227 33.5055V34.9702L36.1018 34.0913Z" fill="#FFFFFF" fill-opacity="0.9"/>
<path d="M28.3056 27.3171H26.4925C27.0002 27.4269 27.5078 27.5734 27.9792 27.7931C29.1033 28.2691 30.1187 28.9649 30.9889 29.8071C31.8229 30.6493 32.5119 31.7112 32.9833 32.8464C33.2009 33.3956 33.3822 33.9816 33.491 34.5674V33.0295C33.491 32.1872 33.2734 31.8943 32.6207 31.8577V31.5281H34.8689L35.0865 31.4183L34.2887 29.7705L33.0921 30.3564L32.9471 30.393L32.9108 30.3198C32.7658 30.1001 32.6207 29.917 32.4394 29.6972C32.2943 29.5141 32.113 29.3311 31.9317 29.148L31.8955 29.0747L31.968 29.0015L32.802 28.086L31.4241 26.841L30.5538 27.8297L30.5175 27.903L30.445 27.8297C30.2274 27.6466 29.9736 27.5002 29.7197 27.3537C29.466 27.2072 29.2121 27.0608 28.9583 26.9509L28.8857 26.9143L28.922 26.841L29.466 25.7792L28.3056 25.1566V27.3171Z" fill="#FFFFFF" fill-opacity="0.9"/>
<path d="M33.926 40.4257H32.7657C32.3305 41.3778 31.7141 42.22 30.9888 42.9523C30.1548 43.7946 29.1032 44.4903 27.9791 44.9663C27.3264 45.2593 26.6012 45.4424 25.876 45.5522L25.8397 46.5775C26.3111 46.5043 26.71 46.4311 27.1451 46.3212L27.2176 46.2846L27.2539 46.3578L27.5802 47.4564L29.3571 46.9437L28.9945 45.6987L28.9582 45.6254L29.0307 45.5888C29.2483 45.479 29.4659 45.3691 29.6834 45.2227C29.901 45.0762 30.1186 44.9663 30.2999 44.8199L30.3724 44.7833L30.4087 44.8565L31.2064 45.8451L32.6206 44.6734L31.7866 43.6481L31.7504 43.5749L31.8228 43.5016C32.0041 43.3185 32.1492 43.1354 32.2942 42.9523C32.4393 42.7692 32.5844 42.5862 32.7294 42.3665L32.7657 42.2932L34.0711 42.9523L34.9051 41.3045L33.781 40.7187L33.7085 40.6821L33.7447 40.6088C33.8535 40.5722 33.8898 40.499 33.926 40.4257Z" fill="#FFFFFF" fill-opacity="0.9"/>
<path d="M14.0549 35.9219C14.0549 35.8486 14.0549 35.7754 14.0549 35.7022L13.4021 35.6289V35.9585H13.6923C13.8373 35.9585 13.946 35.9585 14.0549 35.9219Z" fill="#FFFFFF" fill-opacity="0.9"/>
<path d="M14.5263 33.5789L14.49 33.6521H14.4174L13.4021 33.5057V35.3731L14.0911 35.483H14.1637V35.5562C14.1637 35.6661 14.1637 35.7759 14.1637 35.8858C14.8526 35.7393 15.1427 35.1535 15.1427 33.9817C15.1427 33.3226 15.0702 32.8099 14.8889 32.517C14.8526 32.5902 14.8526 32.6634 14.8164 32.7366C14.7076 33.0296 14.5988 33.2859 14.5263 33.5789Z" fill="#FFFFFF" fill-opacity="0.9"/>
<path d="M25.7312 30.3196L25.8037 27.3169H23.3016L23.3741 30.3196H25.7312Z" fill="#FFFFFF" fill-opacity="0.9"/>
<path d="M25.4408 42.6966C25.2233 42.7698 24.9694 42.9529 24.7518 43.4289L24.4617 44.0514L24.2804 43.3923C24.1716 42.9895 23.9541 42.8064 23.7365 42.7332L23.9541 50.3131C23.9541 50.3497 23.9903 50.3497 23.9903 50.3863C24.353 51.2285 24.5343 51.6313 24.5705 51.6313C24.5705 51.6313 24.7156 51.3384 24.9694 50.8258C25.042 50.6792 25.1507 50.4595 25.2595 50.2764L25.4408 42.6966Z" fill="#FFFFFF" fill-opacity="0.9"/>
<path d="M21.271 26.8042H27.7981V24.6804H21.271V26.8042Z" fill="#FFFFFF" fill-opacity="0.9"/>
<path d="M24.5708 42.7698C25.0059 42.1473 25.5136 42.1473 25.84 42.1473C25.8762 42.1473 25.8762 42.1473 25.8762 42.1473H28.7409C29.0672 42.1473 29.3573 42.0375 29.5386 41.8178C29.7562 41.5981 29.865 41.3051 29.865 41.0121V30.7958H19.3128V40.9389C19.3128 41.2685 19.4579 41.5614 19.6755 41.7811C19.893 42.0008 20.1831 42.1473 20.5095 42.1473H23.3016C23.5555 42.1473 24.1719 42.1473 24.5708 42.7698ZM23.2291 38.5588L23.1928 38.6686L23.0115 39.0348C23.1203 39.1813 23.1928 39.3643 23.1203 39.5474L22.3588 41.1587L21.4885 40.7192L22.2137 39.1446C22.2863 38.9616 22.5401 38.9249 22.7214 38.9249L22.8302 38.6686L22.9028 38.5588H22.4676C21.416 38.0827 20.727 36.8011 20.1831 35.0434H20.8358L21.1259 35.4462H21.8511L22.6126 36.618H23.773L25.4048 33.2126L25.2597 33.1393L25.4048 32.883L26.0213 33.1759L25.9124 33.3956L25.7311 33.3224L24.1356 36.618H26.4201L27.1454 35.4462H27.9431L28.2695 34.6407H28.7772C28.4508 36.6912 27.9068 37.9729 27.0366 38.5588H23.2291Z" fill="#FFFFFF" fill-opacity="0.9"/>
</g>
<defs>
<clipPath id="clip0_2097_59500">
<rect width="125" height="55" fill="white"/>
</clipPath>
</defs>
</svg>
