<?xml version="1.0"?>
<svg xmlns="http://www.w3.org/2000/svg" width="125" height="55" viewBox="0 0 125 55" fill="none">
<g clip-path="url(#clip0_2097_59597)">
<path d="M0.0696379 36.0337L0.174095 26.768L2.95961 26.526C8.66992 26.042 13.8579 24.1059 20.6128 19.9917C25 17.3295 26.0446 16.9147 28.273 16.9147C30.4666 16.9147 32.3468 17.7098 34.4011 19.5077L35.8635 20.7869V45.2647H0L0.0696379 36.0337Z" fill="#FFFFFF" fill-opacity="0.9"/>
<path d="M50.1393 20.0608L41.6086 19.8534V14.3217H64.9373V19.8534L56.4067 20.0608V42.1532H50.1393V20.0608Z" fill="#FFFFFF" fill-opacity="0.9"/>
<path d="M66.5738 28.2547L66.6783 14.3217L69.9861 14.2179C71.7967 14.1834 73.468 14.2525 73.6769 14.3908C73.8858 14.5637 75.8008 16.9492 77.9596 19.7497C80.1184 22.5847 81.929 24.8665 81.9638 24.8665C82.0334 24.8665 83.9137 22.4464 86.1769 19.5077L90.2855 14.1142L97.319 14.3217L97.4234 28.2547L97.493 42.1531H90.8774V23.0341L86.6295 28.3584C84.2618 31.2626 82.1727 33.7173 81.929 33.7864C81.4415 33.9247 81.1281 33.579 76.532 27.6324L72.9457 22.965L72.8412 32.5764L72.7716 42.1531H66.5042L66.5738 28.2547Z" fill="#FFFFFF" fill-opacity="0.9"/>
<path d="M99.9304 14.0796L108.043 14.2179C115.634 14.3217 116.226 14.3908 117.967 15.1514C120.16 16.1195 122.598 18.6779 123.189 20.6486C123.781 22.5501 123.712 26.042 123.05 27.5632C122.354 29.2919 120.996 30.6402 118.976 31.6429L117.305 32.5072L119.499 35.1002C120.717 36.5523 122.423 38.6267 123.329 39.6984C124.234 40.7702 125 41.7383 125 41.9111C125 42.0494 123.398 42.1531 121.448 42.1531L117.862 42.1186L114.38 37.6586L110.898 33.1641H106.198V42.1531H99.9304V14.0796ZM116.156 26.4569C117.584 25.0394 117.758 23.2761 116.643 21.4783C115.703 19.9225 114.798 19.6805 110.167 19.6805H106.198V27.6324H114.972L116.156 26.4569Z" fill="#FFFFFF" fill-opacity="0.9"/>
<path d="M0 10H35.8635V20.13L34.8538 18.747C33.461 16.8455 32.0682 15.912 29.8746 15.4626C27.0891 14.8748 25.1741 15.3243 21.8663 17.3295C15.1811 21.4092 11.8733 23.207 9.29666 24.175C6.58078 25.2468 2.40251 26.2494 0.835654 26.2494H0V10Z" fill="#FFFFFF" fill-opacity="0.9"/>
</g>
<defs>
<clipPath id="clip0_2097_59597">
<rect width="125" height="55" fill="white"/>
</clipPath>
</defs>
</svg>
