<?xml version="1.0"?>
<svg xmlns="http://www.w3.org/2000/svg" width="125" height="55" viewBox="0 0 125 55" fill="none">
<path d="M82.0189 9.52325C77.9612 4.1454 71.0426 0.0672227 62.779 0C54.5382 0 47.6652 3.99975 43.3682 9.35515C39.9145 14.0943 37.5779 19.0912 38.8431 28.2783C41.5331 30.2278 43.7785 31.8971 46.685 33.9138L47.802 42.6528H59.485C60.2828 43.2354 61.2631 43.7508 62.7904 43.7956C64.3747 43.7508 65.3663 43.2354 66.0844 42.6528H77.87L78.9756 33.9138L86.3957 28.5472C87.8774 20.9847 85.8372 14.5985 82.0189 9.52325ZM82.509 26.004L74.462 31.8971L73.573 38.4962H64.6597C64.4089 39.0116 63.8162 39.6277 62.8018 39.6726C61.7418 39.6277 61.5366 39.2356 60.8983 38.4962L51.9509 38.429L51.096 31.8411L42.9578 25.9143C42.6843 24.9845 42.4335 23.4495 42.5931 22.1499C42.7071 20.8054 42.9578 20.1332 43.3796 19.3265C47.5285 23.315 52.7145 28.4352 56.8976 32.4014C52.8627 27.6173 48.087 21.8586 44.0976 17.0634C44.2344 15.9766 44.5194 14.8562 45.1348 13.9039C45.8415 12.7275 46.3773 12.2793 47.0839 11.6743C50.7313 17.5675 55.1651 25.3542 58.8011 31.281C55.6552 24.7716 51.9053 16.4136 48.7822 9.8593C49.4889 8.78377 49.9562 8.34685 50.7199 7.74181C51.4722 7.14801 52.4752 6.57662 53.4896 6.37495C55.6552 13.8143 58.5731 23.1806 60.7273 30.6424C59.1431 22.9678 57.2623 13.1084 55.6552 5.36662C56.5215 4.87364 57.2852 4.60476 58.3337 4.29105C59.371 4.12299 60.602 4.05577 61.4911 4.26864C62.004 12.3353 62.1749 22.3852 62.7904 30.5303C63.4173 22.4188 63.4401 12.3914 64.0556 4.26864C64.9447 4.12299 66.0844 4.1454 67.247 4.36948C68.2615 4.64957 69.0251 4.94087 69.7888 5.47865C68.2501 13.1981 66.3466 22.979 64.8192 30.6647C67.0191 23.259 69.7888 13.8143 72.057 6.39736C73.0486 6.62143 74.0631 7.19283 74.8838 7.79783C75.5676 8.35799 76.0691 8.87343 76.7644 9.91531C73.5957 16.4024 69.9256 24.7603 66.7 31.2922C70.3359 25.4102 74.804 17.5451 78.4969 11.6855C79.1808 12.3241 79.6253 12.7611 80.3776 13.9487C81.0159 14.901 81.278 15.999 81.4832 17.0858C77.4369 21.9146 72.7067 27.707 68.6604 32.4462C72.8207 28.48 78.0068 23.3487 82.1785 19.3938C82.5204 20.1332 82.7939 20.8279 82.9307 22.2171C83.0105 23.5392 82.8281 25.018 82.509 26.004Z" fill="#FFFFFF" fill-opacity="0.9"/>
<path d="M38.125 51.9862C39.5156 51.9862 40.8947 51.9862 42.2853 51.9862C42.2397 52.8937 42.6842 53.1066 42.9008 53.2523C43.1401 53.3419 44.884 53.4203 45.7275 53.2747C46.0694 53.2074 46.4 53.0842 46.4 52.0422C46.4 51.6053 46.286 51.1124 45.7731 51.0115C43.938 50.8658 42.1485 51.0563 40.3362 50.877C38.4897 50.4849 38.2276 50.0144 38.125 48.5915C38.2504 46.6196 38.9457 46.0706 40.9973 45.9923C43.1401 45.9362 45.2716 45.9362 47.3916 45.9923C49.58 45.9923 50.2411 46.8101 50.2411 48.6139H46.4C46.4 47.74 46.229 47.3927 45.7731 47.3479C44.8498 47.2807 43.9266 47.2807 42.9692 47.3479C42.6272 47.3479 42.1713 47.5272 42.1713 48.3226C42.1713 49.0845 42.3765 49.2749 42.8894 49.3422C44.4623 49.387 46.0466 49.4094 47.6082 49.5214C50.1727 49.6783 50.2753 50.7986 50.3665 51.9862C50.3893 53.6668 49.7852 54.2718 49.3293 54.5407C48.8848 54.7424 46.7989 54.9776 46.3886 54.9776C46.3886 54.9776 43.1743 54.9776 42.2397 54.9776C41.3165 54.9776 40.1538 54.8656 39.1394 54.5631C38.2276 54.3166 38.125 53.0618 38.125 51.9862Z" fill="#FFFFFF" fill-opacity="0.9"/>
<path d="M81.0272 46.0359H77.3798V54.9992H81.0272V46.0359Z" fill="#FFFFFF" fill-opacity="0.9"/>
<path d="M87.1024 46.0359H83.4777V54.9992H87.1024V46.0359Z" fill="#FFFFFF" fill-opacity="0.9"/>
<path d="M75.2256 50.2946C75.1687 50.0257 75.0889 49.7456 74.9749 49.4767C74.348 48.4794 72.2052 48.4795 70.1193 48.4234C68.535 48.4234 66.187 48.4683 65.5032 49.1293C65.2296 49.4319 65.07 49.8688 64.9902 50.2946C64.8876 50.8324 64.899 51.3702 64.899 51.6391C64.899 52.1097 64.9446 53.9024 65.8223 54.3618C66.6429 54.8885 69.1163 54.9557 70.0738 54.9557C71.0882 54.9557 73.8921 54.8436 74.3024 54.3842C75.0205 54.1153 75.1914 53.2414 75.3396 52.5355H71.7493C71.7493 53.2414 71.1908 53.6447 70.0623 53.6C69.0479 53.6447 68.4666 53.4319 68.4666 52.1769L75.3282 52.1994C75.3396 51.6055 75.3625 50.9444 75.2256 50.2946ZM71.7606 50.9221H68.4894C68.4894 50.6643 68.535 50.4515 68.592 50.3058C68.8313 49.7456 69.424 49.7232 70.0738 49.6896C71.0539 49.6896 71.4985 49.9248 71.6695 50.3058C71.7493 50.4739 71.7606 50.6868 71.7606 50.9221Z" fill="#FFFFFF" fill-opacity="0.9"/>
<path d="M52.5094 55H56.0997V51.1795C56.1909 50.6754 56.3163 50.2385 57.6271 50.2385C58.8808 50.216 59.2114 50.5521 59.2114 51.1795V55H62.7903V51.1795C62.7903 49.9471 62.7676 49.2637 61.9583 48.8939C61.2288 48.4234 60.1688 48.5019 59.1886 48.5019C58.1514 48.5019 56.9774 48.6363 56.0997 49.0396V46.0258H52.5094V55Z" fill="#FFFFFF" fill-opacity="0.9"/>
</svg>
