<?xml version="1.0"?>
<svg xmlns="http://www.w3.org/2000/svg" width="125" height="55" viewBox="0 0 125 55" fill="none">
<path d="M41.0223 5.04802L39.2549 6.33938L39.9619 7.27853L41.3758 6.22199H43.0254L43.5556 2.40662L39.9029 1.76094L39.5494 3.69797L40.7277 3.93276L40.8456 3.16969L42.1417 3.40448L41.906 4.98933L41.0223 5.04802ZM84.1475 6.28069L85.5613 7.33726L86.2682 6.39808L84.6188 5.04802H83.6763L83.44 3.46318L84.7363 3.22839L84.8544 3.99146L86.0326 3.75667L85.6788 1.81964L82.0263 2.46532L82.5566 6.28069H84.1475ZM28.5326 14.4397L27.7667 13.5005L26.824 14.2049L26.1171 13.3245L28.0023 11.9157L29.6519 14.0875V15.0267L27.4721 16.6702V20.0747L28.4736 21.3661L30.5946 19.7812V23.7727H28.4148L26.5295 26.4141L30.0054 33.3405H36.2503V32.1665L34.7774 29.2316H33.0689L32.4209 27.8815H36.3092V21.6009L37.6053 20.6617L42.5541 23.1857V26.5315L41.3758 28.1751L42.4951 30.4056H44.2037L45.0874 32.1665H40.9634L38.8425 27.8815L39.844 26.4141V23.714H37.4875V24.9466H38.5479V26.0032L37.3107 27.7641L40.0797 33.3405H46.3245V32.1078L44.8517 29.1729H43.1432L42.6719 28.2337L43.6734 26.8837V22.4226L38.6068 19.8399L40.6688 18.3138V19.8399H47.9152L49.6237 19.3116V26.8837L62.8204 31.9317L76.0171 26.8837V20.4856L77.8435 21.0139L85.0307 19.429V18.3138L87.0932 19.8399L82.0263 22.4226V26.8837L83.0281 28.2337L82.5566 29.1729H80.8481L79.3752 32.1078V33.3405H85.6201L88.3889 27.7641L87.152 26.0032V24.9466H88.2714V23.714H85.9738V26.4141L87.0338 27.8815L84.9132 32.1665H80.7892L81.6729 30.4056H83.3812L84.4419 28.1751L83.2638 26.5315V23.1857L88.212 20.6617L89.5083 21.6009V27.8229H93.3965L92.749 29.1729H91.0402L89.567 32.1078V33.3405H95.8122L99.2879 26.3554L97.4029 23.6553H95.2228V19.7225L97.3441 21.3074L98.3454 20.016V16.6115L96.1066 14.9093V13.9701L97.7566 11.7983L99.6417 13.2071L98.9348 14.0875L97.9923 13.3831L97.2854 14.3223L99.2292 15.7898L100.938 13.6179V12.6201L97.5797 10.096L94.9284 13.5592V15.4963L97.1672 17.1985V19.6051L92.9846 16.4941V14.0875L90.5102 12.2091L91.2171 11.27L87.682 8.62858L88.8014 8.04165L91.924 10.3896L91.2171 11.3287L93.4559 13.0309L94.1628 12.0331L91.924 10.3308L92.6309 9.39171L89.9208 7.39593V5.9872L93.279 8.51118L92.5721 9.45038L94.3984 10.8004L95.1053 9.86124L93.279 8.51118L93.9859 7.57206L89.9208 4.51974V3.11099L94.6928 6.6916L93.9859 7.63073L95.3409 8.62858L96.0478 7.63073L94.6928 6.63287L95.3997 5.6937L89.9208 1.58484V0H88.6839V1.35005L86.7982 1.70224L87.0338 2.8762L88.7426 2.58271V6.6916L85.4432 8.45252L83.9119 7.33726L83.2044 8.27639L84.265 9.09818L82.3209 10.1548L78.6683 8.33512L77.7257 5.635H76.2528V3.34579H49.6237V5.635H48.092L47.1494 8.33512L43.4967 10.1548L41.6114 9.09818L42.6719 8.27639L41.9649 7.33726L40.4331 8.45252L37.1929 6.6916V2.58271L38.9014 2.8762L39.137 1.70224L37.2518 1.35005V0H36.0146V1.58484L30.4767 5.6937L31.1837 6.63287L29.7109 7.63073L30.4178 8.56992L31.7729 7.57206L31.0658 6.63287L35.8379 3.0523V4.46104L31.7729 7.51333L32.4798 8.45252L30.6534 9.80257L31.3604 10.7417L33.1868 9.39171L32.4798 8.45252L35.8379 5.9285V7.33726L33.2457 9.39171L33.9527 10.3308L31.7139 12.0331L32.4209 13.0309L34.6596 11.3287L33.9527 10.3896L37.075 8.04165L38.1355 8.62858L34.6007 11.27L35.3076 12.2091L32.8333 14.0875V16.5528L28.6504 19.6638V17.2572L30.8891 15.555V13.6179L28.238 10.1548L24.8799 12.6787V13.6766L26.5295 15.8484L28.5326 14.4397ZM75.9582 6.86767H76.6063L77.4311 9.21558L80.7892 10.8591V13.6766L77.3132 11.0939H75.9582V6.86767ZM75.9582 12.3265H76.9008L80.7302 15.2028L78.1381 16.4354L77.49 14.6158H76.0171L75.9582 12.3265ZM44.7928 10.8591L48.1509 9.21558L48.9757 6.86767H49.6237V11.0939H48.2687L44.7928 13.6766V10.8591ZM49.6237 12.3265V13.3831H48.1509L47.5028 15.3789L45.0874 15.0267L48.6811 12.3265H49.6237ZM31.8317 18.9008L34.0705 17.1985V14.6745L36.427 12.9135L35.7201 11.9744L39.3138 9.27431L43.5556 11.5635V16.0246L48.2687 16.7289L48.9757 14.6158H50.802V4.57844H74.721V15.7898H76.5474L77.3132 18.079L81.9675 15.9072V11.5635L86.2095 9.27431L89.8033 11.9744L89.0958 12.9135L91.5115 14.6745V17.1398L93.7503 18.842V23.714H92.5721V24.9466H96.5191L97.6385 26.5315L94.8109 32.1665H90.6864L91.5702 30.4056H93.279L95.164 26.6489H90.5689V21.0139L85.2669 17.0811L86.4451 15.555L85.5026 14.8506L83.735 17.1985V18.5486L77.8435 19.8399L76.0171 19.3116V18.1964H74.78V26.0032L62.8204 30.6404L50.8609 26.0619V17.0224H49.6237V18.0203L47.7385 18.5486H41.906V17.0811L40.1386 14.7332L39.196 15.4376L40.3743 16.9637L35.072 20.8965V26.5315H30.4178L32.3031 30.2882H34.0115L34.8952 32.0491H30.7713L27.9434 26.4141L29.0628 24.8292H33.01V23.6553H31.8317V18.9008ZM28.238 44.1409C28.3558 43.8474 28.4736 43.4952 28.4736 43.2017V40.9125C28.4736 40.5603 28.4148 40.2668 28.238 39.9733C28.1202 39.7385 27.9434 39.5037 27.7077 39.3276C27.4721 39.1516 27.1775 39.0342 26.9419 38.9168C26.5884 38.7994 26.2938 38.7994 25.9403 38.7994H23.7605V45.3736H25.8225C26.176 45.3736 26.5295 45.3148 26.824 45.2562C27.1186 45.1974 27.4132 45.08 27.6489 44.8452C27.8845 44.6104 28.0613 44.3756 28.238 44.1409ZM27.2365 43.143C27.2365 43.3191 27.1775 43.4952 27.1186 43.6126C27.0597 43.73 26.9419 43.8474 26.824 43.9648C26.7062 44.0822 26.5295 44.1409 26.3528 44.1409C26.176 44.1996 25.9993 44.1996 25.8225 44.1996H24.9388V39.7972H25.9403C26.1171 39.7972 26.2938 39.7972 26.4706 39.8559C26.6473 39.9146 26.7652 39.9733 26.883 40.032C27.0008 40.0907 27.1186 40.2081 27.1775 40.3842C27.2365 40.5603 27.2954 40.6777 27.2954 40.8538L27.2365 43.143ZM73.6017 25.2402V5.7524H52.0392V25.2402L62.8204 29.349L73.6017 25.2402ZM70.3025 22.0117L68.8886 21.8357L69.0653 23.2444H67.7103L67.887 21.8943L66.4731 22.0705V20.7204L67.887 20.8965L67.7103 19.4877H69.0653L68.8886 20.8378L70.3025 20.6617V22.0117ZM70.3025 16.5528L68.8886 16.3767L69.0653 17.7855H67.7103L67.887 16.3767L66.4731 16.5528V15.2028L67.887 15.3789L67.7103 13.9701H69.0653L68.8886 15.3202L70.3025 15.1441V16.5528ZM67.0622 10.1548L66.7676 11.2113H68.1227L67.7103 10.1548L68.4172 8.98078L69.1242 10.1548L68.7118 11.2113H70.0079L69.7723 10.1548L70.8327 9.45038L70.597 11.27V12.3265H66.2374V11.2113L66.0018 9.45038L67.0622 10.1548ZM59.4034 22.0705L58.9321 22.3053C58.8143 22.3639 58.6375 22.4226 58.4608 22.4813C58.284 22.54 58.1662 22.5987 57.9895 22.5987C57.8128 22.6574 57.636 22.6574 57.4593 22.6574C57.1647 22.6574 56.9291 22.5987 56.6345 22.54C56.3988 22.4813 56.1632 22.3639 55.9864 22.2465C55.8097 22.1291 55.633 21.9531 55.574 21.7183C55.4562 21.4835 55.3973 21.2487 55.3973 20.9552V19.0181C55.3973 18.5486 55.574 18.079 55.9864 17.7855C56.1632 17.6681 56.3988 17.5507 56.6345 17.492C56.8701 17.4333 57.1647 17.3746 57.4004 17.3746C57.695 17.3746 58.0484 17.4333 58.343 17.5507C58.6375 17.6681 58.9321 17.8442 59.1677 18.0203L58.7554 18.7247C58.5786 18.5486 58.343 18.4312 58.1073 18.3725C57.9895 18.2551 57.7538 18.1964 57.5182 18.1964C57.4004 18.1964 57.2236 18.1964 57.1058 18.2551C56.9879 18.3138 56.8701 18.3138 56.7523 18.4312C56.6345 18.4899 56.5756 18.6073 56.5167 18.7247C56.4577 18.842 56.3988 18.9594 56.3988 19.0768V21.0139C56.3988 21.2487 56.5167 21.5422 56.7523 21.6595C56.8701 21.7183 56.9879 21.7769 57.1058 21.7769C57.2236 21.8357 57.4004 21.8357 57.5182 21.8357C57.695 21.8357 57.8717 21.8357 57.9895 21.7769C58.1662 21.7183 58.343 21.6595 58.4608 21.6009V20.4856H57.695V19.7225H59.4034V22.0705ZM59.5802 12.0918C59.5802 12.4439 59.4034 12.8549 59.1089 13.0309C58.9321 13.1483 58.8143 13.2071 58.6375 13.2657C58.4608 13.3245 58.2252 13.3245 58.0484 13.3245H56.7523V15.2615H55.7508V10.096H57.9306C58.1662 10.096 58.343 10.096 58.5787 10.1548C58.7554 10.2134 58.9321 10.2722 59.0499 10.3896C59.1677 10.507 59.2856 10.683 59.4034 10.8004C59.4623 10.9765 59.5213 11.2113 59.5213 11.3874L59.5802 12.0918ZM62.408 9.91997H63.1739V23.2444H62.408V9.91997ZM19.9901 42.6735H21.2272V44.0235C21.0505 44.1409 20.8738 44.1996 20.6381 44.2583C20.4614 44.317 20.2257 44.317 19.9901 44.317C19.8133 44.317 19.6366 44.317 19.4598 44.2583C19.2831 44.1996 19.1653 44.1409 18.9885 44.0822C18.8118 43.8474 18.635 43.5539 18.635 43.2604V40.7951C18.635 40.619 18.6939 40.5016 18.7529 40.3255C18.8118 40.2081 18.9296 40.0907 19.0474 39.9733C19.2242 39.9146 19.342 39.7972 19.5187 39.7972C19.6955 39.7385 19.8722 39.7385 20.049 39.7385C20.3435 39.7385 20.6381 39.7972 20.9327 39.9146C21.2272 40.032 21.4629 40.1494 21.7575 40.3842L22.2877 39.5037C21.9931 39.2102 21.6396 39.0342 21.2862 38.8581C20.9327 38.7407 20.5203 38.682 20.1079 38.682C19.7544 38.682 19.4598 38.7407 19.1063 38.7994C18.8118 38.8581 18.5172 39.0342 18.2816 39.2102C18.0459 39.3864 17.8102 39.6211 17.6924 39.8559C17.5746 40.1494 17.4568 40.4429 17.5157 40.7951V43.2604C17.5157 43.6126 17.5746 43.9061 17.6924 44.1996C17.8102 44.4344 17.987 44.6692 18.2226 44.8452C18.4583 45.0214 18.7529 45.1388 19.0474 45.2562C19.4009 45.3736 19.7544 45.3736 20.049 45.3736C20.2846 45.3736 20.5203 45.3736 20.697 45.3148C20.8738 45.2562 21.1094 45.2562 21.2862 45.1388C21.4629 45.08 21.6986 44.9626 21.8753 44.904L22.4644 44.5518V41.6169H19.9901V42.6735ZM57.9895 10.8591H56.7523V12.4439H57.9895C58.1662 12.4439 58.284 12.3853 58.4019 12.3265C58.5197 12.2679 58.6375 12.0918 58.5787 11.9744V11.3874C58.5787 11.2113 58.5197 11.0939 58.4019 10.9765C58.284 10.9178 58.1073 10.8591 57.9895 10.8591ZM32.5387 38.682H31.0658L28.886 45.2562H30.1822L30.6534 43.73H32.9511L33.4224 45.2562H34.6596L32.5387 38.682ZM31.007 42.7909L31.8317 39.9733L32.6566 42.7909H31.007ZM57.9895 45.3736C58.343 45.3736 58.6965 45.3148 58.9911 45.2562C59.2856 45.1974 59.5802 45.0214 59.8158 44.8452C60.0515 44.6692 60.2282 44.4344 60.346 44.1409C60.4639 43.8474 60.5228 43.4952 60.5228 43.2017V38.7407H59.3445V43.2017C59.3445 43.3778 59.2856 43.5539 59.2267 43.6713C59.1677 43.7887 59.0499 43.9061 58.9321 44.0235C58.8143 44.1409 58.6375 44.1996 58.4608 44.2583C58.284 44.317 58.1073 44.317 57.9306 44.317C57.7538 44.317 57.5771 44.317 57.4004 44.2583C57.2236 44.1996 57.1058 44.1409 56.9291 44.0822C56.8112 43.9648 56.6934 43.8474 56.6345 43.73C56.5756 43.5539 56.5167 43.3778 56.5167 43.2017V38.7407H55.3384V43.2017C55.3384 43.5539 55.3973 43.8474 55.5151 44.1409C55.633 44.4344 55.8097 44.6692 56.0454 44.8452C56.281 45.0214 56.5756 45.1974 56.8701 45.2562C57.3414 45.3148 57.636 45.3736 57.9895 45.3736ZM46.6191 44.317C46.7369 44.0235 46.8548 43.73 46.7959 43.4365C46.7959 43.143 46.7369 42.9083 46.678 42.6735C46.5602 42.4387 46.4424 42.2625 46.2657 42.0865C46.0889 41.9103 45.8532 41.7929 45.6176 41.6756C45.323 41.5582 45.0284 41.4408 44.7339 41.3821C44.5571 41.3234 44.4393 41.3234 44.2625 41.2647C44.0858 41.206 43.968 41.1473 43.7913 41.0886C43.6734 41.0299 43.5556 40.9125 43.4378 40.8538C43.32 40.7364 43.32 40.619 43.32 40.5016C43.32 40.3842 43.3788 40.2668 43.4378 40.1494C43.4967 40.032 43.6145 39.9733 43.7323 39.9146C43.8502 39.8559 43.968 39.7972 44.0859 39.7972C44.2037 39.7972 44.3804 39.7385 44.4982 39.7385C44.6161 39.7385 44.7928 39.7385 44.9106 39.7972C45.0284 39.8559 45.2052 39.9146 45.323 39.9733C45.4408 40.032 45.5586 40.0907 45.6765 40.1494C45.7943 40.2081 45.8532 40.2668 45.9711 40.3842L46.6191 39.5037C46.3245 39.269 46.03 39.0928 45.6765 38.9168C45.2641 38.7407 44.8517 38.682 44.4393 38.682C44.1447 38.682 43.7913 38.7407 43.4967 38.7994C43.2021 38.8581 42.9665 38.9754 42.7308 39.1516C42.4951 39.3276 42.3184 39.5037 42.2006 39.7385C42.0827 40.032 41.9649 40.3255 42.0239 40.619C42.0239 40.8538 42.0827 41.0886 42.1417 41.3234C42.2006 41.4995 42.3773 41.7343 42.5541 41.8517C42.7308 42.0277 42.9076 42.1451 43.1432 42.2625C43.3788 42.3799 43.6734 42.4973 43.968 42.5561L44.4982 42.6735C44.6749 42.7321 44.8517 42.7909 45.0284 42.8495C45.2052 42.9083 45.323 43.0256 45.4408 43.143C45.5586 43.2604 45.6176 43.3778 45.6176 43.5539C45.6176 43.6713 45.5586 43.8474 45.4998 43.9648C45.4408 44.0822 45.323 44.1409 45.2052 44.1996C45.0874 44.2583 44.9106 44.317 44.7928 44.317C44.6161 44.317 44.4982 44.3756 44.3215 44.3756C44.1447 44.3756 44.0269 44.3757 43.8502 44.317C43.6734 44.2583 43.5556 44.1996 43.3788 44.1409C43.2021 44.0822 43.0843 43.9648 42.9665 43.8474C42.8486 43.73 42.7308 43.6713 42.6719 43.4952L41.906 44.2583C42.0239 44.4344 42.2006 44.6104 42.3773 44.7866C42.5541 44.904 42.7308 45.08 42.9665 45.1388C43.2021 45.2562 43.4378 45.3148 43.6734 45.3736C43.9091 45.4322 44.2037 45.4322 44.4393 45.4322C44.7339 45.4322 45.0284 45.3736 45.382 45.3148C45.6765 45.2562 45.9122 45.1388 46.1478 44.9626C46.2657 44.7278 46.4424 44.5518 46.6191 44.317ZM67.1211 45.3148V38.7407H66.0607V44.0235L63.2917 38.7407H61.76V45.3148H62.8204V40.1494L65.4715 45.3148H67.1211ZM69.8901 38.7407H68.7118V45.3148H69.8901V38.7407ZM73.7784 43.9061L72.1288 38.7407H70.8916L73.0714 45.3148H74.5443L76.7241 38.7407H75.4869L73.7784 43.9061ZM81.4372 39.7972V38.7407H77.7257V45.3148H81.614V44.2583H78.9039V42.4387H81.0248V41.4408H78.9039V39.8559L81.4372 39.7972ZM86.0913 42.4973C86.4451 42.4387 86.7395 42.2039 86.9751 41.9691C87.2107 41.6756 87.3289 41.3234 87.3289 40.9712V40.5016C87.3876 39.9733 87.152 39.5037 86.7982 39.2102C86.3857 38.9168 85.8557 38.7407 85.3257 38.7994H82.8512V45.3148H84.0294V42.6735H84.8544L86.3269 45.3148H87.682L86.0913 42.4973ZM85.8557 41.4408C85.6788 41.5582 85.5026 41.6169 85.3257 41.5582H84.0294V39.7972H85.3257C85.5613 39.7972 85.7382 39.8559 85.9144 39.9733C86.0913 40.0907 86.1501 40.2668 86.1501 40.5016V40.9712C86.1501 41.1473 86.0326 41.3234 85.8557 41.4408ZM93.1021 44.317C93.2203 44.0822 93.279 43.7887 93.279 43.4952C93.279 43.2017 93.2203 42.9669 93.1609 42.7321C93.0434 42.4973 92.9252 42.3213 92.749 42.1451C92.5721 41.9691 92.3365 41.8517 92.1009 41.7343C91.8058 41.6169 91.5115 41.4995 91.2171 41.4408C91.0402 41.3821 90.8633 41.3821 90.7458 41.3234C90.5689 41.2647 90.4508 41.206 90.2746 41.1473C90.1564 41.0886 90.0389 40.9712 89.9208 40.9125C89.8033 40.7951 89.8033 40.6777 89.8033 40.5603C89.8033 40.4429 89.862 40.3255 89.9208 40.2081C89.9795 40.0907 90.0977 40.032 90.1564 39.9733C90.2746 39.9146 90.3921 39.8559 90.5102 39.8559C90.6277 39.8559 90.8046 39.7972 90.9221 39.7972C91.0402 39.7972 91.2171 39.7972 91.3346 39.8559C91.4527 39.9146 91.6296 39.9733 91.7471 40.032C91.8652 40.0907 91.9827 40.1494 92.1009 40.2081C92.2183 40.2668 92.2771 40.3255 92.3952 40.4429L93.0434 39.5624C92.749 39.3276 92.454 39.1516 92.1009 38.9755C91.6883 38.7994 91.2758 38.7407 90.8633 38.7407C90.5689 38.7407 90.2746 38.7994 89.9208 38.8581C89.6264 38.9168 89.3908 39.0342 89.1552 39.2102C88.9195 39.3864 88.7426 39.5624 88.6245 39.7972C88.507 40.032 88.4483 40.3255 88.4483 40.619C88.4483 40.8538 88.507 41.0886 88.5658 41.3234C88.6245 41.4995 88.8014 41.7343 88.9783 41.8517C89.1552 42.0277 89.3314 42.1451 89.567 42.2625C89.862 42.3799 90.0977 42.4973 90.3921 42.5561L90.9221 42.6735C91.0989 42.7321 91.2758 42.7909 91.4527 42.8495C91.6296 42.9083 91.7471 43.0256 91.8652 43.143C91.9827 43.2604 92.0415 43.3778 92.0415 43.5539C92.0415 43.6713 91.9827 43.8474 91.924 43.9648C91.8652 44.0822 91.7471 44.1409 91.6296 44.1996C91.5115 44.2583 91.3346 44.317 91.2171 44.317C91.0402 44.317 90.9221 44.3756 90.7458 44.3756C90.5689 44.3756 90.4508 44.3757 90.2746 44.317C90.0977 44.2583 89.9208 44.1996 89.8033 44.1409C89.6264 44.0822 89.5083 43.9648 89.3908 43.8474C89.2726 43.73 89.1552 43.6713 89.0958 43.4952L88.3301 44.2583C88.4483 44.4344 88.6245 44.6104 88.8014 44.7866C88.9783 44.9626 89.1552 45.08 89.3908 45.1388C89.6264 45.2562 89.862 45.3148 90.0977 45.3736C90.3333 45.4322 90.6277 45.4322 90.8633 45.4322C91.1577 45.4322 91.5115 45.3736 91.8058 45.3148C92.1009 45.2562 92.3365 45.1388 92.5721 44.9626C92.749 44.7278 92.9252 44.5518 93.1021 44.317ZM95.5766 45.2562V38.7407H94.3984V45.3148L95.5766 45.2562ZM96.5778 39.7972H98.5223V45.2562H99.7004V39.7972H101.704V38.7407H96.6372V39.7972H96.5778ZM106.77 38.7407L105.239 41.6756L103.707 38.7407H102.293L104.591 42.6735V45.2562H105.769V42.6735L108.125 38.682H106.77V38.7407ZM31.4193 48.8367C31.1837 48.6606 30.8891 48.4845 30.5946 48.4258C30.3 48.3085 29.9465 48.2497 29.6519 48.3085H29.4752C29.1217 48.3085 28.8271 48.3671 28.4736 48.4258C28.1791 48.4845 27.8845 48.6606 27.6489 48.8367C27.4132 49.0128 27.1775 49.2476 27.0597 49.4824C26.9419 49.7759 26.824 50.0694 26.824 50.3628V52.8282C26.824 53.1217 26.883 53.4739 27.0597 53.7673C27.1775 54.0021 27.4132 54.2369 27.6489 54.413C27.8845 54.5891 28.1791 54.7065 28.4736 54.8239C28.8271 54.9413 29.1217 54.9413 29.4752 54.9413H29.593C29.9465 54.9413 30.2411 54.8826 30.5946 54.8239C30.8891 54.7652 31.1837 54.5891 31.4193 54.413C31.655 54.2369 31.8907 54.0021 32.0085 53.7673C32.1263 53.4739 32.2441 53.1804 32.2441 52.8282V50.3628C32.2441 50.0694 32.1852 49.7759 32.0085 49.4824C31.8907 49.2476 31.655 49.0128 31.4193 48.8367ZM31.007 52.8869C31.007 53.063 30.948 53.2391 30.8891 53.3565C30.8302 53.4739 30.7124 53.5913 30.5946 53.7087C30.4767 53.826 30.3 53.8847 30.1232 53.8847C29.9465 53.9434 29.7697 53.9434 29.593 53.9434H29.4752C29.2985 53.9434 29.1217 53.9434 28.945 53.8847C28.7682 53.8261 28.6504 53.7673 28.4736 53.7087C28.3558 53.6499 28.238 53.5325 28.1791 53.3565C28.1202 53.2391 28.0613 53.063 28.0613 52.8869V50.4216C28.0613 50.2454 28.1202 50.128 28.1791 49.952C28.238 49.8346 28.3558 49.7172 28.4736 49.5998C28.5915 49.4824 28.7682 49.4237 28.945 49.4237C29.1217 49.365 29.2985 49.365 29.4752 49.365H29.6519C29.8287 49.365 30.0054 49.365 30.1822 49.4237C30.3589 49.4824 30.4767 49.5411 30.5946 49.6585C30.7124 49.7172 30.8302 49.8346 30.8891 50.0106C30.948 50.128 31.007 50.3042 31.007 50.4802V52.8869ZM33.4813 54.8826H34.6596V52.0651H36.7216V51.0672H34.6596V49.4237H37.134V48.3671H33.4224V54.8826H33.4813ZM39.5494 49.4237H41.4936V54.8826H42.6719V49.4237H44.6161V48.3671H39.5494V49.4237ZM46.9137 52.0651H49.0346V51.0672H46.9137V49.4824H49.3881V48.4258H45.7354V54.9413H49.6237V53.8847H46.9137V52.0651ZM53.9834 53.826C53.6888 53.9434 53.3942 53.9434 53.0997 53.9434C52.8051 53.9434 52.4516 53.8847 52.2159 53.7087C51.9803 53.5326 51.8036 53.2391 51.8624 52.8869V50.4216C51.8624 50.2454 51.8624 50.128 51.9803 49.952C52.0392 49.8346 52.157 49.7172 52.2749 49.5998C52.3927 49.4824 52.5695 49.4237 52.6873 49.4237C52.864 49.365 53.0407 49.365 53.1585 49.365C53.4531 49.365 53.7477 49.4237 53.9834 49.5411C54.219 49.6585 54.4547 49.8346 54.6314 50.0106L55.2795 49.1889C55.1616 49.0715 54.9849 48.8954 54.8081 48.778C54.6903 48.6606 54.5136 48.5432 54.3368 48.4845C54.1601 48.4258 53.9834 48.3671 53.8066 48.3085C53.571 48.2497 53.3353 48.2497 53.0997 48.2497C52.7461 48.2497 52.4516 48.3085 52.157 48.3671C51.8624 48.4259 51.6268 48.6019 51.3912 48.778C50.9198 49.1302 50.6253 49.7172 50.6842 50.3628V52.8282C50.6842 53.1217 50.7431 53.4739 50.8609 53.7673C50.9787 54.0021 51.1555 54.2369 51.3912 54.413C51.6268 54.5891 51.9214 54.7065 52.157 54.8239C52.4516 54.9413 52.8051 54.9413 53.1585 54.9413C53.571 54.9413 53.9834 54.8826 54.3368 54.7652C54.6903 54.6478 55.0438 54.4717 55.3384 54.1782L54.7493 53.3565C54.5136 53.5913 54.2779 53.7087 53.9834 53.826ZM60.2282 51.1846H57.5182V48.3671H56.3399V54.8826H57.5182V52.2412H60.2282V54.8826H61.4065V48.3671H60.2282V51.1846ZM67.1211 53.6499L64.3522 48.3671H62.8204V54.8826H63.8809V49.7172L66.532 54.8826H68.1816V48.3671H67.1211V53.6499ZM74.0141 48.8367C73.7784 48.6606 73.4839 48.4845 73.1893 48.4258C72.8947 48.3085 72.5412 48.2497 72.2466 48.3085H72.0699C71.7164 48.3085 71.4219 48.3671 71.0684 48.4258C70.7738 48.4845 70.4792 48.6606 70.2436 48.8367C70.0079 49.0128 69.7723 49.2476 69.6545 49.4824C69.5366 49.7759 69.4188 50.0694 69.4188 50.3628V52.8282C69.4188 53.1217 69.4777 53.4739 69.5955 53.7673C69.7133 54.0021 69.949 54.2369 70.1847 54.413C70.4203 54.5891 70.7149 54.7065 71.0095 54.8239C71.3629 54.9413 71.6575 54.9413 72.011 54.9413H72.2466C72.6002 54.9413 72.8947 54.8826 73.2482 54.8239C73.5427 54.7652 73.7784 54.5891 74.0141 54.413C74.2497 54.2369 74.4854 54.0021 74.6032 53.7673C74.721 53.4739 74.8388 53.1804 74.78 52.8282V50.3042C74.78 50.0107 74.721 49.7172 74.6032 49.4237C74.4265 49.2476 74.2497 49.0128 74.0141 48.8367ZM73.6017 52.8869C73.6017 53.063 73.5427 53.2391 73.4839 53.3565C73.4249 53.4739 73.3071 53.5913 73.1893 53.7087C73.0714 53.826 72.8947 53.8847 72.718 53.8847C72.5412 53.9434 72.3645 53.9434 72.1878 53.9434H72.0699C71.8931 53.9434 71.7164 53.9434 71.5397 53.8847C71.3629 53.8261 71.2451 53.7673 71.0684 53.7087C70.9506 53.6499 70.8327 53.5325 70.7738 53.3565C70.7149 53.2391 70.656 53.063 70.656 52.8869V50.4216C70.656 50.2454 70.7149 50.128 70.7738 49.952C70.8327 49.8346 70.9506 49.7172 71.0684 49.5998C71.1862 49.4824 71.3629 49.4237 71.5397 49.4237C71.7164 49.365 71.8931 49.365 72.0699 49.3063H72.2466C72.4234 49.3063 72.6002 49.3063 72.7768 49.365C72.9536 49.4237 73.0714 49.4824 73.1893 49.5998C73.3071 49.6585 73.4249 49.7759 73.4839 49.952C73.5427 50.0694 73.6017 50.2454 73.6017 50.4216V52.8869ZM77.2543 48.3671H76.0761V54.8826H80.2V53.826H77.2543V48.3671ZM85.3257 48.8367C85.09 48.6606 84.795 48.4845 84.5006 48.4258C84.2063 48.3085 83.8525 48.2497 83.5581 48.3085H83.44C83.0869 48.3085 82.7925 48.3671 82.4387 48.4258C82.1441 48.4845 81.8496 48.6606 81.614 48.8367C81.3783 49.0128 81.1426 49.2476 81.0248 49.4824C80.907 49.7759 80.7892 50.0694 80.7892 50.3628V52.8282C80.7892 53.1217 80.8481 53.4739 80.9659 53.7673C81.0838 54.0021 81.3194 54.2369 81.4961 54.413C81.7318 54.5891 82.0263 54.7065 82.3209 54.8239C82.6744 54.9413 82.9687 54.9413 83.3225 54.9413H83.44C83.7938 54.9413 84.0881 54.8826 84.4419 54.8239C84.7363 54.7652 85.0307 54.5891 85.2669 54.413C85.5026 54.2369 85.7382 54.0021 85.8557 53.7673C85.9738 53.4739 86.0913 53.1804 86.0326 52.8282V50.3628C86.0326 50.0694 85.9738 49.7759 85.7969 49.4824C85.7969 49.2476 85.5613 49.0128 85.3257 48.8367ZM84.9132 52.8869C84.9132 53.063 84.8544 53.2391 84.795 53.3565C84.7363 53.4739 84.6188 53.5913 84.5006 53.7087C84.3832 53.826 84.2063 53.8847 84.0881 53.8847C83.9119 53.9434 83.735 53.9434 83.5581 53.9434H83.44C83.2637 53.9434 83.0869 53.9434 82.91 53.8847C82.7331 53.8261 82.6155 53.7673 82.4387 53.7087C82.3209 53.6499 82.2031 53.5325 82.1441 53.3565C82.0853 53.2391 82.0263 53.063 82.0263 52.8869V50.4216C82.0263 50.2454 82.0853 50.128 82.1441 49.952C82.2031 49.8346 82.3209 49.7172 82.4387 49.5998C82.5566 49.4824 82.7331 49.4237 82.91 49.4237C83.0869 49.365 83.2637 49.365 83.44 49.3063H83.6169C83.7938 49.3063 83.9706 49.3063 84.1475 49.365C84.3238 49.4237 84.4419 49.4824 84.6188 49.5998C84.7363 49.6585 84.8544 49.7759 84.9132 49.952C84.9719 50.0694 85.0307 50.2454 85.0307 50.4216L84.9132 52.8869ZM89.8033 52.2412H91.0989V53.6499C90.9221 53.7673 90.7458 53.8261 90.5102 53.8847C90.3333 53.9434 90.0977 53.9434 89.862 53.9434C89.6852 53.9434 89.5083 53.9434 89.3314 53.8847C89.1552 53.8261 89.037 53.7673 88.8601 53.7087C88.7426 53.5913 88.6245 53.5325 88.5658 53.3565C88.507 53.1804 88.4483 53.063 88.4483 52.8869V50.4216C88.4483 50.2454 88.507 50.128 88.5658 49.952C88.6245 49.8346 88.7426 49.7172 88.8601 49.5998C88.9783 49.4824 89.1552 49.4237 89.3314 49.4237C89.5083 49.365 89.6852 49.365 89.862 49.365C90.1564 49.365 90.4508 49.4237 90.7458 49.5411C91.0402 49.6585 91.2758 49.7759 91.5702 50.0106L92.1009 49.1302C91.8058 48.8367 91.4527 48.6606 91.0989 48.4845C90.6864 48.3671 90.2746 48.3085 89.862 48.3085C89.5083 48.3085 89.2139 48.3671 88.8601 48.4258C88.5658 48.4845 88.2714 48.6606 88.0358 48.8367C87.5645 49.1889 87.2695 49.7759 87.2695 50.4216V52.8869C87.2695 53.2391 87.3289 53.5325 87.4464 53.826C87.5645 54.0608 87.7407 54.2956 87.9764 54.4717C88.212 54.6478 88.507 54.7652 88.8014 54.8826C89.1552 55 89.5083 55 89.8033 55C90.0389 55 90.2746 55 90.4508 54.9413C90.6277 54.8826 90.8633 54.8239 91.0402 54.7652C91.2171 54.7065 91.4527 54.5891 91.6296 54.5304L92.2183 54.1782V51.2433H89.7439L89.8033 52.2412ZM95.6941 51.2433L94.1628 48.3085H92.8077L95.1053 52.2412V54.8239H96.2835V52.2999L98.6398 48.3085H97.2854L95.6941 51.2433ZM47.9152 38.7407V45.3148H49.0935V42.4387H49.5059L51.509 45.3148H53.1585L50.5075 41.7929L52.9818 38.7994H51.3912L49.5059 41.2647H49.1524V38.7407H47.9152ZM40.8456 38.7407H39.7851V44.0235L37.0162 38.7407H35.4844V45.2562H36.5448V40.1494L39.196 45.3148H40.8456V38.7407ZM38.0177 39.0928H38.7247L39.6084 37.508H38.4301L38.0177 39.0928Z" fill="#FFFFFF" fill-opacity="0.9"/>
</svg>
